<?xml version="1.0" encoding="utf-8" standalone="no"?>
<!DOCTYPE svg PUBLIC "-//W3C//DTD SVG 1.1//EN"
  "http://www.w3.org/Graphics/SVG/1.1/DTD/svg11.dtd">
<!-- Created with matplotlib (https://matplotlib.org/) -->
<svg height="576pt" version="1.1" viewBox="0 0 576 576" width="576pt" xmlns="http://www.w3.org/2000/svg" xmlns:xlink="http://www.w3.org/1999/xlink">
 <defs>
  <style type="text/css">
*{stroke-linecap:butt;stroke-linejoin:round;}
  </style>
 </defs>
 <g id="figure_1">
  <g id="patch_1">
   <path d="M 0 576 
L 576 576 
L 576 0 
L 0 0 
z
" style="fill:#ffffff;"/>
  </g>
  <g id="axes_1">
   <g id="patch_2">
    <path d="M 69.12 173.622857 
L 547.2 173.622857 
L 547.2 28.8 
L 69.12 28.8 
z
" style="fill:#ffffff;"/>
   </g>
   <g id="patch_3">
    <path clip-path="url(#pc58b8549c0)" d="M 69.12 173.622857 
L 69.12 28.8 
L 162.787824 28.8 
L 162.787824 173.622857 
z
" style="opacity:0.1;stroke:#000000;stroke-linejoin:miter;"/>
   </g>
   <g id="patch_4">
    <path clip-path="url(#pc58b8549c0)" d="M 162.787824 173.622857 
L 162.787824 28.8 
L 232.135718 28.8 
L 232.135718 173.622857 
z
" style="opacity:0.25;stroke:#000000;stroke-linejoin:miter;"/>
   </g>
   <g id="patch_5">
    <path clip-path="url(#pc58b8549c0)" d="M 232.135718 173.622857 
L 232.135718 28.8 
L 247.74025 28.8 
L 247.74025 173.622857 
z
" style="opacity:0.4;stroke:#000000;stroke-linejoin:miter;"/>
   </g>
   <g id="patch_6">
    <path clip-path="url(#pc58b8549c0)" d="M 247.838256 173.622857 
L 247.838256 28.8 
L 262.26671 28.8 
L 262.26671 173.622857 
z
" style="opacity:0.1;stroke:#000000;stroke-linejoin:miter;"/>
   </g>
   <g id="patch_7">
    <path clip-path="url(#pc58b8549c0)" d="M 262.26671 173.622857 
L 262.26671 28.8 
L 332.016192 28.8 
L 332.016192 173.622857 
z
" style="opacity:0.25;stroke:#000000;stroke-linejoin:miter;"/>
   </g>
   <g id="patch_8">
    <path clip-path="url(#pc58b8549c0)" d="M 332.016192 173.622857 
L 332.016192 28.8 
L 347.618333 28.8 
L 347.618333 173.622857 
z
" style="opacity:0.4;stroke:#000000;stroke-linejoin:miter;"/>
   </g>
   <g id="patch_9">
    <path clip-path="url(#pc58b8549c0)" d="M 347.713949 173.622857 
L 347.713949 28.8 
L 362.077862 28.8 
L 362.077862 173.622857 
z
" style="opacity:0.1;stroke:#000000;stroke-linejoin:miter;"/>
   </g>
   <g id="patch_10">
    <path clip-path="url(#pc58b8549c0)" d="M 362.077862 173.622857 
L 362.077862 28.8 
L 431.535715 28.8 
L 431.535715 173.622857 
z
" style="opacity:0.25;stroke:#000000;stroke-linejoin:miter;"/>
   </g>
   <g id="patch_11">
    <path clip-path="url(#pc58b8549c0)" d="M 431.535715 173.622857 
L 431.535715 28.8 
L 447.130684 28.8 
L 447.130684 173.622857 
z
" style="opacity:0.4;stroke:#000000;stroke-linejoin:miter;"/>
   </g>
   <g id="matplotlib.axis_1">
    <g id="xtick_1">
     <g id="line2d_1">
      <defs>
       <path d="M 0 0 
L 0 3.5 
" id="mb55d92b2ec" style="stroke:#000000;stroke-width:0.8;"/>
      </defs>
      <g>
       <use style="stroke:#000000;stroke-width:0.8;" x="69.12" xlink:href="#mb55d92b2ec" y="173.622857"/>
      </g>
     </g>
     <g id="text_1">
      <!-- 0 -->
      <defs>
       <path d="M 31.78125 66.40625 
Q 24.171875 66.40625 20.328125 58.90625 
Q 16.5 51.421875 16.5 36.375 
Q 16.5 21.390625 20.328125 13.890625 
Q 24.171875 6.390625 31.78125 6.390625 
Q 39.453125 6.390625 43.28125 13.890625 
Q 47.125 21.390625 47.125 36.375 
Q 47.125 51.421875 43.28125 58.90625 
Q 39.453125 66.40625 31.78125 66.40625 
z
M 31.78125 74.21875 
Q 44.046875 74.21875 50.515625 64.515625 
Q 56.984375 54.828125 56.984375 36.375 
Q 56.984375 17.96875 50.515625 8.265625 
Q 44.046875 -1.421875 31.78125 -1.421875 
Q 19.53125 -1.421875 13.0625 8.265625 
Q 6.59375 17.96875 6.59375 36.375 
Q 6.59375 54.828125 13.0625 64.515625 
Q 19.53125 74.21875 31.78125 74.21875 
z
" id="DejaVuSans-48"/>
      </defs>
      <g transform="translate(66.256875 187.461451)scale(0.09 -0.09)">
       <use xlink:href="#DejaVuSans-48"/>
      </g>
     </g>
    </g>
    <g id="xtick_2">
     <g id="line2d_2">
      <g>
       <use style="stroke:#000000;stroke-width:0.8;" x="128.88" xlink:href="#mb55d92b2ec" y="173.622857"/>
      </g>
     </g>
     <g id="text_2">
      <!-- 25 -->
      <defs>
       <path d="M 19.1875 8.296875 
L 53.609375 8.296875 
L 53.609375 0 
L 7.328125 0 
L 7.328125 8.296875 
Q 12.9375 14.109375 22.625 23.890625 
Q 32.328125 33.6875 34.8125 36.53125 
Q 39.546875 41.84375 41.421875 45.53125 
Q 43.3125 49.21875 43.3125 52.78125 
Q 43.3125 58.59375 39.234375 62.25 
Q 35.15625 65.921875 28.609375 65.921875 
Q 23.96875 65.921875 18.8125 64.3125 
Q 13.671875 62.703125 7.8125 59.421875 
L 7.8125 69.390625 
Q 13.765625 71.78125 18.9375 73 
Q 24.125 74.21875 28.421875 74.21875 
Q 39.75 74.21875 46.484375 68.546875 
Q 53.21875 62.890625 53.21875 53.421875 
Q 53.21875 48.921875 51.53125 44.890625 
Q 49.859375 40.875 45.40625 35.40625 
Q 44.1875 33.984375 37.640625 27.21875 
Q 31.109375 20.453125 19.1875 8.296875 
z
" id="DejaVuSans-50"/>
       <path d="M 10.796875 72.90625 
L 49.515625 72.90625 
L 49.515625 64.59375 
L 19.828125 64.59375 
L 19.828125 46.734375 
Q 21.96875 47.46875 24.109375 47.828125 
Q 26.265625 48.1875 28.421875 48.1875 
Q 40.625 48.1875 47.75 41.5 
Q 54.890625 34.8125 54.890625 23.390625 
Q 54.890625 11.625 47.5625 5.09375 
Q 40.234375 -1.421875 26.90625 -1.421875 
Q 22.3125 -1.421875 17.546875 -0.640625 
Q 12.796875 0.140625 7.71875 1.703125 
L 7.71875 11.625 
Q 12.109375 9.234375 16.796875 8.0625 
Q 21.484375 6.890625 26.703125 6.890625 
Q 35.15625 6.890625 40.078125 11.328125 
Q 45.015625 15.765625 45.015625 23.390625 
Q 45.015625 31 40.078125 35.4375 
Q 35.15625 39.890625 26.703125 39.890625 
Q 22.75 39.890625 18.8125 39.015625 
Q 14.890625 38.140625 10.796875 36.28125 
z
" id="DejaVuSans-53"/>
      </defs>
      <g transform="translate(123.15375 187.461451)scale(0.09 -0.09)">
       <use xlink:href="#DejaVuSans-50"/>
       <use x="63.623047" xlink:href="#DejaVuSans-53"/>
      </g>
     </g>
    </g>
    <g id="xtick_3">
     <g id="line2d_3">
      <g>
       <use style="stroke:#000000;stroke-width:0.8;" x="188.64" xlink:href="#mb55d92b2ec" y="173.622857"/>
      </g>
     </g>
     <g id="text_3">
      <!-- 50 -->
      <g transform="translate(182.91375 187.461451)scale(0.09 -0.09)">
       <use xlink:href="#DejaVuSans-53"/>
       <use x="63.623047" xlink:href="#DejaVuSans-48"/>
      </g>
     </g>
    </g>
    <g id="xtick_4">
     <g id="line2d_4">
      <g>
       <use style="stroke:#000000;stroke-width:0.8;" x="248.4" xlink:href="#mb55d92b2ec" y="173.622857"/>
      </g>
     </g>
     <g id="text_4">
      <!-- 75 -->
      <defs>
       <path d="M 8.203125 72.90625 
L 55.078125 72.90625 
L 55.078125 68.703125 
L 28.609375 0 
L 18.3125 0 
L 43.21875 64.59375 
L 8.203125 64.59375 
z
" id="DejaVuSans-55"/>
      </defs>
      <g transform="translate(242.67375 187.461451)scale(0.09 -0.09)">
       <use xlink:href="#DejaVuSans-55"/>
       <use x="63.623047" xlink:href="#DejaVuSans-53"/>
      </g>
     </g>
    </g>
    <g id="xtick_5">
     <g id="line2d_5">
      <g>
       <use style="stroke:#000000;stroke-width:0.8;" x="308.16" xlink:href="#mb55d92b2ec" y="173.622857"/>
      </g>
     </g>
     <g id="text_5">
      <!-- 100 -->
      <defs>
       <path d="M 12.40625 8.296875 
L 28.515625 8.296875 
L 28.515625 63.921875 
L 10.984375 60.40625 
L 10.984375 69.390625 
L 28.421875 72.90625 
L 38.28125 72.90625 
L 38.28125 8.296875 
L 54.390625 8.296875 
L 54.390625 0 
L 12.40625 0 
z
" id="DejaVuSans-49"/>
      </defs>
      <g transform="translate(299.570625 187.461451)scale(0.09 -0.09)">
       <use xlink:href="#DejaVuSans-49"/>
       <use x="63.623047" xlink:href="#DejaVuSans-48"/>
       <use x="127.246094" xlink:href="#DejaVuSans-48"/>
      </g>
     </g>
    </g>
    <g id="xtick_6">
     <g id="line2d_6">
      <g>
       <use style="stroke:#000000;stroke-width:0.8;" x="367.92" xlink:href="#mb55d92b2ec" y="173.622857"/>
      </g>
     </g>
     <g id="text_6">
      <!-- 125 -->
      <g transform="translate(359.330625 187.461451)scale(0.09 -0.09)">
       <use xlink:href="#DejaVuSans-49"/>
       <use x="63.623047" xlink:href="#DejaVuSans-50"/>
       <use x="127.246094" xlink:href="#DejaVuSans-53"/>
      </g>
     </g>
    </g>
    <g id="xtick_7">
     <g id="line2d_7">
      <g>
       <use style="stroke:#000000;stroke-width:0.8;" x="427.68" xlink:href="#mb55d92b2ec" y="173.622857"/>
      </g>
     </g>
     <g id="text_7">
      <!-- 150 -->
      <g transform="translate(419.090625 187.461451)scale(0.09 -0.09)">
       <use xlink:href="#DejaVuSans-49"/>
       <use x="63.623047" xlink:href="#DejaVuSans-53"/>
       <use x="127.246094" xlink:href="#DejaVuSans-48"/>
      </g>
     </g>
    </g>
    <g id="xtick_8">
     <g id="line2d_8">
      <g>
       <use style="stroke:#000000;stroke-width:0.8;" x="487.44" xlink:href="#mb55d92b2ec" y="173.622857"/>
      </g>
     </g>
     <g id="text_8">
      <!-- 175 -->
      <g transform="translate(478.850625 187.461451)scale(0.09 -0.09)">
       <use xlink:href="#DejaVuSans-49"/>
       <use x="63.623047" xlink:href="#DejaVuSans-55"/>
       <use x="127.246094" xlink:href="#DejaVuSans-53"/>
      </g>
     </g>
    </g>
    <g id="xtick_9">
     <g id="line2d_9">
      <g>
       <use style="stroke:#000000;stroke-width:0.8;" x="547.2" xlink:href="#mb55d92b2ec" y="173.622857"/>
      </g>
     </g>
     <g id="text_9">
      <!-- 200 -->
      <g transform="translate(538.610625 187.461451)scale(0.09 -0.09)">
       <use xlink:href="#DejaVuSans-50"/>
       <use x="63.623047" xlink:href="#DejaVuSans-48"/>
       <use x="127.246094" xlink:href="#DejaVuSans-48"/>
      </g>
     </g>
    </g>
   </g>
   <g id="matplotlib.axis_2">
    <g id="ytick_1">
     <g id="line2d_10">
      <defs>
       <path d="M 0 0 
L -3.5 0 
" id="m46a566bdbf" style="stroke:#000000;stroke-width:0.8;"/>
      </defs>
      <g>
       <use style="stroke:#000000;stroke-width:0.8;" x="69.12" xlink:href="#m46a566bdbf" y="167.04"/>
      </g>
     </g>
     <g id="text_10">
      <!-- 0 -->
      <g transform="translate(56.39375 170.459297)scale(0.09 -0.09)">
       <use xlink:href="#DejaVuSans-48"/>
      </g>
     </g>
    </g>
    <g id="ytick_2">
     <g id="line2d_11">
      <g>
       <use style="stroke:#000000;stroke-width:0.8;" x="69.12" xlink:href="#m46a566bdbf" y="142.530447"/>
      </g>
     </g>
     <g id="text_11">
      <!-- 50 -->
      <g transform="translate(50.6675 145.949744)scale(0.09 -0.09)">
       <use xlink:href="#DejaVuSans-53"/>
       <use x="63.623047" xlink:href="#DejaVuSans-48"/>
      </g>
     </g>
    </g>
    <g id="ytick_3">
     <g id="line2d_12">
      <g>
       <use style="stroke:#000000;stroke-width:0.8;" x="69.12" xlink:href="#m46a566bdbf" y="118.020893"/>
      </g>
     </g>
     <g id="text_12">
      <!-- 100 -->
      <g transform="translate(44.94125 121.44019)scale(0.09 -0.09)">
       <use xlink:href="#DejaVuSans-49"/>
       <use x="63.623047" xlink:href="#DejaVuSans-48"/>
       <use x="127.246094" xlink:href="#DejaVuSans-48"/>
      </g>
     </g>
    </g>
    <g id="ytick_4">
     <g id="line2d_13">
      <g>
       <use style="stroke:#000000;stroke-width:0.8;" x="69.12" xlink:href="#m46a566bdbf" y="93.51134"/>
      </g>
     </g>
     <g id="text_13">
      <!-- 150 -->
      <g transform="translate(44.94125 96.930637)scale(0.09 -0.09)">
       <use xlink:href="#DejaVuSans-49"/>
       <use x="63.623047" xlink:href="#DejaVuSans-53"/>
       <use x="127.246094" xlink:href="#DejaVuSans-48"/>
      </g>
     </g>
    </g>
    <g id="ytick_5">
     <g id="line2d_14">
      <g>
       <use style="stroke:#000000;stroke-width:0.8;" x="69.12" xlink:href="#m46a566bdbf" y="69.001787"/>
      </g>
     </g>
     <g id="text_14">
      <!-- 200 -->
      <g transform="translate(44.94125 72.421084)scale(0.09 -0.09)">
       <use xlink:href="#DejaVuSans-50"/>
       <use x="63.623047" xlink:href="#DejaVuSans-48"/>
       <use x="127.246094" xlink:href="#DejaVuSans-48"/>
      </g>
     </g>
    </g>
    <g id="ytick_6">
     <g id="line2d_15">
      <g>
       <use style="stroke:#000000;stroke-width:0.8;" x="69.12" xlink:href="#m46a566bdbf" y="44.492233"/>
      </g>
     </g>
     <g id="text_15">
      <!-- 250 -->
      <g transform="translate(44.94125 47.91153)scale(0.09 -0.09)">
       <use xlink:href="#DejaVuSans-50"/>
       <use x="63.623047" xlink:href="#DejaVuSans-53"/>
       <use x="127.246094" xlink:href="#DejaVuSans-48"/>
      </g>
     </g>
    </g>
   </g>
   <g id="line2d_16">
    <path clip-path="url(#pc58b8549c0)" d="M 69.12 35.382857 
L 577 35.382857 
L 577 35.382857 
" style="fill:none;stroke:#000000;stroke-dasharray:1,1.65;stroke-dashoffset:0;"/>
   </g>
   <g id="line2d_17">
    <path clip-path="url(#pc58b8549c0)" d="M 69.12 163.512298 
L 95.4144 157.985322 
L 162.3456 143.925402 
L 167.1264 143.866274 
L 231.6672 143.866276 
L 234.0576 142.550668 
L 246.0096 134.978424 
L 248.4 143.38576 
L 260.352 135.236118 
L 262.7424 134.039914 
L 329.6736 134.040124 
L 332.064 133.916011 
L 346.4064 124.886786 
L 348.7968 133.201302 
L 360.7488 125.020128 
L 363.1392 124.214049 
L 430.0704 124.213935 
L 432.4608 123.532215 
L 446.8032 114.495849 
L 449.1936 124.222914 
L 577 124.223285 
L 577 124.223285 
" style="fill:none;stroke:#008000;stroke-linecap:square;"/>
   </g>
   <g id="line2d_18">
    <path clip-path="url(#pc58b8549c0)" d="M 69.12 164.470033 
L 131.2704 157.958134 
L 162.3456 154.701412 
L 174.2976 154.673921 
L 231.6672 154.673919 
L 234.0576 153.361076 
L 246.0096 145.806344 
L 248.4 144.870095 
L 329.6736 144.870091 
L 332.064 144.746658 
L 346.4064 135.737606 
L 348.7968 135.066268 
L 430.0704 135.066266 
L 432.4608 134.386064 
L 446.8032 125.36987 
L 451.584 125.262432 
L 577 125.262428 
L 577 125.262428 
" style="fill:none;stroke:#bf00bf;stroke-linecap:square;"/>
   </g>
   <g id="line2d_19">
    <path clip-path="url(#pc58b8549c0)" d="M 69.12 167.039988 
L 231.6672 167.039994 
L 234.0576 165.727251 
L 243.6192 159.648101 
L 246.0096 158.281384 
L 248.4 157.491119 
L 260.352 157.563981 
L 332.064 165.023138 
L 346.4064 157.531398 
L 348.7968 157.114106 
L 351.1872 157.236174 
L 410.9472 157.236172 
L 418.1184 157.945501 
L 430.0704 159.209915 
L 432.4608 158.78357 
L 446.8032 151.286098 
L 449.1936 151.429207 
L 504.1728 157.246377 
L 508.9536 157.304024 
L 516.1248 157.304024 
L 520.9056 157.752995 
L 577 163.686299 
L 577 163.686299 
" style="fill:none;stroke:#ff0000;stroke-linecap:square;"/>
   </g>
   <g id="line2d_20">
    <path clip-path="url(#pc58b8549c0)" d="M 69.12 36.340605 
L 114.5376 41.127268 
L 162.3456 46.158871 
L 171.9072 46.190498 
L 231.6672 46.190506 
L 234.0576 47.506014 
L 243.6192 53.599057 
L 246.0096 54.969394 
L 248.4 46.416073 
L 260.352 54.492853 
L 262.7424 55.437319 
L 329.6736 48.358106 
L 332.064 48.230366 
L 346.4064 55.742279 
L 348.7968 47.173717 
L 351.1872 48.677795 
L 360.7488 55.232822 
L 363.1392 56.0389 
L 410.9472 56.038935 
L 418.1184 55.329699 
L 430.0704 54.065273 
L 432.4608 54.493136 
L 446.8032 62.010781 
L 449.1936 52.033168 
L 504.1728 46.215687 
L 508.9536 46.158016 
L 516.1248 46.158008 
L 520.9056 45.709145 
L 577 39.775701 
L 577 39.775701 
" style="fill:none;stroke:#0000ff;stroke-linecap:square;"/>
   </g>
   <g id="line2d_21">
    <path clip-path="url(#pc58b8549c0)" d="M 69.12 114.760242 
L 167.1264 118.700203 
L 231.6672 118.700203 
L 236.448 119.837714 
L 246.0096 122.211757 
L 248.4 118.790429 
L 260.352 122.021141 
L 262.7424 122.398927 
L 332.064 119.516146 
L 346.4064 122.520912 
L 348.7968 119.093487 
L 355.968 121.008599 
L 360.7488 122.317129 
L 363.1392 122.63956 
L 413.3376 122.5579 
L 430.0704 121.850109 
L 432.4608 122.021254 
L 446.8032 125.028313 
L 449.1936 121.037267 
L 506.5632 118.687208 
L 518.5152 118.609214 
L 577 116.13428 
L 577 116.13428 
" style="fill:none;stroke:#000000;stroke-dasharray:6.4,1.6,1,1.6;stroke-dashoffset:0;"/>
   </g>
   <g id="patch_12">
    <path d="M 69.12 173.622857 
L 69.12 28.8 
" style="fill:none;stroke:#000000;stroke-linecap:square;stroke-linejoin:miter;stroke-width:0.8;"/>
   </g>
   <g id="patch_13">
    <path d="M 547.2 173.622857 
L 547.2 28.8 
" style="fill:none;stroke:#000000;stroke-linecap:square;stroke-linejoin:miter;stroke-width:0.8;"/>
   </g>
   <g id="patch_14">
    <path d="M 69.12 173.622857 
L 547.2 173.622857 
" style="fill:none;stroke:#000000;stroke-linecap:square;stroke-linejoin:miter;stroke-width:0.8;"/>
   </g>
   <g id="patch_15">
    <path d="M 69.12 28.8 
L 547.2 28.8 
" style="fill:none;stroke:#000000;stroke-linecap:square;stroke-linejoin:miter;stroke-width:0.8;"/>
   </g>
   <g id="text_16">
    <!-- Real execution -->
    <defs>
     <path d="M 44.390625 34.1875 
Q 47.5625 33.109375 50.5625 29.59375 
Q 53.5625 26.078125 56.59375 19.921875 
L 66.609375 0 
L 56 0 
L 46.6875 18.703125 
Q 43.0625 26.03125 39.671875 28.421875 
Q 36.28125 30.8125 30.421875 30.8125 
L 19.671875 30.8125 
L 19.671875 0 
L 9.8125 0 
L 9.8125 72.90625 
L 32.078125 72.90625 
Q 44.578125 72.90625 50.734375 67.671875 
Q 56.890625 62.453125 56.890625 51.90625 
Q 56.890625 45.015625 53.6875 40.46875 
Q 50.484375 35.9375 44.390625 34.1875 
z
M 19.671875 64.796875 
L 19.671875 38.921875 
L 32.078125 38.921875 
Q 39.203125 38.921875 42.84375 42.21875 
Q 46.484375 45.515625 46.484375 51.90625 
Q 46.484375 58.296875 42.84375 61.546875 
Q 39.203125 64.796875 32.078125 64.796875 
z
" id="DejaVuSans-82"/>
     <path d="M 56.203125 29.59375 
L 56.203125 25.203125 
L 14.890625 25.203125 
Q 15.484375 15.921875 20.484375 11.0625 
Q 25.484375 6.203125 34.421875 6.203125 
Q 39.59375 6.203125 44.453125 7.46875 
Q 49.3125 8.734375 54.109375 11.28125 
L 54.109375 2.78125 
Q 49.265625 0.734375 44.1875 -0.34375 
Q 39.109375 -1.421875 33.890625 -1.421875 
Q 20.796875 -1.421875 13.15625 6.1875 
Q 5.515625 13.8125 5.515625 26.8125 
Q 5.515625 40.234375 12.765625 48.109375 
Q 20.015625 56 32.328125 56 
Q 43.359375 56 49.78125 48.890625 
Q 56.203125 41.796875 56.203125 29.59375 
z
M 47.21875 32.234375 
Q 47.125 39.59375 43.09375 43.984375 
Q 39.0625 48.390625 32.421875 48.390625 
Q 24.90625 48.390625 20.390625 44.140625 
Q 15.875 39.890625 15.1875 32.171875 
z
" id="DejaVuSans-101"/>
     <path d="M 34.28125 27.484375 
Q 23.390625 27.484375 19.1875 25 
Q 14.984375 22.515625 14.984375 16.5 
Q 14.984375 11.71875 18.140625 8.90625 
Q 21.296875 6.109375 26.703125 6.109375 
Q 34.1875 6.109375 38.703125 11.40625 
Q 43.21875 16.703125 43.21875 25.484375 
L 43.21875 27.484375 
z
M 52.203125 31.203125 
L 52.203125 0 
L 43.21875 0 
L 43.21875 8.296875 
Q 40.140625 3.328125 35.546875 0.953125 
Q 30.953125 -1.421875 24.3125 -1.421875 
Q 15.921875 -1.421875 10.953125 3.296875 
Q 6 8.015625 6 15.921875 
Q 6 25.140625 12.171875 29.828125 
Q 18.359375 34.515625 30.609375 34.515625 
L 43.21875 34.515625 
L 43.21875 35.40625 
Q 43.21875 41.609375 39.140625 45 
Q 35.0625 48.390625 27.6875 48.390625 
Q 23 48.390625 18.546875 47.265625 
Q 14.109375 46.140625 10.015625 43.890625 
L 10.015625 52.203125 
Q 14.9375 54.109375 19.578125 55.046875 
Q 24.21875 56 28.609375 56 
Q 40.484375 56 46.34375 49.84375 
Q 52.203125 43.703125 52.203125 31.203125 
z
" id="DejaVuSans-97"/>
     <path d="M 9.421875 75.984375 
L 18.40625 75.984375 
L 18.40625 0 
L 9.421875 0 
z
" id="DejaVuSans-108"/>
     <path id="DejaVuSans-32"/>
     <path d="M 54.890625 54.6875 
L 35.109375 28.078125 
L 55.90625 0 
L 45.3125 0 
L 29.390625 21.484375 
L 13.484375 0 
L 2.875 0 
L 24.125 28.609375 
L 4.6875 54.6875 
L 15.28125 54.6875 
L 29.78125 35.203125 
L 44.28125 54.6875 
z
" id="DejaVuSans-120"/>
     <path d="M 48.78125 52.59375 
L 48.78125 44.1875 
Q 44.96875 46.296875 41.140625 47.34375 
Q 37.3125 48.390625 33.40625 48.390625 
Q 24.65625 48.390625 19.8125 42.84375 
Q 14.984375 37.3125 14.984375 27.296875 
Q 14.984375 17.28125 19.8125 11.734375 
Q 24.65625 6.203125 33.40625 6.203125 
Q 37.3125 6.203125 41.140625 7.25 
Q 44.96875 8.296875 48.78125 10.40625 
L 48.78125 2.09375 
Q 45.015625 0.34375 40.984375 -0.53125 
Q 36.96875 -1.421875 32.421875 -1.421875 
Q 20.0625 -1.421875 12.78125 6.34375 
Q 5.515625 14.109375 5.515625 27.296875 
Q 5.515625 40.671875 12.859375 48.328125 
Q 20.21875 56 33.015625 56 
Q 37.15625 56 41.109375 55.140625 
Q 45.0625 54.296875 48.78125 52.59375 
z
" id="DejaVuSans-99"/>
     <path d="M 8.5 21.578125 
L 8.5 54.6875 
L 17.484375 54.6875 
L 17.484375 21.921875 
Q 17.484375 14.15625 20.5 10.265625 
Q 23.53125 6.390625 29.59375 6.390625 
Q 36.859375 6.390625 41.078125 11.03125 
Q 45.3125 15.671875 45.3125 23.6875 
L 45.3125 54.6875 
L 54.296875 54.6875 
L 54.296875 0 
L 45.3125 0 
L 45.3125 8.40625 
Q 42.046875 3.421875 37.71875 1 
Q 33.40625 -1.421875 27.6875 -1.421875 
Q 18.265625 -1.421875 13.375 4.4375 
Q 8.5 10.296875 8.5 21.578125 
z
M 31.109375 56 
z
" id="DejaVuSans-117"/>
     <path d="M 18.3125 70.21875 
L 18.3125 54.6875 
L 36.8125 54.6875 
L 36.8125 47.703125 
L 18.3125 47.703125 
L 18.3125 18.015625 
Q 18.3125 11.328125 20.140625 9.421875 
Q 21.96875 7.515625 27.59375 7.515625 
L 36.8125 7.515625 
L 36.8125 0 
L 27.59375 0 
Q 17.1875 0 13.234375 3.875 
Q 9.28125 7.765625 9.28125 18.015625 
L 9.28125 47.703125 
L 2.6875 47.703125 
L 2.6875 54.6875 
L 9.28125 54.6875 
L 9.28125 70.21875 
z
" id="DejaVuSans-116"/>
     <path d="M 9.421875 54.6875 
L 18.40625 54.6875 
L 18.40625 0 
L 9.421875 0 
z
M 9.421875 75.984375 
L 18.40625 75.984375 
L 18.40625 64.59375 
L 9.421875 64.59375 
z
" id="DejaVuSans-105"/>
     <path d="M 30.609375 48.390625 
Q 23.390625 48.390625 19.1875 42.75 
Q 14.984375 37.109375 14.984375 27.296875 
Q 14.984375 17.484375 19.15625 11.84375 
Q 23.34375 6.203125 30.609375 6.203125 
Q 37.796875 6.203125 41.984375 11.859375 
Q 46.1875 17.53125 46.1875 27.296875 
Q 46.1875 37.015625 41.984375 42.703125 
Q 37.796875 48.390625 30.609375 48.390625 
z
M 30.609375 56 
Q 42.328125 56 49.015625 48.375 
Q 55.71875 40.765625 55.71875 27.296875 
Q 55.71875 13.875 49.015625 6.21875 
Q 42.328125 -1.421875 30.609375 -1.421875 
Q 18.84375 -1.421875 12.171875 6.21875 
Q 5.515625 13.875 5.515625 27.296875 
Q 5.515625 40.765625 12.171875 48.375 
Q 18.84375 56 30.609375 56 
z
" id="DejaVuSans-111"/>
     <path d="M 54.890625 33.015625 
L 54.890625 0 
L 45.90625 0 
L 45.90625 32.71875 
Q 45.90625 40.484375 42.875 44.328125 
Q 39.84375 48.1875 33.796875 48.1875 
Q 26.515625 48.1875 22.3125 43.546875 
Q 18.109375 38.921875 18.109375 30.90625 
L 18.109375 0 
L 9.078125 0 
L 9.078125 54.6875 
L 18.109375 54.6875 
L 18.109375 46.1875 
Q 21.34375 51.125 25.703125 53.5625 
Q 30.078125 56 35.796875 56 
Q 45.21875 56 50.046875 50.171875 
Q 54.890625 44.34375 54.890625 33.015625 
z
" id="DejaVuSans-110"/>
    </defs>
    <g transform="translate(270.965469 22.8)scale(0.1 -0.1)">
     <use xlink:href="#DejaVuSans-82"/>
     <use x="69.419922" xlink:href="#DejaVuSans-101"/>
     <use x="130.943359" xlink:href="#DejaVuSans-97"/>
     <use x="192.222656" xlink:href="#DejaVuSans-108"/>
     <use x="220.005859" xlink:href="#DejaVuSans-32"/>
     <use x="251.792969" xlink:href="#DejaVuSans-101"/>
     <use x="313.300781" xlink:href="#DejaVuSans-120"/>
     <use x="372.433594" xlink:href="#DejaVuSans-101"/>
     <use x="433.957031" xlink:href="#DejaVuSans-99"/>
     <use x="488.9375" xlink:href="#DejaVuSans-117"/>
     <use x="552.316406" xlink:href="#DejaVuSans-116"/>
     <use x="591.525391" xlink:href="#DejaVuSans-105"/>
     <use x="619.308594" xlink:href="#DejaVuSans-111"/>
     <use x="680.490234" xlink:href="#DejaVuSans-110"/>
    </g>
   </g>
   <g id="legend_1">
    <g id="patch_16">
     <path d="M 445.543594 155.143125 
L 540.9 155.143125 
Q 542.7 155.143125 542.7 153.343125 
L 542.7 35.1 
Q 542.7 33.3 540.9 33.3 
L 445.543594 33.3 
Q 443.743594 33.3 443.743594 35.1 
L 443.743594 153.343125 
Q 443.743594 155.143125 445.543594 155.143125 
z
" style="fill:#ffffff;opacity:0.8;stroke:#cccccc;stroke-linejoin:miter;"/>
    </g>
    <g id="line2d_22">
     <path d="M 447.343594 40.588594 
L 465.343594 40.588594 
" style="fill:none;stroke:#000000;stroke-dasharray:1,1.65;stroke-dashoffset:0;"/>
    </g>
    <g id="line2d_23"/>
    <g id="text_17">
     <!-- total mem -->
     <defs>
      <path d="M 52 44.1875 
Q 55.375 50.25 60.0625 53.125 
Q 64.75 56 71.09375 56 
Q 79.640625 56 84.28125 50.015625 
Q 88.921875 44.046875 88.921875 33.015625 
L 88.921875 0 
L 79.890625 0 
L 79.890625 32.71875 
Q 79.890625 40.578125 77.09375 44.375 
Q 74.3125 48.1875 68.609375 48.1875 
Q 61.625 48.1875 57.5625 43.546875 
Q 53.515625 38.921875 53.515625 30.90625 
L 53.515625 0 
L 44.484375 0 
L 44.484375 32.71875 
Q 44.484375 40.625 41.703125 44.40625 
Q 38.921875 48.1875 33.109375 48.1875 
Q 26.21875 48.1875 22.15625 43.53125 
Q 18.109375 38.875 18.109375 30.90625 
L 18.109375 0 
L 9.078125 0 
L 9.078125 54.6875 
L 18.109375 54.6875 
L 18.109375 46.1875 
Q 21.1875 51.21875 25.484375 53.609375 
Q 29.78125 56 35.6875 56 
Q 41.65625 56 45.828125 52.96875 
Q 50 49.953125 52 44.1875 
z
" id="DejaVuSans-109"/>
     </defs>
     <g transform="translate(472.543594 43.738594)scale(0.09 -0.09)">
      <use xlink:href="#DejaVuSans-116"/>
      <use x="39.208984" xlink:href="#DejaVuSans-111"/>
      <use x="100.390625" xlink:href="#DejaVuSans-116"/>
      <use x="139.599609" xlink:href="#DejaVuSans-97"/>
      <use x="200.878906" xlink:href="#DejaVuSans-108"/>
      <use x="228.662109" xlink:href="#DejaVuSans-32"/>
      <use x="260.449219" xlink:href="#DejaVuSans-109"/>
      <use x="357.861328" xlink:href="#DejaVuSans-101"/>
      <use x="419.384766" xlink:href="#DejaVuSans-109"/>
     </g>
    </g>
    <g id="line2d_24">
     <path d="M 447.343594 53.798906 
L 465.343594 53.798906 
" style="fill:none;stroke:#008000;stroke-linecap:square;"/>
    </g>
    <g id="line2d_25"/>
    <g id="text_18">
     <!-- used mem -->
     <defs>
      <path d="M 44.28125 53.078125 
L 44.28125 44.578125 
Q 40.484375 46.53125 36.375 47.5 
Q 32.28125 48.484375 27.875 48.484375 
Q 21.1875 48.484375 17.84375 46.4375 
Q 14.5 44.390625 14.5 40.28125 
Q 14.5 37.15625 16.890625 35.375 
Q 19.28125 33.59375 26.515625 31.984375 
L 29.59375 31.296875 
Q 39.15625 29.25 43.1875 25.515625 
Q 47.21875 21.78125 47.21875 15.09375 
Q 47.21875 7.46875 41.1875 3.015625 
Q 35.15625 -1.421875 24.609375 -1.421875 
Q 20.21875 -1.421875 15.453125 -0.5625 
Q 10.6875 0.296875 5.421875 2 
L 5.421875 11.28125 
Q 10.40625 8.6875 15.234375 7.390625 
Q 20.0625 6.109375 24.8125 6.109375 
Q 31.15625 6.109375 34.5625 8.28125 
Q 37.984375 10.453125 37.984375 14.40625 
Q 37.984375 18.0625 35.515625 20.015625 
Q 33.0625 21.96875 24.703125 23.78125 
L 21.578125 24.515625 
Q 13.234375 26.265625 9.515625 29.90625 
Q 5.8125 33.546875 5.8125 39.890625 
Q 5.8125 47.609375 11.28125 51.796875 
Q 16.75 56 26.8125 56 
Q 31.78125 56 36.171875 55.265625 
Q 40.578125 54.546875 44.28125 53.078125 
z
" id="DejaVuSans-115"/>
      <path d="M 45.40625 46.390625 
L 45.40625 75.984375 
L 54.390625 75.984375 
L 54.390625 0 
L 45.40625 0 
L 45.40625 8.203125 
Q 42.578125 3.328125 38.25 0.953125 
Q 33.9375 -1.421875 27.875 -1.421875 
Q 17.96875 -1.421875 11.734375 6.484375 
Q 5.515625 14.40625 5.515625 27.296875 
Q 5.515625 40.1875 11.734375 48.09375 
Q 17.96875 56 27.875 56 
Q 33.9375 56 38.25 53.625 
Q 42.578125 51.265625 45.40625 46.390625 
z
M 14.796875 27.296875 
Q 14.796875 17.390625 18.875 11.75 
Q 22.953125 6.109375 30.078125 6.109375 
Q 37.203125 6.109375 41.296875 11.75 
Q 45.40625 17.390625 45.40625 27.296875 
Q 45.40625 37.203125 41.296875 42.84375 
Q 37.203125 48.484375 30.078125 48.484375 
Q 22.953125 48.484375 18.875 42.84375 
Q 14.796875 37.203125 14.796875 27.296875 
z
" id="DejaVuSans-100"/>
     </defs>
     <g transform="translate(472.543594 56.948906)scale(0.09 -0.09)">
      <use xlink:href="#DejaVuSans-117"/>
      <use x="63.378906" xlink:href="#DejaVuSans-115"/>
      <use x="115.478516" xlink:href="#DejaVuSans-101"/>
      <use x="177.001953" xlink:href="#DejaVuSans-100"/>
      <use x="240.478516" xlink:href="#DejaVuSans-32"/>
      <use x="272.265625" xlink:href="#DejaVuSans-109"/>
      <use x="369.677734" xlink:href="#DejaVuSans-101"/>
      <use x="431.201172" xlink:href="#DejaVuSans-109"/>
     </g>
    </g>
    <g id="line2d_26">
     <path d="M 447.343594 67.009219 
L 465.343594 67.009219 
" style="fill:none;stroke:#bf00bf;stroke-linecap:square;"/>
    </g>
    <g id="line2d_27"/>
    <g id="text_19">
     <!-- cache used -->
     <defs>
      <path d="M 54.890625 33.015625 
L 54.890625 0 
L 45.90625 0 
L 45.90625 32.71875 
Q 45.90625 40.484375 42.875 44.328125 
Q 39.84375 48.1875 33.796875 48.1875 
Q 26.515625 48.1875 22.3125 43.546875 
Q 18.109375 38.921875 18.109375 30.90625 
L 18.109375 0 
L 9.078125 0 
L 9.078125 75.984375 
L 18.109375 75.984375 
L 18.109375 46.1875 
Q 21.34375 51.125 25.703125 53.5625 
Q 30.078125 56 35.796875 56 
Q 45.21875 56 50.046875 50.171875 
Q 54.890625 44.34375 54.890625 33.015625 
z
" id="DejaVuSans-104"/>
     </defs>
     <g transform="translate(472.543594 70.159219)scale(0.09 -0.09)">
      <use xlink:href="#DejaVuSans-99"/>
      <use x="54.980469" xlink:href="#DejaVuSans-97"/>
      <use x="116.259766" xlink:href="#DejaVuSans-99"/>
      <use x="171.240234" xlink:href="#DejaVuSans-104"/>
      <use x="234.619141" xlink:href="#DejaVuSans-101"/>
      <use x="296.142578" xlink:href="#DejaVuSans-32"/>
      <use x="327.929688" xlink:href="#DejaVuSans-117"/>
      <use x="391.308594" xlink:href="#DejaVuSans-115"/>
      <use x="443.408203" xlink:href="#DejaVuSans-101"/>
      <use x="504.931641" xlink:href="#DejaVuSans-100"/>
     </g>
    </g>
    <g id="line2d_28">
     <path d="M 447.343594 80.219531 
L 465.343594 80.219531 
" style="fill:none;stroke:#ff0000;stroke-linecap:square;"/>
    </g>
    <g id="line2d_29"/>
    <g id="text_20">
     <!-- dirty data -->
     <defs>
      <path d="M 41.109375 46.296875 
Q 39.59375 47.171875 37.8125 47.578125 
Q 36.03125 48 33.890625 48 
Q 26.265625 48 22.1875 43.046875 
Q 18.109375 38.09375 18.109375 28.8125 
L 18.109375 0 
L 9.078125 0 
L 9.078125 54.6875 
L 18.109375 54.6875 
L 18.109375 46.1875 
Q 20.953125 51.171875 25.484375 53.578125 
Q 30.03125 56 36.53125 56 
Q 37.453125 56 38.578125 55.875 
Q 39.703125 55.765625 41.0625 55.515625 
z
" id="DejaVuSans-114"/>
      <path d="M 32.171875 -5.078125 
Q 28.375 -14.84375 24.75 -17.8125 
Q 21.140625 -20.796875 15.09375 -20.796875 
L 7.90625 -20.796875 
L 7.90625 -13.28125 
L 13.1875 -13.28125 
Q 16.890625 -13.28125 18.9375 -11.515625 
Q 21 -9.765625 23.484375 -3.21875 
L 25.09375 0.875 
L 2.984375 54.6875 
L 12.5 54.6875 
L 29.59375 11.921875 
L 46.6875 54.6875 
L 56.203125 54.6875 
z
" id="DejaVuSans-121"/>
     </defs>
     <g transform="translate(472.543594 83.369531)scale(0.09 -0.09)">
      <use xlink:href="#DejaVuSans-100"/>
      <use x="63.476562" xlink:href="#DejaVuSans-105"/>
      <use x="91.259766" xlink:href="#DejaVuSans-114"/>
      <use x="132.373047" xlink:href="#DejaVuSans-116"/>
      <use x="171.582031" xlink:href="#DejaVuSans-121"/>
      <use x="230.761719" xlink:href="#DejaVuSans-32"/>
      <use x="262.548828" xlink:href="#DejaVuSans-100"/>
      <use x="326.025391" xlink:href="#DejaVuSans-97"/>
      <use x="387.304688" xlink:href="#DejaVuSans-116"/>
      <use x="426.513672" xlink:href="#DejaVuSans-97"/>
     </g>
    </g>
    <g id="line2d_30">
     <path d="M 447.343594 93.429844 
L 465.343594 93.429844 
" style="fill:none;stroke:#0000ff;stroke-linecap:square;"/>
    </g>
    <g id="line2d_31"/>
    <g id="text_21">
     <!-- available mem -->
     <defs>
      <path d="M 2.984375 54.6875 
L 12.5 54.6875 
L 29.59375 8.796875 
L 46.6875 54.6875 
L 56.203125 54.6875 
L 35.6875 0 
L 23.484375 0 
z
" id="DejaVuSans-118"/>
      <path d="M 48.6875 27.296875 
Q 48.6875 37.203125 44.609375 42.84375 
Q 40.53125 48.484375 33.40625 48.484375 
Q 26.265625 48.484375 22.1875 42.84375 
Q 18.109375 37.203125 18.109375 27.296875 
Q 18.109375 17.390625 22.1875 11.75 
Q 26.265625 6.109375 33.40625 6.109375 
Q 40.53125 6.109375 44.609375 11.75 
Q 48.6875 17.390625 48.6875 27.296875 
z
M 18.109375 46.390625 
Q 20.953125 51.265625 25.265625 53.625 
Q 29.59375 56 35.59375 56 
Q 45.5625 56 51.78125 48.09375 
Q 58.015625 40.1875 58.015625 27.296875 
Q 58.015625 14.40625 51.78125 6.484375 
Q 45.5625 -1.421875 35.59375 -1.421875 
Q 29.59375 -1.421875 25.265625 0.953125 
Q 20.953125 3.328125 18.109375 8.203125 
L 18.109375 0 
L 9.078125 0 
L 9.078125 75.984375 
L 18.109375 75.984375 
z
" id="DejaVuSans-98"/>
     </defs>
     <g transform="translate(472.543594 96.579844)scale(0.09 -0.09)">
      <use xlink:href="#DejaVuSans-97"/>
      <use x="61.279297" xlink:href="#DejaVuSans-118"/>
      <use x="120.458984" xlink:href="#DejaVuSans-97"/>
      <use x="181.738281" xlink:href="#DejaVuSans-105"/>
      <use x="209.521484" xlink:href="#DejaVuSans-108"/>
      <use x="237.304688" xlink:href="#DejaVuSans-97"/>
      <use x="298.583984" xlink:href="#DejaVuSans-98"/>
      <use x="362.060547" xlink:href="#DejaVuSans-108"/>
      <use x="389.84375" xlink:href="#DejaVuSans-101"/>
      <use x="451.367188" xlink:href="#DejaVuSans-32"/>
      <use x="483.154297" xlink:href="#DejaVuSans-109"/>
      <use x="580.566406" xlink:href="#DejaVuSans-101"/>
      <use x="642.089844" xlink:href="#DejaVuSans-109"/>
     </g>
    </g>
    <g id="line2d_32">
     <path d="M 447.343594 106.640156 
L 465.343594 106.640156 
" style="fill:none;stroke:#000000;stroke-dasharray:6.4,1.6,1,1.6;stroke-dashoffset:0;"/>
    </g>
    <g id="line2d_33"/>
    <g id="text_22">
     <!-- dirty_ratio -->
     <defs>
      <path d="M 50.984375 -16.609375 
L 50.984375 -23.578125 
L -0.984375 -23.578125 
L -0.984375 -16.609375 
z
" id="DejaVuSans-95"/>
     </defs>
     <g transform="translate(472.543594 109.790156)scale(0.09 -0.09)">
      <use xlink:href="#DejaVuSans-100"/>
      <use x="63.476562" xlink:href="#DejaVuSans-105"/>
      <use x="91.259766" xlink:href="#DejaVuSans-114"/>
      <use x="132.373047" xlink:href="#DejaVuSans-116"/>
      <use x="171.582031" xlink:href="#DejaVuSans-121"/>
      <use x="230.761719" xlink:href="#DejaVuSans-95"/>
      <use x="280.761719" xlink:href="#DejaVuSans-114"/>
      <use x="321.875" xlink:href="#DejaVuSans-97"/>
      <use x="383.154297" xlink:href="#DejaVuSans-116"/>
      <use x="422.363281" xlink:href="#DejaVuSans-105"/>
      <use x="450.146484" xlink:href="#DejaVuSans-111"/>
     </g>
    </g>
    <g id="patch_17">
     <path d="M 447.343594 123.250781 
L 465.343594 123.250781 
L 465.343594 116.950781 
L 447.343594 116.950781 
z
" style="opacity:0.1;stroke:#000000;stroke-linejoin:miter;"/>
    </g>
    <g id="text_23">
     <!-- read -->
     <g transform="translate(472.543594 123.250781)scale(0.09 -0.09)">
      <use xlink:href="#DejaVuSans-114"/>
      <use x="41.082031" xlink:href="#DejaVuSans-101"/>
      <use x="102.605469" xlink:href="#DejaVuSans-97"/>
      <use x="163.884766" xlink:href="#DejaVuSans-100"/>
     </g>
    </g>
    <g id="patch_18">
     <path d="M 447.343594 136.461094 
L 465.343594 136.461094 
L 465.343594 130.161094 
L 447.343594 130.161094 
z
" style="opacity:0.25;stroke:#000000;stroke-linejoin:miter;"/>
    </g>
    <g id="text_24">
     <!-- computation -->
     <defs>
      <path d="M 18.109375 8.203125 
L 18.109375 -20.796875 
L 9.078125 -20.796875 
L 9.078125 54.6875 
L 18.109375 54.6875 
L 18.109375 46.390625 
Q 20.953125 51.265625 25.265625 53.625 
Q 29.59375 56 35.59375 56 
Q 45.5625 56 51.78125 48.09375 
Q 58.015625 40.1875 58.015625 27.296875 
Q 58.015625 14.40625 51.78125 6.484375 
Q 45.5625 -1.421875 35.59375 -1.421875 
Q 29.59375 -1.421875 25.265625 0.953125 
Q 20.953125 3.328125 18.109375 8.203125 
z
M 48.6875 27.296875 
Q 48.6875 37.203125 44.609375 42.84375 
Q 40.53125 48.484375 33.40625 48.484375 
Q 26.265625 48.484375 22.1875 42.84375 
Q 18.109375 37.203125 18.109375 27.296875 
Q 18.109375 17.390625 22.1875 11.75 
Q 26.265625 6.109375 33.40625 6.109375 
Q 40.53125 6.109375 44.609375 11.75 
Q 48.6875 17.390625 48.6875 27.296875 
z
" id="DejaVuSans-112"/>
     </defs>
     <g transform="translate(472.543594 136.461094)scale(0.09 -0.09)">
      <use xlink:href="#DejaVuSans-99"/>
      <use x="54.980469" xlink:href="#DejaVuSans-111"/>
      <use x="116.162109" xlink:href="#DejaVuSans-109"/>
      <use x="213.574219" xlink:href="#DejaVuSans-112"/>
      <use x="277.050781" xlink:href="#DejaVuSans-117"/>
      <use x="340.429688" xlink:href="#DejaVuSans-116"/>
      <use x="379.638672" xlink:href="#DejaVuSans-97"/>
      <use x="440.917969" xlink:href="#DejaVuSans-116"/>
      <use x="480.126953" xlink:href="#DejaVuSans-105"/>
      <use x="507.910156" xlink:href="#DejaVuSans-111"/>
      <use x="569.091797" xlink:href="#DejaVuSans-110"/>
     </g>
    </g>
    <g id="patch_19">
     <path d="M 447.343594 149.671406 
L 465.343594 149.671406 
L 465.343594 143.371406 
L 447.343594 143.371406 
z
" style="opacity:0.4;stroke:#000000;stroke-linejoin:miter;"/>
    </g>
    <g id="text_25">
     <!-- write -->
     <defs>
      <path d="M 4.203125 54.6875 
L 13.1875 54.6875 
L 24.421875 12.015625 
L 35.59375 54.6875 
L 46.1875 54.6875 
L 57.421875 12.015625 
L 68.609375 54.6875 
L 77.59375 54.6875 
L 63.28125 0 
L 52.6875 0 
L 40.921875 44.828125 
L 29.109375 0 
L 18.5 0 
z
" id="DejaVuSans-119"/>
     </defs>
     <g transform="translate(472.543594 149.671406)scale(0.09 -0.09)">
      <use xlink:href="#DejaVuSans-119"/>
      <use x="81.787109" xlink:href="#DejaVuSans-114"/>
      <use x="122.900391" xlink:href="#DejaVuSans-105"/>
      <use x="150.683594" xlink:href="#DejaVuSans-116"/>
      <use x="189.892578" xlink:href="#DejaVuSans-101"/>
     </g>
    </g>
   </g>
  </g>
  <g id="axes_2">
   <g id="patch_20">
    <path d="M 69.12 354.651429 
L 547.2 354.651429 
L 547.2 209.828571 
L 69.12 209.828571 
z
" style="fill:#ffffff;"/>
   </g>
   <g id="patch_21">
    <path clip-path="url(#pc9ce318d05)" d="M 69.12 354.651429 
L 69.12 209.828571 
L 171.932903 209.828571 
L 171.932903 354.651429 
z
" style="opacity:0.1;stroke:#000000;stroke-linejoin:miter;"/>
   </g>
   <g id="patch_22">
    <path clip-path="url(#pc9ce318d05)" d="M 171.932903 354.651429 
L 171.932903 209.828571 
L 238.864103 209.828571 
L 238.864103 354.651429 
z
" style="opacity:0.25;stroke:#000000;stroke-linejoin:miter;"/>
   </g>
   <g id="patch_23">
    <path clip-path="url(#pc9ce318d05)" d="M 238.864103 354.651429 
L 238.864103 209.828571 
L 248.799265 209.828571 
L 248.799265 354.651429 
z
" style="opacity:0.4;stroke:#000000;stroke-linejoin:miter;"/>
   </g>
   <g id="patch_24">
    <path clip-path="url(#pc9ce318d05)" d="M 248.799265 354.651429 
L 248.799265 209.828571 
L 258.734427 209.828571 
L 258.734427 354.651429 
z
" style="opacity:0.1;stroke:#000000;stroke-linejoin:miter;"/>
   </g>
   <g id="patch_25">
    <path clip-path="url(#pc9ce318d05)" d="M 258.734427 354.651429 
L 258.734427 209.828571 
L 325.665627 209.828571 
L 325.665627 354.651429 
z
" style="opacity:0.25;stroke:#000000;stroke-linejoin:miter;"/>
   </g>
   <g id="patch_26">
    <path clip-path="url(#pc9ce318d05)" d="M 325.665627 354.651429 
L 325.665627 209.828571 
L 335.60079 209.828571 
L 335.60079 354.651429 
z
" style="opacity:0.4;stroke:#000000;stroke-linejoin:miter;"/>
   </g>
   <g id="patch_27">
    <path clip-path="url(#pc9ce318d05)" d="M 335.60079 354.651429 
L 335.60079 209.828571 
L 345.535952 209.828571 
L 345.535952 354.651429 
z
" style="opacity:0.1;stroke:#000000;stroke-linejoin:miter;"/>
   </g>
   <g id="patch_28">
    <path clip-path="url(#pc9ce318d05)" d="M 345.535952 354.651429 
L 345.535952 209.828571 
L 412.467152 209.828571 
L 412.467152 354.651429 
z
" style="opacity:0.25;stroke:#000000;stroke-linejoin:miter;"/>
   </g>
   <g id="patch_29">
    <path clip-path="url(#pc9ce318d05)" d="M 412.467152 354.651429 
L 412.467152 209.828571 
L 422.402314 209.828571 
L 422.402314 354.651429 
z
" style="opacity:0.4;stroke:#000000;stroke-linejoin:miter;"/>
   </g>
   <g id="matplotlib.axis_3">
    <g id="xtick_10">
     <g id="line2d_34">
      <g>
       <use style="stroke:#000000;stroke-width:0.8;" x="69.12" xlink:href="#mb55d92b2ec" y="354.651429"/>
      </g>
     </g>
     <g id="text_26">
      <!-- 0 -->
      <g transform="translate(66.256875 368.490022)scale(0.09 -0.09)">
       <use xlink:href="#DejaVuSans-48"/>
      </g>
     </g>
    </g>
    <g id="xtick_11">
     <g id="line2d_35">
      <g>
       <use style="stroke:#000000;stroke-width:0.8;" x="128.88" xlink:href="#mb55d92b2ec" y="354.651429"/>
      </g>
     </g>
     <g id="text_27">
      <!-- 25 -->
      <g transform="translate(123.15375 368.490022)scale(0.09 -0.09)">
       <use xlink:href="#DejaVuSans-50"/>
       <use x="63.623047" xlink:href="#DejaVuSans-53"/>
      </g>
     </g>
    </g>
    <g id="xtick_12">
     <g id="line2d_36">
      <g>
       <use style="stroke:#000000;stroke-width:0.8;" x="188.64" xlink:href="#mb55d92b2ec" y="354.651429"/>
      </g>
     </g>
     <g id="text_28">
      <!-- 50 -->
      <g transform="translate(182.91375 368.490022)scale(0.09 -0.09)">
       <use xlink:href="#DejaVuSans-53"/>
       <use x="63.623047" xlink:href="#DejaVuSans-48"/>
      </g>
     </g>
    </g>
    <g id="xtick_13">
     <g id="line2d_37">
      <g>
       <use style="stroke:#000000;stroke-width:0.8;" x="248.4" xlink:href="#mb55d92b2ec" y="354.651429"/>
      </g>
     </g>
     <g id="text_29">
      <!-- 75 -->
      <g transform="translate(242.67375 368.490022)scale(0.09 -0.09)">
       <use xlink:href="#DejaVuSans-55"/>
       <use x="63.623047" xlink:href="#DejaVuSans-53"/>
      </g>
     </g>
    </g>
    <g id="xtick_14">
     <g id="line2d_38">
      <g>
       <use style="stroke:#000000;stroke-width:0.8;" x="308.16" xlink:href="#mb55d92b2ec" y="354.651429"/>
      </g>
     </g>
     <g id="text_30">
      <!-- 100 -->
      <g transform="translate(299.570625 368.490022)scale(0.09 -0.09)">
       <use xlink:href="#DejaVuSans-49"/>
       <use x="63.623047" xlink:href="#DejaVuSans-48"/>
       <use x="127.246094" xlink:href="#DejaVuSans-48"/>
      </g>
     </g>
    </g>
    <g id="xtick_15">
     <g id="line2d_39">
      <g>
       <use style="stroke:#000000;stroke-width:0.8;" x="367.92" xlink:href="#mb55d92b2ec" y="354.651429"/>
      </g>
     </g>
     <g id="text_31">
      <!-- 125 -->
      <g transform="translate(359.330625 368.490022)scale(0.09 -0.09)">
       <use xlink:href="#DejaVuSans-49"/>
       <use x="63.623047" xlink:href="#DejaVuSans-50"/>
       <use x="127.246094" xlink:href="#DejaVuSans-53"/>
      </g>
     </g>
    </g>
    <g id="xtick_16">
     <g id="line2d_40">
      <g>
       <use style="stroke:#000000;stroke-width:0.8;" x="427.68" xlink:href="#mb55d92b2ec" y="354.651429"/>
      </g>
     </g>
     <g id="text_32">
      <!-- 150 -->
      <g transform="translate(419.090625 368.490022)scale(0.09 -0.09)">
       <use xlink:href="#DejaVuSans-49"/>
       <use x="63.623047" xlink:href="#DejaVuSans-53"/>
       <use x="127.246094" xlink:href="#DejaVuSans-48"/>
      </g>
     </g>
    </g>
    <g id="xtick_17">
     <g id="line2d_41">
      <g>
       <use style="stroke:#000000;stroke-width:0.8;" x="487.44" xlink:href="#mb55d92b2ec" y="354.651429"/>
      </g>
     </g>
     <g id="text_33">
      <!-- 175 -->
      <g transform="translate(478.850625 368.490022)scale(0.09 -0.09)">
       <use xlink:href="#DejaVuSans-49"/>
       <use x="63.623047" xlink:href="#DejaVuSans-55"/>
       <use x="127.246094" xlink:href="#DejaVuSans-53"/>
      </g>
     </g>
    </g>
    <g id="xtick_18">
     <g id="line2d_42">
      <g>
       <use style="stroke:#000000;stroke-width:0.8;" x="547.2" xlink:href="#mb55d92b2ec" y="354.651429"/>
      </g>
     </g>
     <g id="text_34">
      <!-- 200 -->
      <g transform="translate(538.610625 368.490022)scale(0.09 -0.09)">
       <use xlink:href="#DejaVuSans-50"/>
       <use x="63.623047" xlink:href="#DejaVuSans-48"/>
       <use x="127.246094" xlink:href="#DejaVuSans-48"/>
      </g>
     </g>
    </g>
   </g>
   <g id="matplotlib.axis_4">
    <g id="ytick_7">
     <g id="line2d_43">
      <g>
       <use style="stroke:#000000;stroke-width:0.8;" x="69.12" xlink:href="#m46a566bdbf" y="348.068571"/>
      </g>
     </g>
     <g id="text_35">
      <!-- 0 -->
      <g transform="translate(56.39375 351.487868)scale(0.09 -0.09)">
       <use xlink:href="#DejaVuSans-48"/>
      </g>
     </g>
    </g>
    <g id="ytick_8">
     <g id="line2d_44">
      <g>
       <use style="stroke:#000000;stroke-width:0.8;" x="69.12" xlink:href="#m46a566bdbf" y="323.56054"/>
      </g>
     </g>
     <g id="text_36">
      <!-- 50 -->
      <g transform="translate(50.6675 326.979837)scale(0.09 -0.09)">
       <use xlink:href="#DejaVuSans-53"/>
       <use x="63.623047" xlink:href="#DejaVuSans-48"/>
      </g>
     </g>
    </g>
    <g id="ytick_9">
     <g id="line2d_45">
      <g>
       <use style="stroke:#000000;stroke-width:0.8;" x="69.12" xlink:href="#m46a566bdbf" y="299.052509"/>
      </g>
     </g>
     <g id="text_37">
      <!-- 100 -->
      <g transform="translate(44.94125 302.471806)scale(0.09 -0.09)">
       <use xlink:href="#DejaVuSans-49"/>
       <use x="63.623047" xlink:href="#DejaVuSans-48"/>
       <use x="127.246094" xlink:href="#DejaVuSans-48"/>
      </g>
     </g>
    </g>
    <g id="ytick_10">
     <g id="line2d_46">
      <g>
       <use style="stroke:#000000;stroke-width:0.8;" x="69.12" xlink:href="#m46a566bdbf" y="274.544478"/>
      </g>
     </g>
     <g id="text_38">
      <!-- 150 -->
      <g transform="translate(44.94125 277.963775)scale(0.09 -0.09)">
       <use xlink:href="#DejaVuSans-49"/>
       <use x="63.623047" xlink:href="#DejaVuSans-53"/>
       <use x="127.246094" xlink:href="#DejaVuSans-48"/>
      </g>
     </g>
    </g>
    <g id="ytick_11">
     <g id="line2d_47">
      <g>
       <use style="stroke:#000000;stroke-width:0.8;" x="69.12" xlink:href="#m46a566bdbf" y="250.036447"/>
      </g>
     </g>
     <g id="text_39">
      <!-- 200 -->
      <g transform="translate(44.94125 253.455744)scale(0.09 -0.09)">
       <use xlink:href="#DejaVuSans-50"/>
       <use x="63.623047" xlink:href="#DejaVuSans-48"/>
       <use x="127.246094" xlink:href="#DejaVuSans-48"/>
      </g>
     </g>
    </g>
    <g id="ytick_12">
     <g id="line2d_48">
      <g>
       <use style="stroke:#000000;stroke-width:0.8;" x="69.12" xlink:href="#m46a566bdbf" y="225.528416"/>
      </g>
     </g>
     <g id="text_40">
      <!-- 250 -->
      <g transform="translate(44.94125 228.947713)scale(0.09 -0.09)">
       <use xlink:href="#DejaVuSans-50"/>
       <use x="63.623047" xlink:href="#DejaVuSans-53"/>
       <use x="127.246094" xlink:href="#DejaVuSans-48"/>
      </g>
     </g>
    </g>
   </g>
   <g id="line2d_49">
    <path clip-path="url(#pc9ce318d05)" d="M 69.12 216.411429 
L 422.402314 216.411429 
L 422.402314 216.411429 
" style="fill:none;stroke:#000000;stroke-dasharray:1,1.65;stroke-dashoffset:0;"/>
   </g>
   <g id="line2d_50">
    <path clip-path="url(#pc9ce318d05)" d="M 69.12 348.068571 
L 171.932903 328.462147 
L 238.963455 328.364114 
L 238.963455 328.364114 
L 248.799265 318.658934 
L 248.799265 328.462147 
L 248.898617 328.364114 
L 258.734427 318.658934 
L 325.764979 318.560902 
L 325.764979 318.560902 
L 335.60079 308.855722 
L 335.60079 318.658934 
L 335.700141 318.560902 
L 345.535952 308.855722 
L 412.566503 308.75769 
L 412.566503 308.75769 
L 422.402314 299.052509 
L 422.402314 299.052509 
" style="fill:none;stroke:#008000;stroke-linecap:square;"/>
   </g>
   <g id="line2d_51">
    <path clip-path="url(#pc9ce318d05)" d="M 69.12 348.068571 
L 171.932903 338.265359 
L 238.963455 338.167327 
L 238.963455 338.167327 
L 248.948293 328.462147 
L 248.948293 328.462147 
L 325.764979 328.364114 
L 325.764979 328.364114 
L 335.749817 318.658934 
L 335.749817 318.658934 
L 412.566503 318.560902 
L 412.566503 318.560902 
L 422.402314 308.855722 
L 422.402314 308.855722 
" style="fill:none;stroke:#bf00bf;stroke-linecap:square;"/>
   </g>
   <g id="line2d_52">
    <path clip-path="url(#pc9ce318d05)" d="M 69.12 348.068571 
L 238.963455 347.970539 
L 238.963455 347.970539 
L 248.948293 338.265359 
L 248.948293 338.265359 
L 325.764979 338.167327 
L 325.764979 338.167327 
L 335.749817 328.464515 
L 335.749817 328.464515 
L 345.535952 328.466883 
L 412.566503 334.750742 
L 412.566503 334.750742 
L 422.402314 325.04793 
L 422.402314 325.04793 
" style="fill:none;stroke:#ff0000;stroke-linecap:square;"/>
   </g>
   <g id="line2d_53">
    <path clip-path="url(#pc9ce318d05)" d="M 69.12 216.411429 
L 171.932903 226.214641 
L 238.963455 226.312673 
L 238.963455 226.312673 
L 248.799265 236.017853 
L 248.799265 226.214641 
L 248.898617 226.312673 
L 258.734427 236.017853 
L 325.764979 236.115886 
L 325.764979 236.115886 
L 335.60079 245.818698 
L 335.60079 236.015485 
L 335.700141 236.113517 
L 345.535952 245.816329 
L 412.566503 239.53247 
L 412.566503 239.53247 
L 422.402314 249.235282 
L 422.402314 249.235282 
" style="fill:none;stroke:#0000ff;stroke-linecap:square;"/>
   </g>
   <g id="line2d_54">
    <path clip-path="url(#pc9ce318d05)" d="M 69.12 295.405714 
L 171.932903 299.326999 
L 239.13732 299.434835 
L 239.13732 299.434835 
L 248.799265 303.248284 
L 248.799265 299.326999 
L 248.898617 299.366212 
L 258.734427 303.248284 
L 325.938844 303.35612 
L 325.938844 303.35612 
L 335.60079 307.168622 
L 335.60079 303.247337 
L 335.700141 303.28655 
L 345.535952 307.167675 
L 412.715531 304.71295 
L 412.715531 304.71295 
L 422.402314 308.535256 
L 422.402314 308.535256 
" style="fill:none;stroke:#000000;stroke-dasharray:6.4,1.6,1,1.6;stroke-dashoffset:0;"/>
   </g>
   <g id="patch_30">
    <path d="M 69.12 354.651429 
L 69.12 209.828571 
" style="fill:none;stroke:#000000;stroke-linecap:square;stroke-linejoin:miter;stroke-width:0.8;"/>
   </g>
   <g id="patch_31">
    <path d="M 547.2 354.651429 
L 547.2 209.828571 
" style="fill:none;stroke:#000000;stroke-linecap:square;stroke-linejoin:miter;stroke-width:0.8;"/>
   </g>
   <g id="patch_32">
    <path d="M 69.12 354.651429 
L 547.2 354.651429 
" style="fill:none;stroke:#000000;stroke-linecap:square;stroke-linejoin:miter;stroke-width:0.8;"/>
   </g>
   <g id="patch_33">
    <path d="M 69.12 209.828571 
L 547.2 209.828571 
" style="fill:none;stroke:#000000;stroke-linecap:square;stroke-linejoin:miter;stroke-width:0.8;"/>
   </g>
   <g id="text_41">
    <!-- Python simulator -->
    <defs>
     <path d="M 19.671875 64.796875 
L 19.671875 37.40625 
L 32.078125 37.40625 
Q 38.96875 37.40625 42.71875 40.96875 
Q 46.484375 44.53125 46.484375 51.125 
Q 46.484375 57.671875 42.71875 61.234375 
Q 38.96875 64.796875 32.078125 64.796875 
z
M 9.8125 72.90625 
L 32.078125 72.90625 
Q 44.34375 72.90625 50.609375 67.359375 
Q 56.890625 61.8125 56.890625 51.125 
Q 56.890625 40.328125 50.609375 34.8125 
Q 44.34375 29.296875 32.078125 29.296875 
L 19.671875 29.296875 
L 19.671875 0 
L 9.8125 0 
z
" id="DejaVuSans-80"/>
    </defs>
    <g transform="translate(265.67875 203.828571)scale(0.1 -0.1)">
     <use xlink:href="#DejaVuSans-80"/>
     <use x="60.302734" xlink:href="#DejaVuSans-121"/>
     <use x="119.482422" xlink:href="#DejaVuSans-116"/>
     <use x="158.691406" xlink:href="#DejaVuSans-104"/>
     <use x="222.070312" xlink:href="#DejaVuSans-111"/>
     <use x="283.251953" xlink:href="#DejaVuSans-110"/>
     <use x="346.630859" xlink:href="#DejaVuSans-32"/>
     <use x="378.417969" xlink:href="#DejaVuSans-115"/>
     <use x="430.517578" xlink:href="#DejaVuSans-105"/>
     <use x="458.300781" xlink:href="#DejaVuSans-109"/>
     <use x="555.712891" xlink:href="#DejaVuSans-117"/>
     <use x="619.091797" xlink:href="#DejaVuSans-108"/>
     <use x="646.875" xlink:href="#DejaVuSans-97"/>
     <use x="708.154297" xlink:href="#DejaVuSans-116"/>
     <use x="747.363281" xlink:href="#DejaVuSans-111"/>
     <use x="808.544922" xlink:href="#DejaVuSans-114"/>
    </g>
   </g>
  </g>
  <g id="axes_3">
   <g id="patch_34">
    <path d="M 69.12 535.68 
L 547.2 535.68 
L 547.2 390.857143 
L 69.12 390.857143 
z
" style="fill:#ffffff;"/>
   </g>
   <g id="patch_35">
    <path clip-path="url(#p18db4a7b18)" d="M 69.12 535.68 
L 69.12 390.857143 
L 171.932904 390.857143 
L 171.932904 535.68 
z
" style="opacity:0.1;stroke:#000000;stroke-linejoin:miter;"/>
   </g>
   <g id="patch_36">
    <path clip-path="url(#p18db4a7b18)" d="M 171.932904 535.68 
L 171.932904 390.857143 
L 238.864104 390.857143 
L 238.864104 535.68 
z
" style="opacity:0.25;stroke:#000000;stroke-linejoin:miter;"/>
   </g>
   <g id="patch_37">
    <path clip-path="url(#p18db4a7b18)" d="M 238.864104 535.68 
L 238.864104 390.857143 
L 248.799266 390.857143 
L 248.799266 535.68 
z
" style="opacity:0.4;stroke:#000000;stroke-linejoin:miter;"/>
   </g>
   <g id="patch_38">
    <path clip-path="url(#p18db4a7b18)" d="M 248.799266 535.68 
L 248.799266 390.857143 
L 258.734428 390.857143 
L 258.734428 535.68 
z
" style="opacity:0.1;stroke:#000000;stroke-linejoin:miter;"/>
   </g>
   <g id="patch_39">
    <path clip-path="url(#p18db4a7b18)" d="M 258.734428 535.68 
L 258.734428 390.857143 
L 325.665628 390.857143 
L 325.665628 535.68 
z
" style="opacity:0.25;stroke:#000000;stroke-linejoin:miter;"/>
   </g>
   <g id="patch_40">
    <path clip-path="url(#p18db4a7b18)" d="M 325.665628 535.68 
L 325.665628 390.857143 
L 335.60079 390.857143 
L 335.60079 535.68 
z
" style="opacity:0.4;stroke:#000000;stroke-linejoin:miter;"/>
   </g>
   <g id="patch_41">
    <path clip-path="url(#p18db4a7b18)" d="M 335.60079 535.68 
L 335.60079 390.857143 
L 345.535953 390.857143 
L 345.535953 535.68 
z
" style="opacity:0.1;stroke:#000000;stroke-linejoin:miter;"/>
   </g>
   <g id="patch_42">
    <path clip-path="url(#p18db4a7b18)" d="M 345.535953 535.68 
L 345.535953 390.857143 
L 412.467153 390.857143 
L 412.467153 535.68 
z
" style="opacity:0.25;stroke:#000000;stroke-linejoin:miter;"/>
   </g>
   <g id="patch_43">
    <path clip-path="url(#p18db4a7b18)" d="M 412.467153 535.68 
L 412.467153 390.857143 
L 422.402315 390.857143 
L 422.402315 535.68 
z
" style="opacity:0.4;stroke:#000000;stroke-linejoin:miter;"/>
   </g>
   <g id="matplotlib.axis_5">
    <g id="xtick_19">
     <g id="line2d_55">
      <g>
       <use style="stroke:#000000;stroke-width:0.8;" x="69.12" xlink:href="#mb55d92b2ec" y="535.68"/>
      </g>
     </g>
     <g id="text_42">
      <!-- 0 -->
      <g transform="translate(66.256875 549.518594)scale(0.09 -0.09)">
       <use xlink:href="#DejaVuSans-48"/>
      </g>
     </g>
    </g>
    <g id="xtick_20">
     <g id="line2d_56">
      <g>
       <use style="stroke:#000000;stroke-width:0.8;" x="128.88" xlink:href="#mb55d92b2ec" y="535.68"/>
      </g>
     </g>
     <g id="text_43">
      <!-- 25 -->
      <g transform="translate(123.15375 549.518594)scale(0.09 -0.09)">
       <use xlink:href="#DejaVuSans-50"/>
       <use x="63.623047" xlink:href="#DejaVuSans-53"/>
      </g>
     </g>
    </g>
    <g id="xtick_21">
     <g id="line2d_57">
      <g>
       <use style="stroke:#000000;stroke-width:0.8;" x="188.64" xlink:href="#mb55d92b2ec" y="535.68"/>
      </g>
     </g>
     <g id="text_44">
      <!-- 50 -->
      <g transform="translate(182.91375 549.518594)scale(0.09 -0.09)">
       <use xlink:href="#DejaVuSans-53"/>
       <use x="63.623047" xlink:href="#DejaVuSans-48"/>
      </g>
     </g>
    </g>
    <g id="xtick_22">
     <g id="line2d_58">
      <g>
       <use style="stroke:#000000;stroke-width:0.8;" x="248.4" xlink:href="#mb55d92b2ec" y="535.68"/>
      </g>
     </g>
     <g id="text_45">
      <!-- 75 -->
      <g transform="translate(242.67375 549.518594)scale(0.09 -0.09)">
       <use xlink:href="#DejaVuSans-55"/>
       <use x="63.623047" xlink:href="#DejaVuSans-53"/>
      </g>
     </g>
    </g>
    <g id="xtick_23">
     <g id="line2d_59">
      <g>
       <use style="stroke:#000000;stroke-width:0.8;" x="308.16" xlink:href="#mb55d92b2ec" y="535.68"/>
      </g>
     </g>
     <g id="text_46">
      <!-- 100 -->
      <g transform="translate(299.570625 549.518594)scale(0.09 -0.09)">
       <use xlink:href="#DejaVuSans-49"/>
       <use x="63.623047" xlink:href="#DejaVuSans-48"/>
       <use x="127.246094" xlink:href="#DejaVuSans-48"/>
      </g>
     </g>
    </g>
    <g id="xtick_24">
     <g id="line2d_60">
      <g>
       <use style="stroke:#000000;stroke-width:0.8;" x="367.92" xlink:href="#mb55d92b2ec" y="535.68"/>
      </g>
     </g>
     <g id="text_47">
      <!-- 125 -->
      <g transform="translate(359.330625 549.518594)scale(0.09 -0.09)">
       <use xlink:href="#DejaVuSans-49"/>
       <use x="63.623047" xlink:href="#DejaVuSans-50"/>
       <use x="127.246094" xlink:href="#DejaVuSans-53"/>
      </g>
     </g>
    </g>
    <g id="xtick_25">
     <g id="line2d_61">
      <g>
       <use style="stroke:#000000;stroke-width:0.8;" x="427.68" xlink:href="#mb55d92b2ec" y="535.68"/>
      </g>
     </g>
     <g id="text_48">
      <!-- 150 -->
      <g transform="translate(419.090625 549.518594)scale(0.09 -0.09)">
       <use xlink:href="#DejaVuSans-49"/>
       <use x="63.623047" xlink:href="#DejaVuSans-53"/>
       <use x="127.246094" xlink:href="#DejaVuSans-48"/>
      </g>
     </g>
    </g>
    <g id="xtick_26">
     <g id="line2d_62">
      <g>
       <use style="stroke:#000000;stroke-width:0.8;" x="487.44" xlink:href="#mb55d92b2ec" y="535.68"/>
      </g>
     </g>
     <g id="text_49">
      <!-- 175 -->
      <g transform="translate(478.850625 549.518594)scale(0.09 -0.09)">
       <use xlink:href="#DejaVuSans-49"/>
       <use x="63.623047" xlink:href="#DejaVuSans-55"/>
       <use x="127.246094" xlink:href="#DejaVuSans-53"/>
      </g>
     </g>
    </g>
    <g id="xtick_27">
     <g id="line2d_63">
      <g>
       <use style="stroke:#000000;stroke-width:0.8;" x="547.2" xlink:href="#mb55d92b2ec" y="535.68"/>
      </g>
     </g>
     <g id="text_50">
      <!-- 200 -->
      <g transform="translate(538.610625 549.518594)scale(0.09 -0.09)">
       <use xlink:href="#DejaVuSans-50"/>
       <use x="63.623047" xlink:href="#DejaVuSans-48"/>
       <use x="127.246094" xlink:href="#DejaVuSans-48"/>
      </g>
     </g>
    </g>
   </g>
   <g id="matplotlib.axis_6">
    <g id="ytick_13">
     <g id="line2d_64">
      <g>
       <use style="stroke:#000000;stroke-width:0.8;" x="69.12" xlink:href="#m46a566bdbf" y="529.097143"/>
      </g>
     </g>
     <g id="text_51">
      <!-- 0 -->
      <g transform="translate(56.39375 532.51644)scale(0.09 -0.09)">
       <use xlink:href="#DejaVuSans-48"/>
      </g>
     </g>
    </g>
    <g id="ytick_14">
     <g id="line2d_65">
      <g>
       <use style="stroke:#000000;stroke-width:0.8;" x="69.12" xlink:href="#m46a566bdbf" y="504.534243"/>
      </g>
     </g>
     <g id="text_52">
      <!-- 50 -->
      <g transform="translate(50.6675 507.95354)scale(0.09 -0.09)">
       <use xlink:href="#DejaVuSans-53"/>
       <use x="63.623047" xlink:href="#DejaVuSans-48"/>
      </g>
     </g>
    </g>
    <g id="ytick_15">
     <g id="line2d_66">
      <g>
       <use style="stroke:#000000;stroke-width:0.8;" x="69.12" xlink:href="#m46a566bdbf" y="479.971343"/>
      </g>
     </g>
     <g id="text_53">
      <!-- 100 -->
      <g transform="translate(44.94125 483.39064)scale(0.09 -0.09)">
       <use xlink:href="#DejaVuSans-49"/>
       <use x="63.623047" xlink:href="#DejaVuSans-48"/>
       <use x="127.246094" xlink:href="#DejaVuSans-48"/>
      </g>
     </g>
    </g>
    <g id="ytick_16">
     <g id="line2d_67">
      <g>
       <use style="stroke:#000000;stroke-width:0.8;" x="69.12" xlink:href="#m46a566bdbf" y="455.408443"/>
      </g>
     </g>
     <g id="text_54">
      <!-- 150 -->
      <g transform="translate(44.94125 458.82774)scale(0.09 -0.09)">
       <use xlink:href="#DejaVuSans-49"/>
       <use x="63.623047" xlink:href="#DejaVuSans-53"/>
       <use x="127.246094" xlink:href="#DejaVuSans-48"/>
      </g>
     </g>
    </g>
    <g id="ytick_17">
     <g id="line2d_68">
      <g>
       <use style="stroke:#000000;stroke-width:0.8;" x="69.12" xlink:href="#m46a566bdbf" y="430.845544"/>
      </g>
     </g>
     <g id="text_55">
      <!-- 200 -->
      <g transform="translate(44.94125 434.264841)scale(0.09 -0.09)">
       <use xlink:href="#DejaVuSans-50"/>
       <use x="63.623047" xlink:href="#DejaVuSans-48"/>
       <use x="127.246094" xlink:href="#DejaVuSans-48"/>
      </g>
     </g>
    </g>
    <g id="ytick_18">
     <g id="line2d_69">
      <g>
       <use style="stroke:#000000;stroke-width:0.8;" x="69.12" xlink:href="#m46a566bdbf" y="406.282644"/>
      </g>
     </g>
     <g id="text_56">
      <!-- 250 -->
      <g transform="translate(44.94125 409.701941)scale(0.09 -0.09)">
       <use xlink:href="#DejaVuSans-50"/>
       <use x="63.623047" xlink:href="#DejaVuSans-53"/>
       <use x="127.246094" xlink:href="#DejaVuSans-48"/>
      </g>
     </g>
    </g>
   </g>
   <g id="line2d_70">
    <path clip-path="url(#p18db4a7b18)" d="M 69.12 397.44 
L 422.402315 397.44 
L 422.402315 397.44 
" style="fill:none;stroke:#000000;stroke-dasharray:1,1.65;stroke-dashoffset:0;"/>
   </g>
   <g id="line2d_71">
    <path clip-path="url(#p18db4a7b18)" d="M 69.12 529.097143 
L 104.976 522.268657 
L 104.976 522.268657 
L 164.736 510.871471 
L 164.736 510.871471 
L 171.932904 509.446823 
L 238.963454 509.348571 
L 248.799266 499.621663 
L 248.799266 509.446823 
L 258.734428 499.621663 
L 325.764978 499.523412 
L 335.60079 489.796503 
L 335.60079 499.621663 
L 345.535953 489.796503 
L 412.566502 489.698252 
L 422.402315 479.971343 
L 422.402315 479.971343 
" style="fill:none;stroke:#008000;stroke-linecap:square;"/>
   </g>
   <g id="line2d_72">
    <path clip-path="url(#p18db4a7b18)" d="M 69.12 529.097143 
L 104.976 525.658337 
L 104.976 525.658337 
L 171.932904 519.271983 
L 238.963454 519.173731 
L 248.799266 509.446823 
L 248.799266 509.446823 
L 325.764978 509.348571 
L 335.60079 499.621663 
L 335.60079 499.621663 
L 412.566502 499.523412 
L 422.402315 489.796503 
L 422.402315 489.796503 
" style="fill:none;stroke:#bf00bf;stroke-linecap:square;"/>
   </g>
   <g id="line2d_73">
    <path clip-path="url(#p18db4a7b18)" d="M 69.12 529.097143 
L 238.963454 528.998891 
L 248.799266 519.271983 
L 248.799266 519.271983 
L 320.112 519.271983 
L 325.814655 519.664989 
L 327.801687 517.847335 
L 327.950714 517.749083 
L 329.838397 516.02968 
L 329.987424 515.931429 
L 331.924781 514.1629 
L 332.073808 514.064648 
L 333.961488 512.345245 
L 334.110515 512.246994 
L 335.60079 510.920597 
L 335.60079 510.920597 
L 345.535953 511.853987 
L 412.566502 518.14209 
L 414.15613 516.717441 
L 414.305157 516.61919 
L 416.192837 514.899787 
L 416.341864 514.801535 
L 418.279221 513.033006 
L 418.428248 512.934755 
L 420.315931 511.215352 
L 420.464958 511.1171 
L 422.402315 509.348571 
L 422.402315 509.348571 
" style="fill:none;stroke:#ff0000;stroke-linecap:square;"/>
   </g>
   <g id="line2d_74">
    <path clip-path="url(#p18db4a7b18)" d="M 69.12 397.44 
L 171.932904 407.26516 
L 238.963454 407.363412 
L 248.799266 417.09032 
L 248.799266 407.26516 
L 258.734428 417.09032 
L 320.112 417.09032 
L 325.814655 416.697313 
L 327.801687 418.514968 
L 327.950714 418.61322 
L 329.838397 420.332623 
L 329.987424 420.430874 
L 331.924781 422.199403 
L 332.073808 422.297655 
L 333.961488 424.017058 
L 334.110515 424.115309 
L 335.60079 425.441706 
L 335.60079 415.616546 
L 345.535953 424.508316 
L 412.566502 418.220213 
L 414.15613 419.644861 
L 414.305157 419.743113 
L 416.192837 421.462516 
L 416.341864 421.560768 
L 418.279221 423.329296 
L 418.428248 423.427548 
L 420.315931 425.146951 
L 420.464958 425.245203 
L 422.402315 427.013731 
L 422.402315 427.013731 
" style="fill:none;stroke:#0000ff;stroke-linecap:square;"/>
   </g>
   <g id="line2d_75">
    <path clip-path="url(#p18db4a7b18)" d="M 69.12 476.434286 
L 171.932904 480.36435 
L 239.112483 480.462601 
L 248.799266 484.294414 
L 248.799266 480.36435 
L 258.734428 484.294414 
L 320.112 484.294414 
L 325.963682 484.196162 
L 329.341638 485.414482 
L 329.639692 485.512733 
L 332.918295 486.691753 
L 333.21635 486.790004 
L 335.60079 487.634968 
L 335.60079 483.704904 
L 345.535953 487.261612 
L 412.765207 484.805322 
L 416.192837 486.043292 
L 416.490891 486.141544 
L 419.819172 487.340213 
L 420.117226 487.438465 
L 422.402315 488.263778 
L 422.402315 488.263778 
" style="fill:none;stroke:#000000;stroke-dasharray:6.4,1.6,1,1.6;stroke-dashoffset:0;"/>
   </g>
   <g id="patch_44">
    <path d="M 69.12 535.68 
L 69.12 390.857143 
" style="fill:none;stroke:#000000;stroke-linecap:square;stroke-linejoin:miter;stroke-width:0.8;"/>
   </g>
   <g id="patch_45">
    <path d="M 547.2 535.68 
L 547.2 390.857143 
" style="fill:none;stroke:#000000;stroke-linecap:square;stroke-linejoin:miter;stroke-width:0.8;"/>
   </g>
   <g id="patch_46">
    <path d="M 69.12 535.68 
L 547.2 535.68 
" style="fill:none;stroke:#000000;stroke-linecap:square;stroke-linejoin:miter;stroke-width:0.8;"/>
   </g>
   <g id="patch_47">
    <path d="M 69.12 390.857143 
L 547.2 390.857143 
" style="fill:none;stroke:#000000;stroke-linecap:square;stroke-linejoin:miter;stroke-width:0.8;"/>
   </g>
   <g id="text_57">
    <!-- WRENCH with page cache simulator -->
    <defs>
     <path d="M 3.328125 72.90625 
L 13.28125 72.90625 
L 28.609375 11.28125 
L 43.890625 72.90625 
L 54.984375 72.90625 
L 70.3125 11.28125 
L 85.59375 72.90625 
L 95.609375 72.90625 
L 77.296875 0 
L 64.890625 0 
L 49.515625 63.28125 
L 33.984375 0 
L 21.578125 0 
z
" id="DejaVuSans-87"/>
     <path d="M 9.8125 72.90625 
L 55.90625 72.90625 
L 55.90625 64.59375 
L 19.671875 64.59375 
L 19.671875 43.015625 
L 54.390625 43.015625 
L 54.390625 34.71875 
L 19.671875 34.71875 
L 19.671875 8.296875 
L 56.78125 8.296875 
L 56.78125 0 
L 9.8125 0 
z
" id="DejaVuSans-69"/>
     <path d="M 9.8125 72.90625 
L 23.09375 72.90625 
L 55.421875 11.921875 
L 55.421875 72.90625 
L 64.984375 72.90625 
L 64.984375 0 
L 51.703125 0 
L 19.390625 60.984375 
L 19.390625 0 
L 9.8125 0 
z
" id="DejaVuSans-78"/>
     <path d="M 64.40625 67.28125 
L 64.40625 56.890625 
Q 59.421875 61.53125 53.78125 63.8125 
Q 48.140625 66.109375 41.796875 66.109375 
Q 29.296875 66.109375 22.65625 58.46875 
Q 16.015625 50.828125 16.015625 36.375 
Q 16.015625 21.96875 22.65625 14.328125 
Q 29.296875 6.6875 41.796875 6.6875 
Q 48.140625 6.6875 53.78125 8.984375 
Q 59.421875 11.28125 64.40625 15.921875 
L 64.40625 5.609375 
Q 59.234375 2.09375 53.4375 0.328125 
Q 47.65625 -1.421875 41.21875 -1.421875 
Q 24.65625 -1.421875 15.125 8.703125 
Q 5.609375 18.84375 5.609375 36.375 
Q 5.609375 53.953125 15.125 64.078125 
Q 24.65625 74.21875 41.21875 74.21875 
Q 47.75 74.21875 53.53125 72.484375 
Q 59.328125 70.75 64.40625 67.28125 
z
" id="DejaVuSans-67"/>
     <path d="M 9.8125 72.90625 
L 19.671875 72.90625 
L 19.671875 43.015625 
L 55.515625 43.015625 
L 55.515625 72.90625 
L 65.375 72.90625 
L 65.375 0 
L 55.515625 0 
L 55.515625 34.71875 
L 19.671875 34.71875 
L 19.671875 0 
L 9.8125 0 
z
" id="DejaVuSans-72"/>
     <path d="M 45.40625 27.984375 
Q 45.40625 37.75 41.375 43.109375 
Q 37.359375 48.484375 30.078125 48.484375 
Q 22.859375 48.484375 18.828125 43.109375 
Q 14.796875 37.75 14.796875 27.984375 
Q 14.796875 18.265625 18.828125 12.890625 
Q 22.859375 7.515625 30.078125 7.515625 
Q 37.359375 7.515625 41.375 12.890625 
Q 45.40625 18.265625 45.40625 27.984375 
z
M 54.390625 6.78125 
Q 54.390625 -7.171875 48.1875 -13.984375 
Q 42 -20.796875 29.203125 -20.796875 
Q 24.46875 -20.796875 20.265625 -20.09375 
Q 16.0625 -19.390625 12.109375 -17.921875 
L 12.109375 -9.1875 
Q 16.0625 -11.328125 19.921875 -12.34375 
Q 23.78125 -13.375 27.78125 -13.375 
Q 36.625 -13.375 41.015625 -8.765625 
Q 45.40625 -4.15625 45.40625 5.171875 
L 45.40625 9.625 
Q 42.625 4.78125 38.28125 2.390625 
Q 33.9375 0 27.875 0 
Q 17.828125 0 11.671875 7.65625 
Q 5.515625 15.328125 5.515625 27.984375 
Q 5.515625 40.671875 11.671875 48.328125 
Q 17.828125 56 27.875 56 
Q 33.9375 56 38.28125 53.609375 
Q 42.625 51.21875 45.40625 46.390625 
L 45.40625 54.6875 
L 54.390625 54.6875 
z
" id="DejaVuSans-103"/>
    </defs>
    <g transform="translate(217.769375 384.857143)scale(0.1 -0.1)">
     <use xlink:href="#DejaVuSans-87"/>
     <use x="98.876953" xlink:href="#DejaVuSans-82"/>
     <use x="168.359375" xlink:href="#DejaVuSans-69"/>
     <use x="231.542969" xlink:href="#DejaVuSans-78"/>
     <use x="306.347656" xlink:href="#DejaVuSans-67"/>
     <use x="376.171875" xlink:href="#DejaVuSans-72"/>
     <use x="451.367188" xlink:href="#DejaVuSans-32"/>
     <use x="483.154297" xlink:href="#DejaVuSans-119"/>
     <use x="564.941406" xlink:href="#DejaVuSans-105"/>
     <use x="592.724609" xlink:href="#DejaVuSans-116"/>
     <use x="631.933594" xlink:href="#DejaVuSans-104"/>
     <use x="695.3125" xlink:href="#DejaVuSans-32"/>
     <use x="727.099609" xlink:href="#DejaVuSans-112"/>
     <use x="790.576172" xlink:href="#DejaVuSans-97"/>
     <use x="851.855469" xlink:href="#DejaVuSans-103"/>
     <use x="915.332031" xlink:href="#DejaVuSans-101"/>
     <use x="976.855469" xlink:href="#DejaVuSans-32"/>
     <use x="1008.642578" xlink:href="#DejaVuSans-99"/>
     <use x="1063.623047" xlink:href="#DejaVuSans-97"/>
     <use x="1124.902344" xlink:href="#DejaVuSans-99"/>
     <use x="1179.882812" xlink:href="#DejaVuSans-104"/>
     <use x="1243.261719" xlink:href="#DejaVuSans-101"/>
     <use x="1304.785156" xlink:href="#DejaVuSans-32"/>
     <use x="1336.572266" xlink:href="#DejaVuSans-115"/>
     <use x="1388.671875" xlink:href="#DejaVuSans-105"/>
     <use x="1416.455078" xlink:href="#DejaVuSans-109"/>
     <use x="1513.867188" xlink:href="#DejaVuSans-117"/>
     <use x="1577.246094" xlink:href="#DejaVuSans-108"/>
     <use x="1605.029297" xlink:href="#DejaVuSans-97"/>
     <use x="1666.308594" xlink:href="#DejaVuSans-116"/>
     <use x="1705.517578" xlink:href="#DejaVuSans-111"/>
     <use x="1766.699219" xlink:href="#DejaVuSans-114"/>
    </g>
   </g>
  </g>
  <g id="text_58">
   <!-- time (sec) -->
   <defs>
    <path d="M 31 75.875 
Q 24.46875 64.65625 21.28125 53.65625 
Q 18.109375 42.671875 18.109375 31.390625 
Q 18.109375 20.125 21.3125 9.0625 
Q 24.515625 -2 31 -13.1875 
L 23.1875 -13.1875 
Q 15.875 -1.703125 12.234375 9.375 
Q 8.59375 20.453125 8.59375 31.390625 
Q 8.59375 42.28125 12.203125 53.3125 
Q 15.828125 64.359375 23.1875 75.875 
z
" id="DejaVuSans-40"/>
    <path d="M 8.015625 75.875 
L 15.828125 75.875 
Q 23.140625 64.359375 26.78125 53.3125 
Q 30.421875 42.28125 30.421875 31.390625 
Q 30.421875 20.453125 26.78125 9.375 
Q 23.140625 -1.703125 15.828125 -13.1875 
L 8.015625 -13.1875 
Q 14.5 -2 17.703125 9.0625 
Q 20.90625 20.125 20.90625 31.390625 
Q 20.90625 42.671875 17.703125 53.65625 
Q 14.5 64.65625 8.015625 75.875 
z
" id="DejaVuSans-41"/>
   </defs>
   <g transform="translate(265.304531 566.963438)scale(0.09 -0.09)">
    <use xlink:href="#DejaVuSans-116"/>
    <use x="39.208984" xlink:href="#DejaVuSans-105"/>
    <use x="66.992188" xlink:href="#DejaVuSans-109"/>
    <use x="164.404297" xlink:href="#DejaVuSans-101"/>
    <use x="225.927734" xlink:href="#DejaVuSans-32"/>
    <use x="257.714844" xlink:href="#DejaVuSans-40"/>
    <use x="296.728516" xlink:href="#DejaVuSans-115"/>
    <use x="348.828125" xlink:href="#DejaVuSans-101"/>
    <use x="410.351562" xlink:href="#DejaVuSans-99"/>
    <use x="465.332031" xlink:href="#DejaVuSans-41"/>
   </g>
  </g>
  <g id="text_59">
   <!-- memory (GB) -->
   <defs>
    <path d="M 59.515625 10.40625 
L 59.515625 29.984375 
L 43.40625 29.984375 
L 43.40625 38.09375 
L 69.28125 38.09375 
L 69.28125 6.78125 
Q 63.578125 2.734375 56.6875 0.65625 
Q 49.8125 -1.421875 42 -1.421875 
Q 24.90625 -1.421875 15.25 8.5625 
Q 5.609375 18.5625 5.609375 36.375 
Q 5.609375 54.25 15.25 64.234375 
Q 24.90625 74.21875 42 74.21875 
Q 49.125 74.21875 55.546875 72.453125 
Q 61.96875 70.703125 67.390625 67.28125 
L 67.390625 56.78125 
Q 61.921875 61.421875 55.765625 63.765625 
Q 49.609375 66.109375 42.828125 66.109375 
Q 29.4375 66.109375 22.71875 58.640625 
Q 16.015625 51.171875 16.015625 36.375 
Q 16.015625 21.625 22.71875 14.15625 
Q 29.4375 6.6875 42.828125 6.6875 
Q 48.046875 6.6875 52.140625 7.59375 
Q 56.25 8.5 59.515625 10.40625 
z
" id="DejaVuSans-71"/>
    <path d="M 19.671875 34.8125 
L 19.671875 8.109375 
L 35.5 8.109375 
Q 43.453125 8.109375 47.28125 11.40625 
Q 51.125 14.703125 51.125 21.484375 
Q 51.125 28.328125 47.28125 31.5625 
Q 43.453125 34.8125 35.5 34.8125 
z
M 19.671875 64.796875 
L 19.671875 42.828125 
L 34.28125 42.828125 
Q 41.5 42.828125 45.03125 45.53125 
Q 48.578125 48.25 48.578125 53.8125 
Q 48.578125 59.328125 45.03125 62.0625 
Q 41.5 64.796875 34.28125 64.796875 
z
M 9.8125 72.90625 
L 35.015625 72.90625 
Q 46.296875 72.90625 52.390625 68.21875 
Q 58.5 63.53125 58.5 54.890625 
Q 58.5 48.1875 55.375 44.234375 
Q 52.25 40.28125 46.1875 39.3125 
Q 53.46875 37.75 57.5 32.78125 
Q 61.53125 27.828125 61.53125 20.40625 
Q 61.53125 10.640625 54.890625 5.3125 
Q 48.25 0 35.984375 0 
L 9.8125 0 
z
" id="DejaVuSans-66"/>
   </defs>
   <g transform="translate(25.523437 318.318047)rotate(-90)scale(0.09 -0.09)">
    <use xlink:href="#DejaVuSans-109"/>
    <use x="97.412109" xlink:href="#DejaVuSans-101"/>
    <use x="158.935547" xlink:href="#DejaVuSans-109"/>
    <use x="256.347656" xlink:href="#DejaVuSans-111"/>
    <use x="317.529297" xlink:href="#DejaVuSans-114"/>
    <use x="358.642578" xlink:href="#DejaVuSans-121"/>
    <use x="417.822266" xlink:href="#DejaVuSans-32"/>
    <use x="449.609375" xlink:href="#DejaVuSans-40"/>
    <use x="488.623047" xlink:href="#DejaVuSans-71"/>
    <use x="566.113281" xlink:href="#DejaVuSans-66"/>
    <use x="634.716797" xlink:href="#DejaVuSans-41"/>
   </g>
  </g>
 </g>
 <defs>
  <clipPath id="pc58b8549c0">
   <rect height="144.822857" width="478.08" x="69.12" y="28.8"/>
  </clipPath>
  <clipPath id="pc9ce318d05">
   <rect height="144.822857" width="478.08" x="69.12" y="209.828571"/>
  </clipPath>
  <clipPath id="p18db4a7b18">
   <rect height="144.822857" width="478.08" x="69.12" y="390.857143"/>
  </clipPath>
 </defs>
</svg>
