<?xml version="1.0" encoding="utf-8" standalone="no"?>
<!DOCTYPE svg PUBLIC "-//W3C//DTD SVG 1.1//EN"
  "http://www.w3.org/Graphics/SVG/1.1/DTD/svg11.dtd">
<!-- Created with matplotlib (https://matplotlib.org/) -->
<svg height="576pt" version="1.1" viewBox="0 0 576 576" width="576pt" xmlns="http://www.w3.org/2000/svg" xmlns:xlink="http://www.w3.org/1999/xlink">
 <defs>
  <style type="text/css">
*{stroke-linecap:butt;stroke-linejoin:round;}
  </style>
 </defs>
 <g id="figure_1">
  <g id="patch_1">
   <path d="M 0 576 
L 576 576 
L 576 0 
L 0 0 
z
" style="fill:#ffffff;"/>
  </g>
  <g id="axes_1">
   <g id="patch_2">
    <path d="M 69.12 173.622857 
L 547.2 173.622857 
L 547.2 28.8 
L 69.12 28.8 
z
" style="fill:#ffffff;"/>
   </g>
   <g id="patch_3">
    <path clip-path="url(#paf42f24314)" d="M 69.12 173.622857 
L 69.12 28.8 
L 162.636273 28.8 
L 162.636273 173.622857 
z
" style="opacity:0.1;stroke:#000000;stroke-linejoin:miter;"/>
   </g>
   <g id="patch_4">
    <path clip-path="url(#paf42f24314)" d="M 162.636273 173.622857 
L 162.636273 28.8 
L 234.634165 28.8 
L 234.634165 173.622857 
z
" style="opacity:0.25;stroke:#000000;stroke-linejoin:miter;"/>
   </g>
   <g id="patch_5">
    <path clip-path="url(#paf42f24314)" d="M 234.634165 173.622857 
L 234.634165 28.8 
L 252.548778 28.8 
L 252.548778 173.622857 
z
" style="opacity:0.4;stroke:#000000;stroke-linejoin:miter;"/>
   </g>
   <g id="patch_6">
    <path clip-path="url(#paf42f24314)" d="M 252.639613 173.622857 
L 252.639613 28.8 
L 268.883816 28.8 
L 268.883816 173.622857 
z
" style="opacity:0.1;stroke:#000000;stroke-linejoin:miter;"/>
   </g>
   <g id="patch_7">
    <path clip-path="url(#paf42f24314)" d="M 268.883816 173.622857 
L 268.883816 28.8 
L 338.422464 28.8 
L 338.422464 173.622857 
z
" style="opacity:0.25;stroke:#000000;stroke-linejoin:miter;"/>
   </g>
   <g id="patch_8">
    <path clip-path="url(#paf42f24314)" d="M 338.422464 173.622857 
L 338.422464 28.8 
L 356.06266 28.8 
L 356.06266 173.622857 
z
" style="opacity:0.4;stroke:#000000;stroke-linejoin:miter;"/>
   </g>
   <g id="patch_9">
    <path clip-path="url(#paf42f24314)" d="M 356.152539 173.622857 
L 356.152539 28.8 
L 371.287596 28.8 
L 371.287596 173.622857 
z
" style="opacity:0.1;stroke:#000000;stroke-linejoin:miter;"/>
   </g>
   <g id="patch_10">
    <path clip-path="url(#paf42f24314)" d="M 371.287596 173.622857 
L 371.287596 28.8 
L 441.162812 28.8 
L 441.162812 173.622857 
z
" style="opacity:0.25;stroke:#000000;stroke-linejoin:miter;"/>
   </g>
   <g id="patch_11">
    <path clip-path="url(#paf42f24314)" d="M 441.162812 173.622857 
L 441.162812 28.8 
L 461.423843 28.8 
L 461.423843 173.622857 
z
" style="opacity:0.4;stroke:#000000;stroke-linejoin:miter;"/>
   </g>
   <g id="matplotlib.axis_1">
    <g id="xtick_1">
     <g id="line2d_1">
      <defs>
       <path d="M 0 0 
L 0 3.5 
" id="m4f9b414f1e" style="stroke:#000000;stroke-width:0.8;"/>
      </defs>
      <g>
       <use style="stroke:#000000;stroke-width:0.8;" x="69.12" xlink:href="#m4f9b414f1e" y="173.622857"/>
      </g>
     </g>
     <g id="text_1">
      <!-- 0 -->
      <defs>
       <path d="M 31.78125 66.40625 
Q 24.171875 66.40625 20.328125 58.90625 
Q 16.5 51.421875 16.5 36.375 
Q 16.5 21.390625 20.328125 13.890625 
Q 24.171875 6.390625 31.78125 6.390625 
Q 39.453125 6.390625 43.28125 13.890625 
Q 47.125 21.390625 47.125 36.375 
Q 47.125 51.421875 43.28125 58.90625 
Q 39.453125 66.40625 31.78125 66.40625 
z
M 31.78125 74.21875 
Q 44.046875 74.21875 50.515625 64.515625 
Q 56.984375 54.828125 56.984375 36.375 
Q 56.984375 17.96875 50.515625 8.265625 
Q 44.046875 -1.421875 31.78125 -1.421875 
Q 19.53125 -1.421875 13.0625 8.265625 
Q 6.59375 17.96875 6.59375 36.375 
Q 6.59375 54.828125 13.0625 64.515625 
Q 19.53125 74.21875 31.78125 74.21875 
z
" id="DejaVuSans-48"/>
      </defs>
      <g transform="translate(66.256875 187.461451)scale(0.09 -0.09)">
       <use xlink:href="#DejaVuSans-48"/>
      </g>
     </g>
    </g>
    <g id="xtick_2">
     <g id="line2d_2">
      <g>
       <use style="stroke:#000000;stroke-width:0.8;" x="164.736" xlink:href="#m4f9b414f1e" y="173.622857"/>
      </g>
     </g>
     <g id="text_2">
      <!-- 100 -->
      <defs>
       <path d="M 12.40625 8.296875 
L 28.515625 8.296875 
L 28.515625 63.921875 
L 10.984375 60.40625 
L 10.984375 69.390625 
L 28.421875 72.90625 
L 38.28125 72.90625 
L 38.28125 8.296875 
L 54.390625 8.296875 
L 54.390625 0 
L 12.40625 0 
z
" id="DejaVuSans-49"/>
      </defs>
      <g transform="translate(156.146625 187.461451)scale(0.09 -0.09)">
       <use xlink:href="#DejaVuSans-49"/>
       <use x="63.623047" xlink:href="#DejaVuSans-48"/>
       <use x="127.246094" xlink:href="#DejaVuSans-48"/>
      </g>
     </g>
    </g>
    <g id="xtick_3">
     <g id="line2d_3">
      <g>
       <use style="stroke:#000000;stroke-width:0.8;" x="260.352" xlink:href="#m4f9b414f1e" y="173.622857"/>
      </g>
     </g>
     <g id="text_3">
      <!-- 200 -->
      <defs>
       <path d="M 19.1875 8.296875 
L 53.609375 8.296875 
L 53.609375 0 
L 7.328125 0 
L 7.328125 8.296875 
Q 12.9375 14.109375 22.625 23.890625 
Q 32.328125 33.6875 34.8125 36.53125 
Q 39.546875 41.84375 41.421875 45.53125 
Q 43.3125 49.21875 43.3125 52.78125 
Q 43.3125 58.59375 39.234375 62.25 
Q 35.15625 65.921875 28.609375 65.921875 
Q 23.96875 65.921875 18.8125 64.3125 
Q 13.671875 62.703125 7.8125 59.421875 
L 7.8125 69.390625 
Q 13.765625 71.78125 18.9375 73 
Q 24.125 74.21875 28.421875 74.21875 
Q 39.75 74.21875 46.484375 68.546875 
Q 53.21875 62.890625 53.21875 53.421875 
Q 53.21875 48.921875 51.53125 44.890625 
Q 49.859375 40.875 45.40625 35.40625 
Q 44.1875 33.984375 37.640625 27.21875 
Q 31.109375 20.453125 19.1875 8.296875 
z
" id="DejaVuSans-50"/>
      </defs>
      <g transform="translate(251.762625 187.461451)scale(0.09 -0.09)">
       <use xlink:href="#DejaVuSans-50"/>
       <use x="63.623047" xlink:href="#DejaVuSans-48"/>
       <use x="127.246094" xlink:href="#DejaVuSans-48"/>
      </g>
     </g>
    </g>
    <g id="xtick_4">
     <g id="line2d_4">
      <g>
       <use style="stroke:#000000;stroke-width:0.8;" x="355.968" xlink:href="#m4f9b414f1e" y="173.622857"/>
      </g>
     </g>
     <g id="text_4">
      <!-- 300 -->
      <defs>
       <path d="M 40.578125 39.3125 
Q 47.65625 37.796875 51.625 33 
Q 55.609375 28.21875 55.609375 21.1875 
Q 55.609375 10.40625 48.1875 4.484375 
Q 40.765625 -1.421875 27.09375 -1.421875 
Q 22.515625 -1.421875 17.65625 -0.515625 
Q 12.796875 0.390625 7.625 2.203125 
L 7.625 11.71875 
Q 11.71875 9.328125 16.59375 8.109375 
Q 21.484375 6.890625 26.8125 6.890625 
Q 36.078125 6.890625 40.9375 10.546875 
Q 45.796875 14.203125 45.796875 21.1875 
Q 45.796875 27.640625 41.28125 31.265625 
Q 36.765625 34.90625 28.71875 34.90625 
L 20.21875 34.90625 
L 20.21875 43.015625 
L 29.109375 43.015625 
Q 36.375 43.015625 40.234375 45.921875 
Q 44.09375 48.828125 44.09375 54.296875 
Q 44.09375 59.90625 40.109375 62.90625 
Q 36.140625 65.921875 28.71875 65.921875 
Q 24.65625 65.921875 20.015625 65.03125 
Q 15.375 64.15625 9.8125 62.3125 
L 9.8125 71.09375 
Q 15.4375 72.65625 20.34375 73.4375 
Q 25.25 74.21875 29.59375 74.21875 
Q 40.828125 74.21875 47.359375 69.109375 
Q 53.90625 64.015625 53.90625 55.328125 
Q 53.90625 49.265625 50.4375 45.09375 
Q 46.96875 40.921875 40.578125 39.3125 
z
" id="DejaVuSans-51"/>
      </defs>
      <g transform="translate(347.378625 187.461451)scale(0.09 -0.09)">
       <use xlink:href="#DejaVuSans-51"/>
       <use x="63.623047" xlink:href="#DejaVuSans-48"/>
       <use x="127.246094" xlink:href="#DejaVuSans-48"/>
      </g>
     </g>
    </g>
    <g id="xtick_5">
     <g id="line2d_5">
      <g>
       <use style="stroke:#000000;stroke-width:0.8;" x="451.584" xlink:href="#m4f9b414f1e" y="173.622857"/>
      </g>
     </g>
     <g id="text_5">
      <!-- 400 -->
      <defs>
       <path d="M 37.796875 64.3125 
L 12.890625 25.390625 
L 37.796875 25.390625 
z
M 35.203125 72.90625 
L 47.609375 72.90625 
L 47.609375 25.390625 
L 58.015625 25.390625 
L 58.015625 17.1875 
L 47.609375 17.1875 
L 47.609375 0 
L 37.796875 0 
L 37.796875 17.1875 
L 4.890625 17.1875 
L 4.890625 26.703125 
z
" id="DejaVuSans-52"/>
      </defs>
      <g transform="translate(442.994625 187.461451)scale(0.09 -0.09)">
       <use xlink:href="#DejaVuSans-52"/>
       <use x="63.623047" xlink:href="#DejaVuSans-48"/>
       <use x="127.246094" xlink:href="#DejaVuSans-48"/>
      </g>
     </g>
    </g>
    <g id="xtick_6">
     <g id="line2d_6">
      <g>
       <use style="stroke:#000000;stroke-width:0.8;" x="547.2" xlink:href="#m4f9b414f1e" y="173.622857"/>
      </g>
     </g>
     <g id="text_6">
      <!-- 500 -->
      <defs>
       <path d="M 10.796875 72.90625 
L 49.515625 72.90625 
L 49.515625 64.59375 
L 19.828125 64.59375 
L 19.828125 46.734375 
Q 21.96875 47.46875 24.109375 47.828125 
Q 26.265625 48.1875 28.421875 48.1875 
Q 40.625 48.1875 47.75 41.5 
Q 54.890625 34.8125 54.890625 23.390625 
Q 54.890625 11.625 47.5625 5.09375 
Q 40.234375 -1.421875 26.90625 -1.421875 
Q 22.3125 -1.421875 17.546875 -0.640625 
Q 12.796875 0.140625 7.71875 1.703125 
L 7.71875 11.625 
Q 12.109375 9.234375 16.796875 8.0625 
Q 21.484375 6.890625 26.703125 6.890625 
Q 35.15625 6.890625 40.078125 11.328125 
Q 45.015625 15.765625 45.015625 23.390625 
Q 45.015625 31 40.078125 35.4375 
Q 35.15625 39.890625 26.703125 39.890625 
Q 22.75 39.890625 18.8125 39.015625 
Q 14.890625 38.140625 10.796875 36.28125 
z
" id="DejaVuSans-53"/>
      </defs>
      <g transform="translate(538.610625 187.461451)scale(0.09 -0.09)">
       <use xlink:href="#DejaVuSans-53"/>
       <use x="63.623047" xlink:href="#DejaVuSans-48"/>
       <use x="127.246094" xlink:href="#DejaVuSans-48"/>
      </g>
     </g>
    </g>
   </g>
   <g id="matplotlib.axis_2">
    <g id="ytick_1">
     <g id="line2d_7">
      <defs>
       <path d="M 0 0 
L -3.5 0 
" id="m3ceaba9526" style="stroke:#000000;stroke-width:0.8;"/>
      </defs>
      <g>
       <use style="stroke:#000000;stroke-width:0.8;" x="69.12" xlink:href="#m3ceaba9526" y="167.04"/>
      </g>
     </g>
     <g id="text_7">
      <!-- 0 -->
      <g transform="translate(56.39375 170.459297)scale(0.09 -0.09)">
       <use xlink:href="#DejaVuSans-48"/>
      </g>
     </g>
    </g>
    <g id="ytick_2">
     <g id="line2d_8">
      <g>
       <use style="stroke:#000000;stroke-width:0.8;" x="69.12" xlink:href="#m3ceaba9526" y="142.530447"/>
      </g>
     </g>
     <g id="text_8">
      <!-- 50 -->
      <g transform="translate(50.6675 145.949744)scale(0.09 -0.09)">
       <use xlink:href="#DejaVuSans-53"/>
       <use x="63.623047" xlink:href="#DejaVuSans-48"/>
      </g>
     </g>
    </g>
    <g id="ytick_3">
     <g id="line2d_9">
      <g>
       <use style="stroke:#000000;stroke-width:0.8;" x="69.12" xlink:href="#m3ceaba9526" y="118.020893"/>
      </g>
     </g>
     <g id="text_9">
      <!-- 100 -->
      <g transform="translate(44.94125 121.44019)scale(0.09 -0.09)">
       <use xlink:href="#DejaVuSans-49"/>
       <use x="63.623047" xlink:href="#DejaVuSans-48"/>
       <use x="127.246094" xlink:href="#DejaVuSans-48"/>
      </g>
     </g>
    </g>
    <g id="ytick_4">
     <g id="line2d_10">
      <g>
       <use style="stroke:#000000;stroke-width:0.8;" x="69.12" xlink:href="#m3ceaba9526" y="93.51134"/>
      </g>
     </g>
     <g id="text_10">
      <!-- 150 -->
      <g transform="translate(44.94125 96.930637)scale(0.09 -0.09)">
       <use xlink:href="#DejaVuSans-49"/>
       <use x="63.623047" xlink:href="#DejaVuSans-53"/>
       <use x="127.246094" xlink:href="#DejaVuSans-48"/>
      </g>
     </g>
    </g>
    <g id="ytick_5">
     <g id="line2d_11">
      <g>
       <use style="stroke:#000000;stroke-width:0.8;" x="69.12" xlink:href="#m3ceaba9526" y="69.001787"/>
      </g>
     </g>
     <g id="text_11">
      <!-- 200 -->
      <g transform="translate(44.94125 72.421084)scale(0.09 -0.09)">
       <use xlink:href="#DejaVuSans-50"/>
       <use x="63.623047" xlink:href="#DejaVuSans-48"/>
       <use x="127.246094" xlink:href="#DejaVuSans-48"/>
      </g>
     </g>
    </g>
    <g id="ytick_6">
     <g id="line2d_12">
      <g>
       <use style="stroke:#000000;stroke-width:0.8;" x="69.12" xlink:href="#m3ceaba9526" y="44.492233"/>
      </g>
     </g>
     <g id="text_12">
      <!-- 250 -->
      <g transform="translate(44.94125 47.91153)scale(0.09 -0.09)">
       <use xlink:href="#DejaVuSans-50"/>
       <use x="63.623047" xlink:href="#DejaVuSans-53"/>
       <use x="127.246094" xlink:href="#DejaVuSans-48"/>
      </g>
     </g>
    </g>
   </g>
   <g id="line2d_13">
    <path clip-path="url(#paf42f24314)" d="M 69.12 35.382857 
L 577 35.382857 
L 577 35.382857 
" style="fill:none;stroke:#000000;stroke-dasharray:1,1.65;stroke-dashoffset:0;"/>
   </g>
   <g id="line2d_14">
    <path clip-path="url(#paf42f24314)" d="M 69.12 163.50779 
L 124.57728 134.373076 
L 161.86752 114.77388 
L 162.82368 114.392703 
L 234.53568 114.392709 
L 236.448 111.472323 
L 241.2288 104.045576 
L 245.05344 98.482726 
L 246.96576 96.162976 
L 251.74656 90.694176 
L 252.70272 114.247662 
L 264.17664 97.434695 
L 268.95744 89.827449 
L 337.80096 89.827073 
L 338.75712 89.230722 
L 346.4064 77.351401 
L 350.23104 71.880183 
L 355.968 65.320205 
L 356.92416 88.457297 
L 367.44192 70.930222 
L 371.26656 65.261814 
L 441.06624 65.261424 
L 443.93472 60.846953 
L 446.8032 56.344519 
L 450.62784 52.166945 
L 461.1456 40.942934 
L 462.10176 65.266329 
L 577 65.262482 
L 577 65.262482 
" style="fill:none;stroke:#008000;stroke-linecap:square;"/>
   </g>
   <g id="line2d_15">
    <path clip-path="url(#paf42f24314)" d="M 69.12 164.471814 
L 162.82368 139.968184 
L 234.53568 139.968178 
L 236.448 137.054444 
L 241.2288 129.644455 
L 245.05344 124.094327 
L 246.96576 121.77986 
L 251.74656 116.323292 
L 252.70272 115.458684 
L 337.80096 115.458614 
L 338.75712 114.863306 
L 346.4064 103.011077 
L 350.23104 97.552064 
L 355.968 91.006924 
L 357.88032 90.949057 
L 441.06624 90.949051 
L 443.93472 86.544127 
L 446.8032 82.051853 
L 450.62784 77.883788 
L 461.1456 66.685109 
L 462.10176 66.439476 
L 577 66.437578 
L 577 66.437578 
" style="fill:none;stroke:#bf00bf;stroke-linecap:square;"/>
   </g>
   <g id="line2d_16">
    <path clip-path="url(#paf42f24314)" d="M 69.12 167.039988 
L 234.53568 167.039998 
L 236.448 164.126256 
L 239.31648 159.595801 
L 240.27264 158.398956 
L 241.2288 156.983582 
L 244.09728 153.528014 
L 245.05344 152.394607 
L 246.96576 150.578882 
L 251.74656 146.371145 
L 252.70272 145.751077 
L 294.77376 156.808409 
L 299.55456 156.813547 
L 303.3792 157.788082 
L 337.80096 166.863279 
L 338.75712 166.444689 
L 344.49408 157.446909 
L 346.4064 154.981278 
L 349.27488 151.504962 
L 351.1872 149.691156 
L 355.968 145.494537 
L 357.88032 145.941332 
L 398.9952 156.807377 
L 403.776 156.807377 
L 406.64448 157.517602 
L 441.06624 166.62378 
L 442.97856 164.13138 
L 446.8032 158.142888 
L 447.75936 157.072253 
L 449.67168 155.426624 
L 461.1456 146.250625 
L 462.10176 146.258835 
L 492.69888 154.300058 
L 494.6112 154.362781 
L 497.47968 154.362779 
L 498.43584 154.490253 
L 547.2 167.039996 
L 577 167.039996 
L 577 167.039996 
" style="fill:none;stroke:#ff0000;stroke-linecap:square;"/>
   </g>
   <g id="line2d_17">
    <path clip-path="url(#paf42f24314)" d="M 69.12 36.346893 
L 104.49792 45.657819 
L 162.82368 60.958341 
L 234.53568 60.958329 
L 236.448 63.878723 
L 239.31648 68.419532 
L 240.27264 69.619542 
L 241.2288 71.038155 
L 244.09728 74.503209 
L 245.05344 75.639851 
L 246.96576 77.460858 
L 251.74656 81.680829 
L 252.70272 57.882802 
L 264.17664 71.707306 
L 268.00128 76.943765 
L 268.95744 78.072633 
L 294.77376 71.246139 
L 299.55456 71.240587 
L 303.3792 70.266261 
L 337.80096 61.191118 
L 338.75712 61.610753 
L 344.49408 70.628607 
L 346.4064 73.101254 
L 349.27488 76.587276 
L 351.1872 78.406337 
L 355.968 82.615039 
L 356.92416 59.224339 
L 366.48576 72.793674 
L 371.26656 78.627527 
L 398.9952 71.302697 
L 403.776 71.302709 
L 406.64448 70.592502 
L 441.06624 61.486703 
L 442.97856 63.985397 
L 446.8032 69.987302 
L 447.75936 71.060652 
L 449.67168 72.710747 
L 461.1456 81.914407 
L 462.10176 57.337169 
L 492.69888 49.295717 
L 494.6112 49.232874 
L 497.47968 49.232928 
L 498.43584 49.105799 
L 547.2 36.555813 
L 577 36.557957 
L 577 36.557957 
" style="fill:none;stroke:#0000ff;stroke-linecap:square;"/>
   </g>
   <g id="line2d_18">
    <path clip-path="url(#paf42f24314)" d="M 69.12 114.762757 
L 158.99904 124.229728 
L 162.82368 124.607336 
L 234.53568 124.607332 
L 237.40416 126.381224 
L 240.27264 128.071817 
L 242.18496 129.118061 
L 246.0096 130.863304 
L 251.74656 132.896332 
L 252.70272 123.377121 
L 264.17664 128.906922 
L 268.95744 131.453053 
L 295.72992 128.720244 
L 300.51072 128.633988 
L 337.80096 124.700447 
L 338.75712 124.868301 
L 345.45024 129.000031 
L 350.23104 131.250866 
L 355.968 133.270016 
L 356.92416 123.913736 
L 367.44192 129.812587 
L 371.26656 131.675011 
L 399.95136 128.745074 
L 404.73216 128.662895 
L 441.06624 124.818681 
L 442.97856 125.818159 
L 446.8032 128.218921 
L 448.71552 128.998824 
L 461.1456 132.989763 
L 462.10176 123.158867 
L 493.65504 119.917153 
L 498.43584 119.866319 
L 547.2 114.846325 
L 577 114.847183 
L 577 114.847183 
" style="fill:none;stroke:#000000;stroke-dasharray:6.4,1.6,1,1.6;stroke-dashoffset:0;"/>
   </g>
   <g id="patch_12">
    <path d="M 69.12 173.622857 
L 69.12 28.8 
" style="fill:none;stroke:#000000;stroke-linecap:square;stroke-linejoin:miter;stroke-width:0.8;"/>
   </g>
   <g id="patch_13">
    <path d="M 547.2 173.622857 
L 547.2 28.8 
" style="fill:none;stroke:#000000;stroke-linecap:square;stroke-linejoin:miter;stroke-width:0.8;"/>
   </g>
   <g id="patch_14">
    <path d="M 69.12 173.622857 
L 547.2 173.622857 
" style="fill:none;stroke:#000000;stroke-linecap:square;stroke-linejoin:miter;stroke-width:0.8;"/>
   </g>
   <g id="patch_15">
    <path d="M 69.12 28.8 
L 547.2 28.8 
" style="fill:none;stroke:#000000;stroke-linecap:square;stroke-linejoin:miter;stroke-width:0.8;"/>
   </g>
   <g id="text_13">
    <!-- Real execution -->
    <defs>
     <path d="M 44.390625 34.1875 
Q 47.5625 33.109375 50.5625 29.59375 
Q 53.5625 26.078125 56.59375 19.921875 
L 66.609375 0 
L 56 0 
L 46.6875 18.703125 
Q 43.0625 26.03125 39.671875 28.421875 
Q 36.28125 30.8125 30.421875 30.8125 
L 19.671875 30.8125 
L 19.671875 0 
L 9.8125 0 
L 9.8125 72.90625 
L 32.078125 72.90625 
Q 44.578125 72.90625 50.734375 67.671875 
Q 56.890625 62.453125 56.890625 51.90625 
Q 56.890625 45.015625 53.6875 40.46875 
Q 50.484375 35.9375 44.390625 34.1875 
z
M 19.671875 64.796875 
L 19.671875 38.921875 
L 32.078125 38.921875 
Q 39.203125 38.921875 42.84375 42.21875 
Q 46.484375 45.515625 46.484375 51.90625 
Q 46.484375 58.296875 42.84375 61.546875 
Q 39.203125 64.796875 32.078125 64.796875 
z
" id="DejaVuSans-82"/>
     <path d="M 56.203125 29.59375 
L 56.203125 25.203125 
L 14.890625 25.203125 
Q 15.484375 15.921875 20.484375 11.0625 
Q 25.484375 6.203125 34.421875 6.203125 
Q 39.59375 6.203125 44.453125 7.46875 
Q 49.3125 8.734375 54.109375 11.28125 
L 54.109375 2.78125 
Q 49.265625 0.734375 44.1875 -0.34375 
Q 39.109375 -1.421875 33.890625 -1.421875 
Q 20.796875 -1.421875 13.15625 6.1875 
Q 5.515625 13.8125 5.515625 26.8125 
Q 5.515625 40.234375 12.765625 48.109375 
Q 20.015625 56 32.328125 56 
Q 43.359375 56 49.78125 48.890625 
Q 56.203125 41.796875 56.203125 29.59375 
z
M 47.21875 32.234375 
Q 47.125 39.59375 43.09375 43.984375 
Q 39.0625 48.390625 32.421875 48.390625 
Q 24.90625 48.390625 20.390625 44.140625 
Q 15.875 39.890625 15.1875 32.171875 
z
" id="DejaVuSans-101"/>
     <path d="M 34.28125 27.484375 
Q 23.390625 27.484375 19.1875 25 
Q 14.984375 22.515625 14.984375 16.5 
Q 14.984375 11.71875 18.140625 8.90625 
Q 21.296875 6.109375 26.703125 6.109375 
Q 34.1875 6.109375 38.703125 11.40625 
Q 43.21875 16.703125 43.21875 25.484375 
L 43.21875 27.484375 
z
M 52.203125 31.203125 
L 52.203125 0 
L 43.21875 0 
L 43.21875 8.296875 
Q 40.140625 3.328125 35.546875 0.953125 
Q 30.953125 -1.421875 24.3125 -1.421875 
Q 15.921875 -1.421875 10.953125 3.296875 
Q 6 8.015625 6 15.921875 
Q 6 25.140625 12.171875 29.828125 
Q 18.359375 34.515625 30.609375 34.515625 
L 43.21875 34.515625 
L 43.21875 35.40625 
Q 43.21875 41.609375 39.140625 45 
Q 35.0625 48.390625 27.6875 48.390625 
Q 23 48.390625 18.546875 47.265625 
Q 14.109375 46.140625 10.015625 43.890625 
L 10.015625 52.203125 
Q 14.9375 54.109375 19.578125 55.046875 
Q 24.21875 56 28.609375 56 
Q 40.484375 56 46.34375 49.84375 
Q 52.203125 43.703125 52.203125 31.203125 
z
" id="DejaVuSans-97"/>
     <path d="M 9.421875 75.984375 
L 18.40625 75.984375 
L 18.40625 0 
L 9.421875 0 
z
" id="DejaVuSans-108"/>
     <path id="DejaVuSans-32"/>
     <path d="M 54.890625 54.6875 
L 35.109375 28.078125 
L 55.90625 0 
L 45.3125 0 
L 29.390625 21.484375 
L 13.484375 0 
L 2.875 0 
L 24.125 28.609375 
L 4.6875 54.6875 
L 15.28125 54.6875 
L 29.78125 35.203125 
L 44.28125 54.6875 
z
" id="DejaVuSans-120"/>
     <path d="M 48.78125 52.59375 
L 48.78125 44.1875 
Q 44.96875 46.296875 41.140625 47.34375 
Q 37.3125 48.390625 33.40625 48.390625 
Q 24.65625 48.390625 19.8125 42.84375 
Q 14.984375 37.3125 14.984375 27.296875 
Q 14.984375 17.28125 19.8125 11.734375 
Q 24.65625 6.203125 33.40625 6.203125 
Q 37.3125 6.203125 41.140625 7.25 
Q 44.96875 8.296875 48.78125 10.40625 
L 48.78125 2.09375 
Q 45.015625 0.34375 40.984375 -0.53125 
Q 36.96875 -1.421875 32.421875 -1.421875 
Q 20.0625 -1.421875 12.78125 6.34375 
Q 5.515625 14.109375 5.515625 27.296875 
Q 5.515625 40.671875 12.859375 48.328125 
Q 20.21875 56 33.015625 56 
Q 37.15625 56 41.109375 55.140625 
Q 45.0625 54.296875 48.78125 52.59375 
z
" id="DejaVuSans-99"/>
     <path d="M 8.5 21.578125 
L 8.5 54.6875 
L 17.484375 54.6875 
L 17.484375 21.921875 
Q 17.484375 14.15625 20.5 10.265625 
Q 23.53125 6.390625 29.59375 6.390625 
Q 36.859375 6.390625 41.078125 11.03125 
Q 45.3125 15.671875 45.3125 23.6875 
L 45.3125 54.6875 
L 54.296875 54.6875 
L 54.296875 0 
L 45.3125 0 
L 45.3125 8.40625 
Q 42.046875 3.421875 37.71875 1 
Q 33.40625 -1.421875 27.6875 -1.421875 
Q 18.265625 -1.421875 13.375 4.4375 
Q 8.5 10.296875 8.5 21.578125 
z
M 31.109375 56 
z
" id="DejaVuSans-117"/>
     <path d="M 18.3125 70.21875 
L 18.3125 54.6875 
L 36.8125 54.6875 
L 36.8125 47.703125 
L 18.3125 47.703125 
L 18.3125 18.015625 
Q 18.3125 11.328125 20.140625 9.421875 
Q 21.96875 7.515625 27.59375 7.515625 
L 36.8125 7.515625 
L 36.8125 0 
L 27.59375 0 
Q 17.1875 0 13.234375 3.875 
Q 9.28125 7.765625 9.28125 18.015625 
L 9.28125 47.703125 
L 2.6875 47.703125 
L 2.6875 54.6875 
L 9.28125 54.6875 
L 9.28125 70.21875 
z
" id="DejaVuSans-116"/>
     <path d="M 9.421875 54.6875 
L 18.40625 54.6875 
L 18.40625 0 
L 9.421875 0 
z
M 9.421875 75.984375 
L 18.40625 75.984375 
L 18.40625 64.59375 
L 9.421875 64.59375 
z
" id="DejaVuSans-105"/>
     <path d="M 30.609375 48.390625 
Q 23.390625 48.390625 19.1875 42.75 
Q 14.984375 37.109375 14.984375 27.296875 
Q 14.984375 17.484375 19.15625 11.84375 
Q 23.34375 6.203125 30.609375 6.203125 
Q 37.796875 6.203125 41.984375 11.859375 
Q 46.1875 17.53125 46.1875 27.296875 
Q 46.1875 37.015625 41.984375 42.703125 
Q 37.796875 48.390625 30.609375 48.390625 
z
M 30.609375 56 
Q 42.328125 56 49.015625 48.375 
Q 55.71875 40.765625 55.71875 27.296875 
Q 55.71875 13.875 49.015625 6.21875 
Q 42.328125 -1.421875 30.609375 -1.421875 
Q 18.84375 -1.421875 12.171875 6.21875 
Q 5.515625 13.875 5.515625 27.296875 
Q 5.515625 40.765625 12.171875 48.375 
Q 18.84375 56 30.609375 56 
z
" id="DejaVuSans-111"/>
     <path d="M 54.890625 33.015625 
L 54.890625 0 
L 45.90625 0 
L 45.90625 32.71875 
Q 45.90625 40.484375 42.875 44.328125 
Q 39.84375 48.1875 33.796875 48.1875 
Q 26.515625 48.1875 22.3125 43.546875 
Q 18.109375 38.921875 18.109375 30.90625 
L 18.109375 0 
L 9.078125 0 
L 9.078125 54.6875 
L 18.109375 54.6875 
L 18.109375 46.1875 
Q 21.34375 51.125 25.703125 53.5625 
Q 30.078125 56 35.796875 56 
Q 45.21875 56 50.046875 50.171875 
Q 54.890625 44.34375 54.890625 33.015625 
z
" id="DejaVuSans-110"/>
    </defs>
    <g transform="translate(270.965469 22.8)scale(0.1 -0.1)">
     <use xlink:href="#DejaVuSans-82"/>
     <use x="69.419922" xlink:href="#DejaVuSans-101"/>
     <use x="130.943359" xlink:href="#DejaVuSans-97"/>
     <use x="192.222656" xlink:href="#DejaVuSans-108"/>
     <use x="220.005859" xlink:href="#DejaVuSans-32"/>
     <use x="251.792969" xlink:href="#DejaVuSans-101"/>
     <use x="313.300781" xlink:href="#DejaVuSans-120"/>
     <use x="372.433594" xlink:href="#DejaVuSans-101"/>
     <use x="433.957031" xlink:href="#DejaVuSans-99"/>
     <use x="488.9375" xlink:href="#DejaVuSans-117"/>
     <use x="552.316406" xlink:href="#DejaVuSans-116"/>
     <use x="591.525391" xlink:href="#DejaVuSans-105"/>
     <use x="619.308594" xlink:href="#DejaVuSans-111"/>
     <use x="680.490234" xlink:href="#DejaVuSans-110"/>
    </g>
   </g>
   <g id="legend_1">
    <g id="patch_16">
     <path d="M 445.543594 155.143125 
L 540.9 155.143125 
Q 542.7 155.143125 542.7 153.343125 
L 542.7 35.1 
Q 542.7 33.3 540.9 33.3 
L 445.543594 33.3 
Q 443.743594 33.3 443.743594 35.1 
L 443.743594 153.343125 
Q 443.743594 155.143125 445.543594 155.143125 
z
" style="fill:#ffffff;opacity:0.8;stroke:#cccccc;stroke-linejoin:miter;"/>
    </g>
    <g id="line2d_19">
     <path d="M 447.343594 40.588594 
L 465.343594 40.588594 
" style="fill:none;stroke:#000000;stroke-dasharray:1,1.65;stroke-dashoffset:0;"/>
    </g>
    <g id="line2d_20"/>
    <g id="text_14">
     <!-- total mem -->
     <defs>
      <path d="M 52 44.1875 
Q 55.375 50.25 60.0625 53.125 
Q 64.75 56 71.09375 56 
Q 79.640625 56 84.28125 50.015625 
Q 88.921875 44.046875 88.921875 33.015625 
L 88.921875 0 
L 79.890625 0 
L 79.890625 32.71875 
Q 79.890625 40.578125 77.09375 44.375 
Q 74.3125 48.1875 68.609375 48.1875 
Q 61.625 48.1875 57.5625 43.546875 
Q 53.515625 38.921875 53.515625 30.90625 
L 53.515625 0 
L 44.484375 0 
L 44.484375 32.71875 
Q 44.484375 40.625 41.703125 44.40625 
Q 38.921875 48.1875 33.109375 48.1875 
Q 26.21875 48.1875 22.15625 43.53125 
Q 18.109375 38.875 18.109375 30.90625 
L 18.109375 0 
L 9.078125 0 
L 9.078125 54.6875 
L 18.109375 54.6875 
L 18.109375 46.1875 
Q 21.1875 51.21875 25.484375 53.609375 
Q 29.78125 56 35.6875 56 
Q 41.65625 56 45.828125 52.96875 
Q 50 49.953125 52 44.1875 
z
" id="DejaVuSans-109"/>
     </defs>
     <g transform="translate(472.543594 43.738594)scale(0.09 -0.09)">
      <use xlink:href="#DejaVuSans-116"/>
      <use x="39.208984" xlink:href="#DejaVuSans-111"/>
      <use x="100.390625" xlink:href="#DejaVuSans-116"/>
      <use x="139.599609" xlink:href="#DejaVuSans-97"/>
      <use x="200.878906" xlink:href="#DejaVuSans-108"/>
      <use x="228.662109" xlink:href="#DejaVuSans-32"/>
      <use x="260.449219" xlink:href="#DejaVuSans-109"/>
      <use x="357.861328" xlink:href="#DejaVuSans-101"/>
      <use x="419.384766" xlink:href="#DejaVuSans-109"/>
     </g>
    </g>
    <g id="line2d_21">
     <path d="M 447.343594 53.798906 
L 465.343594 53.798906 
" style="fill:none;stroke:#008000;stroke-linecap:square;"/>
    </g>
    <g id="line2d_22"/>
    <g id="text_15">
     <!-- used mem -->
     <defs>
      <path d="M 44.28125 53.078125 
L 44.28125 44.578125 
Q 40.484375 46.53125 36.375 47.5 
Q 32.28125 48.484375 27.875 48.484375 
Q 21.1875 48.484375 17.84375 46.4375 
Q 14.5 44.390625 14.5 40.28125 
Q 14.5 37.15625 16.890625 35.375 
Q 19.28125 33.59375 26.515625 31.984375 
L 29.59375 31.296875 
Q 39.15625 29.25 43.1875 25.515625 
Q 47.21875 21.78125 47.21875 15.09375 
Q 47.21875 7.46875 41.1875 3.015625 
Q 35.15625 -1.421875 24.609375 -1.421875 
Q 20.21875 -1.421875 15.453125 -0.5625 
Q 10.6875 0.296875 5.421875 2 
L 5.421875 11.28125 
Q 10.40625 8.6875 15.234375 7.390625 
Q 20.0625 6.109375 24.8125 6.109375 
Q 31.15625 6.109375 34.5625 8.28125 
Q 37.984375 10.453125 37.984375 14.40625 
Q 37.984375 18.0625 35.515625 20.015625 
Q 33.0625 21.96875 24.703125 23.78125 
L 21.578125 24.515625 
Q 13.234375 26.265625 9.515625 29.90625 
Q 5.8125 33.546875 5.8125 39.890625 
Q 5.8125 47.609375 11.28125 51.796875 
Q 16.75 56 26.8125 56 
Q 31.78125 56 36.171875 55.265625 
Q 40.578125 54.546875 44.28125 53.078125 
z
" id="DejaVuSans-115"/>
      <path d="M 45.40625 46.390625 
L 45.40625 75.984375 
L 54.390625 75.984375 
L 54.390625 0 
L 45.40625 0 
L 45.40625 8.203125 
Q 42.578125 3.328125 38.25 0.953125 
Q 33.9375 -1.421875 27.875 -1.421875 
Q 17.96875 -1.421875 11.734375 6.484375 
Q 5.515625 14.40625 5.515625 27.296875 
Q 5.515625 40.1875 11.734375 48.09375 
Q 17.96875 56 27.875 56 
Q 33.9375 56 38.25 53.625 
Q 42.578125 51.265625 45.40625 46.390625 
z
M 14.796875 27.296875 
Q 14.796875 17.390625 18.875 11.75 
Q 22.953125 6.109375 30.078125 6.109375 
Q 37.203125 6.109375 41.296875 11.75 
Q 45.40625 17.390625 45.40625 27.296875 
Q 45.40625 37.203125 41.296875 42.84375 
Q 37.203125 48.484375 30.078125 48.484375 
Q 22.953125 48.484375 18.875 42.84375 
Q 14.796875 37.203125 14.796875 27.296875 
z
" id="DejaVuSans-100"/>
     </defs>
     <g transform="translate(472.543594 56.948906)scale(0.09 -0.09)">
      <use xlink:href="#DejaVuSans-117"/>
      <use x="63.378906" xlink:href="#DejaVuSans-115"/>
      <use x="115.478516" xlink:href="#DejaVuSans-101"/>
      <use x="177.001953" xlink:href="#DejaVuSans-100"/>
      <use x="240.478516" xlink:href="#DejaVuSans-32"/>
      <use x="272.265625" xlink:href="#DejaVuSans-109"/>
      <use x="369.677734" xlink:href="#DejaVuSans-101"/>
      <use x="431.201172" xlink:href="#DejaVuSans-109"/>
     </g>
    </g>
    <g id="line2d_23">
     <path d="M 447.343594 67.009219 
L 465.343594 67.009219 
" style="fill:none;stroke:#bf00bf;stroke-linecap:square;"/>
    </g>
    <g id="line2d_24"/>
    <g id="text_16">
     <!-- cache used -->
     <defs>
      <path d="M 54.890625 33.015625 
L 54.890625 0 
L 45.90625 0 
L 45.90625 32.71875 
Q 45.90625 40.484375 42.875 44.328125 
Q 39.84375 48.1875 33.796875 48.1875 
Q 26.515625 48.1875 22.3125 43.546875 
Q 18.109375 38.921875 18.109375 30.90625 
L 18.109375 0 
L 9.078125 0 
L 9.078125 75.984375 
L 18.109375 75.984375 
L 18.109375 46.1875 
Q 21.34375 51.125 25.703125 53.5625 
Q 30.078125 56 35.796875 56 
Q 45.21875 56 50.046875 50.171875 
Q 54.890625 44.34375 54.890625 33.015625 
z
" id="DejaVuSans-104"/>
     </defs>
     <g transform="translate(472.543594 70.159219)scale(0.09 -0.09)">
      <use xlink:href="#DejaVuSans-99"/>
      <use x="54.980469" xlink:href="#DejaVuSans-97"/>
      <use x="116.259766" xlink:href="#DejaVuSans-99"/>
      <use x="171.240234" xlink:href="#DejaVuSans-104"/>
      <use x="234.619141" xlink:href="#DejaVuSans-101"/>
      <use x="296.142578" xlink:href="#DejaVuSans-32"/>
      <use x="327.929688" xlink:href="#DejaVuSans-117"/>
      <use x="391.308594" xlink:href="#DejaVuSans-115"/>
      <use x="443.408203" xlink:href="#DejaVuSans-101"/>
      <use x="504.931641" xlink:href="#DejaVuSans-100"/>
     </g>
    </g>
    <g id="line2d_25">
     <path d="M 447.343594 80.219531 
L 465.343594 80.219531 
" style="fill:none;stroke:#ff0000;stroke-linecap:square;"/>
    </g>
    <g id="line2d_26"/>
    <g id="text_17">
     <!-- dirty data -->
     <defs>
      <path d="M 41.109375 46.296875 
Q 39.59375 47.171875 37.8125 47.578125 
Q 36.03125 48 33.890625 48 
Q 26.265625 48 22.1875 43.046875 
Q 18.109375 38.09375 18.109375 28.8125 
L 18.109375 0 
L 9.078125 0 
L 9.078125 54.6875 
L 18.109375 54.6875 
L 18.109375 46.1875 
Q 20.953125 51.171875 25.484375 53.578125 
Q 30.03125 56 36.53125 56 
Q 37.453125 56 38.578125 55.875 
Q 39.703125 55.765625 41.0625 55.515625 
z
" id="DejaVuSans-114"/>
      <path d="M 32.171875 -5.078125 
Q 28.375 -14.84375 24.75 -17.8125 
Q 21.140625 -20.796875 15.09375 -20.796875 
L 7.90625 -20.796875 
L 7.90625 -13.28125 
L 13.1875 -13.28125 
Q 16.890625 -13.28125 18.9375 -11.515625 
Q 21 -9.765625 23.484375 -3.21875 
L 25.09375 0.875 
L 2.984375 54.6875 
L 12.5 54.6875 
L 29.59375 11.921875 
L 46.6875 54.6875 
L 56.203125 54.6875 
z
" id="DejaVuSans-121"/>
     </defs>
     <g transform="translate(472.543594 83.369531)scale(0.09 -0.09)">
      <use xlink:href="#DejaVuSans-100"/>
      <use x="63.476562" xlink:href="#DejaVuSans-105"/>
      <use x="91.259766" xlink:href="#DejaVuSans-114"/>
      <use x="132.373047" xlink:href="#DejaVuSans-116"/>
      <use x="171.582031" xlink:href="#DejaVuSans-121"/>
      <use x="230.761719" xlink:href="#DejaVuSans-32"/>
      <use x="262.548828" xlink:href="#DejaVuSans-100"/>
      <use x="326.025391" xlink:href="#DejaVuSans-97"/>
      <use x="387.304688" xlink:href="#DejaVuSans-116"/>
      <use x="426.513672" xlink:href="#DejaVuSans-97"/>
     </g>
    </g>
    <g id="line2d_27">
     <path d="M 447.343594 93.429844 
L 465.343594 93.429844 
" style="fill:none;stroke:#0000ff;stroke-linecap:square;"/>
    </g>
    <g id="line2d_28"/>
    <g id="text_18">
     <!-- available mem -->
     <defs>
      <path d="M 2.984375 54.6875 
L 12.5 54.6875 
L 29.59375 8.796875 
L 46.6875 54.6875 
L 56.203125 54.6875 
L 35.6875 0 
L 23.484375 0 
z
" id="DejaVuSans-118"/>
      <path d="M 48.6875 27.296875 
Q 48.6875 37.203125 44.609375 42.84375 
Q 40.53125 48.484375 33.40625 48.484375 
Q 26.265625 48.484375 22.1875 42.84375 
Q 18.109375 37.203125 18.109375 27.296875 
Q 18.109375 17.390625 22.1875 11.75 
Q 26.265625 6.109375 33.40625 6.109375 
Q 40.53125 6.109375 44.609375 11.75 
Q 48.6875 17.390625 48.6875 27.296875 
z
M 18.109375 46.390625 
Q 20.953125 51.265625 25.265625 53.625 
Q 29.59375 56 35.59375 56 
Q 45.5625 56 51.78125 48.09375 
Q 58.015625 40.1875 58.015625 27.296875 
Q 58.015625 14.40625 51.78125 6.484375 
Q 45.5625 -1.421875 35.59375 -1.421875 
Q 29.59375 -1.421875 25.265625 0.953125 
Q 20.953125 3.328125 18.109375 8.203125 
L 18.109375 0 
L 9.078125 0 
L 9.078125 75.984375 
L 18.109375 75.984375 
z
" id="DejaVuSans-98"/>
     </defs>
     <g transform="translate(472.543594 96.579844)scale(0.09 -0.09)">
      <use xlink:href="#DejaVuSans-97"/>
      <use x="61.279297" xlink:href="#DejaVuSans-118"/>
      <use x="120.458984" xlink:href="#DejaVuSans-97"/>
      <use x="181.738281" xlink:href="#DejaVuSans-105"/>
      <use x="209.521484" xlink:href="#DejaVuSans-108"/>
      <use x="237.304688" xlink:href="#DejaVuSans-97"/>
      <use x="298.583984" xlink:href="#DejaVuSans-98"/>
      <use x="362.060547" xlink:href="#DejaVuSans-108"/>
      <use x="389.84375" xlink:href="#DejaVuSans-101"/>
      <use x="451.367188" xlink:href="#DejaVuSans-32"/>
      <use x="483.154297" xlink:href="#DejaVuSans-109"/>
      <use x="580.566406" xlink:href="#DejaVuSans-101"/>
      <use x="642.089844" xlink:href="#DejaVuSans-109"/>
     </g>
    </g>
    <g id="line2d_29">
     <path d="M 447.343594 106.640156 
L 465.343594 106.640156 
" style="fill:none;stroke:#000000;stroke-dasharray:6.4,1.6,1,1.6;stroke-dashoffset:0;"/>
    </g>
    <g id="line2d_30"/>
    <g id="text_19">
     <!-- dirty_ratio -->
     <defs>
      <path d="M 50.984375 -16.609375 
L 50.984375 -23.578125 
L -0.984375 -23.578125 
L -0.984375 -16.609375 
z
" id="DejaVuSans-95"/>
     </defs>
     <g transform="translate(472.543594 109.790156)scale(0.09 -0.09)">
      <use xlink:href="#DejaVuSans-100"/>
      <use x="63.476562" xlink:href="#DejaVuSans-105"/>
      <use x="91.259766" xlink:href="#DejaVuSans-114"/>
      <use x="132.373047" xlink:href="#DejaVuSans-116"/>
      <use x="171.582031" xlink:href="#DejaVuSans-121"/>
      <use x="230.761719" xlink:href="#DejaVuSans-95"/>
      <use x="280.761719" xlink:href="#DejaVuSans-114"/>
      <use x="321.875" xlink:href="#DejaVuSans-97"/>
      <use x="383.154297" xlink:href="#DejaVuSans-116"/>
      <use x="422.363281" xlink:href="#DejaVuSans-105"/>
      <use x="450.146484" xlink:href="#DejaVuSans-111"/>
     </g>
    </g>
    <g id="patch_17">
     <path d="M 447.343594 123.250781 
L 465.343594 123.250781 
L 465.343594 116.950781 
L 447.343594 116.950781 
z
" style="opacity:0.1;stroke:#000000;stroke-linejoin:miter;"/>
    </g>
    <g id="text_20">
     <!-- read -->
     <g transform="translate(472.543594 123.250781)scale(0.09 -0.09)">
      <use xlink:href="#DejaVuSans-114"/>
      <use x="41.082031" xlink:href="#DejaVuSans-101"/>
      <use x="102.605469" xlink:href="#DejaVuSans-97"/>
      <use x="163.884766" xlink:href="#DejaVuSans-100"/>
     </g>
    </g>
    <g id="patch_18">
     <path d="M 447.343594 136.461094 
L 465.343594 136.461094 
L 465.343594 130.161094 
L 447.343594 130.161094 
z
" style="opacity:0.25;stroke:#000000;stroke-linejoin:miter;"/>
    </g>
    <g id="text_21">
     <!-- computation -->
     <defs>
      <path d="M 18.109375 8.203125 
L 18.109375 -20.796875 
L 9.078125 -20.796875 
L 9.078125 54.6875 
L 18.109375 54.6875 
L 18.109375 46.390625 
Q 20.953125 51.265625 25.265625 53.625 
Q 29.59375 56 35.59375 56 
Q 45.5625 56 51.78125 48.09375 
Q 58.015625 40.1875 58.015625 27.296875 
Q 58.015625 14.40625 51.78125 6.484375 
Q 45.5625 -1.421875 35.59375 -1.421875 
Q 29.59375 -1.421875 25.265625 0.953125 
Q 20.953125 3.328125 18.109375 8.203125 
z
M 48.6875 27.296875 
Q 48.6875 37.203125 44.609375 42.84375 
Q 40.53125 48.484375 33.40625 48.484375 
Q 26.265625 48.484375 22.1875 42.84375 
Q 18.109375 37.203125 18.109375 27.296875 
Q 18.109375 17.390625 22.1875 11.75 
Q 26.265625 6.109375 33.40625 6.109375 
Q 40.53125 6.109375 44.609375 11.75 
Q 48.6875 17.390625 48.6875 27.296875 
z
" id="DejaVuSans-112"/>
     </defs>
     <g transform="translate(472.543594 136.461094)scale(0.09 -0.09)">
      <use xlink:href="#DejaVuSans-99"/>
      <use x="54.980469" xlink:href="#DejaVuSans-111"/>
      <use x="116.162109" xlink:href="#DejaVuSans-109"/>
      <use x="213.574219" xlink:href="#DejaVuSans-112"/>
      <use x="277.050781" xlink:href="#DejaVuSans-117"/>
      <use x="340.429688" xlink:href="#DejaVuSans-116"/>
      <use x="379.638672" xlink:href="#DejaVuSans-97"/>
      <use x="440.917969" xlink:href="#DejaVuSans-116"/>
      <use x="480.126953" xlink:href="#DejaVuSans-105"/>
      <use x="507.910156" xlink:href="#DejaVuSans-111"/>
      <use x="569.091797" xlink:href="#DejaVuSans-110"/>
     </g>
    </g>
    <g id="patch_19">
     <path d="M 447.343594 149.671406 
L 465.343594 149.671406 
L 465.343594 143.371406 
L 447.343594 143.371406 
z
" style="opacity:0.4;stroke:#000000;stroke-linejoin:miter;"/>
    </g>
    <g id="text_22">
     <!-- write -->
     <defs>
      <path d="M 4.203125 54.6875 
L 13.1875 54.6875 
L 24.421875 12.015625 
L 35.59375 54.6875 
L 46.1875 54.6875 
L 57.421875 12.015625 
L 68.609375 54.6875 
L 77.59375 54.6875 
L 63.28125 0 
L 52.6875 0 
L 40.921875 44.828125 
L 29.109375 0 
L 18.5 0 
z
" id="DejaVuSans-119"/>
     </defs>
     <g transform="translate(472.543594 149.671406)scale(0.09 -0.09)">
      <use xlink:href="#DejaVuSans-119"/>
      <use x="81.787109" xlink:href="#DejaVuSans-114"/>
      <use x="122.900391" xlink:href="#DejaVuSans-105"/>
      <use x="150.683594" xlink:href="#DejaVuSans-116"/>
      <use x="189.892578" xlink:href="#DejaVuSans-101"/>
     </g>
    </g>
   </g>
  </g>
  <g id="axes_2">
   <g id="patch_20">
    <path d="M 69.12 354.651429 
L 547.2 354.651429 
L 547.2 209.828571 
L 69.12 209.828571 
z
" style="fill:#ffffff;"/>
   </g>
   <g id="patch_21">
    <path clip-path="url(#p1c23ee6dfa)" d="M 69.12 354.651429 
L 69.12 209.828571 
L 171.932903 209.828571 
L 171.932903 354.651429 
z
" style="opacity:0.1;stroke:#000000;stroke-linejoin:miter;"/>
   </g>
   <g id="patch_22">
    <path clip-path="url(#p1c23ee6dfa)" d="M 171.932903 354.651429 
L 171.932903 209.828571 
L 243.644903 209.828571 
L 243.644903 354.651429 
z
" style="opacity:0.25;stroke:#000000;stroke-linejoin:miter;"/>
   </g>
   <g id="patch_23">
    <path clip-path="url(#p1c23ee6dfa)" d="M 243.644903 354.651429 
L 243.644903 209.828571 
L 253.580065 209.828571 
L 253.580065 354.651429 
z
" style="opacity:0.4;stroke:#000000;stroke-linejoin:miter;"/>
   </g>
   <g id="patch_24">
    <path clip-path="url(#p1c23ee6dfa)" d="M 253.580065 354.651429 
L 253.580065 209.828571 
L 263.515227 209.828571 
L 263.515227 354.651429 
z
" style="opacity:0.1;stroke:#000000;stroke-linejoin:miter;"/>
   </g>
   <g id="patch_25">
    <path clip-path="url(#p1c23ee6dfa)" d="M 263.515227 354.651429 
L 263.515227 209.828571 
L 335.227227 209.828571 
L 335.227227 354.651429 
z
" style="opacity:0.25;stroke:#000000;stroke-linejoin:miter;"/>
   </g>
   <g id="patch_26">
    <path clip-path="url(#p1c23ee6dfa)" d="M 335.227227 354.651429 
L 335.227227 209.828571 
L 350.08491 209.828571 
L 350.08491 354.651429 
z
" style="opacity:0.4;stroke:#000000;stroke-linejoin:miter;"/>
   </g>
   <g id="patch_27">
    <path clip-path="url(#p1c23ee6dfa)" d="M 350.08491 354.651429 
L 350.08491 209.828571 
L 360.020072 209.828571 
L 360.020072 354.651429 
z
" style="opacity:0.1;stroke:#000000;stroke-linejoin:miter;"/>
   </g>
   <g id="patch_28">
    <path clip-path="url(#p1c23ee6dfa)" d="M 360.020072 354.651429 
L 360.020072 209.828571 
L 431.732072 209.828571 
L 431.732072 354.651429 
z
" style="opacity:0.25;stroke:#000000;stroke-linejoin:miter;"/>
   </g>
   <g id="patch_29">
    <path clip-path="url(#p1c23ee6dfa)" d="M 431.732072 354.651429 
L 431.732072 209.828571 
L 469.716312 209.828571 
L 469.716312 354.651429 
z
" style="opacity:0.4;stroke:#000000;stroke-linejoin:miter;"/>
   </g>
   <g id="matplotlib.axis_3">
    <g id="xtick_7">
     <g id="line2d_31">
      <g>
       <use style="stroke:#000000;stroke-width:0.8;" x="69.12" xlink:href="#m4f9b414f1e" y="354.651429"/>
      </g>
     </g>
     <g id="text_23">
      <!-- 0 -->
      <g transform="translate(66.256875 368.490022)scale(0.09 -0.09)">
       <use xlink:href="#DejaVuSans-48"/>
      </g>
     </g>
    </g>
    <g id="xtick_8">
     <g id="line2d_32">
      <g>
       <use style="stroke:#000000;stroke-width:0.8;" x="164.736" xlink:href="#m4f9b414f1e" y="354.651429"/>
      </g>
     </g>
     <g id="text_24">
      <!-- 100 -->
      <g transform="translate(156.146625 368.490022)scale(0.09 -0.09)">
       <use xlink:href="#DejaVuSans-49"/>
       <use x="63.623047" xlink:href="#DejaVuSans-48"/>
       <use x="127.246094" xlink:href="#DejaVuSans-48"/>
      </g>
     </g>
    </g>
    <g id="xtick_9">
     <g id="line2d_33">
      <g>
       <use style="stroke:#000000;stroke-width:0.8;" x="260.352" xlink:href="#m4f9b414f1e" y="354.651429"/>
      </g>
     </g>
     <g id="text_25">
      <!-- 200 -->
      <g transform="translate(251.762625 368.490022)scale(0.09 -0.09)">
       <use xlink:href="#DejaVuSans-50"/>
       <use x="63.623047" xlink:href="#DejaVuSans-48"/>
       <use x="127.246094" xlink:href="#DejaVuSans-48"/>
      </g>
     </g>
    </g>
    <g id="xtick_10">
     <g id="line2d_34">
      <g>
       <use style="stroke:#000000;stroke-width:0.8;" x="355.968" xlink:href="#m4f9b414f1e" y="354.651429"/>
      </g>
     </g>
     <g id="text_26">
      <!-- 300 -->
      <g transform="translate(347.378625 368.490022)scale(0.09 -0.09)">
       <use xlink:href="#DejaVuSans-51"/>
       <use x="63.623047" xlink:href="#DejaVuSans-48"/>
       <use x="127.246094" xlink:href="#DejaVuSans-48"/>
      </g>
     </g>
    </g>
    <g id="xtick_11">
     <g id="line2d_35">
      <g>
       <use style="stroke:#000000;stroke-width:0.8;" x="451.584" xlink:href="#m4f9b414f1e" y="354.651429"/>
      </g>
     </g>
     <g id="text_27">
      <!-- 400 -->
      <g transform="translate(442.994625 368.490022)scale(0.09 -0.09)">
       <use xlink:href="#DejaVuSans-52"/>
       <use x="63.623047" xlink:href="#DejaVuSans-48"/>
       <use x="127.246094" xlink:href="#DejaVuSans-48"/>
      </g>
     </g>
    </g>
    <g id="xtick_12">
     <g id="line2d_36">
      <g>
       <use style="stroke:#000000;stroke-width:0.8;" x="547.2" xlink:href="#m4f9b414f1e" y="354.651429"/>
      </g>
     </g>
     <g id="text_28">
      <!-- 500 -->
      <g transform="translate(538.610625 368.490022)scale(0.09 -0.09)">
       <use xlink:href="#DejaVuSans-53"/>
       <use x="63.623047" xlink:href="#DejaVuSans-48"/>
       <use x="127.246094" xlink:href="#DejaVuSans-48"/>
      </g>
     </g>
    </g>
   </g>
   <g id="matplotlib.axis_4">
    <g id="ytick_7">
     <g id="line2d_37">
      <g>
       <use style="stroke:#000000;stroke-width:0.8;" x="69.12" xlink:href="#m3ceaba9526" y="348.068571"/>
      </g>
     </g>
     <g id="text_29">
      <!-- 0 -->
      <g transform="translate(56.39375 351.487868)scale(0.09 -0.09)">
       <use xlink:href="#DejaVuSans-48"/>
      </g>
     </g>
    </g>
    <g id="ytick_8">
     <g id="line2d_38">
      <g>
       <use style="stroke:#000000;stroke-width:0.8;" x="69.12" xlink:href="#m3ceaba9526" y="323.56054"/>
      </g>
     </g>
     <g id="text_30">
      <!-- 50 -->
      <g transform="translate(50.6675 326.979837)scale(0.09 -0.09)">
       <use xlink:href="#DejaVuSans-53"/>
       <use x="63.623047" xlink:href="#DejaVuSans-48"/>
      </g>
     </g>
    </g>
    <g id="ytick_9">
     <g id="line2d_39">
      <g>
       <use style="stroke:#000000;stroke-width:0.8;" x="69.12" xlink:href="#m3ceaba9526" y="299.052509"/>
      </g>
     </g>
     <g id="text_31">
      <!-- 100 -->
      <g transform="translate(44.94125 302.471806)scale(0.09 -0.09)">
       <use xlink:href="#DejaVuSans-49"/>
       <use x="63.623047" xlink:href="#DejaVuSans-48"/>
       <use x="127.246094" xlink:href="#DejaVuSans-48"/>
      </g>
     </g>
    </g>
    <g id="ytick_10">
     <g id="line2d_40">
      <g>
       <use style="stroke:#000000;stroke-width:0.8;" x="69.12" xlink:href="#m3ceaba9526" y="274.544478"/>
      </g>
     </g>
     <g id="text_32">
      <!-- 150 -->
      <g transform="translate(44.94125 277.963775)scale(0.09 -0.09)">
       <use xlink:href="#DejaVuSans-49"/>
       <use x="63.623047" xlink:href="#DejaVuSans-53"/>
       <use x="127.246094" xlink:href="#DejaVuSans-48"/>
      </g>
     </g>
    </g>
    <g id="ytick_11">
     <g id="line2d_41">
      <g>
       <use style="stroke:#000000;stroke-width:0.8;" x="69.12" xlink:href="#m3ceaba9526" y="250.036447"/>
      </g>
     </g>
     <g id="text_33">
      <!-- 200 -->
      <g transform="translate(44.94125 253.455744)scale(0.09 -0.09)">
       <use xlink:href="#DejaVuSans-50"/>
       <use x="63.623047" xlink:href="#DejaVuSans-48"/>
       <use x="127.246094" xlink:href="#DejaVuSans-48"/>
      </g>
     </g>
    </g>
    <g id="ytick_12">
     <g id="line2d_42">
      <g>
       <use style="stroke:#000000;stroke-width:0.8;" x="69.12" xlink:href="#m3ceaba9526" y="225.528416"/>
      </g>
     </g>
     <g id="text_34">
      <!-- 250 -->
      <g transform="translate(44.94125 228.947713)scale(0.09 -0.09)">
       <use xlink:href="#DejaVuSans-50"/>
       <use x="63.623047" xlink:href="#DejaVuSans-53"/>
       <use x="127.246094" xlink:href="#DejaVuSans-48"/>
      </g>
     </g>
    </g>
   </g>
   <g id="line2d_43">
    <path clip-path="url(#p1c23ee6dfa)" d="M 69.12 216.411429 
L 469.716312 216.411429 
L 469.716312 216.411429 
" style="fill:none;stroke:#000000;stroke-dasharray:1,1.65;stroke-dashoffset:0;"/>
   </g>
   <g id="line2d_44">
    <path clip-path="url(#p1c23ee6dfa)" d="M 69.12 348.068571 
L 171.932903 299.052509 
L 243.684644 298.954477 
L 243.684644 298.954477 
L 253.580065 274.544478 
L 253.580065 299.052509 
L 253.689352 298.782921 
L 263.515227 274.544478 
L 335.266968 274.446446 
L 335.266968 274.446446 
L 344.738639 251.310865 
L 344.738639 251.310865 
L 350.08491 250.036447 
L 350.08491 274.544478 
L 350.194197 274.27489 
L 360.020072 250.036447 
L 431.771813 249.938415 
L 431.771813 249.938415 
L 438.769628 232.905333 
L 438.769628 232.905333 
L 469.716312 225.528416 
L 469.716312 225.528416 
" style="fill:none;stroke:#008000;stroke-linecap:square;"/>
   </g>
   <g id="line2d_45">
    <path clip-path="url(#p1c23ee6dfa)" d="M 69.12 348.068571 
L 171.932903 323.56054 
L 243.684644 323.462508 
L 243.684644 323.462508 
L 253.699287 299.052509 
L 253.699287 299.052509 
L 335.266968 298.954477 
L 335.266968 298.954477 
L 344.738639 275.818896 
L 344.738639 275.818896 
L 350.561798 274.544478 
L 350.561798 274.544478 
L 431.771813 274.446446 
L 431.771813 274.446446 
L 438.769628 257.413365 
L 438.769628 257.413365 
L 469.716312 250.036447 
L 469.716312 250.036447 
" style="fill:none;stroke:#bf00bf;stroke-linecap:square;"/>
   </g>
   <g id="line2d_46">
    <path clip-path="url(#p1c23ee6dfa)" d="M 69.12 348.068571 
L 243.684644 347.970539 
L 243.684644 347.970539 
L 253.699287 323.56054 
L 253.699287 323.56054 
L 263.515227 323.56054 
L 335.266968 340.55686 
L 335.266968 340.55686 
L 344.738639 317.450523 
L 344.738639 317.450523 
L 360.020072 317.457628 
L 431.771813 334.453948 
L 431.771813 334.453948 
L 438.769628 317.450111 
L 438.769628 317.450111 
L 469.716312 317.450111 
L 469.716312 317.450111 
" style="fill:none;stroke:#ff0000;stroke-linecap:square;"/>
   </g>
   <g id="line2d_47">
    <path clip-path="url(#p1c23ee6dfa)" d="M 69.12 216.411429 
L 171.932903 240.91946 
L 243.684644 241.017492 
L 243.684644 241.017492 
L 253.580065 265.427491 
L 253.580065 240.91946 
L 253.689352 241.189048 
L 263.515227 265.427491 
L 335.266968 248.431171 
L 335.266968 248.431171 
L 344.738639 271.537508 
L 344.738639 271.537508 
L 350.08491 271.537508 
L 350.08491 247.029477 
L 350.194197 247.296697 
L 360.020072 271.530403 
L 431.771813 254.534083 
L 431.771813 254.534083 
L 438.769628 271.53792 
L 438.769628 271.53792 
L 469.716312 271.53792 
L 469.716312 271.53792 
" style="fill:none;stroke:#0000ff;stroke-linecap:square;"/>
   </g>
   <g id="line2d_48">
    <path clip-path="url(#p1c23ee6dfa)" d="M 69.12 295.405714 
L 171.932903 305.208927 
L 243.75419 305.316762 
L 243.75419 305.316762 
L 253.580065 315.012139 
L 253.580065 305.208927 
L 253.689352 305.316762 
L 263.515227 315.012139 
L 335.326579 308.272431 
L 335.326579 308.272431 
L 344.738639 317.456146 
L 344.738639 317.456146 
L 350.08491 317.456146 
L 350.08491 307.652934 
L 350.194197 307.759822 
L 360.020072 317.453304 
L 431.831424 310.713596 
L 431.831424 310.713596 
L 438.769628 317.456311 
L 438.769628 317.456311 
L 469.716312 317.456311 
L 469.716312 317.456311 
" style="fill:none;stroke:#000000;stroke-dasharray:6.4,1.6,1,1.6;stroke-dashoffset:0;"/>
   </g>
   <g id="patch_30">
    <path d="M 69.12 354.651429 
L 69.12 209.828571 
" style="fill:none;stroke:#000000;stroke-linecap:square;stroke-linejoin:miter;stroke-width:0.8;"/>
   </g>
   <g id="patch_31">
    <path d="M 547.2 354.651429 
L 547.2 209.828571 
" style="fill:none;stroke:#000000;stroke-linecap:square;stroke-linejoin:miter;stroke-width:0.8;"/>
   </g>
   <g id="patch_32">
    <path d="M 69.12 354.651429 
L 547.2 354.651429 
" style="fill:none;stroke:#000000;stroke-linecap:square;stroke-linejoin:miter;stroke-width:0.8;"/>
   </g>
   <g id="patch_33">
    <path d="M 69.12 209.828571 
L 547.2 209.828571 
" style="fill:none;stroke:#000000;stroke-linecap:square;stroke-linejoin:miter;stroke-width:0.8;"/>
   </g>
   <g id="text_35">
    <!-- Python simulator -->
    <defs>
     <path d="M 19.671875 64.796875 
L 19.671875 37.40625 
L 32.078125 37.40625 
Q 38.96875 37.40625 42.71875 40.96875 
Q 46.484375 44.53125 46.484375 51.125 
Q 46.484375 57.671875 42.71875 61.234375 
Q 38.96875 64.796875 32.078125 64.796875 
z
M 9.8125 72.90625 
L 32.078125 72.90625 
Q 44.34375 72.90625 50.609375 67.359375 
Q 56.890625 61.8125 56.890625 51.125 
Q 56.890625 40.328125 50.609375 34.8125 
Q 44.34375 29.296875 32.078125 29.296875 
L 19.671875 29.296875 
L 19.671875 0 
L 9.8125 0 
z
" id="DejaVuSans-80"/>
    </defs>
    <g transform="translate(265.67875 203.828571)scale(0.1 -0.1)">
     <use xlink:href="#DejaVuSans-80"/>
     <use x="60.302734" xlink:href="#DejaVuSans-121"/>
     <use x="119.482422" xlink:href="#DejaVuSans-116"/>
     <use x="158.691406" xlink:href="#DejaVuSans-104"/>
     <use x="222.070312" xlink:href="#DejaVuSans-111"/>
     <use x="283.251953" xlink:href="#DejaVuSans-110"/>
     <use x="346.630859" xlink:href="#DejaVuSans-32"/>
     <use x="378.417969" xlink:href="#DejaVuSans-115"/>
     <use x="430.517578" xlink:href="#DejaVuSans-105"/>
     <use x="458.300781" xlink:href="#DejaVuSans-109"/>
     <use x="555.712891" xlink:href="#DejaVuSans-117"/>
     <use x="619.091797" xlink:href="#DejaVuSans-108"/>
     <use x="646.875" xlink:href="#DejaVuSans-97"/>
     <use x="708.154297" xlink:href="#DejaVuSans-116"/>
     <use x="747.363281" xlink:href="#DejaVuSans-111"/>
     <use x="808.544922" xlink:href="#DejaVuSans-114"/>
    </g>
   </g>
  </g>
  <g id="axes_3">
   <g id="patch_34">
    <path d="M 69.12 535.68 
L 547.2 535.68 
L 547.2 390.857143 
L 69.12 390.857143 
z
" style="fill:#ffffff;"/>
   </g>
   <g id="patch_35">
    <path clip-path="url(#p6a10deb6f6)" d="M 69.12 535.68 
L 69.12 390.857143 
L 171.932903 390.857143 
L 171.932903 535.68 
z
" style="opacity:0.1;stroke:#000000;stroke-linejoin:miter;"/>
   </g>
   <g id="patch_36">
    <path clip-path="url(#p6a10deb6f6)" d="M 171.932903 535.68 
L 171.932903 390.857143 
L 243.644903 390.857143 
L 243.644903 535.68 
z
" style="opacity:0.25;stroke:#000000;stroke-linejoin:miter;"/>
   </g>
   <g id="patch_37">
    <path clip-path="url(#p6a10deb6f6)" d="M 243.644903 535.68 
L 243.644903 390.857143 
L 253.580066 390.857143 
L 253.580066 535.68 
z
" style="opacity:0.4;stroke:#000000;stroke-linejoin:miter;"/>
   </g>
   <g id="patch_38">
    <path clip-path="url(#p6a10deb6f6)" d="M 253.580066 535.68 
L 253.580066 390.857143 
L 263.515228 390.857143 
L 263.515228 535.68 
z
" style="opacity:0.1;stroke:#000000;stroke-linejoin:miter;"/>
   </g>
   <g id="patch_39">
    <path clip-path="url(#p6a10deb6f6)" d="M 263.515228 535.68 
L 263.515228 390.857143 
L 335.227228 390.857143 
L 335.227228 535.68 
z
" style="opacity:0.25;stroke:#000000;stroke-linejoin:miter;"/>
   </g>
   <g id="patch_40">
    <path clip-path="url(#p6a10deb6f6)" d="M 335.227228 535.68 
L 335.227228 390.857143 
L 352.564919 390.857143 
L 352.564919 535.68 
z
" style="opacity:0.4;stroke:#000000;stroke-linejoin:miter;"/>
   </g>
   <g id="patch_41">
    <path clip-path="url(#p6a10deb6f6)" d="M 352.564919 535.68 
L 352.564919 390.857143 
L 362.500081 390.857143 
L 362.500081 535.68 
z
" style="opacity:0.1;stroke:#000000;stroke-linejoin:miter;"/>
   </g>
   <g id="patch_42">
    <path clip-path="url(#p6a10deb6f6)" d="M 362.500081 535.68 
L 362.500081 390.857143 
L 434.212081 390.857143 
L 434.212081 535.68 
z
" style="opacity:0.25;stroke:#000000;stroke-linejoin:miter;"/>
   </g>
   <g id="patch_43">
    <path clip-path="url(#p6a10deb6f6)" d="M 434.212081 535.68 
L 434.212081 390.857143 
L 455.251036 390.857143 
L 455.251036 535.68 
z
" style="opacity:0.4;stroke:#000000;stroke-linejoin:miter;"/>
   </g>
   <g id="matplotlib.axis_5">
    <g id="xtick_13">
     <g id="line2d_49">
      <g>
       <use style="stroke:#000000;stroke-width:0.8;" x="69.12" xlink:href="#m4f9b414f1e" y="535.68"/>
      </g>
     </g>
     <g id="text_36">
      <!-- 0 -->
      <g transform="translate(66.256875 549.518594)scale(0.09 -0.09)">
       <use xlink:href="#DejaVuSans-48"/>
      </g>
     </g>
    </g>
    <g id="xtick_14">
     <g id="line2d_50">
      <g>
       <use style="stroke:#000000;stroke-width:0.8;" x="164.736" xlink:href="#m4f9b414f1e" y="535.68"/>
      </g>
     </g>
     <g id="text_37">
      <!-- 100 -->
      <g transform="translate(156.146625 549.518594)scale(0.09 -0.09)">
       <use xlink:href="#DejaVuSans-49"/>
       <use x="63.623047" xlink:href="#DejaVuSans-48"/>
       <use x="127.246094" xlink:href="#DejaVuSans-48"/>
      </g>
     </g>
    </g>
    <g id="xtick_15">
     <g id="line2d_51">
      <g>
       <use style="stroke:#000000;stroke-width:0.8;" x="260.352" xlink:href="#m4f9b414f1e" y="535.68"/>
      </g>
     </g>
     <g id="text_38">
      <!-- 200 -->
      <g transform="translate(251.762625 549.518594)scale(0.09 -0.09)">
       <use xlink:href="#DejaVuSans-50"/>
       <use x="63.623047" xlink:href="#DejaVuSans-48"/>
       <use x="127.246094" xlink:href="#DejaVuSans-48"/>
      </g>
     </g>
    </g>
    <g id="xtick_16">
     <g id="line2d_52">
      <g>
       <use style="stroke:#000000;stroke-width:0.8;" x="355.968" xlink:href="#m4f9b414f1e" y="535.68"/>
      </g>
     </g>
     <g id="text_39">
      <!-- 300 -->
      <g transform="translate(347.378625 549.518594)scale(0.09 -0.09)">
       <use xlink:href="#DejaVuSans-51"/>
       <use x="63.623047" xlink:href="#DejaVuSans-48"/>
       <use x="127.246094" xlink:href="#DejaVuSans-48"/>
      </g>
     </g>
    </g>
    <g id="xtick_17">
     <g id="line2d_53">
      <g>
       <use style="stroke:#000000;stroke-width:0.8;" x="451.584" xlink:href="#m4f9b414f1e" y="535.68"/>
      </g>
     </g>
     <g id="text_40">
      <!-- 400 -->
      <g transform="translate(442.994625 549.518594)scale(0.09 -0.09)">
       <use xlink:href="#DejaVuSans-52"/>
       <use x="63.623047" xlink:href="#DejaVuSans-48"/>
       <use x="127.246094" xlink:href="#DejaVuSans-48"/>
      </g>
     </g>
    </g>
    <g id="xtick_18">
     <g id="line2d_54">
      <g>
       <use style="stroke:#000000;stroke-width:0.8;" x="547.2" xlink:href="#m4f9b414f1e" y="535.68"/>
      </g>
     </g>
     <g id="text_41">
      <!-- 500 -->
      <g transform="translate(538.610625 549.518594)scale(0.09 -0.09)">
       <use xlink:href="#DejaVuSans-53"/>
       <use x="63.623047" xlink:href="#DejaVuSans-48"/>
       <use x="127.246094" xlink:href="#DejaVuSans-48"/>
      </g>
     </g>
    </g>
   </g>
   <g id="matplotlib.axis_6">
    <g id="ytick_13">
     <g id="line2d_55">
      <g>
       <use style="stroke:#000000;stroke-width:0.8;" x="69.12" xlink:href="#m3ceaba9526" y="529.097143"/>
      </g>
     </g>
     <g id="text_42">
      <!-- 0 -->
      <g transform="translate(56.39375 532.51644)scale(0.09 -0.09)">
       <use xlink:href="#DejaVuSans-48"/>
      </g>
     </g>
    </g>
    <g id="ytick_14">
     <g id="line2d_56">
      <g>
       <use style="stroke:#000000;stroke-width:0.8;" x="69.12" xlink:href="#m3ceaba9526" y="504.534243"/>
      </g>
     </g>
     <g id="text_43">
      <!-- 50 -->
      <g transform="translate(50.6675 507.95354)scale(0.09 -0.09)">
       <use xlink:href="#DejaVuSans-53"/>
       <use x="63.623047" xlink:href="#DejaVuSans-48"/>
      </g>
     </g>
    </g>
    <g id="ytick_15">
     <g id="line2d_57">
      <g>
       <use style="stroke:#000000;stroke-width:0.8;" x="69.12" xlink:href="#m3ceaba9526" y="479.971343"/>
      </g>
     </g>
     <g id="text_44">
      <!-- 100 -->
      <g transform="translate(44.94125 483.39064)scale(0.09 -0.09)">
       <use xlink:href="#DejaVuSans-49"/>
       <use x="63.623047" xlink:href="#DejaVuSans-48"/>
       <use x="127.246094" xlink:href="#DejaVuSans-48"/>
      </g>
     </g>
    </g>
    <g id="ytick_16">
     <g id="line2d_58">
      <g>
       <use style="stroke:#000000;stroke-width:0.8;" x="69.12" xlink:href="#m3ceaba9526" y="455.408443"/>
      </g>
     </g>
     <g id="text_45">
      <!-- 150 -->
      <g transform="translate(44.94125 458.82774)scale(0.09 -0.09)">
       <use xlink:href="#DejaVuSans-49"/>
       <use x="63.623047" xlink:href="#DejaVuSans-53"/>
       <use x="127.246094" xlink:href="#DejaVuSans-48"/>
      </g>
     </g>
    </g>
    <g id="ytick_17">
     <g id="line2d_59">
      <g>
       <use style="stroke:#000000;stroke-width:0.8;" x="69.12" xlink:href="#m3ceaba9526" y="430.845544"/>
      </g>
     </g>
     <g id="text_46">
      <!-- 200 -->
      <g transform="translate(44.94125 434.264841)scale(0.09 -0.09)">
       <use xlink:href="#DejaVuSans-50"/>
       <use x="63.623047" xlink:href="#DejaVuSans-48"/>
       <use x="127.246094" xlink:href="#DejaVuSans-48"/>
      </g>
     </g>
    </g>
    <g id="ytick_18">
     <g id="line2d_60">
      <g>
       <use style="stroke:#000000;stroke-width:0.8;" x="69.12" xlink:href="#m3ceaba9526" y="406.282644"/>
      </g>
     </g>
     <g id="text_47">
      <!-- 250 -->
      <g transform="translate(44.94125 409.701941)scale(0.09 -0.09)">
       <use xlink:href="#DejaVuSans-50"/>
       <use x="63.623047" xlink:href="#DejaVuSans-53"/>
       <use x="127.246094" xlink:href="#DejaVuSans-48"/>
      </g>
     </g>
    </g>
   </g>
   <g id="line2d_61">
    <path clip-path="url(#p6a10deb6f6)" d="M 69.12 397.44 
L 455.251036 397.44 
L 455.251036 397.44 
" style="fill:none;stroke:#000000;stroke-dasharray:1,1.65;stroke-dashoffset:0;"/>
   </g>
   <g id="line2d_62">
    <path clip-path="url(#p6a10deb6f6)" d="M 69.12 529.097143 
L 83.4624 522.268657 
L 83.4624 522.268657 
L 107.3664 510.871471 
L 107.3664 510.871471 
L 116.928 506.253646 
L 116.928 506.253646 
L 145.6128 492.596674 
L 145.6128 492.596674 
L 155.1744 487.978849 
L 155.1744 487.978849 
L 171.932903 479.971343 
L 243.684643 479.873092 
L 253.580066 455.408443 
L 253.580066 479.971343 
L 263.515228 455.408443 
L 335.266968 455.310192 
L 344.387447 432.76145 
L 344.387447 432.76145 
L 344.838439 432.663198 
L 344.858309 432.614072 
L 344.858309 432.614072 
L 345.720553 432.515821 
L 345.760294 432.417569 
L 345.760294 432.417569 
L 346.622538 432.319318 
L 346.662279 432.221066 
L 346.662279 432.221066 
L 347.113271 432.122814 
L 347.133141 432.073689 
L 347.133141 432.073689 
L 347.995385 431.975437 
L 348.035126 431.877186 
L 348.035126 431.877186 
L 348.89737 431.778934 
L 348.956981 431.631557 
L 348.956981 431.631557 
L 349.819225 431.533305 
L 349.858965 431.435053 
L 349.858965 431.435053 
L 350.721209 431.336802 
L 350.76095 431.23855 
L 350.76095 431.23855 
L 351.211942 431.140299 
L 351.231813 431.091173 
L 352.094056 430.992921 
L 352.133796 430.89467 
L 352.133796 430.89467 
L 352.564919 430.845544 
L 352.564919 455.408443 
L 362.500081 430.845544 
L 434.251822 430.747292 
L 442.974893 409.181066 
L 442.974893 409.181066 
L 443.837137 409.082814 
L 443.876878 408.984563 
L 443.876878 408.984563 
L 444.739122 408.886311 
L 444.798733 408.738934 
L 444.798733 408.738934 
L 445.660977 408.640682 
L 445.700718 408.542431 
L 445.700718 408.542431 
L 446.562961 408.444179 
L 446.622573 408.296802 
L 446.622573 408.296802 
L 447.484816 408.19855 
L 447.524557 408.100299 
L 447.524557 408.100299 
L 448.386801 408.002047 
L 448.426542 407.903795 
L 448.426542 407.903795 
L 448.877534 407.805544 
L 448.897404 407.756418 
L 448.897404 407.756418 
L 449.759648 407.658166 
L 449.799389 407.559915 
L 449.799389 407.559915 
L 450.661633 407.461663 
L 450.701373 407.363412 
L 450.701373 407.363412 
L 451.152365 407.26516 
L 451.172235 407.216034 
L 451.172235 407.216034 
L 452.034479 407.117783 
L 452.07422 407.019531 
L 452.07422 407.019531 
L 452.936464 406.921279 
L 452.996075 406.773902 
L 452.996075 406.773902 
L 453.858319 406.67565 
L 453.898059 406.577399 
L 453.898059 406.577399 
L 454.760303 406.479147 
L 454.800044 406.380896 
L 454.800044 406.380896 
L 455.251036 406.282644 
L 455.251036 406.282644 
" style="fill:none;stroke:#008000;stroke-linecap:square;"/>
   </g>
   <g id="line2d_63">
    <path clip-path="url(#p6a10deb6f6)" d="M 69.12 529.097143 
L 83.4624 525.658337 
L 83.4624 525.658337 
L 126.4896 515.391045 
L 126.4896 515.391045 
L 140.832 511.952239 
L 140.832 511.952239 
L 171.932903 504.534243 
L 243.684643 504.435991 
L 253.580066 479.971343 
L 253.580066 479.971343 
L 335.266968 479.873092 
L 344.387447 457.32435 
L 344.387447 457.32435 
L 344.838439 457.226098 
L 344.858309 457.176972 
L 344.858309 457.176972 
L 345.720553 457.078721 
L 345.760294 456.980469 
L 345.760294 456.980469 
L 346.622538 456.882217 
L 346.662279 456.783966 
L 346.662279 456.783966 
L 347.113271 456.685714 
L 347.133141 456.636588 
L 347.133141 456.636588 
L 347.995385 456.538337 
L 348.035126 456.440085 
L 348.035126 456.440085 
L 348.89737 456.341834 
L 348.956981 456.194456 
L 348.956981 456.194456 
L 349.819225 456.096205 
L 349.858965 455.997953 
L 349.858965 455.997953 
L 350.721209 455.899701 
L 350.76095 455.80145 
L 350.76095 455.80145 
L 351.211942 455.703198 
L 351.231813 455.654072 
L 351.231813 455.654072 
L 352.094056 455.555821 
L 352.133796 455.457569 
L 352.133796 455.457569 
L 434.231951 455.359318 
L 442.974893 433.743966 
L 442.974893 433.743966 
L 443.837137 433.645714 
L 443.876878 433.547463 
L 443.876878 433.547463 
L 444.739122 433.449211 
L 444.798733 433.301834 
L 444.798733 433.301834 
L 445.660977 433.203582 
L 445.700718 433.10533 
L 445.700718 433.10533 
L 446.562961 433.007079 
L 446.622573 432.859701 
L 446.622573 432.859701 
L 447.484816 432.76145 
L 447.524557 432.663198 
L 447.524557 432.663198 
L 448.386801 432.564947 
L 448.426542 432.466695 
L 448.426542 432.466695 
L 448.877534 432.368443 
L 448.897404 432.319318 
L 448.897404 432.319318 
L 449.759648 432.221066 
L 449.799389 432.122814 
L 449.799389 432.122814 
L 450.661633 432.024563 
L 450.701373 431.926311 
L 450.701373 431.926311 
L 451.152365 431.82806 
L 451.172235 431.778934 
L 451.172235 431.778934 
L 452.034479 431.680682 
L 452.07422 431.582431 
L 452.07422 431.582431 
L 452.936464 431.484179 
L 452.996075 431.336802 
L 452.996075 431.336802 
L 453.858319 431.23855 
L 453.898059 431.140299 
L 453.898059 431.140299 
L 454.760303 431.042047 
L 454.800044 430.943795 
L 454.800044 430.943795 
L 455.251036 430.845544 
L 455.251036 430.845544 
" style="fill:none;stroke:#bf00bf;stroke-linecap:square;"/>
   </g>
   <g id="line2d_64">
    <path clip-path="url(#p6a10deb6f6)" d="M 69.12 529.097143 
L 243.684643 528.998891 
L 253.580066 504.534243 
L 253.580066 504.534243 
L 274.6944 504.534243 
L 335.266968 518.878977 
L 336.578409 515.931429 
L 336.638021 515.833177 
L 338.009073 512.738252 
L 338.068684 512.64 
L 339.459607 509.495949 
L 339.519218 509.397697 
L 340.89027 506.302772 
L 340.949881 506.20452 
L 342.340804 503.060469 
L 342.400415 502.962217 
L 343.771467 499.867292 
L 343.831078 499.769041 
L 344.387447 498.49177 
L 344.387447 498.49177 
L 345.269561 498.590021 
L 345.309302 498.49177 
L 345.309302 498.49177 
L 346.171545 498.590021 
L 346.211286 498.49177 
L 346.211286 498.49177 
L 347.0934 498.590021 
L 347.133141 498.49177 
L 347.133141 498.49177 
L 347.995385 498.590021 
L 348.035126 498.49177 
L 348.035126 498.49177 
L 348.89737 498.590021 
L 348.956981 498.49177 
L 348.956981 498.49177 
L 349.819225 498.590021 
L 349.858965 498.49177 
L 349.858965 498.49177 
L 350.721209 498.590021 
L 350.76095 498.49177 
L 350.76095 498.49177 
L 351.643064 498.590021 
L 351.682805 498.49177 
L 351.682805 498.49177 
L 352.545049 498.590021 
L 352.564919 498.540896 
L 352.564919 498.540896 
L 381.208567 505.418507 
L 381.208567 505.418507 
L 434.271692 517.945586 
L 435.682485 514.752409 
L 435.742095 514.654158 
L 437.133018 511.510107 
L 437.192629 511.411855 
L 438.563681 508.31693 
L 438.623292 508.218678 
L 440.014215 505.074627 
L 440.073826 504.976375 
L 441.444878 501.88145 
L 441.504489 501.783198 
L 442.895412 498.639147 
L 442.955023 498.540896 
L 442.974893 498.49177 
L 442.974893 498.49177 
L 443.837137 498.590021 
L 443.876878 498.49177 
L 443.876878 498.49177 
L 444.758992 498.590021 
L 444.798733 498.49177 
L 444.798733 498.49177 
L 445.660977 498.590021 
L 445.700718 498.49177 
L 445.700718 498.49177 
L 446.562961 498.590021 
L 446.622573 498.49177 
L 446.622573 498.49177 
L 447.484816 498.590021 
L 447.524557 498.49177 
L 447.524557 498.49177 
L 448.386801 498.590021 
L 448.426542 498.49177 
L 448.426542 498.49177 
L 449.308656 498.590021 
L 449.348397 498.49177 
L 449.348397 498.49177 
L 450.21064 498.590021 
L 450.250381 498.49177 
L 450.250381 498.49177 
L 451.132495 498.590021 
L 451.172235 498.49177 
L 451.172235 498.49177 
L 452.034479 498.590021 
L 452.07422 498.49177 
L 452.07422 498.49177 
L 452.936464 498.590021 
L 452.996075 498.49177 
L 452.996075 498.49177 
L 453.858319 498.590021 
L 453.898059 498.49177 
L 453.898059 498.49177 
L 454.760303 498.590021 
L 454.800044 498.49177 
L 454.800044 498.49177 
L 455.251036 498.540896 
L 455.251036 498.540896 
" style="fill:none;stroke:#ff0000;stroke-linecap:square;"/>
   </g>
   <g id="line2d_65">
    <path clip-path="url(#p6a10deb6f6)" d="M 69.12 397.44 
L 126.4896 411.096972 
L 126.4896 411.096972 
L 140.832 414.535778 
L 140.832 414.535778 
L 169.5168 421.41339 
L 169.5168 421.41339 
L 171.932903 422.0029 
L 243.684643 422.101151 
L 253.580066 446.5658 
L 253.580066 422.0029 
L 263.515228 446.5658 
L 274.6944 446.5658 
L 335.266968 432.221066 
L 336.578409 435.168614 
L 336.638021 435.266866 
L 338.009073 438.361791 
L 338.068684 438.460043 
L 339.459607 441.604094 
L 339.519218 441.702345 
L 340.89027 444.797271 
L 340.949881 444.895522 
L 342.340804 448.039574 
L 342.400415 448.137825 
L 343.771467 451.232751 
L 343.831078 451.331002 
L 344.387447 452.608273 
L 344.387447 452.608273 
L 345.269561 452.510021 
L 345.309302 452.608273 
L 345.309302 452.608273 
L 346.171545 452.510021 
L 346.211286 452.608273 
L 346.211286 452.608273 
L 347.0934 452.510021 
L 347.133141 452.608273 
L 347.133141 452.608273 
L 347.995385 452.510021 
L 348.035126 452.608273 
L 348.035126 452.608273 
L 348.89737 452.510021 
L 348.956981 452.608273 
L 348.956981 452.608273 
L 349.819225 452.510021 
L 349.858965 452.608273 
L 349.858965 452.608273 
L 350.721209 452.510021 
L 350.76095 452.608273 
L 350.76095 452.608273 
L 351.643064 452.510021 
L 351.682805 452.608273 
L 351.682805 452.608273 
L 352.545049 452.510021 
L 352.564919 452.559147 
L 352.564919 427.996247 
L 362.500081 450.151983 
L 434.231951 433.10533 
L 435.483781 435.905501 
L 435.543392 436.003753 
L 436.914445 439.098678 
L 436.974056 439.19693 
L 438.364978 442.340981 
L 438.42459 442.439232 
L 439.795642 445.534158 
L 439.855253 445.632409 
L 441.246175 448.776461 
L 441.305787 448.874712 
L 442.676839 451.969638 
L 442.73645 452.067889 
L 442.974893 452.608273 
L 442.974893 452.608273 
L 443.837137 452.510021 
L 443.876878 452.608273 
L 443.876878 452.608273 
L 444.758992 452.510021 
L 444.798733 452.608273 
L 444.798733 452.608273 
L 445.660977 452.510021 
L 445.700718 452.608273 
L 445.700718 452.608273 
L 446.562961 452.510021 
L 446.622573 452.608273 
L 446.622573 452.608273 
L 447.484816 452.510021 
L 447.524557 452.608273 
L 447.524557 452.608273 
L 448.386801 452.510021 
L 448.426542 452.608273 
L 448.426542 452.608273 
L 449.308656 452.510021 
L 449.348397 452.608273 
L 449.348397 452.608273 
L 450.21064 452.510021 
L 450.250381 452.608273 
L 450.250381 452.608273 
L 451.132495 452.510021 
L 451.172235 452.608273 
L 451.172235 452.608273 
L 452.034479 452.510021 
L 452.07422 452.608273 
L 452.07422 452.608273 
L 452.936464 452.510021 
L 452.996075 452.608273 
L 452.996075 452.608273 
L 453.858319 452.510021 
L 453.898059 452.608273 
L 453.898059 452.608273 
L 454.760303 452.510021 
L 454.800044 452.608273 
L 454.800044 452.608273 
L 455.251036 452.559147 
L 455.251036 452.559147 
" style="fill:none;stroke:#0000ff;stroke-linecap:square;"/>
   </g>
   <g id="line2d_66">
    <path clip-path="url(#p6a10deb6f6)" d="M 69.12 476.434286 
L 171.932903 486.259446 
L 243.744255 486.357697 
L 253.580066 496.084606 
L 253.580066 486.259446 
L 263.515228 496.084606 
L 274.6944 496.084606 
L 335.32658 490.405663 
L 336.777112 491.702584 
L 336.896335 491.800836 
L 338.42635 493.176358 
L 338.545572 493.27461 
L 340.075586 494.650132 
L 340.194809 494.748384 
L 341.724824 496.123906 
L 341.844045 496.222158 
L 343.35419 497.57803 
L 343.473412 497.676281 
L 344.387447 498.501595 
L 344.387447 498.501595 
L 345.740424 498.481945 
L 345.760294 498.501595 
L 345.760294 498.501595 
L 347.113271 498.481945 
L 347.133141 498.501595 
L 347.133141 498.501595 
L 348.466248 498.481945 
L 348.486118 498.501595 
L 348.486118 498.501595 
L 349.839095 498.481945 
L 349.858965 498.501595 
L 349.858965 498.501595 
L 351.211942 498.481945 
L 351.231813 498.501595 
L 351.231813 498.501595 
L 352.564919 498.481945 
L 352.564919 488.656785 
L 362.500081 497.519079 
L 434.311432 490.759369 
L 435.901058 492.193842 
L 436.020281 492.292094 
L 437.530424 493.647966 
L 437.649647 493.746217 
L 439.179662 495.12174 
L 439.298883 495.219991 
L 440.828898 496.595514 
L 440.948121 496.693765 
L 442.478135 498.069288 
L 442.597357 498.167539 
L 442.974893 498.501595 
L 442.974893 498.501595 
L 444.308 498.481945 
L 444.32787 498.501595 
L 444.32787 498.501595 
L 445.680847 498.481945 
L 445.700718 498.501595 
L 447.053694 498.481945 
L 447.073565 498.501595 
L 447.073565 498.501595 
L 448.406671 498.481945 
L 448.426542 498.501595 
L 449.779519 498.481945 
L 449.799389 498.501595 
L 449.799389 498.501595 
L 451.152365 498.481945 
L 451.172235 498.501595 
L 451.172235 498.501595 
L 452.505342 498.481945 
L 452.525212 498.501595 
L 452.525212 498.501595 
L 453.878189 498.481945 
L 453.898059 498.501595 
L 453.898059 498.501595 
L 455.251036 498.481945 
L 455.251036 498.481945 
" style="fill:none;stroke:#000000;stroke-dasharray:6.4,1.6,1,1.6;stroke-dashoffset:0;"/>
   </g>
   <g id="patch_44">
    <path d="M 69.12 535.68 
L 69.12 390.857143 
" style="fill:none;stroke:#000000;stroke-linecap:square;stroke-linejoin:miter;stroke-width:0.8;"/>
   </g>
   <g id="patch_45">
    <path d="M 547.2 535.68 
L 547.2 390.857143 
" style="fill:none;stroke:#000000;stroke-linecap:square;stroke-linejoin:miter;stroke-width:0.8;"/>
   </g>
   <g id="patch_46">
    <path d="M 69.12 535.68 
L 547.2 535.68 
" style="fill:none;stroke:#000000;stroke-linecap:square;stroke-linejoin:miter;stroke-width:0.8;"/>
   </g>
   <g id="patch_47">
    <path d="M 69.12 390.857143 
L 547.2 390.857143 
" style="fill:none;stroke:#000000;stroke-linecap:square;stroke-linejoin:miter;stroke-width:0.8;"/>
   </g>
   <g id="text_48">
    <!-- WRENCH with page cache simulator -->
    <defs>
     <path d="M 3.328125 72.90625 
L 13.28125 72.90625 
L 28.609375 11.28125 
L 43.890625 72.90625 
L 54.984375 72.90625 
L 70.3125 11.28125 
L 85.59375 72.90625 
L 95.609375 72.90625 
L 77.296875 0 
L 64.890625 0 
L 49.515625 63.28125 
L 33.984375 0 
L 21.578125 0 
z
" id="DejaVuSans-87"/>
     <path d="M 9.8125 72.90625 
L 55.90625 72.90625 
L 55.90625 64.59375 
L 19.671875 64.59375 
L 19.671875 43.015625 
L 54.390625 43.015625 
L 54.390625 34.71875 
L 19.671875 34.71875 
L 19.671875 8.296875 
L 56.78125 8.296875 
L 56.78125 0 
L 9.8125 0 
z
" id="DejaVuSans-69"/>
     <path d="M 9.8125 72.90625 
L 23.09375 72.90625 
L 55.421875 11.921875 
L 55.421875 72.90625 
L 64.984375 72.90625 
L 64.984375 0 
L 51.703125 0 
L 19.390625 60.984375 
L 19.390625 0 
L 9.8125 0 
z
" id="DejaVuSans-78"/>
     <path d="M 64.40625 67.28125 
L 64.40625 56.890625 
Q 59.421875 61.53125 53.78125 63.8125 
Q 48.140625 66.109375 41.796875 66.109375 
Q 29.296875 66.109375 22.65625 58.46875 
Q 16.015625 50.828125 16.015625 36.375 
Q 16.015625 21.96875 22.65625 14.328125 
Q 29.296875 6.6875 41.796875 6.6875 
Q 48.140625 6.6875 53.78125 8.984375 
Q 59.421875 11.28125 64.40625 15.921875 
L 64.40625 5.609375 
Q 59.234375 2.09375 53.4375 0.328125 
Q 47.65625 -1.421875 41.21875 -1.421875 
Q 24.65625 -1.421875 15.125 8.703125 
Q 5.609375 18.84375 5.609375 36.375 
Q 5.609375 53.953125 15.125 64.078125 
Q 24.65625 74.21875 41.21875 74.21875 
Q 47.75 74.21875 53.53125 72.484375 
Q 59.328125 70.75 64.40625 67.28125 
z
" id="DejaVuSans-67"/>
     <path d="M 9.8125 72.90625 
L 19.671875 72.90625 
L 19.671875 43.015625 
L 55.515625 43.015625 
L 55.515625 72.90625 
L 65.375 72.90625 
L 65.375 0 
L 55.515625 0 
L 55.515625 34.71875 
L 19.671875 34.71875 
L 19.671875 0 
L 9.8125 0 
z
" id="DejaVuSans-72"/>
     <path d="M 45.40625 27.984375 
Q 45.40625 37.75 41.375 43.109375 
Q 37.359375 48.484375 30.078125 48.484375 
Q 22.859375 48.484375 18.828125 43.109375 
Q 14.796875 37.75 14.796875 27.984375 
Q 14.796875 18.265625 18.828125 12.890625 
Q 22.859375 7.515625 30.078125 7.515625 
Q 37.359375 7.515625 41.375 12.890625 
Q 45.40625 18.265625 45.40625 27.984375 
z
M 54.390625 6.78125 
Q 54.390625 -7.171875 48.1875 -13.984375 
Q 42 -20.796875 29.203125 -20.796875 
Q 24.46875 -20.796875 20.265625 -20.09375 
Q 16.0625 -19.390625 12.109375 -17.921875 
L 12.109375 -9.1875 
Q 16.0625 -11.328125 19.921875 -12.34375 
Q 23.78125 -13.375 27.78125 -13.375 
Q 36.625 -13.375 41.015625 -8.765625 
Q 45.40625 -4.15625 45.40625 5.171875 
L 45.40625 9.625 
Q 42.625 4.78125 38.28125 2.390625 
Q 33.9375 0 27.875 0 
Q 17.828125 0 11.671875 7.65625 
Q 5.515625 15.328125 5.515625 27.984375 
Q 5.515625 40.671875 11.671875 48.328125 
Q 17.828125 56 27.875 56 
Q 33.9375 56 38.28125 53.609375 
Q 42.625 51.21875 45.40625 46.390625 
L 45.40625 54.6875 
L 54.390625 54.6875 
z
" id="DejaVuSans-103"/>
    </defs>
    <g transform="translate(217.769375 384.857143)scale(0.1 -0.1)">
     <use xlink:href="#DejaVuSans-87"/>
     <use x="98.876953" xlink:href="#DejaVuSans-82"/>
     <use x="168.359375" xlink:href="#DejaVuSans-69"/>
     <use x="231.542969" xlink:href="#DejaVuSans-78"/>
     <use x="306.347656" xlink:href="#DejaVuSans-67"/>
     <use x="376.171875" xlink:href="#DejaVuSans-72"/>
     <use x="451.367188" xlink:href="#DejaVuSans-32"/>
     <use x="483.154297" xlink:href="#DejaVuSans-119"/>
     <use x="564.941406" xlink:href="#DejaVuSans-105"/>
     <use x="592.724609" xlink:href="#DejaVuSans-116"/>
     <use x="631.933594" xlink:href="#DejaVuSans-104"/>
     <use x="695.3125" xlink:href="#DejaVuSans-32"/>
     <use x="727.099609" xlink:href="#DejaVuSans-112"/>
     <use x="790.576172" xlink:href="#DejaVuSans-97"/>
     <use x="851.855469" xlink:href="#DejaVuSans-103"/>
     <use x="915.332031" xlink:href="#DejaVuSans-101"/>
     <use x="976.855469" xlink:href="#DejaVuSans-32"/>
     <use x="1008.642578" xlink:href="#DejaVuSans-99"/>
     <use x="1063.623047" xlink:href="#DejaVuSans-97"/>
     <use x="1124.902344" xlink:href="#DejaVuSans-99"/>
     <use x="1179.882812" xlink:href="#DejaVuSans-104"/>
     <use x="1243.261719" xlink:href="#DejaVuSans-101"/>
     <use x="1304.785156" xlink:href="#DejaVuSans-32"/>
     <use x="1336.572266" xlink:href="#DejaVuSans-115"/>
     <use x="1388.671875" xlink:href="#DejaVuSans-105"/>
     <use x="1416.455078" xlink:href="#DejaVuSans-109"/>
     <use x="1513.867188" xlink:href="#DejaVuSans-117"/>
     <use x="1577.246094" xlink:href="#DejaVuSans-108"/>
     <use x="1605.029297" xlink:href="#DejaVuSans-97"/>
     <use x="1666.308594" xlink:href="#DejaVuSans-116"/>
     <use x="1705.517578" xlink:href="#DejaVuSans-111"/>
     <use x="1766.699219" xlink:href="#DejaVuSans-114"/>
    </g>
   </g>
  </g>
  <g id="text_49">
   <!-- time (sec) -->
   <defs>
    <path d="M 31 75.875 
Q 24.46875 64.65625 21.28125 53.65625 
Q 18.109375 42.671875 18.109375 31.390625 
Q 18.109375 20.125 21.3125 9.0625 
Q 24.515625 -2 31 -13.1875 
L 23.1875 -13.1875 
Q 15.875 -1.703125 12.234375 9.375 
Q 8.59375 20.453125 8.59375 31.390625 
Q 8.59375 42.28125 12.203125 53.3125 
Q 15.828125 64.359375 23.1875 75.875 
z
" id="DejaVuSans-40"/>
    <path d="M 8.015625 75.875 
L 15.828125 75.875 
Q 23.140625 64.359375 26.78125 53.3125 
Q 30.421875 42.28125 30.421875 31.390625 
Q 30.421875 20.453125 26.78125 9.375 
Q 23.140625 -1.703125 15.828125 -13.1875 
L 8.015625 -13.1875 
Q 14.5 -2 17.703125 9.0625 
Q 20.90625 20.125 20.90625 31.390625 
Q 20.90625 42.671875 17.703125 53.65625 
Q 14.5 64.65625 8.015625 75.875 
z
" id="DejaVuSans-41"/>
   </defs>
   <g transform="translate(265.304531 566.963438)scale(0.09 -0.09)">
    <use xlink:href="#DejaVuSans-116"/>
    <use x="39.208984" xlink:href="#DejaVuSans-105"/>
    <use x="66.992188" xlink:href="#DejaVuSans-109"/>
    <use x="164.404297" xlink:href="#DejaVuSans-101"/>
    <use x="225.927734" xlink:href="#DejaVuSans-32"/>
    <use x="257.714844" xlink:href="#DejaVuSans-40"/>
    <use x="296.728516" xlink:href="#DejaVuSans-115"/>
    <use x="348.828125" xlink:href="#DejaVuSans-101"/>
    <use x="410.351562" xlink:href="#DejaVuSans-99"/>
    <use x="465.332031" xlink:href="#DejaVuSans-41"/>
   </g>
  </g>
  <g id="text_50">
   <!-- memory (GB) -->
   <defs>
    <path d="M 59.515625 10.40625 
L 59.515625 29.984375 
L 43.40625 29.984375 
L 43.40625 38.09375 
L 69.28125 38.09375 
L 69.28125 6.78125 
Q 63.578125 2.734375 56.6875 0.65625 
Q 49.8125 -1.421875 42 -1.421875 
Q 24.90625 -1.421875 15.25 8.5625 
Q 5.609375 18.5625 5.609375 36.375 
Q 5.609375 54.25 15.25 64.234375 
Q 24.90625 74.21875 42 74.21875 
Q 49.125 74.21875 55.546875 72.453125 
Q 61.96875 70.703125 67.390625 67.28125 
L 67.390625 56.78125 
Q 61.921875 61.421875 55.765625 63.765625 
Q 49.609375 66.109375 42.828125 66.109375 
Q 29.4375 66.109375 22.71875 58.640625 
Q 16.015625 51.171875 16.015625 36.375 
Q 16.015625 21.625 22.71875 14.15625 
Q 29.4375 6.6875 42.828125 6.6875 
Q 48.046875 6.6875 52.140625 7.59375 
Q 56.25 8.5 59.515625 10.40625 
z
" id="DejaVuSans-71"/>
    <path d="M 19.671875 34.8125 
L 19.671875 8.109375 
L 35.5 8.109375 
Q 43.453125 8.109375 47.28125 11.40625 
Q 51.125 14.703125 51.125 21.484375 
Q 51.125 28.328125 47.28125 31.5625 
Q 43.453125 34.8125 35.5 34.8125 
z
M 19.671875 64.796875 
L 19.671875 42.828125 
L 34.28125 42.828125 
Q 41.5 42.828125 45.03125 45.53125 
Q 48.578125 48.25 48.578125 53.8125 
Q 48.578125 59.328125 45.03125 62.0625 
Q 41.5 64.796875 34.28125 64.796875 
z
M 9.8125 72.90625 
L 35.015625 72.90625 
Q 46.296875 72.90625 52.390625 68.21875 
Q 58.5 63.53125 58.5 54.890625 
Q 58.5 48.1875 55.375 44.234375 
Q 52.25 40.28125 46.1875 39.3125 
Q 53.46875 37.75 57.5 32.78125 
Q 61.53125 27.828125 61.53125 20.40625 
Q 61.53125 10.640625 54.890625 5.3125 
Q 48.25 0 35.984375 0 
L 9.8125 0 
z
" id="DejaVuSans-66"/>
   </defs>
   <g transform="translate(25.523437 318.318047)rotate(-90)scale(0.09 -0.09)">
    <use xlink:href="#DejaVuSans-109"/>
    <use x="97.412109" xlink:href="#DejaVuSans-101"/>
    <use x="158.935547" xlink:href="#DejaVuSans-109"/>
    <use x="256.347656" xlink:href="#DejaVuSans-111"/>
    <use x="317.529297" xlink:href="#DejaVuSans-114"/>
    <use x="358.642578" xlink:href="#DejaVuSans-121"/>
    <use x="417.822266" xlink:href="#DejaVuSans-32"/>
    <use x="449.609375" xlink:href="#DejaVuSans-40"/>
    <use x="488.623047" xlink:href="#DejaVuSans-71"/>
    <use x="566.113281" xlink:href="#DejaVuSans-66"/>
    <use x="634.716797" xlink:href="#DejaVuSans-41"/>
   </g>
  </g>
 </g>
 <defs>
  <clipPath id="paf42f24314">
   <rect height="144.822857" width="478.08" x="69.12" y="28.8"/>
  </clipPath>
  <clipPath id="p1c23ee6dfa">
   <rect height="144.822857" width="478.08" x="69.12" y="209.828571"/>
  </clipPath>
  <clipPath id="p6a10deb6f6">
   <rect height="144.822857" width="478.08" x="69.12" y="390.857143"/>
  </clipPath>
 </defs>
</svg>
