<?xml version="1.0" encoding="utf-8" standalone="no"?>
<!DOCTYPE svg PUBLIC "-//W3C//DTD SVG 1.1//EN"
  "http://www.w3.org/Graphics/SVG/1.1/DTD/svg11.dtd">
<!-- Created with matplotlib (https://matplotlib.org/) -->
<svg height="720pt" version="1.1" viewBox="0 0 720 720" width="720pt" xmlns="http://www.w3.org/2000/svg" xmlns:xlink="http://www.w3.org/1999/xlink">
 <metadata>
  <rdf:RDF xmlns:cc="http://creativecommons.org/ns#" xmlns:dc="http://purl.org/dc/elements/1.1/" xmlns:rdf="http://www.w3.org/1999/02/22-rdf-syntax-ns#">
   <cc:Work>
    <dc:type rdf:resource="http://purl.org/dc/dcmitype/StillImage"/>
    <dc:date>2021-02-05T22:19:32.513209</dc:date>
    <dc:format>image/svg+xml</dc:format>
    <dc:creator>
     <cc:Agent>
      <dc:title>Matplotlib v3.3.4, https://matplotlib.org/</dc:title>
     </cc:Agent>
    </dc:creator>
   </cc:Work>
  </rdf:RDF>
 </metadata>
 <defs>
  <style type="text/css">*{stroke-linecap:butt;stroke-linejoin:round;}</style>
 </defs>
 <g id="figure_1">
  <g id="patch_1">
   <path d="M 0 720 
L 720 720 
L 720 0 
L 0 0 
z
" style="fill:#ffffff;"/>
  </g>
  <g id="axes_1">
   <g id="patch_2">
    <path d="M 50.4 350.608696 
L 344.945455 350.608696 
L 344.945455 108 
L 50.4 108 
z
" style="fill:#ffffff;"/>
   </g>
   <g id="patch_3">
    <path clip-path="url(#pe75aaba35d)" d="M 63.78843 350.608696 
L 73.351594 350.608696 
L 73.351594 347.22489 
L 63.78843 347.22489 
z
" style="fill:#7bafde;"/>
   </g>
   <g id="patch_4">
    <path clip-path="url(#pe75aaba35d)" d="M 111.60425 350.608696 
L 121.167414 350.608696 
L 121.167414 338.016764 
L 111.60425 338.016764 
z
" style="fill:#7bafde;"/>
   </g>
   <g id="patch_5">
    <path clip-path="url(#pe75aaba35d)" d="M 159.420071 350.608696 
L 168.983235 350.608696 
L 168.983235 339.815422 
L 159.420071 339.815422 
z
" style="fill:#7bafde;"/>
   </g>
   <g id="patch_6">
    <path clip-path="url(#pe75aaba35d)" d="M 207.235891 350.608696 
L 216.799055 350.608696 
L 216.799055 338.020146 
L 207.235891 338.020146 
z
" style="fill:#7bafde;"/>
   </g>
   <g id="patch_7">
    <path clip-path="url(#pe75aaba35d)" d="M 255.051712 350.608696 
L 264.614876 350.608696 
L 264.614876 339.922654 
L 255.051712 339.922654 
z
" style="fill:#7bafde;"/>
   </g>
   <g id="patch_8">
    <path clip-path="url(#pe75aaba35d)" d="M 302.867532 350.608696 
L 312.430697 350.608696 
L 312.430697 338.030294 
L 302.867532 338.030294 
z
" style="fill:#7bafde;"/>
   </g>
   <g id="patch_9">
    <path clip-path="url(#pe75aaba35d)" d="M 73.351594 350.608696 
L 82.914758 350.608696 
L 82.914758 347.22489 
L 73.351594 347.22489 
z
" style="fill:#994f88;"/>
   </g>
   <g id="patch_10">
    <path clip-path="url(#pe75aaba35d)" d="M 121.167414 350.608696 
L 130.730579 350.608696 
L 130.730579 156.914878 
L 121.167414 156.914878 
z
" style="fill:#994f88;"/>
   </g>
   <g id="patch_11">
    <path clip-path="url(#pe75aaba35d)" d="M 168.983235 350.608696 
L 178.546399 350.608696 
L 178.546399 138.301667 
L 168.983235 138.301667 
z
" style="fill:#994f88;"/>
   </g>
   <g id="patch_12">
    <path clip-path="url(#pe75aaba35d)" d="M 216.799055 350.608696 
L 226.36222 350.608696 
L 226.36222 156.879881 
L 216.799055 156.879881 
z
" style="fill:#994f88;"/>
   </g>
   <g id="patch_13">
    <path clip-path="url(#pe75aaba35d)" d="M 264.614876 350.608696 
L 274.17804 350.608696 
L 274.17804 137.191995 
L 264.614876 137.191995 
z
" style="fill:#994f88;"/>
   </g>
   <g id="patch_14">
    <path clip-path="url(#pe75aaba35d)" d="M 312.430697 350.608696 
L 321.993861 350.608696 
L 321.993861 156.774859 
L 312.430697 156.774859 
z
" style="fill:#994f88;"/>
   </g>
   <g id="patch_15">
    <path clip-path="url(#pe75aaba35d)" d="M 82.914758 350.608696 
L 92.477922 350.608696 
L 92.477922 347.22489 
L 82.914758 347.22489 
z
" style="fill:#1965b0;"/>
   </g>
   <g id="patch_16">
    <path clip-path="url(#pe75aaba35d)" d="M 130.730579 350.608696 
L 140.293743 350.608696 
L 140.293743 338.016765 
L 130.730579 338.016765 
z
" style="fill:#1965b0;"/>
   </g>
   <g id="patch_17">
    <path clip-path="url(#pe75aaba35d)" d="M 178.546399 350.608696 
L 188.109563 350.608696 
L 188.109563 339.815422 
L 178.546399 339.815422 
z
" style="fill:#1965b0;"/>
   </g>
   <g id="patch_18">
    <path clip-path="url(#pe75aaba35d)" d="M 226.36222 350.608696 
L 235.925384 350.608696 
L 235.925384 338.020146 
L 226.36222 338.020146 
z
" style="fill:#1965b0;"/>
   </g>
   <g id="patch_19">
    <path clip-path="url(#pe75aaba35d)" d="M 274.17804 350.608696 
L 283.741204 350.608696 
L 283.741204 339.922654 
L 274.17804 339.922654 
z
" style="fill:#1965b0;"/>
   </g>
   <g id="patch_20">
    <path clip-path="url(#pe75aaba35d)" d="M 321.993861 350.608696 
L 331.557025 350.608696 
L 331.557025 338.030295 
L 321.993861 338.030295 
z
" style="fill:#1965b0;"/>
   </g>
   <g id="matplotlib.axis_1">
    <g id="xtick_1">
     <g id="line2d_1">
      <defs>
       <path d="M 0 0 
L 0 3.5 
" id="m62754c2b9d" style="stroke:#000000;stroke-width:0.8;"/>
      </defs>
      <g>
       <use style="stroke:#000000;stroke-width:0.8;" x="78.133176" xlink:href="#m62754c2b9d" y="350.608696"/>
      </g>
     </g>
     <g id="text_1">
      <!-- Read 1 -->
      <g transform="translate(60.798801 365.207133)scale(0.1 -0.1)">
       <defs>
        <path d="M 44.390625 34.1875 
Q 47.5625 33.109375 50.5625 29.59375 
Q 53.5625 26.078125 56.59375 19.921875 
L 66.609375 0 
L 56 0 
L 46.6875 18.703125 
Q 43.0625 26.03125 39.671875 28.421875 
Q 36.28125 30.8125 30.421875 30.8125 
L 19.671875 30.8125 
L 19.671875 0 
L 9.8125 0 
L 9.8125 72.90625 
L 32.078125 72.90625 
Q 44.578125 72.90625 50.734375 67.671875 
Q 56.890625 62.453125 56.890625 51.90625 
Q 56.890625 45.015625 53.6875 40.46875 
Q 50.484375 35.9375 44.390625 34.1875 
z
M 19.671875 64.796875 
L 19.671875 38.921875 
L 32.078125 38.921875 
Q 39.203125 38.921875 42.84375 42.21875 
Q 46.484375 45.515625 46.484375 51.90625 
Q 46.484375 58.296875 42.84375 61.546875 
Q 39.203125 64.796875 32.078125 64.796875 
z
" id="DejaVuSans-82"/>
        <path d="M 56.203125 29.59375 
L 56.203125 25.203125 
L 14.890625 25.203125 
Q 15.484375 15.921875 20.484375 11.0625 
Q 25.484375 6.203125 34.421875 6.203125 
Q 39.59375 6.203125 44.453125 7.46875 
Q 49.3125 8.734375 54.109375 11.28125 
L 54.109375 2.78125 
Q 49.265625 0.734375 44.1875 -0.34375 
Q 39.109375 -1.421875 33.890625 -1.421875 
Q 20.796875 -1.421875 13.15625 6.1875 
Q 5.515625 13.8125 5.515625 26.8125 
Q 5.515625 40.234375 12.765625 48.109375 
Q 20.015625 56 32.328125 56 
Q 43.359375 56 49.78125 48.890625 
Q 56.203125 41.796875 56.203125 29.59375 
z
M 47.21875 32.234375 
Q 47.125 39.59375 43.09375 43.984375 
Q 39.0625 48.390625 32.421875 48.390625 
Q 24.90625 48.390625 20.390625 44.140625 
Q 15.875 39.890625 15.1875 32.171875 
z
" id="DejaVuSans-101"/>
        <path d="M 34.28125 27.484375 
Q 23.390625 27.484375 19.1875 25 
Q 14.984375 22.515625 14.984375 16.5 
Q 14.984375 11.71875 18.140625 8.90625 
Q 21.296875 6.109375 26.703125 6.109375 
Q 34.1875 6.109375 38.703125 11.40625 
Q 43.21875 16.703125 43.21875 25.484375 
L 43.21875 27.484375 
z
M 52.203125 31.203125 
L 52.203125 0 
L 43.21875 0 
L 43.21875 8.296875 
Q 40.140625 3.328125 35.546875 0.953125 
Q 30.953125 -1.421875 24.3125 -1.421875 
Q 15.921875 -1.421875 10.953125 3.296875 
Q 6 8.015625 6 15.921875 
Q 6 25.140625 12.171875 29.828125 
Q 18.359375 34.515625 30.609375 34.515625 
L 43.21875 34.515625 
L 43.21875 35.40625 
Q 43.21875 41.609375 39.140625 45 
Q 35.0625 48.390625 27.6875 48.390625 
Q 23 48.390625 18.546875 47.265625 
Q 14.109375 46.140625 10.015625 43.890625 
L 10.015625 52.203125 
Q 14.9375 54.109375 19.578125 55.046875 
Q 24.21875 56 28.609375 56 
Q 40.484375 56 46.34375 49.84375 
Q 52.203125 43.703125 52.203125 31.203125 
z
" id="DejaVuSans-97"/>
        <path d="M 45.40625 46.390625 
L 45.40625 75.984375 
L 54.390625 75.984375 
L 54.390625 0 
L 45.40625 0 
L 45.40625 8.203125 
Q 42.578125 3.328125 38.25 0.953125 
Q 33.9375 -1.421875 27.875 -1.421875 
Q 17.96875 -1.421875 11.734375 6.484375 
Q 5.515625 14.40625 5.515625 27.296875 
Q 5.515625 40.1875 11.734375 48.09375 
Q 17.96875 56 27.875 56 
Q 33.9375 56 38.25 53.625 
Q 42.578125 51.265625 45.40625 46.390625 
z
M 14.796875 27.296875 
Q 14.796875 17.390625 18.875 11.75 
Q 22.953125 6.109375 30.078125 6.109375 
Q 37.203125 6.109375 41.296875 11.75 
Q 45.40625 17.390625 45.40625 27.296875 
Q 45.40625 37.203125 41.296875 42.84375 
Q 37.203125 48.484375 30.078125 48.484375 
Q 22.953125 48.484375 18.875 42.84375 
Q 14.796875 37.203125 14.796875 27.296875 
z
" id="DejaVuSans-100"/>
        <path id="DejaVuSans-32"/>
        <path d="M 12.40625 8.296875 
L 28.515625 8.296875 
L 28.515625 63.921875 
L 10.984375 60.40625 
L 10.984375 69.390625 
L 28.421875 72.90625 
L 38.28125 72.90625 
L 38.28125 8.296875 
L 54.390625 8.296875 
L 54.390625 0 
L 12.40625 0 
z
" id="DejaVuSans-49"/>
       </defs>
       <use xlink:href="#DejaVuSans-82"/>
       <use x="64.982422" xlink:href="#DejaVuSans-101"/>
       <use x="126.505859" xlink:href="#DejaVuSans-97"/>
       <use x="187.785156" xlink:href="#DejaVuSans-100"/>
       <use x="251.261719" xlink:href="#DejaVuSans-32"/>
       <use x="283.048828" xlink:href="#DejaVuSans-49"/>
      </g>
     </g>
    </g>
    <g id="xtick_2">
     <g id="line2d_2">
      <g>
       <use style="stroke:#000000;stroke-width:0.8;" x="125.948996" xlink:href="#m62754c2b9d" y="350.608696"/>
      </g>
     </g>
     <g id="text_2">
      <!-- Write 1 -->
      <g transform="translate(107.978684 365.207133)scale(0.1 -0.1)">
       <defs>
        <path d="M 3.328125 72.90625 
L 13.28125 72.90625 
L 28.609375 11.28125 
L 43.890625 72.90625 
L 54.984375 72.90625 
L 70.3125 11.28125 
L 85.59375 72.90625 
L 95.609375 72.90625 
L 77.296875 0 
L 64.890625 0 
L 49.515625 63.28125 
L 33.984375 0 
L 21.578125 0 
z
" id="DejaVuSans-87"/>
        <path d="M 41.109375 46.296875 
Q 39.59375 47.171875 37.8125 47.578125 
Q 36.03125 48 33.890625 48 
Q 26.265625 48 22.1875 43.046875 
Q 18.109375 38.09375 18.109375 28.8125 
L 18.109375 0 
L 9.078125 0 
L 9.078125 54.6875 
L 18.109375 54.6875 
L 18.109375 46.1875 
Q 20.953125 51.171875 25.484375 53.578125 
Q 30.03125 56 36.53125 56 
Q 37.453125 56 38.578125 55.875 
Q 39.703125 55.765625 41.0625 55.515625 
z
" id="DejaVuSans-114"/>
        <path d="M 9.421875 54.6875 
L 18.40625 54.6875 
L 18.40625 0 
L 9.421875 0 
z
M 9.421875 75.984375 
L 18.40625 75.984375 
L 18.40625 64.59375 
L 9.421875 64.59375 
z
" id="DejaVuSans-105"/>
        <path d="M 18.3125 70.21875 
L 18.3125 54.6875 
L 36.8125 54.6875 
L 36.8125 47.703125 
L 18.3125 47.703125 
L 18.3125 18.015625 
Q 18.3125 11.328125 20.140625 9.421875 
Q 21.96875 7.515625 27.59375 7.515625 
L 36.8125 7.515625 
L 36.8125 0 
L 27.59375 0 
Q 17.1875 0 13.234375 3.875 
Q 9.28125 7.765625 9.28125 18.015625 
L 9.28125 47.703125 
L 2.6875 47.703125 
L 2.6875 54.6875 
L 9.28125 54.6875 
L 9.28125 70.21875 
z
" id="DejaVuSans-116"/>
       </defs>
       <use xlink:href="#DejaVuSans-87"/>
       <use x="94.376953" xlink:href="#DejaVuSans-114"/>
       <use x="135.490234" xlink:href="#DejaVuSans-105"/>
       <use x="163.273438" xlink:href="#DejaVuSans-116"/>
       <use x="202.482422" xlink:href="#DejaVuSans-101"/>
       <use x="264.005859" xlink:href="#DejaVuSans-32"/>
       <use x="295.792969" xlink:href="#DejaVuSans-49"/>
      </g>
     </g>
    </g>
    <g id="xtick_3">
     <g id="line2d_3">
      <g>
       <use style="stroke:#000000;stroke-width:0.8;" x="173.764817" xlink:href="#m62754c2b9d" y="350.608696"/>
      </g>
     </g>
     <g id="text_3">
      <!-- Read 2 -->
      <g transform="translate(156.430442 365.207133)scale(0.1 -0.1)">
       <defs>
        <path d="M 19.1875 8.296875 
L 53.609375 8.296875 
L 53.609375 0 
L 7.328125 0 
L 7.328125 8.296875 
Q 12.9375 14.109375 22.625 23.890625 
Q 32.328125 33.6875 34.8125 36.53125 
Q 39.546875 41.84375 41.421875 45.53125 
Q 43.3125 49.21875 43.3125 52.78125 
Q 43.3125 58.59375 39.234375 62.25 
Q 35.15625 65.921875 28.609375 65.921875 
Q 23.96875 65.921875 18.8125 64.3125 
Q 13.671875 62.703125 7.8125 59.421875 
L 7.8125 69.390625 
Q 13.765625 71.78125 18.9375 73 
Q 24.125 74.21875 28.421875 74.21875 
Q 39.75 74.21875 46.484375 68.546875 
Q 53.21875 62.890625 53.21875 53.421875 
Q 53.21875 48.921875 51.53125 44.890625 
Q 49.859375 40.875 45.40625 35.40625 
Q 44.1875 33.984375 37.640625 27.21875 
Q 31.109375 20.453125 19.1875 8.296875 
z
" id="DejaVuSans-50"/>
       </defs>
       <use xlink:href="#DejaVuSans-82"/>
       <use x="64.982422" xlink:href="#DejaVuSans-101"/>
       <use x="126.505859" xlink:href="#DejaVuSans-97"/>
       <use x="187.785156" xlink:href="#DejaVuSans-100"/>
       <use x="251.261719" xlink:href="#DejaVuSans-32"/>
       <use x="283.048828" xlink:href="#DejaVuSans-50"/>
      </g>
     </g>
    </g>
    <g id="xtick_4">
     <g id="line2d_4">
      <g>
       <use style="stroke:#000000;stroke-width:0.8;" x="221.580638" xlink:href="#m62754c2b9d" y="350.608696"/>
      </g>
     </g>
     <g id="text_4">
      <!-- Write 2 -->
      <g transform="translate(203.610325 365.207133)scale(0.1 -0.1)">
       <use xlink:href="#DejaVuSans-87"/>
       <use x="94.376953" xlink:href="#DejaVuSans-114"/>
       <use x="135.490234" xlink:href="#DejaVuSans-105"/>
       <use x="163.273438" xlink:href="#DejaVuSans-116"/>
       <use x="202.482422" xlink:href="#DejaVuSans-101"/>
       <use x="264.005859" xlink:href="#DejaVuSans-32"/>
       <use x="295.792969" xlink:href="#DejaVuSans-50"/>
      </g>
     </g>
    </g>
    <g id="xtick_5">
     <g id="line2d_5">
      <g>
       <use style="stroke:#000000;stroke-width:0.8;" x="269.396458" xlink:href="#m62754c2b9d" y="350.608696"/>
      </g>
     </g>
     <g id="text_5">
      <!-- Read 3 -->
      <g transform="translate(252.062083 365.207133)scale(0.1 -0.1)">
       <defs>
        <path d="M 40.578125 39.3125 
Q 47.65625 37.796875 51.625 33 
Q 55.609375 28.21875 55.609375 21.1875 
Q 55.609375 10.40625 48.1875 4.484375 
Q 40.765625 -1.421875 27.09375 -1.421875 
Q 22.515625 -1.421875 17.65625 -0.515625 
Q 12.796875 0.390625 7.625 2.203125 
L 7.625 11.71875 
Q 11.71875 9.328125 16.59375 8.109375 
Q 21.484375 6.890625 26.8125 6.890625 
Q 36.078125 6.890625 40.9375 10.546875 
Q 45.796875 14.203125 45.796875 21.1875 
Q 45.796875 27.640625 41.28125 31.265625 
Q 36.765625 34.90625 28.71875 34.90625 
L 20.21875 34.90625 
L 20.21875 43.015625 
L 29.109375 43.015625 
Q 36.375 43.015625 40.234375 45.921875 
Q 44.09375 48.828125 44.09375 54.296875 
Q 44.09375 59.90625 40.109375 62.90625 
Q 36.140625 65.921875 28.71875 65.921875 
Q 24.65625 65.921875 20.015625 65.03125 
Q 15.375 64.15625 9.8125 62.3125 
L 9.8125 71.09375 
Q 15.4375 72.65625 20.34375 73.4375 
Q 25.25 74.21875 29.59375 74.21875 
Q 40.828125 74.21875 47.359375 69.109375 
Q 53.90625 64.015625 53.90625 55.328125 
Q 53.90625 49.265625 50.4375 45.09375 
Q 46.96875 40.921875 40.578125 39.3125 
z
" id="DejaVuSans-51"/>
       </defs>
       <use xlink:href="#DejaVuSans-82"/>
       <use x="64.982422" xlink:href="#DejaVuSans-101"/>
       <use x="126.505859" xlink:href="#DejaVuSans-97"/>
       <use x="187.785156" xlink:href="#DejaVuSans-100"/>
       <use x="251.261719" xlink:href="#DejaVuSans-32"/>
       <use x="283.048828" xlink:href="#DejaVuSans-51"/>
      </g>
     </g>
    </g>
    <g id="xtick_6">
     <g id="line2d_6">
      <g>
       <use style="stroke:#000000;stroke-width:0.8;" x="317.212279" xlink:href="#m62754c2b9d" y="350.608696"/>
      </g>
     </g>
     <g id="text_6">
      <!-- Write 3 -->
      <g transform="translate(299.241966 365.207133)scale(0.1 -0.1)">
       <use xlink:href="#DejaVuSans-87"/>
       <use x="94.376953" xlink:href="#DejaVuSans-114"/>
       <use x="135.490234" xlink:href="#DejaVuSans-105"/>
       <use x="163.273438" xlink:href="#DejaVuSans-116"/>
       <use x="202.482422" xlink:href="#DejaVuSans-101"/>
       <use x="264.005859" xlink:href="#DejaVuSans-32"/>
       <use x="295.792969" xlink:href="#DejaVuSans-51"/>
      </g>
     </g>
    </g>
   </g>
   <g id="matplotlib.axis_2">
    <g id="ytick_1">
     <g id="line2d_7">
      <defs>
       <path d="M 0 0 
L -3.5 0 
" id="m8d66db2be9" style="stroke:#000000;stroke-width:0.8;"/>
      </defs>
      <g>
       <use style="stroke:#000000;stroke-width:0.8;" x="50.4" xlink:href="#m8d66db2be9" y="350.608696"/>
      </g>
     </g>
     <g id="text_7">
      <!-- 0 -->
      <g transform="translate(37.0375 354.407914)scale(0.1 -0.1)">
       <defs>
        <path d="M 31.78125 66.40625 
Q 24.171875 66.40625 20.328125 58.90625 
Q 16.5 51.421875 16.5 36.375 
Q 16.5 21.390625 20.328125 13.890625 
Q 24.171875 6.390625 31.78125 6.390625 
Q 39.453125 6.390625 43.28125 13.890625 
Q 47.125 21.390625 47.125 36.375 
Q 47.125 51.421875 43.28125 58.90625 
Q 39.453125 66.40625 31.78125 66.40625 
z
M 31.78125 74.21875 
Q 44.046875 74.21875 50.515625 64.515625 
Q 56.984375 54.828125 56.984375 36.375 
Q 56.984375 17.96875 50.515625 8.265625 
Q 44.046875 -1.421875 31.78125 -1.421875 
Q 19.53125 -1.421875 13.0625 8.265625 
Q 6.59375 17.96875 6.59375 36.375 
Q 6.59375 54.828125 13.0625 64.515625 
Q 19.53125 74.21875 31.78125 74.21875 
z
" id="DejaVuSans-48"/>
       </defs>
       <use xlink:href="#DejaVuSans-48"/>
      </g>
     </g>
    </g>
    <g id="ytick_2">
     <g id="line2d_8">
      <g>
       <use style="stroke:#000000;stroke-width:0.8;" x="50.4" xlink:href="#m8d66db2be9" y="315.950311"/>
      </g>
     </g>
     <g id="text_8">
      <!-- 100 -->
      <g transform="translate(24.3125 319.749529)scale(0.1 -0.1)">
       <use xlink:href="#DejaVuSans-49"/>
       <use x="63.623047" xlink:href="#DejaVuSans-48"/>
       <use x="127.246094" xlink:href="#DejaVuSans-48"/>
      </g>
     </g>
    </g>
    <g id="ytick_3">
     <g id="line2d_9">
      <g>
       <use style="stroke:#000000;stroke-width:0.8;" x="50.4" xlink:href="#m8d66db2be9" y="281.291925"/>
      </g>
     </g>
     <g id="text_9">
      <!-- 200 -->
      <g transform="translate(24.3125 285.091144)scale(0.1 -0.1)">
       <use xlink:href="#DejaVuSans-50"/>
       <use x="63.623047" xlink:href="#DejaVuSans-48"/>
       <use x="127.246094" xlink:href="#DejaVuSans-48"/>
      </g>
     </g>
    </g>
    <g id="ytick_4">
     <g id="line2d_10">
      <g>
       <use style="stroke:#000000;stroke-width:0.8;" x="50.4" xlink:href="#m8d66db2be9" y="246.63354"/>
      </g>
     </g>
     <g id="text_10">
      <!-- 300 -->
      <g transform="translate(24.3125 250.432759)scale(0.1 -0.1)">
       <use xlink:href="#DejaVuSans-51"/>
       <use x="63.623047" xlink:href="#DejaVuSans-48"/>
       <use x="127.246094" xlink:href="#DejaVuSans-48"/>
      </g>
     </g>
    </g>
    <g id="ytick_5">
     <g id="line2d_11">
      <g>
       <use style="stroke:#000000;stroke-width:0.8;" x="50.4" xlink:href="#m8d66db2be9" y="211.975155"/>
      </g>
     </g>
     <g id="text_11">
      <!-- 400 -->
      <g transform="translate(24.3125 215.774374)scale(0.1 -0.1)">
       <defs>
        <path d="M 37.796875 64.3125 
L 12.890625 25.390625 
L 37.796875 25.390625 
z
M 35.203125 72.90625 
L 47.609375 72.90625 
L 47.609375 25.390625 
L 58.015625 25.390625 
L 58.015625 17.1875 
L 47.609375 17.1875 
L 47.609375 0 
L 37.796875 0 
L 37.796875 17.1875 
L 4.890625 17.1875 
L 4.890625 26.703125 
z
" id="DejaVuSans-52"/>
       </defs>
       <use xlink:href="#DejaVuSans-52"/>
       <use x="63.623047" xlink:href="#DejaVuSans-48"/>
       <use x="127.246094" xlink:href="#DejaVuSans-48"/>
      </g>
     </g>
    </g>
    <g id="ytick_6">
     <g id="line2d_12">
      <g>
       <use style="stroke:#000000;stroke-width:0.8;" x="50.4" xlink:href="#m8d66db2be9" y="177.31677"/>
      </g>
     </g>
     <g id="text_12">
      <!-- 500 -->
      <g transform="translate(24.3125 181.115989)scale(0.1 -0.1)">
       <defs>
        <path d="M 10.796875 72.90625 
L 49.515625 72.90625 
L 49.515625 64.59375 
L 19.828125 64.59375 
L 19.828125 46.734375 
Q 21.96875 47.46875 24.109375 47.828125 
Q 26.265625 48.1875 28.421875 48.1875 
Q 40.625 48.1875 47.75 41.5 
Q 54.890625 34.8125 54.890625 23.390625 
Q 54.890625 11.625 47.5625 5.09375 
Q 40.234375 -1.421875 26.90625 -1.421875 
Q 22.3125 -1.421875 17.546875 -0.640625 
Q 12.796875 0.140625 7.71875 1.703125 
L 7.71875 11.625 
Q 12.109375 9.234375 16.796875 8.0625 
Q 21.484375 6.890625 26.703125 6.890625 
Q 35.15625 6.890625 40.078125 11.328125 
Q 45.015625 15.765625 45.015625 23.390625 
Q 45.015625 31 40.078125 35.4375 
Q 35.15625 39.890625 26.703125 39.890625 
Q 22.75 39.890625 18.8125 39.015625 
Q 14.890625 38.140625 10.796875 36.28125 
z
" id="DejaVuSans-53"/>
       </defs>
       <use xlink:href="#DejaVuSans-53"/>
       <use x="63.623047" xlink:href="#DejaVuSans-48"/>
       <use x="127.246094" xlink:href="#DejaVuSans-48"/>
      </g>
     </g>
    </g>
    <g id="ytick_7">
     <g id="line2d_13">
      <g>
       <use style="stroke:#000000;stroke-width:0.8;" x="50.4" xlink:href="#m8d66db2be9" y="142.658385"/>
      </g>
     </g>
     <g id="text_13">
      <!-- 600 -->
      <g transform="translate(24.3125 146.457604)scale(0.1 -0.1)">
       <defs>
        <path d="M 33.015625 40.375 
Q 26.375 40.375 22.484375 35.828125 
Q 18.609375 31.296875 18.609375 23.390625 
Q 18.609375 15.53125 22.484375 10.953125 
Q 26.375 6.390625 33.015625 6.390625 
Q 39.65625 6.390625 43.53125 10.953125 
Q 47.40625 15.53125 47.40625 23.390625 
Q 47.40625 31.296875 43.53125 35.828125 
Q 39.65625 40.375 33.015625 40.375 
z
M 52.59375 71.296875 
L 52.59375 62.3125 
Q 48.875 64.0625 45.09375 64.984375 
Q 41.3125 65.921875 37.59375 65.921875 
Q 27.828125 65.921875 22.671875 59.328125 
Q 17.53125 52.734375 16.796875 39.40625 
Q 19.671875 43.65625 24.015625 45.921875 
Q 28.375 48.1875 33.59375 48.1875 
Q 44.578125 48.1875 50.953125 41.515625 
Q 57.328125 34.859375 57.328125 23.390625 
Q 57.328125 12.15625 50.6875 5.359375 
Q 44.046875 -1.421875 33.015625 -1.421875 
Q 20.359375 -1.421875 13.671875 8.265625 
Q 6.984375 17.96875 6.984375 36.375 
Q 6.984375 53.65625 15.1875 63.9375 
Q 23.390625 74.21875 37.203125 74.21875 
Q 40.921875 74.21875 44.703125 73.484375 
Q 48.484375 72.75 52.59375 71.296875 
z
" id="DejaVuSans-54"/>
       </defs>
       <use xlink:href="#DejaVuSans-54"/>
       <use x="63.623047" xlink:href="#DejaVuSans-48"/>
       <use x="127.246094" xlink:href="#DejaVuSans-48"/>
      </g>
     </g>
    </g>
    <g id="ytick_8">
     <g id="line2d_14">
      <g>
       <use style="stroke:#000000;stroke-width:0.8;" x="50.4" xlink:href="#m8d66db2be9" y="108"/>
      </g>
     </g>
     <g id="text_14">
      <!-- 700 -->
      <g transform="translate(24.3125 111.799219)scale(0.1 -0.1)">
       <defs>
        <path d="M 8.203125 72.90625 
L 55.078125 72.90625 
L 55.078125 68.703125 
L 28.609375 0 
L 18.3125 0 
L 43.21875 64.59375 
L 8.203125 64.59375 
z
" id="DejaVuSans-55"/>
       </defs>
       <use xlink:href="#DejaVuSans-55"/>
       <use x="63.623047" xlink:href="#DejaVuSans-48"/>
       <use x="127.246094" xlink:href="#DejaVuSans-48"/>
      </g>
     </g>
    </g>
   </g>
   <g id="patch_21">
    <path d="M 50.4 350.608696 
L 50.4 108 
" style="fill:none;stroke:#000000;stroke-linecap:square;stroke-linejoin:miter;stroke-width:0.8;"/>
   </g>
   <g id="patch_22">
    <path d="M 344.945455 350.608696 
L 344.945455 108 
" style="fill:none;stroke:#000000;stroke-linecap:square;stroke-linejoin:miter;stroke-width:0.8;"/>
   </g>
   <g id="patch_23">
    <path d="M 50.4 350.608696 
L 344.945455 350.608696 
" style="fill:none;stroke:#000000;stroke-linecap:square;stroke-linejoin:miter;stroke-width:0.8;"/>
   </g>
   <g id="patch_24">
    <path d="M 50.4 108 
L 344.945455 108 
" style="fill:none;stroke:#000000;stroke-linecap:square;stroke-linejoin:miter;stroke-width:0.8;"/>
   </g>
   <g id="text_15">
    <!-- 20 GB -->
    <g transform="translate(179.365227 102)scale(0.12 -0.12)">
     <defs>
      <path d="M 59.515625 10.40625 
L 59.515625 29.984375 
L 43.40625 29.984375 
L 43.40625 38.09375 
L 69.28125 38.09375 
L 69.28125 6.78125 
Q 63.578125 2.734375 56.6875 0.65625 
Q 49.8125 -1.421875 42 -1.421875 
Q 24.90625 -1.421875 15.25 8.5625 
Q 5.609375 18.5625 5.609375 36.375 
Q 5.609375 54.25 15.25 64.234375 
Q 24.90625 74.21875 42 74.21875 
Q 49.125 74.21875 55.546875 72.453125 
Q 61.96875 70.703125 67.390625 67.28125 
L 67.390625 56.78125 
Q 61.921875 61.421875 55.765625 63.765625 
Q 49.609375 66.109375 42.828125 66.109375 
Q 29.4375 66.109375 22.71875 58.640625 
Q 16.015625 51.171875 16.015625 36.375 
Q 16.015625 21.625 22.71875 14.15625 
Q 29.4375 6.6875 42.828125 6.6875 
Q 48.046875 6.6875 52.140625 7.59375 
Q 56.25 8.5 59.515625 10.40625 
z
" id="DejaVuSans-71"/>
      <path d="M 19.671875 34.8125 
L 19.671875 8.109375 
L 35.5 8.109375 
Q 43.453125 8.109375 47.28125 11.40625 
Q 51.125 14.703125 51.125 21.484375 
Q 51.125 28.328125 47.28125 31.5625 
Q 43.453125 34.8125 35.5 34.8125 
z
M 19.671875 64.796875 
L 19.671875 42.828125 
L 34.28125 42.828125 
Q 41.5 42.828125 45.03125 45.53125 
Q 48.578125 48.25 48.578125 53.8125 
Q 48.578125 59.328125 45.03125 62.0625 
Q 41.5 64.796875 34.28125 64.796875 
z
M 9.8125 72.90625 
L 35.015625 72.90625 
Q 46.296875 72.90625 52.390625 68.21875 
Q 58.5 63.53125 58.5 54.890625 
Q 58.5 48.1875 55.375 44.234375 
Q 52.25 40.28125 46.1875 39.3125 
Q 53.46875 37.75 57.5 32.78125 
Q 61.53125 27.828125 61.53125 20.40625 
Q 61.53125 10.640625 54.890625 5.3125 
Q 48.25 0 35.984375 0 
L 9.8125 0 
z
" id="DejaVuSans-66"/>
     </defs>
     <use xlink:href="#DejaVuSans-50"/>
     <use x="63.623047" xlink:href="#DejaVuSans-48"/>
     <use x="127.246094" xlink:href="#DejaVuSans-32"/>
     <use x="159.033203" xlink:href="#DejaVuSans-71"/>
     <use x="236.523438" xlink:href="#DejaVuSans-66"/>
    </g>
   </g>
  </g>
  <g id="axes_2">
   <g id="patch_25">
    <path d="M 403.854545 350.608696 
L 698.4 350.608696 
L 698.4 108 
L 403.854545 108 
z
" style="fill:#ffffff;"/>
   </g>
   <g id="patch_26">
    <path clip-path="url(#p238c3ed6f1)" d="M 417.242975 350.608696 
L 426.806139 350.608696 
L 426.806139 347.16324 
L 417.242975 347.16324 
z
" style="fill:#7bafde;"/>
   </g>
   <g id="patch_27">
    <path clip-path="url(#p238c3ed6f1)" d="M 465.058796 350.608696 
L 474.62196 350.608696 
L 474.62196 335.171304 
L 465.058796 335.171304 
z
" style="fill:#7bafde;"/>
   </g>
   <g id="patch_28">
    <path clip-path="url(#p238c3ed6f1)" d="M 512.874616 350.608696 
L 522.43778 350.608696 
L 522.43778 337.147823 
L 512.874616 337.147823 
z
" style="fill:#7bafde;"/>
   </g>
   <g id="patch_29">
    <path clip-path="url(#p238c3ed6f1)" d="M 560.690437 350.608696 
L 570.253601 350.608696 
L 570.253601 345.141782 
L 560.690437 345.141782 
z
" style="fill:#7bafde;"/>
   </g>
   <g id="patch_30">
    <path clip-path="url(#p238c3ed6f1)" d="M 608.506257 350.608696 
L 618.069421 350.608696 
L 618.069421 338.701245 
L 608.506257 338.701245 
z
" style="fill:#7bafde;"/>
   </g>
   <g id="patch_31">
    <path clip-path="url(#p238c3ed6f1)" d="M 656.322078 350.608696 
L 665.885242 350.608696 
L 665.885242 320.29149 
L 656.322078 320.29149 
z
" style="fill:#7bafde;"/>
   </g>
   <g id="patch_32">
    <path clip-path="url(#p238c3ed6f1)" d="M 426.806139 350.608696 
L 436.369303 350.608696 
L 436.369303 347.16324 
L 426.806139 347.16324 
z
" style="fill:#994f88;"/>
   </g>
   <g id="patch_33">
    <path clip-path="url(#p238c3ed6f1)" d="M 474.62196 350.608696 
L 484.185124 350.608696 
L 484.185124 186.3608 
L 474.62196 186.3608 
z
" style="fill:#994f88;"/>
   </g>
   <g id="patch_34">
    <path clip-path="url(#p238c3ed6f1)" d="M 522.43778 350.608696 
L 532.000945 350.608696 
L 532.000945 165.90702 
L 522.43778 165.90702 
z
" style="fill:#994f88;"/>
   </g>
   <g id="patch_35">
    <path clip-path="url(#p238c3ed6f1)" d="M 570.253601 350.608696 
L 579.816765 350.608696 
L 579.816765 183.266533 
L 570.253601 183.266533 
z
" style="fill:#994f88;"/>
   </g>
   <g id="patch_36">
    <path clip-path="url(#p238c3ed6f1)" d="M 618.069421 350.608696 
L 627.632586 350.608696 
L 627.632586 149.831609 
L 618.069421 149.831609 
z
" style="fill:#994f88;"/>
   </g>
   <g id="patch_37">
    <path clip-path="url(#p238c3ed6f1)" d="M 665.885242 350.608696 
L 675.448406 350.608696 
L 675.448406 209.396008 
L 665.885242 209.396008 
z
" style="fill:#994f88;"/>
   </g>
   <g id="patch_38">
    <path clip-path="url(#p238c3ed6f1)" d="M 436.369303 350.608696 
L 445.932468 350.608696 
L 445.932468 347.16324 
L 436.369303 347.16324 
z
" style="fill:#1965b0;"/>
   </g>
   <g id="patch_39">
    <path clip-path="url(#p238c3ed6f1)" d="M 484.185124 350.608696 
L 493.748288 350.608696 
L 493.748288 335.171304 
L 484.185124 335.171304 
z
" style="fill:#1965b0;"/>
   </g>
   <g id="patch_40">
    <path clip-path="url(#p238c3ed6f1)" d="M 532.000945 350.608696 
L 541.564109 350.608696 
L 541.564109 337.147823 
L 532.000945 337.147823 
z
" style="fill:#1965b0;"/>
   </g>
   <g id="patch_41">
    <path clip-path="url(#p238c3ed6f1)" d="M 579.816765 350.608696 
L 589.379929 350.608696 
L 589.379929 350.014352 
L 579.816765 350.014352 
z
" style="fill:#1965b0;"/>
   </g>
   <g id="patch_42">
    <path clip-path="url(#p238c3ed6f1)" d="M 627.632586 350.608696 
L 637.19575 350.608696 
L 637.19575 338.701245 
L 627.632586 338.701245 
z
" style="fill:#1965b0;"/>
   </g>
   <g id="patch_43">
    <path clip-path="url(#p238c3ed6f1)" d="M 675.448406 350.608696 
L 685.01157 350.608696 
L 685.01157 349.277982 
L 675.448406 349.277982 
z
" style="fill:#1965b0;"/>
   </g>
   <g id="matplotlib.axis_3">
    <g id="xtick_7">
     <g id="line2d_15">
      <g>
       <use style="stroke:#000000;stroke-width:0.8;" x="431.587721" xlink:href="#m62754c2b9d" y="350.608696"/>
      </g>
     </g>
     <g id="text_16">
      <!-- Read 1 -->
      <g transform="translate(414.253346 365.207133)scale(0.1 -0.1)">
       <use xlink:href="#DejaVuSans-82"/>
       <use x="64.982422" xlink:href="#DejaVuSans-101"/>
       <use x="126.505859" xlink:href="#DejaVuSans-97"/>
       <use x="187.785156" xlink:href="#DejaVuSans-100"/>
       <use x="251.261719" xlink:href="#DejaVuSans-32"/>
       <use x="283.048828" xlink:href="#DejaVuSans-49"/>
      </g>
     </g>
    </g>
    <g id="xtick_8">
     <g id="line2d_16">
      <g>
       <use style="stroke:#000000;stroke-width:0.8;" x="479.403542" xlink:href="#m62754c2b9d" y="350.608696"/>
      </g>
     </g>
     <g id="text_17">
      <!-- Write 1 -->
      <g transform="translate(461.433229 365.207133)scale(0.1 -0.1)">
       <use xlink:href="#DejaVuSans-87"/>
       <use x="94.376953" xlink:href="#DejaVuSans-114"/>
       <use x="135.490234" xlink:href="#DejaVuSans-105"/>
       <use x="163.273438" xlink:href="#DejaVuSans-116"/>
       <use x="202.482422" xlink:href="#DejaVuSans-101"/>
       <use x="264.005859" xlink:href="#DejaVuSans-32"/>
       <use x="295.792969" xlink:href="#DejaVuSans-49"/>
      </g>
     </g>
    </g>
    <g id="xtick_9">
     <g id="line2d_17">
      <g>
       <use style="stroke:#000000;stroke-width:0.8;" x="527.219362" xlink:href="#m62754c2b9d" y="350.608696"/>
      </g>
     </g>
     <g id="text_18">
      <!-- Read 2 -->
      <g transform="translate(509.884987 365.207133)scale(0.1 -0.1)">
       <use xlink:href="#DejaVuSans-82"/>
       <use x="64.982422" xlink:href="#DejaVuSans-101"/>
       <use x="126.505859" xlink:href="#DejaVuSans-97"/>
       <use x="187.785156" xlink:href="#DejaVuSans-100"/>
       <use x="251.261719" xlink:href="#DejaVuSans-32"/>
       <use x="283.048828" xlink:href="#DejaVuSans-50"/>
      </g>
     </g>
    </g>
    <g id="xtick_10">
     <g id="line2d_18">
      <g>
       <use style="stroke:#000000;stroke-width:0.8;" x="575.035183" xlink:href="#m62754c2b9d" y="350.608696"/>
      </g>
     </g>
     <g id="text_19">
      <!-- Write 2 -->
      <g transform="translate(557.06487 365.207133)scale(0.1 -0.1)">
       <use xlink:href="#DejaVuSans-87"/>
       <use x="94.376953" xlink:href="#DejaVuSans-114"/>
       <use x="135.490234" xlink:href="#DejaVuSans-105"/>
       <use x="163.273438" xlink:href="#DejaVuSans-116"/>
       <use x="202.482422" xlink:href="#DejaVuSans-101"/>
       <use x="264.005859" xlink:href="#DejaVuSans-32"/>
       <use x="295.792969" xlink:href="#DejaVuSans-50"/>
      </g>
     </g>
    </g>
    <g id="xtick_11">
     <g id="line2d_19">
      <g>
       <use style="stroke:#000000;stroke-width:0.8;" x="622.851004" xlink:href="#m62754c2b9d" y="350.608696"/>
      </g>
     </g>
     <g id="text_20">
      <!-- Read 3 -->
      <g transform="translate(605.516629 365.207133)scale(0.1 -0.1)">
       <use xlink:href="#DejaVuSans-82"/>
       <use x="64.982422" xlink:href="#DejaVuSans-101"/>
       <use x="126.505859" xlink:href="#DejaVuSans-97"/>
       <use x="187.785156" xlink:href="#DejaVuSans-100"/>
       <use x="251.261719" xlink:href="#DejaVuSans-32"/>
       <use x="283.048828" xlink:href="#DejaVuSans-51"/>
      </g>
     </g>
    </g>
    <g id="xtick_12">
     <g id="line2d_20">
      <g>
       <use style="stroke:#000000;stroke-width:0.8;" x="670.666824" xlink:href="#m62754c2b9d" y="350.608696"/>
      </g>
     </g>
     <g id="text_21">
      <!-- Write 3 -->
      <g transform="translate(652.696512 365.207133)scale(0.1 -0.1)">
       <use xlink:href="#DejaVuSans-87"/>
       <use x="94.376953" xlink:href="#DejaVuSans-114"/>
       <use x="135.490234" xlink:href="#DejaVuSans-105"/>
       <use x="163.273438" xlink:href="#DejaVuSans-116"/>
       <use x="202.482422" xlink:href="#DejaVuSans-101"/>
       <use x="264.005859" xlink:href="#DejaVuSans-32"/>
       <use x="295.792969" xlink:href="#DejaVuSans-51"/>
      </g>
     </g>
    </g>
   </g>
   <g id="matplotlib.axis_4">
    <g id="ytick_9">
     <g id="line2d_21">
      <g>
       <use style="stroke:#000000;stroke-width:0.8;" x="403.854545" xlink:href="#m8d66db2be9" y="350.608696"/>
      </g>
     </g>
     <g id="text_22">
      <!-- 0 -->
      <g transform="translate(390.492045 354.407914)scale(0.1 -0.1)">
       <use xlink:href="#DejaVuSans-48"/>
      </g>
     </g>
    </g>
    <g id="ytick_10">
     <g id="line2d_22">
      <g>
       <use style="stroke:#000000;stroke-width:0.8;" x="403.854545" xlink:href="#m8d66db2be9" y="315.950311"/>
      </g>
     </g>
     <g id="text_23">
      <!-- 100 -->
      <g transform="translate(377.767045 319.749529)scale(0.1 -0.1)">
       <use xlink:href="#DejaVuSans-49"/>
       <use x="63.623047" xlink:href="#DejaVuSans-48"/>
       <use x="127.246094" xlink:href="#DejaVuSans-48"/>
      </g>
     </g>
    </g>
    <g id="ytick_11">
     <g id="line2d_23">
      <g>
       <use style="stroke:#000000;stroke-width:0.8;" x="403.854545" xlink:href="#m8d66db2be9" y="281.291925"/>
      </g>
     </g>
     <g id="text_24">
      <!-- 200 -->
      <g transform="translate(377.767045 285.091144)scale(0.1 -0.1)">
       <use xlink:href="#DejaVuSans-50"/>
       <use x="63.623047" xlink:href="#DejaVuSans-48"/>
       <use x="127.246094" xlink:href="#DejaVuSans-48"/>
      </g>
     </g>
    </g>
    <g id="ytick_12">
     <g id="line2d_24">
      <g>
       <use style="stroke:#000000;stroke-width:0.8;" x="403.854545" xlink:href="#m8d66db2be9" y="246.63354"/>
      </g>
     </g>
     <g id="text_25">
      <!-- 300 -->
      <g transform="translate(377.767045 250.432759)scale(0.1 -0.1)">
       <use xlink:href="#DejaVuSans-51"/>
       <use x="63.623047" xlink:href="#DejaVuSans-48"/>
       <use x="127.246094" xlink:href="#DejaVuSans-48"/>
      </g>
     </g>
    </g>
    <g id="ytick_13">
     <g id="line2d_25">
      <g>
       <use style="stroke:#000000;stroke-width:0.8;" x="403.854545" xlink:href="#m8d66db2be9" y="211.975155"/>
      </g>
     </g>
     <g id="text_26">
      <!-- 400 -->
      <g transform="translate(377.767045 215.774374)scale(0.1 -0.1)">
       <use xlink:href="#DejaVuSans-52"/>
       <use x="63.623047" xlink:href="#DejaVuSans-48"/>
       <use x="127.246094" xlink:href="#DejaVuSans-48"/>
      </g>
     </g>
    </g>
    <g id="ytick_14">
     <g id="line2d_26">
      <g>
       <use style="stroke:#000000;stroke-width:0.8;" x="403.854545" xlink:href="#m8d66db2be9" y="177.31677"/>
      </g>
     </g>
     <g id="text_27">
      <!-- 500 -->
      <g transform="translate(377.767045 181.115989)scale(0.1 -0.1)">
       <use xlink:href="#DejaVuSans-53"/>
       <use x="63.623047" xlink:href="#DejaVuSans-48"/>
       <use x="127.246094" xlink:href="#DejaVuSans-48"/>
      </g>
     </g>
    </g>
    <g id="ytick_15">
     <g id="line2d_27">
      <g>
       <use style="stroke:#000000;stroke-width:0.8;" x="403.854545" xlink:href="#m8d66db2be9" y="142.658385"/>
      </g>
     </g>
     <g id="text_28">
      <!-- 600 -->
      <g transform="translate(377.767045 146.457604)scale(0.1 -0.1)">
       <use xlink:href="#DejaVuSans-54"/>
       <use x="63.623047" xlink:href="#DejaVuSans-48"/>
       <use x="127.246094" xlink:href="#DejaVuSans-48"/>
      </g>
     </g>
    </g>
    <g id="ytick_16">
     <g id="line2d_28">
      <g>
       <use style="stroke:#000000;stroke-width:0.8;" x="403.854545" xlink:href="#m8d66db2be9" y="108"/>
      </g>
     </g>
     <g id="text_29">
      <!-- 700 -->
      <g transform="translate(377.767045 111.799219)scale(0.1 -0.1)">
       <use xlink:href="#DejaVuSans-55"/>
       <use x="63.623047" xlink:href="#DejaVuSans-48"/>
       <use x="127.246094" xlink:href="#DejaVuSans-48"/>
      </g>
     </g>
    </g>
   </g>
   <g id="patch_44">
    <path d="M 403.854545 350.608696 
L 403.854545 108 
" style="fill:none;stroke:#000000;stroke-linecap:square;stroke-linejoin:miter;stroke-width:0.8;"/>
   </g>
   <g id="patch_45">
    <path d="M 698.4 350.608696 
L 698.4 108 
" style="fill:none;stroke:#000000;stroke-linecap:square;stroke-linejoin:miter;stroke-width:0.8;"/>
   </g>
   <g id="patch_46">
    <path d="M 403.854545 350.608696 
L 698.4 350.608696 
" style="fill:none;stroke:#000000;stroke-linecap:square;stroke-linejoin:miter;stroke-width:0.8;"/>
   </g>
   <g id="patch_47">
    <path d="M 403.854545 108 
L 698.4 108 
" style="fill:none;stroke:#000000;stroke-linecap:square;stroke-linejoin:miter;stroke-width:0.8;"/>
   </g>
   <g id="text_30">
    <!-- 50 GB -->
    <g transform="translate(532.819773 102)scale(0.12 -0.12)">
     <use xlink:href="#DejaVuSans-53"/>
     <use x="63.623047" xlink:href="#DejaVuSans-48"/>
     <use x="127.246094" xlink:href="#DejaVuSans-32"/>
     <use x="159.033203" xlink:href="#DejaVuSans-71"/>
     <use x="236.523438" xlink:href="#DejaVuSans-66"/>
    </g>
   </g>
  </g>
  <g id="axes_3">
   <g id="patch_48">
    <path d="M 50.4 666 
L 344.945455 666 
L 344.945455 423.391304 
L 50.4 423.391304 
z
" style="fill:#ffffff;"/>
   </g>
   <g id="patch_49">
    <path clip-path="url(#p2d23d79cd6)" d="M 63.78843 666 
L 73.351594 666 
L 73.351594 662.540773 
L 63.78843 662.540773 
z
" style="fill:#7bafde;"/>
   </g>
   <g id="patch_50">
    <path clip-path="url(#p2d23d79cd6)" d="M 111.60425 666 
L 121.167414 666 
L 121.167414 651.781018 
L 111.60425 651.781018 
z
" style="fill:#7bafde;"/>
   </g>
   <g id="patch_51">
    <path clip-path="url(#p2d23d79cd6)" d="M 159.420071 666 
L 168.983235 666 
L 168.983235 649.528498 
L 159.420071 649.528498 
z
" style="fill:#7bafde;"/>
   </g>
   <g id="patch_52">
    <path clip-path="url(#p2d23d79cd6)" d="M 207.235891 666 
L 216.799055 666 
L 216.799055 645.693297 
L 207.235891 645.693297 
z
" style="fill:#7bafde;"/>
   </g>
   <g id="patch_53">
    <path clip-path="url(#p2d23d79cd6)" d="M 255.051712 666 
L 264.614876 666 
L 264.614876 648.275901 
L 255.051712 648.275901 
z
" style="fill:#7bafde;"/>
   </g>
   <g id="patch_54">
    <path clip-path="url(#p2d23d79cd6)" d="M 302.867532 666 
L 312.430697 666 
L 312.430697 646.322127 
L 302.867532 646.322127 
z
" style="fill:#7bafde;"/>
   </g>
   <g id="patch_55">
    <path clip-path="url(#p2d23d79cd6)" d="M 73.351594 666 
L 82.914758 666 
L 82.914758 662.540773 
L 73.351594 662.540773 
z
" style="fill:#994f88;"/>
   </g>
   <g id="patch_56">
    <path clip-path="url(#p2d23d79cd6)" d="M 121.167414 666 
L 130.730579 666 
L 130.730579 554.018421 
L 121.167414 554.018421 
z
" style="fill:#994f88;"/>
   </g>
   <g id="patch_57">
    <path clip-path="url(#p2d23d79cd6)" d="M 168.983235 666 
L 178.546399 666 
L 178.546399 512.45348 
L 168.983235 512.45348 
z
" style="fill:#994f88;"/>
   </g>
   <g id="patch_58">
    <path clip-path="url(#p2d23d79cd6)" d="M 216.799055 666 
L 226.36222 666 
L 226.36222 557.55829 
L 216.799055 557.55829 
z
" style="fill:#994f88;"/>
   </g>
   <g id="patch_59">
    <path clip-path="url(#p2d23d79cd6)" d="M 264.614876 666 
L 274.17804 666 
L 274.17804 525.415834 
L 264.614876 525.415834 
z
" style="fill:#994f88;"/>
   </g>
   <g id="patch_60">
    <path clip-path="url(#p2d23d79cd6)" d="M 312.430697 666 
L 321.993861 666 
L 321.993861 559.001549 
L 312.430697 559.001549 
z
" style="fill:#994f88;"/>
   </g>
   <g id="patch_61">
    <path clip-path="url(#p2d23d79cd6)" d="M 82.914758 666 
L 92.477922 666 
L 92.477922 662.540773 
L 82.914758 662.540773 
z
" style="fill:#1965b0;"/>
   </g>
   <g id="patch_62">
    <path clip-path="url(#p2d23d79cd6)" d="M 130.730579 666 
L 140.293743 666 
L 140.293743 649.402781 
L 130.730579 649.402781 
z
" style="fill:#1965b0;"/>
   </g>
   <g id="patch_63">
    <path clip-path="url(#p2d23d79cd6)" d="M 178.546399 666 
L 188.109563 666 
L 188.109563 649.528498 
L 178.546399 649.528498 
z
" style="fill:#1965b0;"/>
   </g>
   <g id="patch_64">
    <path clip-path="url(#p2d23d79cd6)" d="M 226.36222 666 
L 235.925384 666 
L 235.925384 650.876633 
L 226.36222 650.876633 
z
" style="fill:#1965b0;"/>
   </g>
   <g id="patch_65">
    <path clip-path="url(#p2d23d79cd6)" d="M 274.17804 666 
L 283.741204 666 
L 283.741204 648.275901 
L 274.17804 648.275901 
z
" style="fill:#1965b0;"/>
   </g>
   <g id="patch_66">
    <path clip-path="url(#p2d23d79cd6)" d="M 321.993861 666 
L 331.557025 666 
L 331.557025 650.9707 
L 321.993861 650.9707 
z
" style="fill:#1965b0;"/>
   </g>
   <g id="matplotlib.axis_5">
    <g id="xtick_13">
     <g id="line2d_29">
      <g>
       <use style="stroke:#000000;stroke-width:0.8;" x="78.133176" xlink:href="#m62754c2b9d" y="666"/>
      </g>
     </g>
     <g id="text_31">
      <!-- Read 1 -->
      <g transform="translate(60.798801 680.598438)scale(0.1 -0.1)">
       <use xlink:href="#DejaVuSans-82"/>
       <use x="64.982422" xlink:href="#DejaVuSans-101"/>
       <use x="126.505859" xlink:href="#DejaVuSans-97"/>
       <use x="187.785156" xlink:href="#DejaVuSans-100"/>
       <use x="251.261719" xlink:href="#DejaVuSans-32"/>
       <use x="283.048828" xlink:href="#DejaVuSans-49"/>
      </g>
     </g>
    </g>
    <g id="xtick_14">
     <g id="line2d_30">
      <g>
       <use style="stroke:#000000;stroke-width:0.8;" x="125.948996" xlink:href="#m62754c2b9d" y="666"/>
      </g>
     </g>
     <g id="text_32">
      <!-- Write 1 -->
      <g transform="translate(107.978684 680.598438)scale(0.1 -0.1)">
       <use xlink:href="#DejaVuSans-87"/>
       <use x="94.376953" xlink:href="#DejaVuSans-114"/>
       <use x="135.490234" xlink:href="#DejaVuSans-105"/>
       <use x="163.273438" xlink:href="#DejaVuSans-116"/>
       <use x="202.482422" xlink:href="#DejaVuSans-101"/>
       <use x="264.005859" xlink:href="#DejaVuSans-32"/>
       <use x="295.792969" xlink:href="#DejaVuSans-49"/>
      </g>
     </g>
    </g>
    <g id="xtick_15">
     <g id="line2d_31">
      <g>
       <use style="stroke:#000000;stroke-width:0.8;" x="173.764817" xlink:href="#m62754c2b9d" y="666"/>
      </g>
     </g>
     <g id="text_33">
      <!-- Read 2 -->
      <g transform="translate(156.430442 680.598438)scale(0.1 -0.1)">
       <use xlink:href="#DejaVuSans-82"/>
       <use x="64.982422" xlink:href="#DejaVuSans-101"/>
       <use x="126.505859" xlink:href="#DejaVuSans-97"/>
       <use x="187.785156" xlink:href="#DejaVuSans-100"/>
       <use x="251.261719" xlink:href="#DejaVuSans-32"/>
       <use x="283.048828" xlink:href="#DejaVuSans-50"/>
      </g>
     </g>
    </g>
    <g id="xtick_16">
     <g id="line2d_32">
      <g>
       <use style="stroke:#000000;stroke-width:0.8;" x="221.580638" xlink:href="#m62754c2b9d" y="666"/>
      </g>
     </g>
     <g id="text_34">
      <!-- Write 2 -->
      <g transform="translate(203.610325 680.598438)scale(0.1 -0.1)">
       <use xlink:href="#DejaVuSans-87"/>
       <use x="94.376953" xlink:href="#DejaVuSans-114"/>
       <use x="135.490234" xlink:href="#DejaVuSans-105"/>
       <use x="163.273438" xlink:href="#DejaVuSans-116"/>
       <use x="202.482422" xlink:href="#DejaVuSans-101"/>
       <use x="264.005859" xlink:href="#DejaVuSans-32"/>
       <use x="295.792969" xlink:href="#DejaVuSans-50"/>
      </g>
     </g>
    </g>
    <g id="xtick_17">
     <g id="line2d_33">
      <g>
       <use style="stroke:#000000;stroke-width:0.8;" x="269.396458" xlink:href="#m62754c2b9d" y="666"/>
      </g>
     </g>
     <g id="text_35">
      <!-- Read 3 -->
      <g transform="translate(252.062083 680.598438)scale(0.1 -0.1)">
       <use xlink:href="#DejaVuSans-82"/>
       <use x="64.982422" xlink:href="#DejaVuSans-101"/>
       <use x="126.505859" xlink:href="#DejaVuSans-97"/>
       <use x="187.785156" xlink:href="#DejaVuSans-100"/>
       <use x="251.261719" xlink:href="#DejaVuSans-32"/>
       <use x="283.048828" xlink:href="#DejaVuSans-51"/>
      </g>
     </g>
    </g>
    <g id="xtick_18">
     <g id="line2d_34">
      <g>
       <use style="stroke:#000000;stroke-width:0.8;" x="317.212279" xlink:href="#m62754c2b9d" y="666"/>
      </g>
     </g>
     <g id="text_36">
      <!-- Write 3 -->
      <g transform="translate(299.241966 680.598438)scale(0.1 -0.1)">
       <use xlink:href="#DejaVuSans-87"/>
       <use x="94.376953" xlink:href="#DejaVuSans-114"/>
       <use x="135.490234" xlink:href="#DejaVuSans-105"/>
       <use x="163.273438" xlink:href="#DejaVuSans-116"/>
       <use x="202.482422" xlink:href="#DejaVuSans-101"/>
       <use x="264.005859" xlink:href="#DejaVuSans-32"/>
       <use x="295.792969" xlink:href="#DejaVuSans-51"/>
      </g>
     </g>
    </g>
   </g>
   <g id="matplotlib.axis_6">
    <g id="ytick_17">
     <g id="line2d_35">
      <g>
       <use style="stroke:#000000;stroke-width:0.8;" x="50.4" xlink:href="#m8d66db2be9" y="666"/>
      </g>
     </g>
     <g id="text_37">
      <!-- 0 -->
      <g transform="translate(37.0375 669.799219)scale(0.1 -0.1)">
       <use xlink:href="#DejaVuSans-48"/>
      </g>
     </g>
    </g>
    <g id="ytick_18">
     <g id="line2d_36">
      <g>
       <use style="stroke:#000000;stroke-width:0.8;" x="50.4" xlink:href="#m8d66db2be9" y="631.341615"/>
      </g>
     </g>
     <g id="text_38">
      <!-- 100 -->
      <g transform="translate(24.3125 635.140834)scale(0.1 -0.1)">
       <use xlink:href="#DejaVuSans-49"/>
       <use x="63.623047" xlink:href="#DejaVuSans-48"/>
       <use x="127.246094" xlink:href="#DejaVuSans-48"/>
      </g>
     </g>
    </g>
    <g id="ytick_19">
     <g id="line2d_37">
      <g>
       <use style="stroke:#000000;stroke-width:0.8;" x="50.4" xlink:href="#m8d66db2be9" y="596.68323"/>
      </g>
     </g>
     <g id="text_39">
      <!-- 200 -->
      <g transform="translate(24.3125 600.482449)scale(0.1 -0.1)">
       <use xlink:href="#DejaVuSans-50"/>
       <use x="63.623047" xlink:href="#DejaVuSans-48"/>
       <use x="127.246094" xlink:href="#DejaVuSans-48"/>
      </g>
     </g>
    </g>
    <g id="ytick_20">
     <g id="line2d_38">
      <g>
       <use style="stroke:#000000;stroke-width:0.8;" x="50.4" xlink:href="#m8d66db2be9" y="562.024845"/>
      </g>
     </g>
     <g id="text_40">
      <!-- 300 -->
      <g transform="translate(24.3125 565.824063)scale(0.1 -0.1)">
       <use xlink:href="#DejaVuSans-51"/>
       <use x="63.623047" xlink:href="#DejaVuSans-48"/>
       <use x="127.246094" xlink:href="#DejaVuSans-48"/>
      </g>
     </g>
    </g>
    <g id="ytick_21">
     <g id="line2d_39">
      <g>
       <use style="stroke:#000000;stroke-width:0.8;" x="50.4" xlink:href="#m8d66db2be9" y="527.36646"/>
      </g>
     </g>
     <g id="text_41">
      <!-- 400 -->
      <g transform="translate(24.3125 531.165678)scale(0.1 -0.1)">
       <use xlink:href="#DejaVuSans-52"/>
       <use x="63.623047" xlink:href="#DejaVuSans-48"/>
       <use x="127.246094" xlink:href="#DejaVuSans-48"/>
      </g>
     </g>
    </g>
    <g id="ytick_22">
     <g id="line2d_40">
      <g>
       <use style="stroke:#000000;stroke-width:0.8;" x="50.4" xlink:href="#m8d66db2be9" y="492.708075"/>
      </g>
     </g>
     <g id="text_42">
      <!-- 500 -->
      <g transform="translate(24.3125 496.507293)scale(0.1 -0.1)">
       <use xlink:href="#DejaVuSans-53"/>
       <use x="63.623047" xlink:href="#DejaVuSans-48"/>
       <use x="127.246094" xlink:href="#DejaVuSans-48"/>
      </g>
     </g>
    </g>
    <g id="ytick_23">
     <g id="line2d_41">
      <g>
       <use style="stroke:#000000;stroke-width:0.8;" x="50.4" xlink:href="#m8d66db2be9" y="458.049689"/>
      </g>
     </g>
     <g id="text_43">
      <!-- 600 -->
      <g transform="translate(24.3125 461.848908)scale(0.1 -0.1)">
       <use xlink:href="#DejaVuSans-54"/>
       <use x="63.623047" xlink:href="#DejaVuSans-48"/>
       <use x="127.246094" xlink:href="#DejaVuSans-48"/>
      </g>
     </g>
    </g>
    <g id="ytick_24">
     <g id="line2d_42">
      <g>
       <use style="stroke:#000000;stroke-width:0.8;" x="50.4" xlink:href="#m8d66db2be9" y="423.391304"/>
      </g>
     </g>
     <g id="text_44">
      <!-- 700 -->
      <g transform="translate(24.3125 427.190523)scale(0.1 -0.1)">
       <use xlink:href="#DejaVuSans-55"/>
       <use x="63.623047" xlink:href="#DejaVuSans-48"/>
       <use x="127.246094" xlink:href="#DejaVuSans-48"/>
      </g>
     </g>
    </g>
   </g>
   <g id="patch_67">
    <path d="M 50.4 666 
L 50.4 423.391304 
" style="fill:none;stroke:#000000;stroke-linecap:square;stroke-linejoin:miter;stroke-width:0.8;"/>
   </g>
   <g id="patch_68">
    <path d="M 344.945455 666 
L 344.945455 423.391304 
" style="fill:none;stroke:#000000;stroke-linecap:square;stroke-linejoin:miter;stroke-width:0.8;"/>
   </g>
   <g id="patch_69">
    <path d="M 50.4 666 
L 344.945455 666 
" style="fill:none;stroke:#000000;stroke-linecap:square;stroke-linejoin:miter;stroke-width:0.8;"/>
   </g>
   <g id="patch_70">
    <path d="M 50.4 423.391304 
L 344.945455 423.391304 
" style="fill:none;stroke:#000000;stroke-linecap:square;stroke-linejoin:miter;stroke-width:0.8;"/>
   </g>
   <g id="text_45">
    <!-- 75 GB -->
    <g transform="translate(179.365227 417.391304)scale(0.12 -0.12)">
     <use xlink:href="#DejaVuSans-55"/>
     <use x="63.623047" xlink:href="#DejaVuSans-53"/>
     <use x="127.246094" xlink:href="#DejaVuSans-32"/>
     <use x="159.033203" xlink:href="#DejaVuSans-71"/>
     <use x="236.523438" xlink:href="#DejaVuSans-66"/>
    </g>
   </g>
  </g>
  <g id="axes_4">
   <g id="patch_71">
    <path d="M 403.854545 666 
L 698.4 666 
L 698.4 423.391304 
L 403.854545 423.391304 
z
" style="fill:#ffffff;"/>
   </g>
   <g id="patch_72">
    <path clip-path="url(#p43fdcd47c5)" d="M 417.242975 666 
L 426.806139 666 
L 426.806139 662.541098 
L 417.242975 662.541098 
z
" style="fill:#7bafde;"/>
   </g>
   <g id="patch_73">
    <path clip-path="url(#p43fdcd47c5)" d="M 465.058796 666 
L 474.62196 666 
L 474.62196 658.223332 
L 465.058796 658.223332 
z
" style="fill:#7bafde;"/>
   </g>
   <g id="patch_74">
    <path clip-path="url(#p43fdcd47c5)" d="M 512.874616 666 
L 522.43778 666 
L 522.43778 646.889355 
L 512.874616 646.889355 
z
" style="fill:#7bafde;"/>
   </g>
   <g id="patch_75">
    <path clip-path="url(#p43fdcd47c5)" d="M 560.690437 666 
L 570.253601 666 
L 570.253601 657.740601 
L 560.690437 657.740601 
z
" style="fill:#7bafde;"/>
   </g>
   <g id="patch_76">
    <path clip-path="url(#p43fdcd47c5)" d="M 608.506257 666 
L 618.069421 666 
L 618.069421 562.53458 
L 608.506257 562.53458 
z
" style="fill:#7bafde;"/>
   </g>
   <g id="patch_77">
    <path clip-path="url(#p43fdcd47c5)" d="M 656.322078 666 
L 665.885242 666 
L 665.885242 657.909713 
L 656.322078 657.909713 
z
" style="fill:#7bafde;"/>
   </g>
   <g id="patch_78">
    <path clip-path="url(#p43fdcd47c5)" d="M 426.806139 666 
L 436.369303 666 
L 436.369303 662.541098 
L 426.806139 662.541098 
z
" style="fill:#994f88;"/>
   </g>
   <g id="patch_79">
    <path clip-path="url(#p43fdcd47c5)" d="M 474.62196 666 
L 484.185124 666 
L 484.185124 625.495865 
L 474.62196 625.495865 
z
" style="fill:#994f88;"/>
   </g>
   <g id="patch_80">
    <path clip-path="url(#p43fdcd47c5)" d="M 522.43778 666 
L 532.000945 666 
L 532.000945 539.764351 
L 522.43778 539.764351 
z
" style="fill:#994f88;"/>
   </g>
   <g id="patch_81">
    <path clip-path="url(#p43fdcd47c5)" d="M 570.253601 666 
L 579.816765 666 
L 579.816765 624.665153 
L 570.253601 624.665153 
z
" style="fill:#994f88;"/>
   </g>
   <g id="patch_82">
    <path clip-path="url(#p43fdcd47c5)" d="M 618.069421 666 
L 627.632586 666 
L 627.632586 540.438778 
L 618.069421 540.438778 
z
" style="fill:#994f88;"/>
   </g>
   <g id="patch_83">
    <path clip-path="url(#p43fdcd47c5)" d="M 665.885242 666 
L 675.448406 666 
L 675.448406 624.964594 
L 665.885242 624.964594 
z
" style="fill:#994f88;"/>
   </g>
   <g id="patch_84">
    <path clip-path="url(#p43fdcd47c5)" d="M 436.369303 666 
L 445.932468 666 
L 445.932468 662.541098 
L 436.369303 662.541098 
z
" style="fill:#1965b0;"/>
   </g>
   <g id="patch_85">
    <path clip-path="url(#p43fdcd47c5)" d="M 484.185124 666 
L 493.748288 666 
L 493.748288 657.314868 
L 484.185124 657.314868 
z
" style="fill:#1965b0;"/>
   </g>
   <g id="patch_86">
    <path clip-path="url(#p43fdcd47c5)" d="M 532.000945 666 
L 541.564109 666 
L 541.564109 646.889355 
L 532.000945 646.889355 
z
" style="fill:#1965b0;"/>
   </g>
   <g id="patch_87">
    <path clip-path="url(#p43fdcd47c5)" d="M 579.816765 666 
L 589.379929 666 
L 589.379929 656.774994 
L 579.816765 656.774994 
z
" style="fill:#1965b0;"/>
   </g>
   <g id="patch_88">
    <path clip-path="url(#p43fdcd47c5)" d="M 627.632586 666 
L 637.19575 666 
L 637.19575 587.58969 
L 627.632586 587.58969 
z
" style="fill:#1965b0;"/>
   </g>
   <g id="patch_89">
    <path clip-path="url(#p43fdcd47c5)" d="M 675.448406 666 
L 685.01157 666 
L 685.01157 656.98118 
L 675.448406 656.98118 
z
" style="fill:#1965b0;"/>
   </g>
   <g id="matplotlib.axis_7">
    <g id="xtick_19">
     <g id="line2d_43">
      <g>
       <use style="stroke:#000000;stroke-width:0.8;" x="431.587721" xlink:href="#m62754c2b9d" y="666"/>
      </g>
     </g>
     <g id="text_46">
      <!-- Read 1 -->
      <g transform="translate(414.253346 680.598438)scale(0.1 -0.1)">
       <use xlink:href="#DejaVuSans-82"/>
       <use x="64.982422" xlink:href="#DejaVuSans-101"/>
       <use x="126.505859" xlink:href="#DejaVuSans-97"/>
       <use x="187.785156" xlink:href="#DejaVuSans-100"/>
       <use x="251.261719" xlink:href="#DejaVuSans-32"/>
       <use x="283.048828" xlink:href="#DejaVuSans-49"/>
      </g>
     </g>
    </g>
    <g id="xtick_20">
     <g id="line2d_44">
      <g>
       <use style="stroke:#000000;stroke-width:0.8;" x="479.403542" xlink:href="#m62754c2b9d" y="666"/>
      </g>
     </g>
     <g id="text_47">
      <!-- Write 1 -->
      <g transform="translate(461.433229 680.598438)scale(0.1 -0.1)">
       <use xlink:href="#DejaVuSans-87"/>
       <use x="94.376953" xlink:href="#DejaVuSans-114"/>
       <use x="135.490234" xlink:href="#DejaVuSans-105"/>
       <use x="163.273438" xlink:href="#DejaVuSans-116"/>
       <use x="202.482422" xlink:href="#DejaVuSans-101"/>
       <use x="264.005859" xlink:href="#DejaVuSans-32"/>
       <use x="295.792969" xlink:href="#DejaVuSans-49"/>
      </g>
     </g>
    </g>
    <g id="xtick_21">
     <g id="line2d_45">
      <g>
       <use style="stroke:#000000;stroke-width:0.8;" x="527.219362" xlink:href="#m62754c2b9d" y="666"/>
      </g>
     </g>
     <g id="text_48">
      <!-- Read 2 -->
      <g transform="translate(509.884987 680.598438)scale(0.1 -0.1)">
       <use xlink:href="#DejaVuSans-82"/>
       <use x="64.982422" xlink:href="#DejaVuSans-101"/>
       <use x="126.505859" xlink:href="#DejaVuSans-97"/>
       <use x="187.785156" xlink:href="#DejaVuSans-100"/>
       <use x="251.261719" xlink:href="#DejaVuSans-32"/>
       <use x="283.048828" xlink:href="#DejaVuSans-50"/>
      </g>
     </g>
    </g>
    <g id="xtick_22">
     <g id="line2d_46">
      <g>
       <use style="stroke:#000000;stroke-width:0.8;" x="575.035183" xlink:href="#m62754c2b9d" y="666"/>
      </g>
     </g>
     <g id="text_49">
      <!-- Write 2 -->
      <g transform="translate(557.06487 680.598438)scale(0.1 -0.1)">
       <use xlink:href="#DejaVuSans-87"/>
       <use x="94.376953" xlink:href="#DejaVuSans-114"/>
       <use x="135.490234" xlink:href="#DejaVuSans-105"/>
       <use x="163.273438" xlink:href="#DejaVuSans-116"/>
       <use x="202.482422" xlink:href="#DejaVuSans-101"/>
       <use x="264.005859" xlink:href="#DejaVuSans-32"/>
       <use x="295.792969" xlink:href="#DejaVuSans-50"/>
      </g>
     </g>
    </g>
    <g id="xtick_23">
     <g id="line2d_47">
      <g>
       <use style="stroke:#000000;stroke-width:0.8;" x="622.851004" xlink:href="#m62754c2b9d" y="666"/>
      </g>
     </g>
     <g id="text_50">
      <!-- Read 3 -->
      <g transform="translate(605.516629 680.598438)scale(0.1 -0.1)">
       <use xlink:href="#DejaVuSans-82"/>
       <use x="64.982422" xlink:href="#DejaVuSans-101"/>
       <use x="126.505859" xlink:href="#DejaVuSans-97"/>
       <use x="187.785156" xlink:href="#DejaVuSans-100"/>
       <use x="251.261719" xlink:href="#DejaVuSans-32"/>
       <use x="283.048828" xlink:href="#DejaVuSans-51"/>
      </g>
     </g>
    </g>
    <g id="xtick_24">
     <g id="line2d_48">
      <g>
       <use style="stroke:#000000;stroke-width:0.8;" x="670.666824" xlink:href="#m62754c2b9d" y="666"/>
      </g>
     </g>
     <g id="text_51">
      <!-- Write 3 -->
      <g transform="translate(652.696512 680.598438)scale(0.1 -0.1)">
       <use xlink:href="#DejaVuSans-87"/>
       <use x="94.376953" xlink:href="#DejaVuSans-114"/>
       <use x="135.490234" xlink:href="#DejaVuSans-105"/>
       <use x="163.273438" xlink:href="#DejaVuSans-116"/>
       <use x="202.482422" xlink:href="#DejaVuSans-101"/>
       <use x="264.005859" xlink:href="#DejaVuSans-32"/>
       <use x="295.792969" xlink:href="#DejaVuSans-51"/>
      </g>
     </g>
    </g>
   </g>
   <g id="matplotlib.axis_8">
    <g id="ytick_25">
     <g id="line2d_49">
      <g>
       <use style="stroke:#000000;stroke-width:0.8;" x="403.854545" xlink:href="#m8d66db2be9" y="666"/>
      </g>
     </g>
     <g id="text_52">
      <!-- 0 -->
      <g transform="translate(390.492045 669.799219)scale(0.1 -0.1)">
       <use xlink:href="#DejaVuSans-48"/>
      </g>
     </g>
    </g>
    <g id="ytick_26">
     <g id="line2d_50">
      <g>
       <use style="stroke:#000000;stroke-width:0.8;" x="403.854545" xlink:href="#m8d66db2be9" y="631.341615"/>
      </g>
     </g>
     <g id="text_53">
      <!-- 100 -->
      <g transform="translate(377.767045 635.140834)scale(0.1 -0.1)">
       <use xlink:href="#DejaVuSans-49"/>
       <use x="63.623047" xlink:href="#DejaVuSans-48"/>
       <use x="127.246094" xlink:href="#DejaVuSans-48"/>
      </g>
     </g>
    </g>
    <g id="ytick_27">
     <g id="line2d_51">
      <g>
       <use style="stroke:#000000;stroke-width:0.8;" x="403.854545" xlink:href="#m8d66db2be9" y="596.68323"/>
      </g>
     </g>
     <g id="text_54">
      <!-- 200 -->
      <g transform="translate(377.767045 600.482449)scale(0.1 -0.1)">
       <use xlink:href="#DejaVuSans-50"/>
       <use x="63.623047" xlink:href="#DejaVuSans-48"/>
       <use x="127.246094" xlink:href="#DejaVuSans-48"/>
      </g>
     </g>
    </g>
    <g id="ytick_28">
     <g id="line2d_52">
      <g>
       <use style="stroke:#000000;stroke-width:0.8;" x="403.854545" xlink:href="#m8d66db2be9" y="562.024845"/>
      </g>
     </g>
     <g id="text_55">
      <!-- 300 -->
      <g transform="translate(377.767045 565.824063)scale(0.1 -0.1)">
       <use xlink:href="#DejaVuSans-51"/>
       <use x="63.623047" xlink:href="#DejaVuSans-48"/>
       <use x="127.246094" xlink:href="#DejaVuSans-48"/>
      </g>
     </g>
    </g>
    <g id="ytick_29">
     <g id="line2d_53">
      <g>
       <use style="stroke:#000000;stroke-width:0.8;" x="403.854545" xlink:href="#m8d66db2be9" y="527.36646"/>
      </g>
     </g>
     <g id="text_56">
      <!-- 400 -->
      <g transform="translate(377.767045 531.165678)scale(0.1 -0.1)">
       <use xlink:href="#DejaVuSans-52"/>
       <use x="63.623047" xlink:href="#DejaVuSans-48"/>
       <use x="127.246094" xlink:href="#DejaVuSans-48"/>
      </g>
     </g>
    </g>
    <g id="ytick_30">
     <g id="line2d_54">
      <g>
       <use style="stroke:#000000;stroke-width:0.8;" x="403.854545" xlink:href="#m8d66db2be9" y="492.708075"/>
      </g>
     </g>
     <g id="text_57">
      <!-- 500 -->
      <g transform="translate(377.767045 496.507293)scale(0.1 -0.1)">
       <use xlink:href="#DejaVuSans-53"/>
       <use x="63.623047" xlink:href="#DejaVuSans-48"/>
       <use x="127.246094" xlink:href="#DejaVuSans-48"/>
      </g>
     </g>
    </g>
    <g id="ytick_31">
     <g id="line2d_55">
      <g>
       <use style="stroke:#000000;stroke-width:0.8;" x="403.854545" xlink:href="#m8d66db2be9" y="458.049689"/>
      </g>
     </g>
     <g id="text_58">
      <!-- 600 -->
      <g transform="translate(377.767045 461.848908)scale(0.1 -0.1)">
       <use xlink:href="#DejaVuSans-54"/>
       <use x="63.623047" xlink:href="#DejaVuSans-48"/>
       <use x="127.246094" xlink:href="#DejaVuSans-48"/>
      </g>
     </g>
    </g>
    <g id="ytick_32">
     <g id="line2d_56">
      <g>
       <use style="stroke:#000000;stroke-width:0.8;" x="403.854545" xlink:href="#m8d66db2be9" y="423.391304"/>
      </g>
     </g>
     <g id="text_59">
      <!-- 700 -->
      <g transform="translate(377.767045 427.190523)scale(0.1 -0.1)">
       <use xlink:href="#DejaVuSans-55"/>
       <use x="63.623047" xlink:href="#DejaVuSans-48"/>
       <use x="127.246094" xlink:href="#DejaVuSans-48"/>
      </g>
     </g>
    </g>
   </g>
   <g id="patch_90">
    <path d="M 403.854545 666 
L 403.854545 423.391304 
" style="fill:none;stroke:#000000;stroke-linecap:square;stroke-linejoin:miter;stroke-width:0.8;"/>
   </g>
   <g id="patch_91">
    <path d="M 698.4 666 
L 698.4 423.391304 
" style="fill:none;stroke:#000000;stroke-linecap:square;stroke-linejoin:miter;stroke-width:0.8;"/>
   </g>
   <g id="patch_92">
    <path d="M 403.854545 666 
L 698.4 666 
" style="fill:none;stroke:#000000;stroke-linecap:square;stroke-linejoin:miter;stroke-width:0.8;"/>
   </g>
   <g id="patch_93">
    <path d="M 403.854545 423.391304 
L 698.4 423.391304 
" style="fill:none;stroke:#000000;stroke-linecap:square;stroke-linejoin:miter;stroke-width:0.8;"/>
   </g>
   <g id="text_60">
    <!-- 100 GB -->
    <g transform="translate(529.002273 417.391304)scale(0.12 -0.12)">
     <use xlink:href="#DejaVuSans-49"/>
     <use x="63.623047" xlink:href="#DejaVuSans-48"/>
     <use x="127.246094" xlink:href="#DejaVuSans-48"/>
     <use x="190.869141" xlink:href="#DejaVuSans-32"/>
     <use x="222.65625" xlink:href="#DejaVuSans-71"/>
     <use x="300.146484" xlink:href="#DejaVuSans-66"/>
    </g>
   </g>
   <g id="legend_1">
    <g id="patch_94">
     <path d="M 199.471591 57.895516 
L 537.546591 57.895516 
Q 539.546591 57.895516 539.546591 55.895516 
L 539.546591 42.217391 
Q 539.546591 40.217391 537.546591 40.217391 
L 199.471591 40.217391 
Q 197.471591 40.217391 197.471591 42.217391 
L 197.471591 55.895516 
Q 197.471591 57.895516 199.471591 57.895516 
z
" style="fill:#ffffff;opacity:0.8;stroke:#cccccc;stroke-linejoin:miter;"/>
    </g>
    <g id="patch_95">
     <path d="M 201.471591 51.815829 
L 221.471591 51.815829 
L 221.471591 44.815829 
L 201.471591 44.815829 
z
" style="fill:#7bafde;"/>
    </g>
    <g id="text_61">
     <!-- Python prototype -->
     <g transform="translate(229.471591 51.815829)scale(0.1 -0.1)">
      <defs>
       <path d="M 19.671875 64.796875 
L 19.671875 37.40625 
L 32.078125 37.40625 
Q 38.96875 37.40625 42.71875 40.96875 
Q 46.484375 44.53125 46.484375 51.125 
Q 46.484375 57.671875 42.71875 61.234375 
Q 38.96875 64.796875 32.078125 64.796875 
z
M 9.8125 72.90625 
L 32.078125 72.90625 
Q 44.34375 72.90625 50.609375 67.359375 
Q 56.890625 61.8125 56.890625 51.125 
Q 56.890625 40.328125 50.609375 34.8125 
Q 44.34375 29.296875 32.078125 29.296875 
L 19.671875 29.296875 
L 19.671875 0 
L 9.8125 0 
z
" id="DejaVuSans-80"/>
       <path d="M 32.171875 -5.078125 
Q 28.375 -14.84375 24.75 -17.8125 
Q 21.140625 -20.796875 15.09375 -20.796875 
L 7.90625 -20.796875 
L 7.90625 -13.28125 
L 13.1875 -13.28125 
Q 16.890625 -13.28125 18.9375 -11.515625 
Q 21 -9.765625 23.484375 -3.21875 
L 25.09375 0.875 
L 2.984375 54.6875 
L 12.5 54.6875 
L 29.59375 11.921875 
L 46.6875 54.6875 
L 56.203125 54.6875 
z
" id="DejaVuSans-121"/>
       <path d="M 54.890625 33.015625 
L 54.890625 0 
L 45.90625 0 
L 45.90625 32.71875 
Q 45.90625 40.484375 42.875 44.328125 
Q 39.84375 48.1875 33.796875 48.1875 
Q 26.515625 48.1875 22.3125 43.546875 
Q 18.109375 38.921875 18.109375 30.90625 
L 18.109375 0 
L 9.078125 0 
L 9.078125 75.984375 
L 18.109375 75.984375 
L 18.109375 46.1875 
Q 21.34375 51.125 25.703125 53.5625 
Q 30.078125 56 35.796875 56 
Q 45.21875 56 50.046875 50.171875 
Q 54.890625 44.34375 54.890625 33.015625 
z
" id="DejaVuSans-104"/>
       <path d="M 30.609375 48.390625 
Q 23.390625 48.390625 19.1875 42.75 
Q 14.984375 37.109375 14.984375 27.296875 
Q 14.984375 17.484375 19.15625 11.84375 
Q 23.34375 6.203125 30.609375 6.203125 
Q 37.796875 6.203125 41.984375 11.859375 
Q 46.1875 17.53125 46.1875 27.296875 
Q 46.1875 37.015625 41.984375 42.703125 
Q 37.796875 48.390625 30.609375 48.390625 
z
M 30.609375 56 
Q 42.328125 56 49.015625 48.375 
Q 55.71875 40.765625 55.71875 27.296875 
Q 55.71875 13.875 49.015625 6.21875 
Q 42.328125 -1.421875 30.609375 -1.421875 
Q 18.84375 -1.421875 12.171875 6.21875 
Q 5.515625 13.875 5.515625 27.296875 
Q 5.515625 40.765625 12.171875 48.375 
Q 18.84375 56 30.609375 56 
z
" id="DejaVuSans-111"/>
       <path d="M 54.890625 33.015625 
L 54.890625 0 
L 45.90625 0 
L 45.90625 32.71875 
Q 45.90625 40.484375 42.875 44.328125 
Q 39.84375 48.1875 33.796875 48.1875 
Q 26.515625 48.1875 22.3125 43.546875 
Q 18.109375 38.921875 18.109375 30.90625 
L 18.109375 0 
L 9.078125 0 
L 9.078125 54.6875 
L 18.109375 54.6875 
L 18.109375 46.1875 
Q 21.34375 51.125 25.703125 53.5625 
Q 30.078125 56 35.796875 56 
Q 45.21875 56 50.046875 50.171875 
Q 54.890625 44.34375 54.890625 33.015625 
z
" id="DejaVuSans-110"/>
       <path d="M 18.109375 8.203125 
L 18.109375 -20.796875 
L 9.078125 -20.796875 
L 9.078125 54.6875 
L 18.109375 54.6875 
L 18.109375 46.390625 
Q 20.953125 51.265625 25.265625 53.625 
Q 29.59375 56 35.59375 56 
Q 45.5625 56 51.78125 48.09375 
Q 58.015625 40.1875 58.015625 27.296875 
Q 58.015625 14.40625 51.78125 6.484375 
Q 45.5625 -1.421875 35.59375 -1.421875 
Q 29.59375 -1.421875 25.265625 0.953125 
Q 20.953125 3.328125 18.109375 8.203125 
z
M 48.6875 27.296875 
Q 48.6875 37.203125 44.609375 42.84375 
Q 40.53125 48.484375 33.40625 48.484375 
Q 26.265625 48.484375 22.1875 42.84375 
Q 18.109375 37.203125 18.109375 27.296875 
Q 18.109375 17.390625 22.1875 11.75 
Q 26.265625 6.109375 33.40625 6.109375 
Q 40.53125 6.109375 44.609375 11.75 
Q 48.6875 17.390625 48.6875 27.296875 
z
" id="DejaVuSans-112"/>
      </defs>
      <use xlink:href="#DejaVuSans-80"/>
      <use x="60.302734" xlink:href="#DejaVuSans-121"/>
      <use x="119.482422" xlink:href="#DejaVuSans-116"/>
      <use x="158.691406" xlink:href="#DejaVuSans-104"/>
      <use x="222.070312" xlink:href="#DejaVuSans-111"/>
      <use x="283.251953" xlink:href="#DejaVuSans-110"/>
      <use x="346.630859" xlink:href="#DejaVuSans-32"/>
      <use x="378.417969" xlink:href="#DejaVuSans-112"/>
      <use x="441.894531" xlink:href="#DejaVuSans-114"/>
      <use x="480.757812" xlink:href="#DejaVuSans-111"/>
      <use x="541.939453" xlink:href="#DejaVuSans-116"/>
      <use x="581.148438" xlink:href="#DejaVuSans-111"/>
      <use x="642.330078" xlink:href="#DejaVuSans-116"/>
      <use x="681.539062" xlink:href="#DejaVuSans-121"/>
      <use x="740.71875" xlink:href="#DejaVuSans-112"/>
      <use x="804.195312" xlink:href="#DejaVuSans-101"/>
     </g>
    </g>
    <g id="patch_96">
     <path d="M 336.045028 51.815829 
L 356.045028 51.815829 
L 356.045028 44.815829 
L 336.045028 44.815829 
z
" style="fill:#994f88;"/>
    </g>
    <g id="text_62">
     <!-- WRENCH -->
     <g transform="translate(364.045028 51.815829)scale(0.1 -0.1)">
      <defs>
       <path d="M 9.8125 72.90625 
L 55.90625 72.90625 
L 55.90625 64.59375 
L 19.671875 64.59375 
L 19.671875 43.015625 
L 54.390625 43.015625 
L 54.390625 34.71875 
L 19.671875 34.71875 
L 19.671875 8.296875 
L 56.78125 8.296875 
L 56.78125 0 
L 9.8125 0 
z
" id="DejaVuSans-69"/>
       <path d="M 9.8125 72.90625 
L 23.09375 72.90625 
L 55.421875 11.921875 
L 55.421875 72.90625 
L 64.984375 72.90625 
L 64.984375 0 
L 51.703125 0 
L 19.390625 60.984375 
L 19.390625 0 
L 9.8125 0 
z
" id="DejaVuSans-78"/>
       <path d="M 64.40625 67.28125 
L 64.40625 56.890625 
Q 59.421875 61.53125 53.78125 63.8125 
Q 48.140625 66.109375 41.796875 66.109375 
Q 29.296875 66.109375 22.65625 58.46875 
Q 16.015625 50.828125 16.015625 36.375 
Q 16.015625 21.96875 22.65625 14.328125 
Q 29.296875 6.6875 41.796875 6.6875 
Q 48.140625 6.6875 53.78125 8.984375 
Q 59.421875 11.28125 64.40625 15.921875 
L 64.40625 5.609375 
Q 59.234375 2.09375 53.4375 0.328125 
Q 47.65625 -1.421875 41.21875 -1.421875 
Q 24.65625 -1.421875 15.125 8.703125 
Q 5.609375 18.84375 5.609375 36.375 
Q 5.609375 53.953125 15.125 64.078125 
Q 24.65625 74.21875 41.21875 74.21875 
Q 47.75 74.21875 53.53125 72.484375 
Q 59.328125 70.75 64.40625 67.28125 
z
" id="DejaVuSans-67"/>
       <path d="M 9.8125 72.90625 
L 19.671875 72.90625 
L 19.671875 43.015625 
L 55.515625 43.015625 
L 55.515625 72.90625 
L 65.375 72.90625 
L 65.375 0 
L 55.515625 0 
L 55.515625 34.71875 
L 19.671875 34.71875 
L 19.671875 0 
L 9.8125 0 
z
" id="DejaVuSans-72"/>
      </defs>
      <use xlink:href="#DejaVuSans-87"/>
      <use x="98.876953" xlink:href="#DejaVuSans-82"/>
      <use x="168.359375" xlink:href="#DejaVuSans-69"/>
      <use x="231.542969" xlink:href="#DejaVuSans-78"/>
      <use x="306.347656" xlink:href="#DejaVuSans-67"/>
      <use x="376.171875" xlink:href="#DejaVuSans-72"/>
     </g>
    </g>
    <g id="patch_97">
     <path d="M 429.184091 51.815829 
L 449.184091 51.815829 
L 449.184091 44.815829 
L 429.184091 44.815829 
z
" style="fill:#1965b0;"/>
    </g>
    <g id="text_63">
     <!-- WRENCH-cache -->
     <g transform="translate(457.184091 51.815829)scale(0.1 -0.1)">
      <defs>
       <path d="M 4.890625 31.390625 
L 31.203125 31.390625 
L 31.203125 23.390625 
L 4.890625 23.390625 
z
" id="DejaVuSans-45"/>
       <path d="M 48.78125 52.59375 
L 48.78125 44.1875 
Q 44.96875 46.296875 41.140625 47.34375 
Q 37.3125 48.390625 33.40625 48.390625 
Q 24.65625 48.390625 19.8125 42.84375 
Q 14.984375 37.3125 14.984375 27.296875 
Q 14.984375 17.28125 19.8125 11.734375 
Q 24.65625 6.203125 33.40625 6.203125 
Q 37.3125 6.203125 41.140625 7.25 
Q 44.96875 8.296875 48.78125 10.40625 
L 48.78125 2.09375 
Q 45.015625 0.34375 40.984375 -0.53125 
Q 36.96875 -1.421875 32.421875 -1.421875 
Q 20.0625 -1.421875 12.78125 6.34375 
Q 5.515625 14.109375 5.515625 27.296875 
Q 5.515625 40.671875 12.859375 48.328125 
Q 20.21875 56 33.015625 56 
Q 37.15625 56 41.109375 55.140625 
Q 45.0625 54.296875 48.78125 52.59375 
z
" id="DejaVuSans-99"/>
      </defs>
      <use xlink:href="#DejaVuSans-87"/>
      <use x="98.876953" xlink:href="#DejaVuSans-82"/>
      <use x="168.359375" xlink:href="#DejaVuSans-69"/>
      <use x="231.542969" xlink:href="#DejaVuSans-78"/>
      <use x="306.347656" xlink:href="#DejaVuSans-67"/>
      <use x="376.171875" xlink:href="#DejaVuSans-72"/>
      <use x="451.367188" xlink:href="#DejaVuSans-45"/>
      <use x="487.451172" xlink:href="#DejaVuSans-99"/>
      <use x="542.431641" xlink:href="#DejaVuSans-97"/>
      <use x="603.710938" xlink:href="#DejaVuSans-99"/>
      <use x="658.691406" xlink:href="#DejaVuSans-104"/>
      <use x="722.070312" xlink:href="#DejaVuSans-101"/>
     </g>
    </g>
   </g>
  </g>
  <g id="text_64">
   <!-- memory (GB) -->
   <g transform="translate(14.798438 393.686719)rotate(-90)scale(0.1 -0.1)">
    <defs>
     <path d="M 52 44.1875 
Q 55.375 50.25 60.0625 53.125 
Q 64.75 56 71.09375 56 
Q 79.640625 56 84.28125 50.015625 
Q 88.921875 44.046875 88.921875 33.015625 
L 88.921875 0 
L 79.890625 0 
L 79.890625 32.71875 
Q 79.890625 40.578125 77.09375 44.375 
Q 74.3125 48.1875 68.609375 48.1875 
Q 61.625 48.1875 57.5625 43.546875 
Q 53.515625 38.921875 53.515625 30.90625 
L 53.515625 0 
L 44.484375 0 
L 44.484375 32.71875 
Q 44.484375 40.625 41.703125 44.40625 
Q 38.921875 48.1875 33.109375 48.1875 
Q 26.21875 48.1875 22.15625 43.53125 
Q 18.109375 38.875 18.109375 30.90625 
L 18.109375 0 
L 9.078125 0 
L 9.078125 54.6875 
L 18.109375 54.6875 
L 18.109375 46.1875 
Q 21.1875 51.21875 25.484375 53.609375 
Q 29.78125 56 35.6875 56 
Q 41.65625 56 45.828125 52.96875 
Q 50 49.953125 52 44.1875 
z
" id="DejaVuSans-109"/>
     <path d="M 31 75.875 
Q 24.46875 64.65625 21.28125 53.65625 
Q 18.109375 42.671875 18.109375 31.390625 
Q 18.109375 20.125 21.3125 9.0625 
Q 24.515625 -2 31 -13.1875 
L 23.1875 -13.1875 
Q 15.875 -1.703125 12.234375 9.375 
Q 8.59375 20.453125 8.59375 31.390625 
Q 8.59375 42.28125 12.203125 53.3125 
Q 15.828125 64.359375 23.1875 75.875 
z
" id="DejaVuSans-40"/>
     <path d="M 8.015625 75.875 
L 15.828125 75.875 
Q 23.140625 64.359375 26.78125 53.3125 
Q 30.421875 42.28125 30.421875 31.390625 
Q 30.421875 20.453125 26.78125 9.375 
Q 23.140625 -1.703125 15.828125 -13.1875 
L 8.015625 -13.1875 
Q 14.5 -2 17.703125 9.0625 
Q 20.90625 20.125 20.90625 31.390625 
Q 20.90625 42.671875 17.703125 53.65625 
Q 14.5 64.65625 8.015625 75.875 
z
" id="DejaVuSans-41"/>
    </defs>
    <use xlink:href="#DejaVuSans-109"/>
    <use x="97.412109" xlink:href="#DejaVuSans-101"/>
    <use x="158.935547" xlink:href="#DejaVuSans-109"/>
    <use x="256.347656" xlink:href="#DejaVuSans-111"/>
    <use x="317.529297" xlink:href="#DejaVuSans-114"/>
    <use x="358.642578" xlink:href="#DejaVuSans-121"/>
    <use x="417.822266" xlink:href="#DejaVuSans-32"/>
    <use x="449.609375" xlink:href="#DejaVuSans-40"/>
    <use x="488.623047" xlink:href="#DejaVuSans-71"/>
    <use x="566.113281" xlink:href="#DejaVuSans-66"/>
    <use x="634.716797" xlink:href="#DejaVuSans-41"/>
   </g>
  </g>
 </g>
 <defs>
  <clipPath id="pe75aaba35d">
   <rect height="242.608696" width="294.545455" x="50.4" y="108"/>
  </clipPath>
  <clipPath id="p238c3ed6f1">
   <rect height="242.608696" width="294.545455" x="403.854545" y="108"/>
  </clipPath>
  <clipPath id="p2d23d79cd6">
   <rect height="242.608696" width="294.545455" x="50.4" y="423.391304"/>
  </clipPath>
  <clipPath id="p43fdcd47c5">
   <rect height="242.608696" width="294.545455" x="403.854545" y="423.391304"/>
  </clipPath>
 </defs>
</svg>
