<?xml version="1.0" encoding="utf-8" standalone="no"?>
<!DOCTYPE svg PUBLIC "-//W3C//DTD SVG 1.1//EN"
  "http://www.w3.org/Graphics/SVG/1.1/DTD/svg11.dtd">
<!-- Created with matplotlib (https://matplotlib.org/) -->
<svg height="189.331488pt" version="1.1" viewBox="0 0 607.035937 189.331488" width="607.035937pt" xmlns="http://www.w3.org/2000/svg" xmlns:xlink="http://www.w3.org/1999/xlink">
 <defs>
  <style type="text/css">
*{stroke-linecap:butt;stroke-linejoin:round;}
  </style>
 </defs>
 <g id="figure_1">
  <g id="patch_1">
   <path d="M 0 189.331488 
L 607.035937 189.331488 
L 607.035937 0 
L 0 0 
z
" style="fill:#ffffff;"/>
  </g>
  <g id="axes_1">
   <g id="patch_2">
    <path d="M 38.335938 168.3568 
L 291.972301 168.3568 
L 291.972301 46.3888 
L 38.335938 46.3888 
z
" style="fill:#ffffff;"/>
   </g>
   <g id="patch_3">
    <path clip-path="url(#p5ef1c99c08)" d="M 49.864863 168.3568 
L 58.09981 168.3568 
L 58.09981 166.655641 
L 49.864863 166.655641 
z
" style="fill:#e377c2;"/>
   </g>
   <g id="patch_4">
    <path clip-path="url(#p5ef1c99c08)" d="M 91.039597 168.3568 
L 99.274544 168.3568 
L 99.274544 162.026389 
L 91.039597 162.026389 
z
" style="fill:#e377c2;"/>
   </g>
   <g id="patch_5">
    <path clip-path="url(#p5ef1c99c08)" d="M 132.214332 168.3568 
L 140.449279 168.3568 
L 140.449279 162.930638 
L 132.214332 162.930638 
z
" style="fill:#e377c2;"/>
   </g>
   <g id="patch_6">
    <path clip-path="url(#p5ef1c99c08)" d="M 173.389066 168.3568 
L 181.624013 168.3568 
L 181.624013 162.028089 
L 173.389066 162.028089 
z
" style="fill:#e377c2;"/>
   </g>
   <g id="patch_7">
    <path clip-path="url(#p5ef1c99c08)" d="M 214.563801 168.3568 
L 222.798747 168.3568 
L 222.798747 162.984548 
L 214.563801 162.984548 
z
" style="fill:#e377c2;"/>
   </g>
   <g id="patch_8">
    <path clip-path="url(#p5ef1c99c08)" d="M 255.738535 168.3568 
L 263.973482 168.3568 
L 263.973482 162.033191 
L 255.738535 162.033191 
z
" style="fill:#e377c2;"/>
   </g>
   <g id="patch_9">
    <path clip-path="url(#p5ef1c99c08)" d="M 58.09981 168.3568 
L 66.334757 168.3568 
L 66.334757 166.655641 
L 58.09981 166.655641 
z
" style="fill:#ff7f0e;"/>
   </g>
   <g id="patch_10">
    <path clip-path="url(#p5ef1c99c08)" d="M 99.274544 168.3568 
L 107.509491 168.3568 
L 107.509491 70.980045 
L 99.274544 70.980045 
z
" style="fill:#ff7f0e;"/>
   </g>
   <g id="patch_11">
    <path clip-path="url(#p5ef1c99c08)" d="M 140.449279 168.3568 
L 148.684226 168.3568 
L 148.684226 61.622523 
L 140.449279 61.622523 
z
" style="fill:#ff7f0e;"/>
   </g>
   <g id="patch_12">
    <path clip-path="url(#p5ef1c99c08)" d="M 181.624013 168.3568 
L 189.85896 168.3568 
L 189.85896 70.962451 
L 181.624013 70.962451 
z
" style="fill:#ff7f0e;"/>
   </g>
   <g id="patch_13">
    <path clip-path="url(#p5ef1c99c08)" d="M 222.798747 168.3568 
L 231.033694 168.3568 
L 231.033694 61.064652 
L 222.798747 61.064652 
z
" style="fill:#ff7f0e;"/>
   </g>
   <g id="patch_14">
    <path clip-path="url(#p5ef1c99c08)" d="M 263.973482 168.3568 
L 272.208429 168.3568 
L 272.208429 70.909652 
L 263.973482 70.909652 
z
" style="fill:#ff7f0e;"/>
   </g>
   <g id="patch_15">
    <path clip-path="url(#p5ef1c99c08)" d="M 66.334757 168.3568 
L 74.569704 168.3568 
L 74.569704 166.655641 
L 66.334757 166.655641 
z
" style="fill:#17becf;"/>
   </g>
   <g id="patch_16">
    <path clip-path="url(#p5ef1c99c08)" d="M 107.509491 168.3568 
L 115.744438 168.3568 
L 115.744438 162.026389 
L 107.509491 162.026389 
z
" style="fill:#17becf;"/>
   </g>
   <g id="patch_17">
    <path clip-path="url(#p5ef1c99c08)" d="M 148.684226 168.3568 
L 156.919172 168.3568 
L 156.919172 162.930638 
L 148.684226 162.930638 
z
" style="fill:#17becf;"/>
   </g>
   <g id="patch_18">
    <path clip-path="url(#p5ef1c99c08)" d="M 189.85896 168.3568 
L 198.093907 168.3568 
L 198.093907 162.028089 
L 189.85896 162.028089 
z
" style="fill:#17becf;"/>
   </g>
   <g id="patch_19">
    <path clip-path="url(#p5ef1c99c08)" d="M 231.033694 168.3568 
L 239.268641 168.3568 
L 239.268641 162.984548 
L 231.033694 162.984548 
z
" style="fill:#17becf;"/>
   </g>
   <g id="patch_20">
    <path clip-path="url(#p5ef1c99c08)" d="M 272.208429 168.3568 
L 280.443376 168.3568 
L 280.443376 162.033191 
L 272.208429 162.033191 
z
" style="fill:#17becf;"/>
   </g>
   <g id="matplotlib.axis_1">
    <g id="xtick_1">
     <g id="line2d_1">
      <defs>
       <path d="M 0 0 
L 0 3.5 
" id="m3d5cb8ab4d" style="stroke:#000000;stroke-width:0.8;"/>
      </defs>
      <g>
       <use style="stroke:#000000;stroke-width:0.8;" x="62.217283" xlink:href="#m3d5cb8ab4d" y="168.3568"/>
      </g>
     </g>
     <g id="text_1">
      <!-- Read 1 -->
      <defs>
       <path d="M 44.390625 34.1875 
Q 47.5625 33.109375 50.5625 29.59375 
Q 53.5625 26.078125 56.59375 19.921875 
L 66.609375 0 
L 56 0 
L 46.6875 18.703125 
Q 43.0625 26.03125 39.671875 28.421875 
Q 36.28125 30.8125 30.421875 30.8125 
L 19.671875 30.8125 
L 19.671875 0 
L 9.8125 0 
L 9.8125 72.90625 
L 32.078125 72.90625 
Q 44.578125 72.90625 50.734375 67.671875 
Q 56.890625 62.453125 56.890625 51.90625 
Q 56.890625 45.015625 53.6875 40.46875 
Q 50.484375 35.9375 44.390625 34.1875 
z
M 19.671875 64.796875 
L 19.671875 38.921875 
L 32.078125 38.921875 
Q 39.203125 38.921875 42.84375 42.21875 
Q 46.484375 45.515625 46.484375 51.90625 
Q 46.484375 58.296875 42.84375 61.546875 
Q 39.203125 64.796875 32.078125 64.796875 
z
" id="DejaVuSans-82"/>
       <path d="M 56.203125 29.59375 
L 56.203125 25.203125 
L 14.890625 25.203125 
Q 15.484375 15.921875 20.484375 11.0625 
Q 25.484375 6.203125 34.421875 6.203125 
Q 39.59375 6.203125 44.453125 7.46875 
Q 49.3125 8.734375 54.109375 11.28125 
L 54.109375 2.78125 
Q 49.265625 0.734375 44.1875 -0.34375 
Q 39.109375 -1.421875 33.890625 -1.421875 
Q 20.796875 -1.421875 13.15625 6.1875 
Q 5.515625 13.8125 5.515625 26.8125 
Q 5.515625 40.234375 12.765625 48.109375 
Q 20.015625 56 32.328125 56 
Q 43.359375 56 49.78125 48.890625 
Q 56.203125 41.796875 56.203125 29.59375 
z
M 47.21875 32.234375 
Q 47.125 39.59375 43.09375 43.984375 
Q 39.0625 48.390625 32.421875 48.390625 
Q 24.90625 48.390625 20.390625 44.140625 
Q 15.875 39.890625 15.1875 32.171875 
z
" id="DejaVuSans-101"/>
       <path d="M 34.28125 27.484375 
Q 23.390625 27.484375 19.1875 25 
Q 14.984375 22.515625 14.984375 16.5 
Q 14.984375 11.71875 18.140625 8.90625 
Q 21.296875 6.109375 26.703125 6.109375 
Q 34.1875 6.109375 38.703125 11.40625 
Q 43.21875 16.703125 43.21875 25.484375 
L 43.21875 27.484375 
z
M 52.203125 31.203125 
L 52.203125 0 
L 43.21875 0 
L 43.21875 8.296875 
Q 40.140625 3.328125 35.546875 0.953125 
Q 30.953125 -1.421875 24.3125 -1.421875 
Q 15.921875 -1.421875 10.953125 3.296875 
Q 6 8.015625 6 15.921875 
Q 6 25.140625 12.171875 29.828125 
Q 18.359375 34.515625 30.609375 34.515625 
L 43.21875 34.515625 
L 43.21875 35.40625 
Q 43.21875 41.609375 39.140625 45 
Q 35.0625 48.390625 27.6875 48.390625 
Q 23 48.390625 18.546875 47.265625 
Q 14.109375 46.140625 10.015625 43.890625 
L 10.015625 52.203125 
Q 14.9375 54.109375 19.578125 55.046875 
Q 24.21875 56 28.609375 56 
Q 40.484375 56 46.34375 49.84375 
Q 52.203125 43.703125 52.203125 31.203125 
z
" id="DejaVuSans-97"/>
       <path d="M 45.40625 46.390625 
L 45.40625 75.984375 
L 54.390625 75.984375 
L 54.390625 0 
L 45.40625 0 
L 45.40625 8.203125 
Q 42.578125 3.328125 38.25 0.953125 
Q 33.9375 -1.421875 27.875 -1.421875 
Q 17.96875 -1.421875 11.734375 6.484375 
Q 5.515625 14.40625 5.515625 27.296875 
Q 5.515625 40.1875 11.734375 48.09375 
Q 17.96875 56 27.875 56 
Q 33.9375 56 38.25 53.625 
Q 42.578125 51.265625 45.40625 46.390625 
z
M 14.796875 27.296875 
Q 14.796875 17.390625 18.875 11.75 
Q 22.953125 6.109375 30.078125 6.109375 
Q 37.203125 6.109375 41.296875 11.75 
Q 45.40625 17.390625 45.40625 27.296875 
Q 45.40625 37.203125 41.296875 42.84375 
Q 37.203125 48.484375 30.078125 48.484375 
Q 22.953125 48.484375 18.875 42.84375 
Q 14.796875 37.203125 14.796875 27.296875 
z
" id="DejaVuSans-100"/>
       <path id="DejaVuSans-32"/>
       <path d="M 12.40625 8.296875 
L 28.515625 8.296875 
L 28.515625 63.921875 
L 10.984375 60.40625 
L 10.984375 69.390625 
L 28.421875 72.90625 
L 38.28125 72.90625 
L 38.28125 8.296875 
L 54.390625 8.296875 
L 54.390625 0 
L 12.40625 0 
z
" id="DejaVuSans-49"/>
      </defs>
      <g transform="translate(49.927908 180.675706)scale(0.07 -0.07)">
       <use xlink:href="#DejaVuSans-82"/>
       <use x="69.419922" xlink:href="#DejaVuSans-101"/>
       <use x="130.943359" xlink:href="#DejaVuSans-97"/>
       <use x="192.222656" xlink:href="#DejaVuSans-100"/>
       <use x="255.699219" xlink:href="#DejaVuSans-32"/>
       <use x="287.486328" xlink:href="#DejaVuSans-49"/>
      </g>
     </g>
    </g>
    <g id="xtick_2">
     <g id="line2d_2">
      <g>
       <use style="stroke:#000000;stroke-width:0.8;" x="103.392018" xlink:href="#m3d5cb8ab4d" y="168.3568"/>
      </g>
     </g>
     <g id="text_2">
      <!-- Write 1 -->
      <defs>
       <path d="M 3.328125 72.90625 
L 13.28125 72.90625 
L 28.609375 11.28125 
L 43.890625 72.90625 
L 54.984375 72.90625 
L 70.3125 11.28125 
L 85.59375 72.90625 
L 95.609375 72.90625 
L 77.296875 0 
L 64.890625 0 
L 49.515625 63.28125 
L 33.984375 0 
L 21.578125 0 
z
" id="DejaVuSans-87"/>
       <path d="M 41.109375 46.296875 
Q 39.59375 47.171875 37.8125 47.578125 
Q 36.03125 48 33.890625 48 
Q 26.265625 48 22.1875 43.046875 
Q 18.109375 38.09375 18.109375 28.8125 
L 18.109375 0 
L 9.078125 0 
L 9.078125 54.6875 
L 18.109375 54.6875 
L 18.109375 46.1875 
Q 20.953125 51.171875 25.484375 53.578125 
Q 30.03125 56 36.53125 56 
Q 37.453125 56 38.578125 55.875 
Q 39.703125 55.765625 41.0625 55.515625 
z
" id="DejaVuSans-114"/>
       <path d="M 9.421875 54.6875 
L 18.40625 54.6875 
L 18.40625 0 
L 9.421875 0 
z
M 9.421875 75.984375 
L 18.40625 75.984375 
L 18.40625 64.59375 
L 9.421875 64.59375 
z
" id="DejaVuSans-105"/>
       <path d="M 18.3125 70.21875 
L 18.3125 54.6875 
L 36.8125 54.6875 
L 36.8125 47.703125 
L 18.3125 47.703125 
L 18.3125 18.015625 
Q 18.3125 11.328125 20.140625 9.421875 
Q 21.96875 7.515625 27.59375 7.515625 
L 36.8125 7.515625 
L 36.8125 0 
L 27.59375 0 
Q 17.1875 0 13.234375 3.875 
Q 9.28125 7.765625 9.28125 18.015625 
L 9.28125 47.703125 
L 2.6875 47.703125 
L 2.6875 54.6875 
L 9.28125 54.6875 
L 9.28125 70.21875 
z
" id="DejaVuSans-116"/>
      </defs>
      <g transform="translate(90.657487 180.675706)scale(0.07 -0.07)">
       <use xlink:href="#DejaVuSans-87"/>
       <use x="98.814453" xlink:href="#DejaVuSans-114"/>
       <use x="139.927734" xlink:href="#DejaVuSans-105"/>
       <use x="167.710938" xlink:href="#DejaVuSans-116"/>
       <use x="206.919922" xlink:href="#DejaVuSans-101"/>
       <use x="268.443359" xlink:href="#DejaVuSans-32"/>
       <use x="300.230469" xlink:href="#DejaVuSans-49"/>
      </g>
     </g>
    </g>
    <g id="xtick_3">
     <g id="line2d_3">
      <g>
       <use style="stroke:#000000;stroke-width:0.8;" x="144.566752" xlink:href="#m3d5cb8ab4d" y="168.3568"/>
      </g>
     </g>
     <g id="text_3">
      <!-- Read 2 -->
      <defs>
       <path d="M 19.1875 8.296875 
L 53.609375 8.296875 
L 53.609375 0 
L 7.328125 0 
L 7.328125 8.296875 
Q 12.9375 14.109375 22.625 23.890625 
Q 32.328125 33.6875 34.8125 36.53125 
Q 39.546875 41.84375 41.421875 45.53125 
Q 43.3125 49.21875 43.3125 52.78125 
Q 43.3125 58.59375 39.234375 62.25 
Q 35.15625 65.921875 28.609375 65.921875 
Q 23.96875 65.921875 18.8125 64.3125 
Q 13.671875 62.703125 7.8125 59.421875 
L 7.8125 69.390625 
Q 13.765625 71.78125 18.9375 73 
Q 24.125 74.21875 28.421875 74.21875 
Q 39.75 74.21875 46.484375 68.546875 
Q 53.21875 62.890625 53.21875 53.421875 
Q 53.21875 48.921875 51.53125 44.890625 
Q 49.859375 40.875 45.40625 35.40625 
Q 44.1875 33.984375 37.640625 27.21875 
Q 31.109375 20.453125 19.1875 8.296875 
z
" id="DejaVuSans-50"/>
      </defs>
      <g transform="translate(132.277377 180.675706)scale(0.07 -0.07)">
       <use xlink:href="#DejaVuSans-82"/>
       <use x="69.419922" xlink:href="#DejaVuSans-101"/>
       <use x="130.943359" xlink:href="#DejaVuSans-97"/>
       <use x="192.222656" xlink:href="#DejaVuSans-100"/>
       <use x="255.699219" xlink:href="#DejaVuSans-32"/>
       <use x="287.486328" xlink:href="#DejaVuSans-50"/>
      </g>
     </g>
    </g>
    <g id="xtick_4">
     <g id="line2d_4">
      <g>
       <use style="stroke:#000000;stroke-width:0.8;" x="185.741486" xlink:href="#m3d5cb8ab4d" y="168.3568"/>
      </g>
     </g>
     <g id="text_4">
      <!-- Write 2 -->
      <g transform="translate(173.006955 180.675706)scale(0.07 -0.07)">
       <use xlink:href="#DejaVuSans-87"/>
       <use x="98.814453" xlink:href="#DejaVuSans-114"/>
       <use x="139.927734" xlink:href="#DejaVuSans-105"/>
       <use x="167.710938" xlink:href="#DejaVuSans-116"/>
       <use x="206.919922" xlink:href="#DejaVuSans-101"/>
       <use x="268.443359" xlink:href="#DejaVuSans-32"/>
       <use x="300.230469" xlink:href="#DejaVuSans-50"/>
      </g>
     </g>
    </g>
    <g id="xtick_5">
     <g id="line2d_5">
      <g>
       <use style="stroke:#000000;stroke-width:0.8;" x="226.916221" xlink:href="#m3d5cb8ab4d" y="168.3568"/>
      </g>
     </g>
     <g id="text_5">
      <!-- Read 3 -->
      <defs>
       <path d="M 40.578125 39.3125 
Q 47.65625 37.796875 51.625 33 
Q 55.609375 28.21875 55.609375 21.1875 
Q 55.609375 10.40625 48.1875 4.484375 
Q 40.765625 -1.421875 27.09375 -1.421875 
Q 22.515625 -1.421875 17.65625 -0.515625 
Q 12.796875 0.390625 7.625 2.203125 
L 7.625 11.71875 
Q 11.71875 9.328125 16.59375 8.109375 
Q 21.484375 6.890625 26.8125 6.890625 
Q 36.078125 6.890625 40.9375 10.546875 
Q 45.796875 14.203125 45.796875 21.1875 
Q 45.796875 27.640625 41.28125 31.265625 
Q 36.765625 34.90625 28.71875 34.90625 
L 20.21875 34.90625 
L 20.21875 43.015625 
L 29.109375 43.015625 
Q 36.375 43.015625 40.234375 45.921875 
Q 44.09375 48.828125 44.09375 54.296875 
Q 44.09375 59.90625 40.109375 62.90625 
Q 36.140625 65.921875 28.71875 65.921875 
Q 24.65625 65.921875 20.015625 65.03125 
Q 15.375 64.15625 9.8125 62.3125 
L 9.8125 71.09375 
Q 15.4375 72.65625 20.34375 73.4375 
Q 25.25 74.21875 29.59375 74.21875 
Q 40.828125 74.21875 47.359375 69.109375 
Q 53.90625 64.015625 53.90625 55.328125 
Q 53.90625 49.265625 50.4375 45.09375 
Q 46.96875 40.921875 40.578125 39.3125 
z
" id="DejaVuSans-51"/>
      </defs>
      <g transform="translate(214.626846 180.675706)scale(0.07 -0.07)">
       <use xlink:href="#DejaVuSans-82"/>
       <use x="69.419922" xlink:href="#DejaVuSans-101"/>
       <use x="130.943359" xlink:href="#DejaVuSans-97"/>
       <use x="192.222656" xlink:href="#DejaVuSans-100"/>
       <use x="255.699219" xlink:href="#DejaVuSans-32"/>
       <use x="287.486328" xlink:href="#DejaVuSans-51"/>
      </g>
     </g>
    </g>
    <g id="xtick_6">
     <g id="line2d_6">
      <g>
       <use style="stroke:#000000;stroke-width:0.8;" x="268.090955" xlink:href="#m3d5cb8ab4d" y="168.3568"/>
      </g>
     </g>
     <g id="text_6">
      <!-- Write 3 -->
      <g transform="translate(255.356424 180.675706)scale(0.07 -0.07)">
       <use xlink:href="#DejaVuSans-87"/>
       <use x="98.814453" xlink:href="#DejaVuSans-114"/>
       <use x="139.927734" xlink:href="#DejaVuSans-105"/>
       <use x="167.710938" xlink:href="#DejaVuSans-116"/>
       <use x="206.919922" xlink:href="#DejaVuSans-101"/>
       <use x="268.443359" xlink:href="#DejaVuSans-32"/>
       <use x="300.230469" xlink:href="#DejaVuSans-51"/>
      </g>
     </g>
    </g>
   </g>
   <g id="matplotlib.axis_2">
    <g id="ytick_1">
     <g id="line2d_7">
      <defs>
       <path d="M 0 0 
L -3.5 0 
" id="m735f7f4cf9" style="stroke:#000000;stroke-width:0.8;"/>
      </defs>
      <g>
       <use style="stroke:#000000;stroke-width:0.8;" x="38.335938" xlink:href="#m735f7f4cf9" y="168.3568"/>
      </g>
     </g>
     <g id="text_7">
      <!-- 0 -->
      <defs>
       <path d="M 31.78125 66.40625 
Q 24.171875 66.40625 20.328125 58.90625 
Q 16.5 51.421875 16.5 36.375 
Q 16.5 21.390625 20.328125 13.890625 
Q 24.171875 6.390625 31.78125 6.390625 
Q 39.453125 6.390625 43.28125 13.890625 
Q 47.125 21.390625 47.125 36.375 
Q 47.125 51.421875 43.28125 58.90625 
Q 39.453125 66.40625 31.78125 66.40625 
z
M 31.78125 74.21875 
Q 44.046875 74.21875 50.515625 64.515625 
Q 56.984375 54.828125 56.984375 36.375 
Q 56.984375 17.96875 50.515625 8.265625 
Q 44.046875 -1.421875 31.78125 -1.421875 
Q 19.53125 -1.421875 13.0625 8.265625 
Q 6.59375 17.96875 6.59375 36.375 
Q 6.59375 54.828125 13.0625 64.515625 
Q 19.53125 74.21875 31.78125 74.21875 
z
" id="DejaVuSans-48"/>
      </defs>
      <g transform="translate(26.882188 171.016253)scale(0.07 -0.07)">
       <use xlink:href="#DejaVuSans-48"/>
      </g>
     </g>
    </g>
    <g id="ytick_2">
     <g id="line2d_8">
      <g>
       <use style="stroke:#000000;stroke-width:0.8;" x="38.335938" xlink:href="#m735f7f4cf9" y="150.9328"/>
      </g>
     </g>
     <g id="text_8">
      <!-- 100 -->
      <g transform="translate(17.974687 153.592253)scale(0.07 -0.07)">
       <use xlink:href="#DejaVuSans-49"/>
       <use x="63.623047" xlink:href="#DejaVuSans-48"/>
       <use x="127.246094" xlink:href="#DejaVuSans-48"/>
      </g>
     </g>
    </g>
    <g id="ytick_3">
     <g id="line2d_9">
      <g>
       <use style="stroke:#000000;stroke-width:0.8;" x="38.335938" xlink:href="#m735f7f4cf9" y="133.5088"/>
      </g>
     </g>
     <g id="text_9">
      <!-- 200 -->
      <g transform="translate(17.974687 136.168253)scale(0.07 -0.07)">
       <use xlink:href="#DejaVuSans-50"/>
       <use x="63.623047" xlink:href="#DejaVuSans-48"/>
       <use x="127.246094" xlink:href="#DejaVuSans-48"/>
      </g>
     </g>
    </g>
    <g id="ytick_4">
     <g id="line2d_10">
      <g>
       <use style="stroke:#000000;stroke-width:0.8;" x="38.335938" xlink:href="#m735f7f4cf9" y="116.0848"/>
      </g>
     </g>
     <g id="text_10">
      <!-- 300 -->
      <g transform="translate(17.974687 118.744253)scale(0.07 -0.07)">
       <use xlink:href="#DejaVuSans-51"/>
       <use x="63.623047" xlink:href="#DejaVuSans-48"/>
       <use x="127.246094" xlink:href="#DejaVuSans-48"/>
      </g>
     </g>
    </g>
    <g id="ytick_5">
     <g id="line2d_11">
      <g>
       <use style="stroke:#000000;stroke-width:0.8;" x="38.335938" xlink:href="#m735f7f4cf9" y="98.6608"/>
      </g>
     </g>
     <g id="text_11">
      <!-- 400 -->
      <defs>
       <path d="M 37.796875 64.3125 
L 12.890625 25.390625 
L 37.796875 25.390625 
z
M 35.203125 72.90625 
L 47.609375 72.90625 
L 47.609375 25.390625 
L 58.015625 25.390625 
L 58.015625 17.1875 
L 47.609375 17.1875 
L 47.609375 0 
L 37.796875 0 
L 37.796875 17.1875 
L 4.890625 17.1875 
L 4.890625 26.703125 
z
" id="DejaVuSans-52"/>
      </defs>
      <g transform="translate(17.974687 101.320253)scale(0.07 -0.07)">
       <use xlink:href="#DejaVuSans-52"/>
       <use x="63.623047" xlink:href="#DejaVuSans-48"/>
       <use x="127.246094" xlink:href="#DejaVuSans-48"/>
      </g>
     </g>
    </g>
    <g id="ytick_6">
     <g id="line2d_12">
      <g>
       <use style="stroke:#000000;stroke-width:0.8;" x="38.335938" xlink:href="#m735f7f4cf9" y="81.2368"/>
      </g>
     </g>
     <g id="text_12">
      <!-- 500 -->
      <defs>
       <path d="M 10.796875 72.90625 
L 49.515625 72.90625 
L 49.515625 64.59375 
L 19.828125 64.59375 
L 19.828125 46.734375 
Q 21.96875 47.46875 24.109375 47.828125 
Q 26.265625 48.1875 28.421875 48.1875 
Q 40.625 48.1875 47.75 41.5 
Q 54.890625 34.8125 54.890625 23.390625 
Q 54.890625 11.625 47.5625 5.09375 
Q 40.234375 -1.421875 26.90625 -1.421875 
Q 22.3125 -1.421875 17.546875 -0.640625 
Q 12.796875 0.140625 7.71875 1.703125 
L 7.71875 11.625 
Q 12.109375 9.234375 16.796875 8.0625 
Q 21.484375 6.890625 26.703125 6.890625 
Q 35.15625 6.890625 40.078125 11.328125 
Q 45.015625 15.765625 45.015625 23.390625 
Q 45.015625 31 40.078125 35.4375 
Q 35.15625 39.890625 26.703125 39.890625 
Q 22.75 39.890625 18.8125 39.015625 
Q 14.890625 38.140625 10.796875 36.28125 
z
" id="DejaVuSans-53"/>
      </defs>
      <g transform="translate(17.974687 83.896253)scale(0.07 -0.07)">
       <use xlink:href="#DejaVuSans-53"/>
       <use x="63.623047" xlink:href="#DejaVuSans-48"/>
       <use x="127.246094" xlink:href="#DejaVuSans-48"/>
      </g>
     </g>
    </g>
    <g id="ytick_7">
     <g id="line2d_13">
      <g>
       <use style="stroke:#000000;stroke-width:0.8;" x="38.335938" xlink:href="#m735f7f4cf9" y="63.8128"/>
      </g>
     </g>
     <g id="text_13">
      <!-- 600 -->
      <defs>
       <path d="M 33.015625 40.375 
Q 26.375 40.375 22.484375 35.828125 
Q 18.609375 31.296875 18.609375 23.390625 
Q 18.609375 15.53125 22.484375 10.953125 
Q 26.375 6.390625 33.015625 6.390625 
Q 39.65625 6.390625 43.53125 10.953125 
Q 47.40625 15.53125 47.40625 23.390625 
Q 47.40625 31.296875 43.53125 35.828125 
Q 39.65625 40.375 33.015625 40.375 
z
M 52.59375 71.296875 
L 52.59375 62.3125 
Q 48.875 64.0625 45.09375 64.984375 
Q 41.3125 65.921875 37.59375 65.921875 
Q 27.828125 65.921875 22.671875 59.328125 
Q 17.53125 52.734375 16.796875 39.40625 
Q 19.671875 43.65625 24.015625 45.921875 
Q 28.375 48.1875 33.59375 48.1875 
Q 44.578125 48.1875 50.953125 41.515625 
Q 57.328125 34.859375 57.328125 23.390625 
Q 57.328125 12.15625 50.6875 5.359375 
Q 44.046875 -1.421875 33.015625 -1.421875 
Q 20.359375 -1.421875 13.671875 8.265625 
Q 6.984375 17.96875 6.984375 36.375 
Q 6.984375 53.65625 15.1875 63.9375 
Q 23.390625 74.21875 37.203125 74.21875 
Q 40.921875 74.21875 44.703125 73.484375 
Q 48.484375 72.75 52.59375 71.296875 
z
" id="DejaVuSans-54"/>
      </defs>
      <g transform="translate(17.974687 66.472253)scale(0.07 -0.07)">
       <use xlink:href="#DejaVuSans-54"/>
       <use x="63.623047" xlink:href="#DejaVuSans-48"/>
       <use x="127.246094" xlink:href="#DejaVuSans-48"/>
      </g>
     </g>
    </g>
    <g id="ytick_8">
     <g id="line2d_14">
      <g>
       <use style="stroke:#000000;stroke-width:0.8;" x="38.335938" xlink:href="#m735f7f4cf9" y="46.3888"/>
      </g>
     </g>
     <g id="text_14">
      <!-- 700 -->
      <defs>
       <path d="M 8.203125 72.90625 
L 55.078125 72.90625 
L 55.078125 68.703125 
L 28.609375 0 
L 18.3125 0 
L 43.21875 64.59375 
L 8.203125 64.59375 
z
" id="DejaVuSans-55"/>
      </defs>
      <g transform="translate(17.974687 49.048253)scale(0.07 -0.07)">
       <use xlink:href="#DejaVuSans-55"/>
       <use x="63.623047" xlink:href="#DejaVuSans-48"/>
       <use x="127.246094" xlink:href="#DejaVuSans-48"/>
      </g>
     </g>
    </g>
    <g id="text_15">
     <!-- error (%) -->
     <defs>
      <path d="M 30.609375 48.390625 
Q 23.390625 48.390625 19.1875 42.75 
Q 14.984375 37.109375 14.984375 27.296875 
Q 14.984375 17.484375 19.15625 11.84375 
Q 23.34375 6.203125 30.609375 6.203125 
Q 37.796875 6.203125 41.984375 11.859375 
Q 46.1875 17.53125 46.1875 27.296875 
Q 46.1875 37.015625 41.984375 42.703125 
Q 37.796875 48.390625 30.609375 48.390625 
z
M 30.609375 56 
Q 42.328125 56 49.015625 48.375 
Q 55.71875 40.765625 55.71875 27.296875 
Q 55.71875 13.875 49.015625 6.21875 
Q 42.328125 -1.421875 30.609375 -1.421875 
Q 18.84375 -1.421875 12.171875 6.21875 
Q 5.515625 13.875 5.515625 27.296875 
Q 5.515625 40.765625 12.171875 48.375 
Q 18.84375 56 30.609375 56 
z
" id="DejaVuSans-111"/>
      <path d="M 31 75.875 
Q 24.46875 64.65625 21.28125 53.65625 
Q 18.109375 42.671875 18.109375 31.390625 
Q 18.109375 20.125 21.3125 9.0625 
Q 24.515625 -2 31 -13.1875 
L 23.1875 -13.1875 
Q 15.875 -1.703125 12.234375 9.375 
Q 8.59375 20.453125 8.59375 31.390625 
Q 8.59375 42.28125 12.203125 53.3125 
Q 15.828125 64.359375 23.1875 75.875 
z
" id="DejaVuSans-40"/>
      <path d="M 72.703125 32.078125 
Q 68.453125 32.078125 66.03125 28.46875 
Q 63.625 24.859375 63.625 18.40625 
Q 63.625 12.0625 66.03125 8.421875 
Q 68.453125 4.78125 72.703125 4.78125 
Q 76.859375 4.78125 79.265625 8.421875 
Q 81.6875 12.0625 81.6875 18.40625 
Q 81.6875 24.8125 79.265625 28.4375 
Q 76.859375 32.078125 72.703125 32.078125 
z
M 72.703125 38.28125 
Q 80.421875 38.28125 84.953125 32.90625 
Q 89.5 27.546875 89.5 18.40625 
Q 89.5 9.28125 84.9375 3.921875 
Q 80.375 -1.421875 72.703125 -1.421875 
Q 64.890625 -1.421875 60.34375 3.921875 
Q 55.8125 9.28125 55.8125 18.40625 
Q 55.8125 27.59375 60.375 32.9375 
Q 64.9375 38.28125 72.703125 38.28125 
z
M 22.3125 68.015625 
Q 18.109375 68.015625 15.6875 64.375 
Q 13.28125 60.75 13.28125 54.390625 
Q 13.28125 47.953125 15.671875 44.328125 
Q 18.0625 40.71875 22.3125 40.71875 
Q 26.5625 40.71875 28.96875 44.328125 
Q 31.390625 47.953125 31.390625 54.390625 
Q 31.390625 60.6875 28.953125 64.34375 
Q 26.515625 68.015625 22.3125 68.015625 
z
M 66.40625 74.21875 
L 74.21875 74.21875 
L 28.609375 -1.421875 
L 20.796875 -1.421875 
z
M 22.3125 74.21875 
Q 30.03125 74.21875 34.609375 68.875 
Q 39.203125 63.53125 39.203125 54.390625 
Q 39.203125 45.171875 34.640625 39.84375 
Q 30.078125 34.515625 22.3125 34.515625 
Q 14.546875 34.515625 10.03125 39.859375 
Q 5.515625 45.21875 5.515625 54.390625 
Q 5.515625 63.484375 10.046875 68.84375 
Q 14.59375 74.21875 22.3125 74.21875 
z
" id="DejaVuSans-37"/>
      <path d="M 8.015625 75.875 
L 15.828125 75.875 
Q 23.140625 64.359375 26.78125 53.3125 
Q 30.421875 42.28125 30.421875 31.390625 
Q 30.421875 20.453125 26.78125 9.375 
Q 23.140625 -1.703125 15.828125 -13.1875 
L 8.015625 -13.1875 
Q 14.5 -2 17.703125 9.0625 
Q 20.90625 20.125 20.90625 31.390625 
Q 20.90625 42.671875 17.703125 53.65625 
Q 14.5 64.65625 8.015625 75.875 
z
" id="DejaVuSans-41"/>
     </defs>
     <g transform="translate(12.518906 123.151784)rotate(-90)scale(0.07 -0.07)">
      <use xlink:href="#DejaVuSans-101"/>
      <use x="61.523438" xlink:href="#DejaVuSans-114"/>
      <use x="102.621094" xlink:href="#DejaVuSans-114"/>
      <use x="143.703125" xlink:href="#DejaVuSans-111"/>
      <use x="204.884766" xlink:href="#DejaVuSans-114"/>
      <use x="245.998047" xlink:href="#DejaVuSans-32"/>
      <use x="277.785156" xlink:href="#DejaVuSans-40"/>
      <use x="316.798828" xlink:href="#DejaVuSans-37"/>
      <use x="411.818359" xlink:href="#DejaVuSans-41"/>
     </g>
    </g>
   </g>
   <g id="patch_21">
    <path d="M 38.335938 168.3568 
L 38.335938 46.3888 
" style="fill:none;stroke:#000000;stroke-linecap:square;stroke-linejoin:miter;stroke-width:0.8;"/>
   </g>
   <g id="patch_22">
    <path d="M 291.972301 168.3568 
L 291.972301 46.3888 
" style="fill:none;stroke:#000000;stroke-linecap:square;stroke-linejoin:miter;stroke-width:0.8;"/>
   </g>
   <g id="patch_23">
    <path d="M 38.335938 168.3568 
L 291.972301 168.3568 
" style="fill:none;stroke:#000000;stroke-linecap:square;stroke-linejoin:miter;stroke-width:0.8;"/>
   </g>
   <g id="patch_24">
    <path d="M 38.335938 46.3888 
L 291.972301 46.3888 
" style="fill:none;stroke:#000000;stroke-linecap:square;stroke-linejoin:miter;stroke-width:0.8;"/>
   </g>
   <g id="text_16">
    <!-- 20 GB -->
    <defs>
     <path d="M 59.515625 10.40625 
L 59.515625 29.984375 
L 43.40625 29.984375 
L 43.40625 38.09375 
L 69.28125 38.09375 
L 69.28125 6.78125 
Q 63.578125 2.734375 56.6875 0.65625 
Q 49.8125 -1.421875 42 -1.421875 
Q 24.90625 -1.421875 15.25 8.5625 
Q 5.609375 18.5625 5.609375 36.375 
Q 5.609375 54.25 15.25 64.234375 
Q 24.90625 74.21875 42 74.21875 
Q 49.125 74.21875 55.546875 72.453125 
Q 61.96875 70.703125 67.390625 67.28125 
L 67.390625 56.78125 
Q 61.921875 61.421875 55.765625 63.765625 
Q 49.609375 66.109375 42.828125 66.109375 
Q 29.4375 66.109375 22.71875 58.640625 
Q 16.015625 51.171875 16.015625 36.375 
Q 16.015625 21.625 22.71875 14.15625 
Q 29.4375 6.6875 42.828125 6.6875 
Q 48.046875 6.6875 52.140625 7.59375 
Q 56.25 8.5 59.515625 10.40625 
z
" id="DejaVuSans-71"/>
     <path d="M 19.671875 34.8125 
L 19.671875 8.109375 
L 35.5 8.109375 
Q 43.453125 8.109375 47.28125 11.40625 
Q 51.125 14.703125 51.125 21.484375 
Q 51.125 28.328125 47.28125 31.5625 
Q 43.453125 34.8125 35.5 34.8125 
z
M 19.671875 64.796875 
L 19.671875 42.828125 
L 34.28125 42.828125 
Q 41.5 42.828125 45.03125 45.53125 
Q 48.578125 48.25 48.578125 53.8125 
Q 48.578125 59.328125 45.03125 62.0625 
Q 41.5 64.796875 34.28125 64.796875 
z
M 9.8125 72.90625 
L 35.015625 72.90625 
Q 46.296875 72.90625 52.390625 68.21875 
Q 58.5 63.53125 58.5 54.890625 
Q 58.5 48.1875 55.375 44.234375 
Q 52.25 40.28125 46.1875 39.3125 
Q 53.46875 37.75 57.5 32.78125 
Q 61.53125 27.828125 61.53125 20.40625 
Q 61.53125 10.640625 54.890625 5.3125 
Q 48.25 0 35.984375 0 
L 9.8125 0 
z
" id="DejaVuSans-66"/>
    </defs>
    <g transform="translate(152.338869 40.3888)scale(0.084 -0.084)">
     <use xlink:href="#DejaVuSans-50"/>
     <use x="63.623047" xlink:href="#DejaVuSans-48"/>
     <use x="127.246094" xlink:href="#DejaVuSans-32"/>
     <use x="159.033203" xlink:href="#DejaVuSans-71"/>
     <use x="236.523438" xlink:href="#DejaVuSans-66"/>
    </g>
   </g>
  </g>
  <g id="axes_2">
   <g id="patch_25">
    <path d="M 342.699574 168.3568 
L 596.335937 168.3568 
L 596.335937 46.3888 
L 342.699574 46.3888 
z
" style="fill:#ffffff;"/>
   </g>
   <g id="patch_26">
    <path clip-path="url(#p0452a7e750)" d="M 354.228499 168.3568 
L 362.463446 168.3568 
L 362.463446 166.617887 
L 354.228499 166.617887 
z
" style="fill:#e377c2;"/>
   </g>
   <g id="patch_27">
    <path clip-path="url(#p0452a7e750)" d="M 395.403234 168.3568 
L 403.638181 168.3568 
L 403.638181 164.447193 
L 395.403234 164.447193 
z
" style="fill:#e377c2;"/>
   </g>
   <g id="patch_28">
    <path clip-path="url(#p0452a7e750)" d="M 436.577968 168.3568 
L 444.812915 168.3568 
L 444.812915 158.749201 
L 436.577968 158.749201 
z
" style="fill:#e377c2;"/>
   </g>
   <g id="patch_29">
    <path clip-path="url(#p0452a7e750)" d="M 477.752703 168.3568 
L 485.987649 168.3568 
L 485.987649 164.204507 
L 477.752703 164.204507 
z
" style="fill:#e377c2;"/>
   </g>
   <g id="patch_30">
    <path clip-path="url(#p0452a7e750)" d="M 518.927437 168.3568 
L 527.162384 168.3568 
L 527.162384 116.341062 
L 518.927437 116.341062 
z
" style="fill:#e377c2;"/>
   </g>
   <g id="patch_31">
    <path clip-path="url(#p0452a7e750)" d="M 560.102171 168.3568 
L 568.337118 168.3568 
L 568.337118 164.289526 
L 560.102171 164.289526 
z
" style="fill:#e377c2;"/>
   </g>
   <g id="patch_32">
    <path clip-path="url(#p0452a7e750)" d="M 362.463446 168.3568 
L 370.698393 168.3568 
L 370.698393 166.617887 
L 362.463446 166.617887 
z
" style="fill:#ff7f0e;"/>
   </g>
   <g id="patch_33">
    <path clip-path="url(#p0452a7e750)" d="M 403.638181 168.3568 
L 411.873128 168.3568 
L 411.873128 147.993934 
L 403.638181 147.993934 
z
" style="fill:#ff7f0e;"/>
   </g>
   <g id="patch_34">
    <path clip-path="url(#p0452a7e750)" d="M 444.812915 168.3568 
L 453.047862 168.3568 
L 453.047862 104.89366 
L 444.812915 104.89366 
z
" style="fill:#ff7f0e;"/>
   </g>
   <g id="patch_35">
    <path clip-path="url(#p0452a7e750)" d="M 485.987649 168.3568 
L 494.222596 168.3568 
L 494.222596 147.576306 
L 485.987649 147.576306 
z
" style="fill:#ff7f0e;"/>
   </g>
   <g id="patch_36">
    <path clip-path="url(#p0452a7e750)" d="M 527.162384 168.3568 
L 535.397331 168.3568 
L 535.397331 105.232718 
L 527.162384 105.232718 
z
" style="fill:#ff7f0e;"/>
   </g>
   <g id="patch_37">
    <path clip-path="url(#p0452a7e750)" d="M 568.337118 168.3568 
L 576.572065 168.3568 
L 576.572065 147.726846 
L 568.337118 147.726846 
z
" style="fill:#ff7f0e;"/>
   </g>
   <g id="patch_38">
    <path clip-path="url(#p0452a7e750)" d="M 370.698393 168.3568 
L 378.93334 168.3568 
L 378.93334 166.617887 
L 370.698393 166.617887 
z
" style="fill:#17becf;"/>
   </g>
   <g id="patch_39">
    <path clip-path="url(#p0452a7e750)" d="M 411.873128 168.3568 
L 420.108074 168.3568 
L 420.108074 163.990476 
L 411.873128 163.990476 
z
" style="fill:#17becf;"/>
   </g>
   <g id="patch_40">
    <path clip-path="url(#p0452a7e750)" d="M 453.047862 168.3568 
L 461.282809 168.3568 
L 461.282809 158.749201 
L 453.047862 158.749201 
z
" style="fill:#17becf;"/>
   </g>
   <g id="patch_41">
    <path clip-path="url(#p0452a7e750)" d="M 494.222596 168.3568 
L 502.457543 168.3568 
L 502.457543 163.719062 
L 494.222596 163.719062 
z
" style="fill:#17becf;"/>
   </g>
   <g id="patch_42">
    <path clip-path="url(#p0452a7e750)" d="M 535.397331 168.3568 
L 543.632278 168.3568 
L 543.632278 128.937155 
L 535.397331 128.937155 
z
" style="fill:#17becf;"/>
   </g>
   <g id="patch_43">
    <path clip-path="url(#p0452a7e750)" d="M 576.572065 168.3568 
L 584.807012 168.3568 
L 584.807012 163.822719 
L 576.572065 163.822719 
z
" style="fill:#17becf;"/>
   </g>
   <g id="matplotlib.axis_3">
    <g id="xtick_7">
     <g id="line2d_15">
      <g>
       <use style="stroke:#000000;stroke-width:0.8;" x="366.58092" xlink:href="#m3d5cb8ab4d" y="168.3568"/>
      </g>
     </g>
     <g id="text_17">
      <!-- Read 1 -->
      <g transform="translate(354.291545 180.675706)scale(0.07 -0.07)">
       <use xlink:href="#DejaVuSans-82"/>
       <use x="69.419922" xlink:href="#DejaVuSans-101"/>
       <use x="130.943359" xlink:href="#DejaVuSans-97"/>
       <use x="192.222656" xlink:href="#DejaVuSans-100"/>
       <use x="255.699219" xlink:href="#DejaVuSans-32"/>
       <use x="287.486328" xlink:href="#DejaVuSans-49"/>
      </g>
     </g>
    </g>
    <g id="xtick_8">
     <g id="line2d_16">
      <g>
       <use style="stroke:#000000;stroke-width:0.8;" x="407.755654" xlink:href="#m3d5cb8ab4d" y="168.3568"/>
      </g>
     </g>
     <g id="text_18">
      <!-- Write 1 -->
      <g transform="translate(395.021123 180.675706)scale(0.07 -0.07)">
       <use xlink:href="#DejaVuSans-87"/>
       <use x="98.814453" xlink:href="#DejaVuSans-114"/>
       <use x="139.927734" xlink:href="#DejaVuSans-105"/>
       <use x="167.710938" xlink:href="#DejaVuSans-116"/>
       <use x="206.919922" xlink:href="#DejaVuSans-101"/>
       <use x="268.443359" xlink:href="#DejaVuSans-32"/>
       <use x="300.230469" xlink:href="#DejaVuSans-49"/>
      </g>
     </g>
    </g>
    <g id="xtick_9">
     <g id="line2d_17">
      <g>
       <use style="stroke:#000000;stroke-width:0.8;" x="448.930389" xlink:href="#m3d5cb8ab4d" y="168.3568"/>
      </g>
     </g>
     <g id="text_19">
      <!-- Read 2 -->
      <g transform="translate(436.641014 180.675706)scale(0.07 -0.07)">
       <use xlink:href="#DejaVuSans-82"/>
       <use x="69.419922" xlink:href="#DejaVuSans-101"/>
       <use x="130.943359" xlink:href="#DejaVuSans-97"/>
       <use x="192.222656" xlink:href="#DejaVuSans-100"/>
       <use x="255.699219" xlink:href="#DejaVuSans-32"/>
       <use x="287.486328" xlink:href="#DejaVuSans-50"/>
      </g>
     </g>
    </g>
    <g id="xtick_10">
     <g id="line2d_18">
      <g>
       <use style="stroke:#000000;stroke-width:0.8;" x="490.105123" xlink:href="#m3d5cb8ab4d" y="168.3568"/>
      </g>
     </g>
     <g id="text_20">
      <!-- Write 2 -->
      <g transform="translate(477.370592 180.675706)scale(0.07 -0.07)">
       <use xlink:href="#DejaVuSans-87"/>
       <use x="98.814453" xlink:href="#DejaVuSans-114"/>
       <use x="139.927734" xlink:href="#DejaVuSans-105"/>
       <use x="167.710938" xlink:href="#DejaVuSans-116"/>
       <use x="206.919922" xlink:href="#DejaVuSans-101"/>
       <use x="268.443359" xlink:href="#DejaVuSans-32"/>
       <use x="300.230469" xlink:href="#DejaVuSans-50"/>
      </g>
     </g>
    </g>
    <g id="xtick_11">
     <g id="line2d_19">
      <g>
       <use style="stroke:#000000;stroke-width:0.8;" x="531.279857" xlink:href="#m3d5cb8ab4d" y="168.3568"/>
      </g>
     </g>
     <g id="text_21">
      <!-- Read 3 -->
      <g transform="translate(518.990482 180.675706)scale(0.07 -0.07)">
       <use xlink:href="#DejaVuSans-82"/>
       <use x="69.419922" xlink:href="#DejaVuSans-101"/>
       <use x="130.943359" xlink:href="#DejaVuSans-97"/>
       <use x="192.222656" xlink:href="#DejaVuSans-100"/>
       <use x="255.699219" xlink:href="#DejaVuSans-32"/>
       <use x="287.486328" xlink:href="#DejaVuSans-51"/>
      </g>
     </g>
    </g>
    <g id="xtick_12">
     <g id="line2d_20">
      <g>
       <use style="stroke:#000000;stroke-width:0.8;" x="572.454592" xlink:href="#m3d5cb8ab4d" y="168.3568"/>
      </g>
     </g>
     <g id="text_22">
      <!-- Write 3 -->
      <g transform="translate(559.72006 180.675706)scale(0.07 -0.07)">
       <use xlink:href="#DejaVuSans-87"/>
       <use x="98.814453" xlink:href="#DejaVuSans-114"/>
       <use x="139.927734" xlink:href="#DejaVuSans-105"/>
       <use x="167.710938" xlink:href="#DejaVuSans-116"/>
       <use x="206.919922" xlink:href="#DejaVuSans-101"/>
       <use x="268.443359" xlink:href="#DejaVuSans-32"/>
       <use x="300.230469" xlink:href="#DejaVuSans-51"/>
      </g>
     </g>
    </g>
   </g>
   <g id="matplotlib.axis_4">
    <g id="ytick_9">
     <g id="line2d_21">
      <g>
       <use style="stroke:#000000;stroke-width:0.8;" x="342.699574" xlink:href="#m735f7f4cf9" y="168.3568"/>
      </g>
     </g>
     <g id="text_23">
      <!-- 0 -->
      <g transform="translate(331.245824 171.016253)scale(0.07 -0.07)">
       <use xlink:href="#DejaVuSans-48"/>
      </g>
     </g>
    </g>
    <g id="ytick_10">
     <g id="line2d_22">
      <g>
       <use style="stroke:#000000;stroke-width:0.8;" x="342.699574" xlink:href="#m735f7f4cf9" y="150.9328"/>
      </g>
     </g>
     <g id="text_24">
      <!-- 100 -->
      <g transform="translate(322.338324 153.592253)scale(0.07 -0.07)">
       <use xlink:href="#DejaVuSans-49"/>
       <use x="63.623047" xlink:href="#DejaVuSans-48"/>
       <use x="127.246094" xlink:href="#DejaVuSans-48"/>
      </g>
     </g>
    </g>
    <g id="ytick_11">
     <g id="line2d_23">
      <g>
       <use style="stroke:#000000;stroke-width:0.8;" x="342.699574" xlink:href="#m735f7f4cf9" y="133.5088"/>
      </g>
     </g>
     <g id="text_25">
      <!-- 200 -->
      <g transform="translate(322.338324 136.168253)scale(0.07 -0.07)">
       <use xlink:href="#DejaVuSans-50"/>
       <use x="63.623047" xlink:href="#DejaVuSans-48"/>
       <use x="127.246094" xlink:href="#DejaVuSans-48"/>
      </g>
     </g>
    </g>
    <g id="ytick_12">
     <g id="line2d_24">
      <g>
       <use style="stroke:#000000;stroke-width:0.8;" x="342.699574" xlink:href="#m735f7f4cf9" y="116.0848"/>
      </g>
     </g>
     <g id="text_26">
      <!-- 300 -->
      <g transform="translate(322.338324 118.744253)scale(0.07 -0.07)">
       <use xlink:href="#DejaVuSans-51"/>
       <use x="63.623047" xlink:href="#DejaVuSans-48"/>
       <use x="127.246094" xlink:href="#DejaVuSans-48"/>
      </g>
     </g>
    </g>
    <g id="ytick_13">
     <g id="line2d_25">
      <g>
       <use style="stroke:#000000;stroke-width:0.8;" x="342.699574" xlink:href="#m735f7f4cf9" y="98.6608"/>
      </g>
     </g>
     <g id="text_27">
      <!-- 400 -->
      <g transform="translate(322.338324 101.320253)scale(0.07 -0.07)">
       <use xlink:href="#DejaVuSans-52"/>
       <use x="63.623047" xlink:href="#DejaVuSans-48"/>
       <use x="127.246094" xlink:href="#DejaVuSans-48"/>
      </g>
     </g>
    </g>
    <g id="ytick_14">
     <g id="line2d_26">
      <g>
       <use style="stroke:#000000;stroke-width:0.8;" x="342.699574" xlink:href="#m735f7f4cf9" y="81.2368"/>
      </g>
     </g>
     <g id="text_28">
      <!-- 500 -->
      <g transform="translate(322.338324 83.896253)scale(0.07 -0.07)">
       <use xlink:href="#DejaVuSans-53"/>
       <use x="63.623047" xlink:href="#DejaVuSans-48"/>
       <use x="127.246094" xlink:href="#DejaVuSans-48"/>
      </g>
     </g>
    </g>
    <g id="ytick_15">
     <g id="line2d_27">
      <g>
       <use style="stroke:#000000;stroke-width:0.8;" x="342.699574" xlink:href="#m735f7f4cf9" y="63.8128"/>
      </g>
     </g>
     <g id="text_29">
      <!-- 600 -->
      <g transform="translate(322.338324 66.472253)scale(0.07 -0.07)">
       <use xlink:href="#DejaVuSans-54"/>
       <use x="63.623047" xlink:href="#DejaVuSans-48"/>
       <use x="127.246094" xlink:href="#DejaVuSans-48"/>
      </g>
     </g>
    </g>
    <g id="ytick_16">
     <g id="line2d_28">
      <g>
       <use style="stroke:#000000;stroke-width:0.8;" x="342.699574" xlink:href="#m735f7f4cf9" y="46.3888"/>
      </g>
     </g>
     <g id="text_30">
      <!-- 700 -->
      <g transform="translate(322.338324 49.048253)scale(0.07 -0.07)">
       <use xlink:href="#DejaVuSans-55"/>
       <use x="63.623047" xlink:href="#DejaVuSans-48"/>
       <use x="127.246094" xlink:href="#DejaVuSans-48"/>
      </g>
     </g>
    </g>
    <g id="text_31">
     <!-- error (%) -->
     <g transform="translate(316.882543 123.151784)rotate(-90)scale(0.07 -0.07)">
      <use xlink:href="#DejaVuSans-101"/>
      <use x="61.523438" xlink:href="#DejaVuSans-114"/>
      <use x="102.621094" xlink:href="#DejaVuSans-114"/>
      <use x="143.703125" xlink:href="#DejaVuSans-111"/>
      <use x="204.884766" xlink:href="#DejaVuSans-114"/>
      <use x="245.998047" xlink:href="#DejaVuSans-32"/>
      <use x="277.785156" xlink:href="#DejaVuSans-40"/>
      <use x="316.798828" xlink:href="#DejaVuSans-37"/>
      <use x="411.818359" xlink:href="#DejaVuSans-41"/>
     </g>
    </g>
   </g>
   <g id="patch_44">
    <path d="M 342.699574 168.3568 
L 342.699574 46.3888 
" style="fill:none;stroke:#000000;stroke-linecap:square;stroke-linejoin:miter;stroke-width:0.8;"/>
   </g>
   <g id="patch_45">
    <path d="M 596.335937 168.3568 
L 596.335937 46.3888 
" style="fill:none;stroke:#000000;stroke-linecap:square;stroke-linejoin:miter;stroke-width:0.8;"/>
   </g>
   <g id="patch_46">
    <path d="M 342.699574 168.3568 
L 596.335937 168.3568 
" style="fill:none;stroke:#000000;stroke-linecap:square;stroke-linejoin:miter;stroke-width:0.8;"/>
   </g>
   <g id="patch_47">
    <path d="M 342.699574 46.3888 
L 596.335937 46.3888 
" style="fill:none;stroke:#000000;stroke-linecap:square;stroke-linejoin:miter;stroke-width:0.8;"/>
   </g>
   <g id="text_32">
    <!-- 100 GB -->
    <g transform="translate(454.030256 40.3888)scale(0.084 -0.084)">
     <use xlink:href="#DejaVuSans-49"/>
     <use x="63.623047" xlink:href="#DejaVuSans-48"/>
     <use x="127.246094" xlink:href="#DejaVuSans-48"/>
     <use x="190.869141" xlink:href="#DejaVuSans-32"/>
     <use x="222.65625" xlink:href="#DejaVuSans-71"/>
     <use x="300.146484" xlink:href="#DejaVuSans-66"/>
    </g>
   </g>
   <g id="legend_1">
    <g id="patch_48">
     <path d="M 174.209879 19.574688 
L 409.734723 19.574688 
Q 411.134723 19.574688 411.134723 18.174688 
L 411.134723 8.6 
Q 411.134723 7.2 409.734723 7.2 
L 174.209879 7.2 
Q 172.809879 7.2 172.809879 8.6 
L 172.809879 18.174688 
Q 172.809879 19.574688 174.209879 19.574688 
z
" style="fill:#ffffff;opacity:0.8;stroke:#cccccc;stroke-linejoin:miter;"/>
    </g>
    <g id="patch_49">
     <path d="M 175.609879 15.318906 
L 189.609879 15.318906 
L 189.609879 10.418906 
L 175.609879 10.418906 
z
" style="fill:#e377c2;"/>
    </g>
    <g id="text_33">
     <!-- Python simulator -->
     <defs>
      <path d="M 19.671875 64.796875 
L 19.671875 37.40625 
L 32.078125 37.40625 
Q 38.96875 37.40625 42.71875 40.96875 
Q 46.484375 44.53125 46.484375 51.125 
Q 46.484375 57.671875 42.71875 61.234375 
Q 38.96875 64.796875 32.078125 64.796875 
z
M 9.8125 72.90625 
L 32.078125 72.90625 
Q 44.34375 72.90625 50.609375 67.359375 
Q 56.890625 61.8125 56.890625 51.125 
Q 56.890625 40.328125 50.609375 34.8125 
Q 44.34375 29.296875 32.078125 29.296875 
L 19.671875 29.296875 
L 19.671875 0 
L 9.8125 0 
z
" id="DejaVuSans-80"/>
      <path d="M 32.171875 -5.078125 
Q 28.375 -14.84375 24.75 -17.8125 
Q 21.140625 -20.796875 15.09375 -20.796875 
L 7.90625 -20.796875 
L 7.90625 -13.28125 
L 13.1875 -13.28125 
Q 16.890625 -13.28125 18.9375 -11.515625 
Q 21 -9.765625 23.484375 -3.21875 
L 25.09375 0.875 
L 2.984375 54.6875 
L 12.5 54.6875 
L 29.59375 11.921875 
L 46.6875 54.6875 
L 56.203125 54.6875 
z
" id="DejaVuSans-121"/>
      <path d="M 54.890625 33.015625 
L 54.890625 0 
L 45.90625 0 
L 45.90625 32.71875 
Q 45.90625 40.484375 42.875 44.328125 
Q 39.84375 48.1875 33.796875 48.1875 
Q 26.515625 48.1875 22.3125 43.546875 
Q 18.109375 38.921875 18.109375 30.90625 
L 18.109375 0 
L 9.078125 0 
L 9.078125 75.984375 
L 18.109375 75.984375 
L 18.109375 46.1875 
Q 21.34375 51.125 25.703125 53.5625 
Q 30.078125 56 35.796875 56 
Q 45.21875 56 50.046875 50.171875 
Q 54.890625 44.34375 54.890625 33.015625 
z
" id="DejaVuSans-104"/>
      <path d="M 54.890625 33.015625 
L 54.890625 0 
L 45.90625 0 
L 45.90625 32.71875 
Q 45.90625 40.484375 42.875 44.328125 
Q 39.84375 48.1875 33.796875 48.1875 
Q 26.515625 48.1875 22.3125 43.546875 
Q 18.109375 38.921875 18.109375 30.90625 
L 18.109375 0 
L 9.078125 0 
L 9.078125 54.6875 
L 18.109375 54.6875 
L 18.109375 46.1875 
Q 21.34375 51.125 25.703125 53.5625 
Q 30.078125 56 35.796875 56 
Q 45.21875 56 50.046875 50.171875 
Q 54.890625 44.34375 54.890625 33.015625 
z
" id="DejaVuSans-110"/>
      <path d="M 44.28125 53.078125 
L 44.28125 44.578125 
Q 40.484375 46.53125 36.375 47.5 
Q 32.28125 48.484375 27.875 48.484375 
Q 21.1875 48.484375 17.84375 46.4375 
Q 14.5 44.390625 14.5 40.28125 
Q 14.5 37.15625 16.890625 35.375 
Q 19.28125 33.59375 26.515625 31.984375 
L 29.59375 31.296875 
Q 39.15625 29.25 43.1875 25.515625 
Q 47.21875 21.78125 47.21875 15.09375 
Q 47.21875 7.46875 41.1875 3.015625 
Q 35.15625 -1.421875 24.609375 -1.421875 
Q 20.21875 -1.421875 15.453125 -0.5625 
Q 10.6875 0.296875 5.421875 2 
L 5.421875 11.28125 
Q 10.40625 8.6875 15.234375 7.390625 
Q 20.0625 6.109375 24.8125 6.109375 
Q 31.15625 6.109375 34.5625 8.28125 
Q 37.984375 10.453125 37.984375 14.40625 
Q 37.984375 18.0625 35.515625 20.015625 
Q 33.0625 21.96875 24.703125 23.78125 
L 21.578125 24.515625 
Q 13.234375 26.265625 9.515625 29.90625 
Q 5.8125 33.546875 5.8125 39.890625 
Q 5.8125 47.609375 11.28125 51.796875 
Q 16.75 56 26.8125 56 
Q 31.78125 56 36.171875 55.265625 
Q 40.578125 54.546875 44.28125 53.078125 
z
" id="DejaVuSans-115"/>
      <path d="M 52 44.1875 
Q 55.375 50.25 60.0625 53.125 
Q 64.75 56 71.09375 56 
Q 79.640625 56 84.28125 50.015625 
Q 88.921875 44.046875 88.921875 33.015625 
L 88.921875 0 
L 79.890625 0 
L 79.890625 32.71875 
Q 79.890625 40.578125 77.09375 44.375 
Q 74.3125 48.1875 68.609375 48.1875 
Q 61.625 48.1875 57.5625 43.546875 
Q 53.515625 38.921875 53.515625 30.90625 
L 53.515625 0 
L 44.484375 0 
L 44.484375 32.71875 
Q 44.484375 40.625 41.703125 44.40625 
Q 38.921875 48.1875 33.109375 48.1875 
Q 26.21875 48.1875 22.15625 43.53125 
Q 18.109375 38.875 18.109375 30.90625 
L 18.109375 0 
L 9.078125 0 
L 9.078125 54.6875 
L 18.109375 54.6875 
L 18.109375 46.1875 
Q 21.1875 51.21875 25.484375 53.609375 
Q 29.78125 56 35.6875 56 
Q 41.65625 56 45.828125 52.96875 
Q 50 49.953125 52 44.1875 
z
" id="DejaVuSans-109"/>
      <path d="M 8.5 21.578125 
L 8.5 54.6875 
L 17.484375 54.6875 
L 17.484375 21.921875 
Q 17.484375 14.15625 20.5 10.265625 
Q 23.53125 6.390625 29.59375 6.390625 
Q 36.859375 6.390625 41.078125 11.03125 
Q 45.3125 15.671875 45.3125 23.6875 
L 45.3125 54.6875 
L 54.296875 54.6875 
L 54.296875 0 
L 45.3125 0 
L 45.3125 8.40625 
Q 42.046875 3.421875 37.71875 1 
Q 33.40625 -1.421875 27.6875 -1.421875 
Q 18.265625 -1.421875 13.375 4.4375 
Q 8.5 10.296875 8.5 21.578125 
z
M 31.109375 56 
z
" id="DejaVuSans-117"/>
      <path d="M 9.421875 75.984375 
L 18.40625 75.984375 
L 18.40625 0 
L 9.421875 0 
z
" id="DejaVuSans-108"/>
     </defs>
     <g transform="translate(195.209879 15.318906)scale(0.07 -0.07)">
      <use xlink:href="#DejaVuSans-80"/>
      <use x="60.302734" xlink:href="#DejaVuSans-121"/>
      <use x="119.482422" xlink:href="#DejaVuSans-116"/>
      <use x="158.691406" xlink:href="#DejaVuSans-104"/>
      <use x="222.070312" xlink:href="#DejaVuSans-111"/>
      <use x="283.251953" xlink:href="#DejaVuSans-110"/>
      <use x="346.630859" xlink:href="#DejaVuSans-32"/>
      <use x="378.417969" xlink:href="#DejaVuSans-115"/>
      <use x="430.517578" xlink:href="#DejaVuSans-105"/>
      <use x="458.300781" xlink:href="#DejaVuSans-109"/>
      <use x="555.712891" xlink:href="#DejaVuSans-117"/>
      <use x="619.091797" xlink:href="#DejaVuSans-108"/>
      <use x="646.875" xlink:href="#DejaVuSans-97"/>
      <use x="708.154297" xlink:href="#DejaVuSans-116"/>
      <use x="747.363281" xlink:href="#DejaVuSans-111"/>
      <use x="808.544922" xlink:href="#DejaVuSans-114"/>
     </g>
    </g>
    <g id="patch_50">
     <path d="M 268.683629 15.318906 
L 282.683629 15.318906 
L 282.683629 10.418906 
L 268.683629 10.418906 
z
" style="fill:#ff7f0e;"/>
    </g>
    <g id="text_34">
     <!-- WRENCH -->
     <defs>
      <path d="M 9.8125 72.90625 
L 55.90625 72.90625 
L 55.90625 64.59375 
L 19.671875 64.59375 
L 19.671875 43.015625 
L 54.390625 43.015625 
L 54.390625 34.71875 
L 19.671875 34.71875 
L 19.671875 8.296875 
L 56.78125 8.296875 
L 56.78125 0 
L 9.8125 0 
z
" id="DejaVuSans-69"/>
      <path d="M 9.8125 72.90625 
L 23.09375 72.90625 
L 55.421875 11.921875 
L 55.421875 72.90625 
L 64.984375 72.90625 
L 64.984375 0 
L 51.703125 0 
L 19.390625 60.984375 
L 19.390625 0 
L 9.8125 0 
z
" id="DejaVuSans-78"/>
      <path d="M 64.40625 67.28125 
L 64.40625 56.890625 
Q 59.421875 61.53125 53.78125 63.8125 
Q 48.140625 66.109375 41.796875 66.109375 
Q 29.296875 66.109375 22.65625 58.46875 
Q 16.015625 50.828125 16.015625 36.375 
Q 16.015625 21.96875 22.65625 14.328125 
Q 29.296875 6.6875 41.796875 6.6875 
Q 48.140625 6.6875 53.78125 8.984375 
Q 59.421875 11.28125 64.40625 15.921875 
L 64.40625 5.609375 
Q 59.234375 2.09375 53.4375 0.328125 
Q 47.65625 -1.421875 41.21875 -1.421875 
Q 24.65625 -1.421875 15.125 8.703125 
Q 5.609375 18.84375 5.609375 36.375 
Q 5.609375 53.953125 15.125 64.078125 
Q 24.65625 74.21875 41.21875 74.21875 
Q 47.75 74.21875 53.53125 72.484375 
Q 59.328125 70.75 64.40625 67.28125 
z
" id="DejaVuSans-67"/>
      <path d="M 9.8125 72.90625 
L 19.671875 72.90625 
L 19.671875 43.015625 
L 55.515625 43.015625 
L 55.515625 72.90625 
L 65.375 72.90625 
L 65.375 0 
L 55.515625 0 
L 55.515625 34.71875 
L 19.671875 34.71875 
L 19.671875 0 
L 9.8125 0 
z
" id="DejaVuSans-72"/>
     </defs>
     <g transform="translate(288.283629 15.318906)scale(0.07 -0.07)">
      <use xlink:href="#DejaVuSans-87"/>
      <use x="98.876953" xlink:href="#DejaVuSans-82"/>
      <use x="168.359375" xlink:href="#DejaVuSans-69"/>
      <use x="231.542969" xlink:href="#DejaVuSans-78"/>
      <use x="306.347656" xlink:href="#DejaVuSans-67"/>
      <use x="376.171875" xlink:href="#DejaVuSans-72"/>
     </g>
    </g>
    <g id="patch_51">
     <path d="M 333.880973 15.318906 
L 347.880973 15.318906 
L 347.880973 10.418906 
L 333.880973 10.418906 
z
" style="fill:#17becf;"/>
    </g>
    <g id="text_35">
     <!-- WRENCH-cache -->
     <defs>
      <path d="M 4.890625 31.390625 
L 31.203125 31.390625 
L 31.203125 23.390625 
L 4.890625 23.390625 
z
" id="DejaVuSans-45"/>
      <path d="M 48.78125 52.59375 
L 48.78125 44.1875 
Q 44.96875 46.296875 41.140625 47.34375 
Q 37.3125 48.390625 33.40625 48.390625 
Q 24.65625 48.390625 19.8125 42.84375 
Q 14.984375 37.3125 14.984375 27.296875 
Q 14.984375 17.28125 19.8125 11.734375 
Q 24.65625 6.203125 33.40625 6.203125 
Q 37.3125 6.203125 41.140625 7.25 
Q 44.96875 8.296875 48.78125 10.40625 
L 48.78125 2.09375 
Q 45.015625 0.34375 40.984375 -0.53125 
Q 36.96875 -1.421875 32.421875 -1.421875 
Q 20.0625 -1.421875 12.78125 6.34375 
Q 5.515625 14.109375 5.515625 27.296875 
Q 5.515625 40.671875 12.859375 48.328125 
Q 20.21875 56 33.015625 56 
Q 37.15625 56 41.109375 55.140625 
Q 45.0625 54.296875 48.78125 52.59375 
z
" id="DejaVuSans-99"/>
     </defs>
     <g transform="translate(353.480973 15.318906)scale(0.07 -0.07)">
      <use xlink:href="#DejaVuSans-87"/>
      <use x="98.876953" xlink:href="#DejaVuSans-82"/>
      <use x="168.359375" xlink:href="#DejaVuSans-69"/>
      <use x="231.542969" xlink:href="#DejaVuSans-78"/>
      <use x="306.347656" xlink:href="#DejaVuSans-67"/>
      <use x="376.171875" xlink:href="#DejaVuSans-72"/>
      <use x="451.367188" xlink:href="#DejaVuSans-45"/>
      <use x="487.451172" xlink:href="#DejaVuSans-99"/>
      <use x="542.431641" xlink:href="#DejaVuSans-97"/>
      <use x="603.710938" xlink:href="#DejaVuSans-99"/>
      <use x="658.691406" xlink:href="#DejaVuSans-104"/>
      <use x="722.070312" xlink:href="#DejaVuSans-101"/>
     </g>
    </g>
   </g>
  </g>
 </g>
 <defs>
  <clipPath id="p5ef1c99c08">
   <rect height="121.968" width="253.636364" x="38.335938" y="46.3888"/>
  </clipPath>
  <clipPath id="p0452a7e750">
   <rect height="121.968" width="253.636364" x="342.699574" y="46.3888"/>
  </clipPath>
 </defs>
</svg>
