<?xml version="1.0" encoding="utf-8" standalone="no"?>
<!DOCTYPE svg PUBLIC "-//W3C//DTD SVG 1.1//EN"
  "http://www.w3.org/Graphics/SVG/1.1/DTD/svg11.dtd">
<!-- Created with matplotlib (https://matplotlib.org/) -->
<svg height="214.610313pt" version="1.1" viewBox="0 0 724.489062 214.610313" width="724.489062pt" xmlns="http://www.w3.org/2000/svg" xmlns:xlink="http://www.w3.org/1999/xlink">
 <metadata>
  <rdf:RDF xmlns:cc="http://creativecommons.org/ns#" xmlns:dc="http://purl.org/dc/elements/1.1/" xmlns:rdf="http://www.w3.org/1999/02/22-rdf-syntax-ns#">
   <cc:Work>
    <dc:type rdf:resource="http://purl.org/dc/dcmitype/StillImage"/>
    <dc:date>2020-12-14T22:50:32.523521</dc:date>
    <dc:format>image/svg+xml</dc:format>
    <dc:creator>
     <cc:Agent>
      <dc:title>Matplotlib v3.3.0, https://matplotlib.org/</dc:title>
     </cc:Agent>
    </dc:creator>
   </cc:Work>
  </rdf:RDF>
 </metadata>
 <defs>
  <style type="text/css">*{stroke-linecap:butt;stroke-linejoin:round;}</style>
 </defs>
 <g id="figure_1">
  <g id="patch_1">
   <path d="M 0 214.610313 
L 724.489062 214.610313 
L 724.489062 0 
L 0 0 
z
" style="fill:#ffffff;"/>
  </g>
  <g id="axes_1">
   <g id="patch_2">
    <path d="M 44.089062 191.7 
L 364.660491 191.7 
L 364.660491 40.5 
L 44.089062 40.5 
z
" style="fill:#ffffff;"/>
   </g>
   <g id="patch_3">
    <path clip-path="url(#pd1f23626a9)" d="M 58.660491 191.7 
L 69.068654 191.7 
L 69.068654 189.591125 
L 58.660491 189.591125 
z
" style="fill:#7bafde;"/>
   </g>
   <g id="patch_4">
    <path clip-path="url(#pd1f23626a9)" d="M 110.701307 191.7 
L 121.109471 191.7 
L 121.109471 183.852384 
L 110.701307 183.852384 
z
" style="fill:#7bafde;"/>
   </g>
   <g id="patch_5">
    <path clip-path="url(#pd1f23626a9)" d="M 162.742124 191.7 
L 173.150287 191.7 
L 173.150287 184.973353 
L 162.742124 184.973353 
z
" style="fill:#7bafde;"/>
   </g>
   <g id="patch_6">
    <path clip-path="url(#pd1f23626a9)" d="M 214.78294 191.7 
L 225.191103 191.7 
L 225.191103 183.854491 
L 214.78294 183.854491 
z
" style="fill:#7bafde;"/>
   </g>
   <g id="patch_7">
    <path clip-path="url(#pd1f23626a9)" d="M 266.823756 191.7 
L 277.23192 191.7 
L 277.23192 185.040183 
L 266.823756 185.040183 
z
" style="fill:#7bafde;"/>
   </g>
   <g id="patch_8">
    <path clip-path="url(#pd1f23626a9)" d="M 318.864573 191.7 
L 329.272736 191.7 
L 329.272736 183.860816 
L 318.864573 183.860816 
z
" style="fill:#7bafde;"/>
   </g>
   <g id="patch_9">
    <path clip-path="url(#pd1f23626a9)" d="M 69.068654 191.7 
L 79.476818 191.7 
L 79.476818 189.591125 
L 69.068654 189.591125 
z
" style="fill:#994f88;"/>
   </g>
   <g id="patch_10">
    <path clip-path="url(#pd1f23626a9)" d="M 121.109471 191.7 
L 131.517634 191.7 
L 131.517634 70.985014 
L 121.109471 70.985014 
z
" style="fill:#994f88;"/>
   </g>
   <g id="patch_11">
    <path clip-path="url(#pd1f23626a9)" d="M 173.150287 191.7 
L 183.55845 191.7 
L 183.55845 59.384781 
L 173.150287 59.384781 
z
" style="fill:#994f88;"/>
   </g>
   <g id="patch_12">
    <path clip-path="url(#pd1f23626a9)" d="M 225.191103 191.7 
L 235.599267 191.7 
L 235.599267 70.963203 
L 225.191103 70.963203 
z
" style="fill:#994f88;"/>
   </g>
   <g id="patch_13">
    <path clip-path="url(#pd1f23626a9)" d="M 277.23192 191.7 
L 287.640083 191.7 
L 287.640083 58.693205 
L 277.23192 58.693205 
z
" style="fill:#994f88;"/>
   </g>
   <g id="patch_14">
    <path clip-path="url(#pd1f23626a9)" d="M 329.272736 191.7 
L 339.680899 191.7 
L 339.680899 70.897751 
L 329.272736 70.897751 
z
" style="fill:#994f88;"/>
   </g>
   <g id="patch_15">
    <path clip-path="url(#pd1f23626a9)" d="M 79.476818 191.7 
L 89.884981 191.7 
L 89.884981 189.591125 
L 79.476818 189.591125 
z
" style="fill:#1965b0;"/>
   </g>
   <g id="patch_16">
    <path clip-path="url(#pd1f23626a9)" d="M 131.517634 191.7 
L 141.925797 191.7 
L 141.925797 183.852384 
L 131.517634 183.852384 
z
" style="fill:#1965b0;"/>
   </g>
   <g id="patch_17">
    <path clip-path="url(#pd1f23626a9)" d="M 183.55845 191.7 
L 193.966614 191.7 
L 193.966614 184.973353 
L 183.55845 184.973353 
z
" style="fill:#1965b0;"/>
   </g>
   <g id="patch_18">
    <path clip-path="url(#pd1f23626a9)" d="M 235.599267 191.7 
L 246.00743 191.7 
L 246.00743 183.854491 
L 235.599267 183.854491 
z
" style="fill:#1965b0;"/>
   </g>
   <g id="patch_19">
    <path clip-path="url(#pd1f23626a9)" d="M 287.640083 191.7 
L 298.048246 191.7 
L 298.048246 185.040183 
L 287.640083 185.040183 
z
" style="fill:#1965b0;"/>
   </g>
   <g id="patch_20">
    <path clip-path="url(#pd1f23626a9)" d="M 339.680899 191.7 
L 350.089062 191.7 
L 350.089062 183.860816 
L 339.680899 183.860816 
z
" style="fill:#1965b0;"/>
   </g>
   <g id="matplotlib.axis_1">
    <g id="xtick_1">
     <g id="line2d_1">
      <defs>
       <path d="M 0 0 
L 0 3.5 
" id="mcd7a9791a3" style="stroke:#000000;stroke-width:0.8;"/>
      </defs>
      <g>
       <use style="stroke:#000000;stroke-width:0.8;" x="74.272736" xlink:href="#mcd7a9791a3" y="191.7"/>
      </g>
     </g>
     <g id="text_1">
      <!-- Read 1 -->
      <g transform="translate(58.671798 205.538594)scale(0.09 -0.09)">
       <defs>
        <path d="M 44.390625 34.1875 
Q 47.5625 33.109375 50.5625 29.59375 
Q 53.5625 26.078125 56.59375 19.921875 
L 66.609375 0 
L 56 0 
L 46.6875 18.703125 
Q 43.0625 26.03125 39.671875 28.421875 
Q 36.28125 30.8125 30.421875 30.8125 
L 19.671875 30.8125 
L 19.671875 0 
L 9.8125 0 
L 9.8125 72.90625 
L 32.078125 72.90625 
Q 44.578125 72.90625 50.734375 67.671875 
Q 56.890625 62.453125 56.890625 51.90625 
Q 56.890625 45.015625 53.6875 40.46875 
Q 50.484375 35.9375 44.390625 34.1875 
z
M 19.671875 64.796875 
L 19.671875 38.921875 
L 32.078125 38.921875 
Q 39.203125 38.921875 42.84375 42.21875 
Q 46.484375 45.515625 46.484375 51.90625 
Q 46.484375 58.296875 42.84375 61.546875 
Q 39.203125 64.796875 32.078125 64.796875 
z
" id="DejaVuSans-82"/>
        <path d="M 56.203125 29.59375 
L 56.203125 25.203125 
L 14.890625 25.203125 
Q 15.484375 15.921875 20.484375 11.0625 
Q 25.484375 6.203125 34.421875 6.203125 
Q 39.59375 6.203125 44.453125 7.46875 
Q 49.3125 8.734375 54.109375 11.28125 
L 54.109375 2.78125 
Q 49.265625 0.734375 44.1875 -0.34375 
Q 39.109375 -1.421875 33.890625 -1.421875 
Q 20.796875 -1.421875 13.15625 6.1875 
Q 5.515625 13.8125 5.515625 26.8125 
Q 5.515625 40.234375 12.765625 48.109375 
Q 20.015625 56 32.328125 56 
Q 43.359375 56 49.78125 48.890625 
Q 56.203125 41.796875 56.203125 29.59375 
z
M 47.21875 32.234375 
Q 47.125 39.59375 43.09375 43.984375 
Q 39.0625 48.390625 32.421875 48.390625 
Q 24.90625 48.390625 20.390625 44.140625 
Q 15.875 39.890625 15.1875 32.171875 
z
" id="DejaVuSans-101"/>
        <path d="M 34.28125 27.484375 
Q 23.390625 27.484375 19.1875 25 
Q 14.984375 22.515625 14.984375 16.5 
Q 14.984375 11.71875 18.140625 8.90625 
Q 21.296875 6.109375 26.703125 6.109375 
Q 34.1875 6.109375 38.703125 11.40625 
Q 43.21875 16.703125 43.21875 25.484375 
L 43.21875 27.484375 
z
M 52.203125 31.203125 
L 52.203125 0 
L 43.21875 0 
L 43.21875 8.296875 
Q 40.140625 3.328125 35.546875 0.953125 
Q 30.953125 -1.421875 24.3125 -1.421875 
Q 15.921875 -1.421875 10.953125 3.296875 
Q 6 8.015625 6 15.921875 
Q 6 25.140625 12.171875 29.828125 
Q 18.359375 34.515625 30.609375 34.515625 
L 43.21875 34.515625 
L 43.21875 35.40625 
Q 43.21875 41.609375 39.140625 45 
Q 35.0625 48.390625 27.6875 48.390625 
Q 23 48.390625 18.546875 47.265625 
Q 14.109375 46.140625 10.015625 43.890625 
L 10.015625 52.203125 
Q 14.9375 54.109375 19.578125 55.046875 
Q 24.21875 56 28.609375 56 
Q 40.484375 56 46.34375 49.84375 
Q 52.203125 43.703125 52.203125 31.203125 
z
" id="DejaVuSans-97"/>
        <path d="M 45.40625 46.390625 
L 45.40625 75.984375 
L 54.390625 75.984375 
L 54.390625 0 
L 45.40625 0 
L 45.40625 8.203125 
Q 42.578125 3.328125 38.25 0.953125 
Q 33.9375 -1.421875 27.875 -1.421875 
Q 17.96875 -1.421875 11.734375 6.484375 
Q 5.515625 14.40625 5.515625 27.296875 
Q 5.515625 40.1875 11.734375 48.09375 
Q 17.96875 56 27.875 56 
Q 33.9375 56 38.25 53.625 
Q 42.578125 51.265625 45.40625 46.390625 
z
M 14.796875 27.296875 
Q 14.796875 17.390625 18.875 11.75 
Q 22.953125 6.109375 30.078125 6.109375 
Q 37.203125 6.109375 41.296875 11.75 
Q 45.40625 17.390625 45.40625 27.296875 
Q 45.40625 37.203125 41.296875 42.84375 
Q 37.203125 48.484375 30.078125 48.484375 
Q 22.953125 48.484375 18.875 42.84375 
Q 14.796875 37.203125 14.796875 27.296875 
z
" id="DejaVuSans-100"/>
        <path id="DejaVuSans-32"/>
        <path d="M 12.40625 8.296875 
L 28.515625 8.296875 
L 28.515625 63.921875 
L 10.984375 60.40625 
L 10.984375 69.390625 
L 28.421875 72.90625 
L 38.28125 72.90625 
L 38.28125 8.296875 
L 54.390625 8.296875 
L 54.390625 0 
L 12.40625 0 
z
" id="DejaVuSans-49"/>
       </defs>
       <use xlink:href="#DejaVuSans-82"/>
       <use x="64.982422" xlink:href="#DejaVuSans-101"/>
       <use x="126.505859" xlink:href="#DejaVuSans-97"/>
       <use x="187.785156" xlink:href="#DejaVuSans-100"/>
       <use x="251.261719" xlink:href="#DejaVuSans-32"/>
       <use x="283.048828" xlink:href="#DejaVuSans-49"/>
      </g>
     </g>
    </g>
    <g id="xtick_2">
     <g id="line2d_2">
      <g>
       <use style="stroke:#000000;stroke-width:0.8;" x="126.313552" xlink:href="#mcd7a9791a3" y="191.7"/>
      </g>
     </g>
     <g id="text_2">
      <!-- Write 1 -->
      <g transform="translate(110.140271 205.538594)scale(0.09 -0.09)">
       <defs>
        <path d="M 3.328125 72.90625 
L 13.28125 72.90625 
L 28.609375 11.28125 
L 43.890625 72.90625 
L 54.984375 72.90625 
L 70.3125 11.28125 
L 85.59375 72.90625 
L 95.609375 72.90625 
L 77.296875 0 
L 64.890625 0 
L 49.515625 63.28125 
L 33.984375 0 
L 21.578125 0 
z
" id="DejaVuSans-87"/>
        <path d="M 41.109375 46.296875 
Q 39.59375 47.171875 37.8125 47.578125 
Q 36.03125 48 33.890625 48 
Q 26.265625 48 22.1875 43.046875 
Q 18.109375 38.09375 18.109375 28.8125 
L 18.109375 0 
L 9.078125 0 
L 9.078125 54.6875 
L 18.109375 54.6875 
L 18.109375 46.1875 
Q 20.953125 51.171875 25.484375 53.578125 
Q 30.03125 56 36.53125 56 
Q 37.453125 56 38.578125 55.875 
Q 39.703125 55.765625 41.0625 55.515625 
z
" id="DejaVuSans-114"/>
        <path d="M 9.421875 54.6875 
L 18.40625 54.6875 
L 18.40625 0 
L 9.421875 0 
z
M 9.421875 75.984375 
L 18.40625 75.984375 
L 18.40625 64.59375 
L 9.421875 64.59375 
z
" id="DejaVuSans-105"/>
        <path d="M 18.3125 70.21875 
L 18.3125 54.6875 
L 36.8125 54.6875 
L 36.8125 47.703125 
L 18.3125 47.703125 
L 18.3125 18.015625 
Q 18.3125 11.328125 20.140625 9.421875 
Q 21.96875 7.515625 27.59375 7.515625 
L 36.8125 7.515625 
L 36.8125 0 
L 27.59375 0 
Q 17.1875 0 13.234375 3.875 
Q 9.28125 7.765625 9.28125 18.015625 
L 9.28125 47.703125 
L 2.6875 47.703125 
L 2.6875 54.6875 
L 9.28125 54.6875 
L 9.28125 70.21875 
z
" id="DejaVuSans-116"/>
       </defs>
       <use xlink:href="#DejaVuSans-87"/>
       <use x="94.376953" xlink:href="#DejaVuSans-114"/>
       <use x="135.490234" xlink:href="#DejaVuSans-105"/>
       <use x="163.273438" xlink:href="#DejaVuSans-116"/>
       <use x="202.482422" xlink:href="#DejaVuSans-101"/>
       <use x="264.005859" xlink:href="#DejaVuSans-32"/>
       <use x="295.792969" xlink:href="#DejaVuSans-49"/>
      </g>
     </g>
    </g>
    <g id="xtick_3">
     <g id="line2d_3">
      <g>
       <use style="stroke:#000000;stroke-width:0.8;" x="178.354369" xlink:href="#mcd7a9791a3" y="191.7"/>
      </g>
     </g>
     <g id="text_3">
      <!-- Read 2 -->
      <g transform="translate(162.753431 205.538594)scale(0.09 -0.09)">
       <defs>
        <path d="M 19.1875 8.296875 
L 53.609375 8.296875 
L 53.609375 0 
L 7.328125 0 
L 7.328125 8.296875 
Q 12.9375 14.109375 22.625 23.890625 
Q 32.328125 33.6875 34.8125 36.53125 
Q 39.546875 41.84375 41.421875 45.53125 
Q 43.3125 49.21875 43.3125 52.78125 
Q 43.3125 58.59375 39.234375 62.25 
Q 35.15625 65.921875 28.609375 65.921875 
Q 23.96875 65.921875 18.8125 64.3125 
Q 13.671875 62.703125 7.8125 59.421875 
L 7.8125 69.390625 
Q 13.765625 71.78125 18.9375 73 
Q 24.125 74.21875 28.421875 74.21875 
Q 39.75 74.21875 46.484375 68.546875 
Q 53.21875 62.890625 53.21875 53.421875 
Q 53.21875 48.921875 51.53125 44.890625 
Q 49.859375 40.875 45.40625 35.40625 
Q 44.1875 33.984375 37.640625 27.21875 
Q 31.109375 20.453125 19.1875 8.296875 
z
" id="DejaVuSans-50"/>
       </defs>
       <use xlink:href="#DejaVuSans-82"/>
       <use x="64.982422" xlink:href="#DejaVuSans-101"/>
       <use x="126.505859" xlink:href="#DejaVuSans-97"/>
       <use x="187.785156" xlink:href="#DejaVuSans-100"/>
       <use x="251.261719" xlink:href="#DejaVuSans-32"/>
       <use x="283.048828" xlink:href="#DejaVuSans-50"/>
      </g>
     </g>
    </g>
    <g id="xtick_4">
     <g id="line2d_4">
      <g>
       <use style="stroke:#000000;stroke-width:0.8;" x="230.395185" xlink:href="#mcd7a9791a3" y="191.7"/>
      </g>
     </g>
     <g id="text_4">
      <!-- Write 2 -->
      <g transform="translate(214.221904 205.538594)scale(0.09 -0.09)">
       <use xlink:href="#DejaVuSans-87"/>
       <use x="94.376953" xlink:href="#DejaVuSans-114"/>
       <use x="135.490234" xlink:href="#DejaVuSans-105"/>
       <use x="163.273438" xlink:href="#DejaVuSans-116"/>
       <use x="202.482422" xlink:href="#DejaVuSans-101"/>
       <use x="264.005859" xlink:href="#DejaVuSans-32"/>
       <use x="295.792969" xlink:href="#DejaVuSans-50"/>
      </g>
     </g>
    </g>
    <g id="xtick_5">
     <g id="line2d_5">
      <g>
       <use style="stroke:#000000;stroke-width:0.8;" x="282.436001" xlink:href="#mcd7a9791a3" y="191.7"/>
      </g>
     </g>
     <g id="text_5">
      <!-- Read 3 -->
      <g transform="translate(266.835064 205.538594)scale(0.09 -0.09)">
       <defs>
        <path d="M 40.578125 39.3125 
Q 47.65625 37.796875 51.625 33 
Q 55.609375 28.21875 55.609375 21.1875 
Q 55.609375 10.40625 48.1875 4.484375 
Q 40.765625 -1.421875 27.09375 -1.421875 
Q 22.515625 -1.421875 17.65625 -0.515625 
Q 12.796875 0.390625 7.625 2.203125 
L 7.625 11.71875 
Q 11.71875 9.328125 16.59375 8.109375 
Q 21.484375 6.890625 26.8125 6.890625 
Q 36.078125 6.890625 40.9375 10.546875 
Q 45.796875 14.203125 45.796875 21.1875 
Q 45.796875 27.640625 41.28125 31.265625 
Q 36.765625 34.90625 28.71875 34.90625 
L 20.21875 34.90625 
L 20.21875 43.015625 
L 29.109375 43.015625 
Q 36.375 43.015625 40.234375 45.921875 
Q 44.09375 48.828125 44.09375 54.296875 
Q 44.09375 59.90625 40.109375 62.90625 
Q 36.140625 65.921875 28.71875 65.921875 
Q 24.65625 65.921875 20.015625 65.03125 
Q 15.375 64.15625 9.8125 62.3125 
L 9.8125 71.09375 
Q 15.4375 72.65625 20.34375 73.4375 
Q 25.25 74.21875 29.59375 74.21875 
Q 40.828125 74.21875 47.359375 69.109375 
Q 53.90625 64.015625 53.90625 55.328125 
Q 53.90625 49.265625 50.4375 45.09375 
Q 46.96875 40.921875 40.578125 39.3125 
z
" id="DejaVuSans-51"/>
       </defs>
       <use xlink:href="#DejaVuSans-82"/>
       <use x="64.982422" xlink:href="#DejaVuSans-101"/>
       <use x="126.505859" xlink:href="#DejaVuSans-97"/>
       <use x="187.785156" xlink:href="#DejaVuSans-100"/>
       <use x="251.261719" xlink:href="#DejaVuSans-32"/>
       <use x="283.048828" xlink:href="#DejaVuSans-51"/>
      </g>
     </g>
    </g>
    <g id="xtick_6">
     <g id="line2d_6">
      <g>
       <use style="stroke:#000000;stroke-width:0.8;" x="334.476818" xlink:href="#mcd7a9791a3" y="191.7"/>
      </g>
     </g>
     <g id="text_6">
      <!-- Write 3 -->
      <g transform="translate(318.303536 205.538594)scale(0.09 -0.09)">
       <use xlink:href="#DejaVuSans-87"/>
       <use x="94.376953" xlink:href="#DejaVuSans-114"/>
       <use x="135.490234" xlink:href="#DejaVuSans-105"/>
       <use x="163.273438" xlink:href="#DejaVuSans-116"/>
       <use x="202.482422" xlink:href="#DejaVuSans-101"/>
       <use x="264.005859" xlink:href="#DejaVuSans-32"/>
       <use x="295.792969" xlink:href="#DejaVuSans-51"/>
      </g>
     </g>
    </g>
   </g>
   <g id="matplotlib.axis_2">
    <g id="ytick_1">
     <g id="line2d_7">
      <defs>
       <path d="M 0 0 
L -3.5 0 
" id="ma0984772e8" style="stroke:#000000;stroke-width:0.8;"/>
      </defs>
      <g>
       <use style="stroke:#000000;stroke-width:0.8;" x="44.089062" xlink:href="#ma0984772e8" y="191.7"/>
      </g>
     </g>
     <g id="text_7">
      <!-- 0 -->
      <g transform="translate(31.362812 195.119297)scale(0.09 -0.09)">
       <defs>
        <path d="M 31.78125 66.40625 
Q 24.171875 66.40625 20.328125 58.90625 
Q 16.5 51.421875 16.5 36.375 
Q 16.5 21.390625 20.328125 13.890625 
Q 24.171875 6.390625 31.78125 6.390625 
Q 39.453125 6.390625 43.28125 13.890625 
Q 47.125 21.390625 47.125 36.375 
Q 47.125 51.421875 43.28125 58.90625 
Q 39.453125 66.40625 31.78125 66.40625 
z
M 31.78125 74.21875 
Q 44.046875 74.21875 50.515625 64.515625 
Q 56.984375 54.828125 56.984375 36.375 
Q 56.984375 17.96875 50.515625 8.265625 
Q 44.046875 -1.421875 31.78125 -1.421875 
Q 19.53125 -1.421875 13.0625 8.265625 
Q 6.59375 17.96875 6.59375 36.375 
Q 6.59375 54.828125 13.0625 64.515625 
Q 19.53125 74.21875 31.78125 74.21875 
z
" id="DejaVuSans-48"/>
       </defs>
       <use xlink:href="#DejaVuSans-48"/>
      </g>
     </g>
    </g>
    <g id="ytick_2">
     <g id="line2d_8">
      <g>
       <use style="stroke:#000000;stroke-width:0.8;" x="44.089062" xlink:href="#ma0984772e8" y="170.1"/>
      </g>
     </g>
     <g id="text_8">
      <!-- 100 -->
      <g transform="translate(19.910312 173.519297)scale(0.09 -0.09)">
       <use xlink:href="#DejaVuSans-49"/>
       <use x="63.623047" xlink:href="#DejaVuSans-48"/>
       <use x="127.246094" xlink:href="#DejaVuSans-48"/>
      </g>
     </g>
    </g>
    <g id="ytick_3">
     <g id="line2d_9">
      <g>
       <use style="stroke:#000000;stroke-width:0.8;" x="44.089062" xlink:href="#ma0984772e8" y="148.5"/>
      </g>
     </g>
     <g id="text_9">
      <!-- 200 -->
      <g transform="translate(19.910312 151.919297)scale(0.09 -0.09)">
       <use xlink:href="#DejaVuSans-50"/>
       <use x="63.623047" xlink:href="#DejaVuSans-48"/>
       <use x="127.246094" xlink:href="#DejaVuSans-48"/>
      </g>
     </g>
    </g>
    <g id="ytick_4">
     <g id="line2d_10">
      <g>
       <use style="stroke:#000000;stroke-width:0.8;" x="44.089062" xlink:href="#ma0984772e8" y="126.9"/>
      </g>
     </g>
     <g id="text_10">
      <!-- 300 -->
      <g transform="translate(19.910312 130.319297)scale(0.09 -0.09)">
       <use xlink:href="#DejaVuSans-51"/>
       <use x="63.623047" xlink:href="#DejaVuSans-48"/>
       <use x="127.246094" xlink:href="#DejaVuSans-48"/>
      </g>
     </g>
    </g>
    <g id="ytick_5">
     <g id="line2d_11">
      <g>
       <use style="stroke:#000000;stroke-width:0.8;" x="44.089062" xlink:href="#ma0984772e8" y="105.3"/>
      </g>
     </g>
     <g id="text_11">
      <!-- 400 -->
      <g transform="translate(19.910312 108.719297)scale(0.09 -0.09)">
       <defs>
        <path d="M 37.796875 64.3125 
L 12.890625 25.390625 
L 37.796875 25.390625 
z
M 35.203125 72.90625 
L 47.609375 72.90625 
L 47.609375 25.390625 
L 58.015625 25.390625 
L 58.015625 17.1875 
L 47.609375 17.1875 
L 47.609375 0 
L 37.796875 0 
L 37.796875 17.1875 
L 4.890625 17.1875 
L 4.890625 26.703125 
z
" id="DejaVuSans-52"/>
       </defs>
       <use xlink:href="#DejaVuSans-52"/>
       <use x="63.623047" xlink:href="#DejaVuSans-48"/>
       <use x="127.246094" xlink:href="#DejaVuSans-48"/>
      </g>
     </g>
    </g>
    <g id="ytick_6">
     <g id="line2d_12">
      <g>
       <use style="stroke:#000000;stroke-width:0.8;" x="44.089062" xlink:href="#ma0984772e8" y="83.7"/>
      </g>
     </g>
     <g id="text_12">
      <!-- 500 -->
      <g transform="translate(19.910312 87.119297)scale(0.09 -0.09)">
       <defs>
        <path d="M 10.796875 72.90625 
L 49.515625 72.90625 
L 49.515625 64.59375 
L 19.828125 64.59375 
L 19.828125 46.734375 
Q 21.96875 47.46875 24.109375 47.828125 
Q 26.265625 48.1875 28.421875 48.1875 
Q 40.625 48.1875 47.75 41.5 
Q 54.890625 34.8125 54.890625 23.390625 
Q 54.890625 11.625 47.5625 5.09375 
Q 40.234375 -1.421875 26.90625 -1.421875 
Q 22.3125 -1.421875 17.546875 -0.640625 
Q 12.796875 0.140625 7.71875 1.703125 
L 7.71875 11.625 
Q 12.109375 9.234375 16.796875 8.0625 
Q 21.484375 6.890625 26.703125 6.890625 
Q 35.15625 6.890625 40.078125 11.328125 
Q 45.015625 15.765625 45.015625 23.390625 
Q 45.015625 31 40.078125 35.4375 
Q 35.15625 39.890625 26.703125 39.890625 
Q 22.75 39.890625 18.8125 39.015625 
Q 14.890625 38.140625 10.796875 36.28125 
z
" id="DejaVuSans-53"/>
       </defs>
       <use xlink:href="#DejaVuSans-53"/>
       <use x="63.623047" xlink:href="#DejaVuSans-48"/>
       <use x="127.246094" xlink:href="#DejaVuSans-48"/>
      </g>
     </g>
    </g>
    <g id="ytick_7">
     <g id="line2d_13">
      <g>
       <use style="stroke:#000000;stroke-width:0.8;" x="44.089062" xlink:href="#ma0984772e8" y="62.1"/>
      </g>
     </g>
     <g id="text_13">
      <!-- 600 -->
      <g transform="translate(19.910312 65.519297)scale(0.09 -0.09)">
       <defs>
        <path d="M 33.015625 40.375 
Q 26.375 40.375 22.484375 35.828125 
Q 18.609375 31.296875 18.609375 23.390625 
Q 18.609375 15.53125 22.484375 10.953125 
Q 26.375 6.390625 33.015625 6.390625 
Q 39.65625 6.390625 43.53125 10.953125 
Q 47.40625 15.53125 47.40625 23.390625 
Q 47.40625 31.296875 43.53125 35.828125 
Q 39.65625 40.375 33.015625 40.375 
z
M 52.59375 71.296875 
L 52.59375 62.3125 
Q 48.875 64.0625 45.09375 64.984375 
Q 41.3125 65.921875 37.59375 65.921875 
Q 27.828125 65.921875 22.671875 59.328125 
Q 17.53125 52.734375 16.796875 39.40625 
Q 19.671875 43.65625 24.015625 45.921875 
Q 28.375 48.1875 33.59375 48.1875 
Q 44.578125 48.1875 50.953125 41.515625 
Q 57.328125 34.859375 57.328125 23.390625 
Q 57.328125 12.15625 50.6875 5.359375 
Q 44.046875 -1.421875 33.015625 -1.421875 
Q 20.359375 -1.421875 13.671875 8.265625 
Q 6.984375 17.96875 6.984375 36.375 
Q 6.984375 53.65625 15.1875 63.9375 
Q 23.390625 74.21875 37.203125 74.21875 
Q 40.921875 74.21875 44.703125 73.484375 
Q 48.484375 72.75 52.59375 71.296875 
z
" id="DejaVuSans-54"/>
       </defs>
       <use xlink:href="#DejaVuSans-54"/>
       <use x="63.623047" xlink:href="#DejaVuSans-48"/>
       <use x="127.246094" xlink:href="#DejaVuSans-48"/>
      </g>
     </g>
    </g>
    <g id="ytick_8">
     <g id="line2d_14">
      <g>
       <use style="stroke:#000000;stroke-width:0.8;" x="44.089062" xlink:href="#ma0984772e8" y="40.5"/>
      </g>
     </g>
     <g id="text_14">
      <!-- 700 -->
      <g transform="translate(19.910312 43.919297)scale(0.09 -0.09)">
       <defs>
        <path d="M 8.203125 72.90625 
L 55.078125 72.90625 
L 55.078125 68.703125 
L 28.609375 0 
L 18.3125 0 
L 43.21875 64.59375 
L 8.203125 64.59375 
z
" id="DejaVuSans-55"/>
       </defs>
       <use xlink:href="#DejaVuSans-55"/>
       <use x="63.623047" xlink:href="#DejaVuSans-48"/>
       <use x="127.246094" xlink:href="#DejaVuSans-48"/>
      </g>
     </g>
    </g>
    <g id="text_15">
     <!-- error (%) -->
     <g transform="translate(14.038594 136.209375)rotate(-90)scale(0.09 -0.09)">
      <defs>
       <path d="M 30.609375 48.390625 
Q 23.390625 48.390625 19.1875 42.75 
Q 14.984375 37.109375 14.984375 27.296875 
Q 14.984375 17.484375 19.15625 11.84375 
Q 23.34375 6.203125 30.609375 6.203125 
Q 37.796875 6.203125 41.984375 11.859375 
Q 46.1875 17.53125 46.1875 27.296875 
Q 46.1875 37.015625 41.984375 42.703125 
Q 37.796875 48.390625 30.609375 48.390625 
z
M 30.609375 56 
Q 42.328125 56 49.015625 48.375 
Q 55.71875 40.765625 55.71875 27.296875 
Q 55.71875 13.875 49.015625 6.21875 
Q 42.328125 -1.421875 30.609375 -1.421875 
Q 18.84375 -1.421875 12.171875 6.21875 
Q 5.515625 13.875 5.515625 27.296875 
Q 5.515625 40.765625 12.171875 48.375 
Q 18.84375 56 30.609375 56 
z
" id="DejaVuSans-111"/>
       <path d="M 31 75.875 
Q 24.46875 64.65625 21.28125 53.65625 
Q 18.109375 42.671875 18.109375 31.390625 
Q 18.109375 20.125 21.3125 9.0625 
Q 24.515625 -2 31 -13.1875 
L 23.1875 -13.1875 
Q 15.875 -1.703125 12.234375 9.375 
Q 8.59375 20.453125 8.59375 31.390625 
Q 8.59375 42.28125 12.203125 53.3125 
Q 15.828125 64.359375 23.1875 75.875 
z
" id="DejaVuSans-40"/>
       <path d="M 72.703125 32.078125 
Q 68.453125 32.078125 66.03125 28.46875 
Q 63.625 24.859375 63.625 18.40625 
Q 63.625 12.0625 66.03125 8.421875 
Q 68.453125 4.78125 72.703125 4.78125 
Q 76.859375 4.78125 79.265625 8.421875 
Q 81.6875 12.0625 81.6875 18.40625 
Q 81.6875 24.8125 79.265625 28.4375 
Q 76.859375 32.078125 72.703125 32.078125 
z
M 72.703125 38.28125 
Q 80.421875 38.28125 84.953125 32.90625 
Q 89.5 27.546875 89.5 18.40625 
Q 89.5 9.28125 84.9375 3.921875 
Q 80.375 -1.421875 72.703125 -1.421875 
Q 64.890625 -1.421875 60.34375 3.921875 
Q 55.8125 9.28125 55.8125 18.40625 
Q 55.8125 27.59375 60.375 32.9375 
Q 64.9375 38.28125 72.703125 38.28125 
z
M 22.3125 68.015625 
Q 18.109375 68.015625 15.6875 64.375 
Q 13.28125 60.75 13.28125 54.390625 
Q 13.28125 47.953125 15.671875 44.328125 
Q 18.0625 40.71875 22.3125 40.71875 
Q 26.5625 40.71875 28.96875 44.328125 
Q 31.390625 47.953125 31.390625 54.390625 
Q 31.390625 60.6875 28.953125 64.34375 
Q 26.515625 68.015625 22.3125 68.015625 
z
M 66.40625 74.21875 
L 74.21875 74.21875 
L 28.609375 -1.421875 
L 20.796875 -1.421875 
z
M 22.3125 74.21875 
Q 30.03125 74.21875 34.609375 68.875 
Q 39.203125 63.53125 39.203125 54.390625 
Q 39.203125 45.171875 34.640625 39.84375 
Q 30.078125 34.515625 22.3125 34.515625 
Q 14.546875 34.515625 10.03125 39.859375 
Q 5.515625 45.21875 5.515625 54.390625 
Q 5.515625 63.484375 10.046875 68.84375 
Q 14.59375 74.21875 22.3125 74.21875 
z
" id="DejaVuSans-37"/>
       <path d="M 8.015625 75.875 
L 15.828125 75.875 
Q 23.140625 64.359375 26.78125 53.3125 
Q 30.421875 42.28125 30.421875 31.390625 
Q 30.421875 20.453125 26.78125 9.375 
Q 23.140625 -1.703125 15.828125 -13.1875 
L 8.015625 -13.1875 
Q 14.5 -2 17.703125 9.0625 
Q 20.90625 20.125 20.90625 31.390625 
Q 20.90625 42.671875 17.703125 53.65625 
Q 14.5 64.65625 8.015625 75.875 
z
" id="DejaVuSans-41"/>
      </defs>
      <use xlink:href="#DejaVuSans-101"/>
      <use x="61.523438" xlink:href="#DejaVuSans-114"/>
      <use x="100.886719" xlink:href="#DejaVuSans-114"/>
      <use x="139.75" xlink:href="#DejaVuSans-111"/>
      <use x="200.931641" xlink:href="#DejaVuSans-114"/>
      <use x="242.044922" xlink:href="#DejaVuSans-32"/>
      <use x="273.832031" xlink:href="#DejaVuSans-40"/>
      <use x="312.845703" xlink:href="#DejaVuSans-37"/>
      <use x="407.865234" xlink:href="#DejaVuSans-41"/>
     </g>
    </g>
   </g>
   <g id="patch_21">
    <path d="M 44.089062 191.7 
L 44.089062 40.5 
" style="fill:none;stroke:#000000;stroke-linecap:square;stroke-linejoin:miter;stroke-width:0.8;"/>
   </g>
   <g id="patch_22">
    <path d="M 364.660491 191.7 
L 364.660491 40.5 
" style="fill:none;stroke:#000000;stroke-linecap:square;stroke-linejoin:miter;stroke-width:0.8;"/>
   </g>
   <g id="patch_23">
    <path d="M 44.089062 191.7 
L 364.660491 191.7 
" style="fill:none;stroke:#000000;stroke-linecap:square;stroke-linejoin:miter;stroke-width:0.8;"/>
   </g>
   <g id="patch_24">
    <path d="M 44.089062 40.5 
L 364.660491 40.5 
" style="fill:none;stroke:#000000;stroke-linecap:square;stroke-linejoin:miter;stroke-width:0.8;"/>
   </g>
   <g id="text_16">
    <!-- 20 GB -->
    <g transform="translate(187.898027 34.5)scale(0.108 -0.108)">
     <defs>
      <path d="M 59.515625 10.40625 
L 59.515625 29.984375 
L 43.40625 29.984375 
L 43.40625 38.09375 
L 69.28125 38.09375 
L 69.28125 6.78125 
Q 63.578125 2.734375 56.6875 0.65625 
Q 49.8125 -1.421875 42 -1.421875 
Q 24.90625 -1.421875 15.25 8.5625 
Q 5.609375 18.5625 5.609375 36.375 
Q 5.609375 54.25 15.25 64.234375 
Q 24.90625 74.21875 42 74.21875 
Q 49.125 74.21875 55.546875 72.453125 
Q 61.96875 70.703125 67.390625 67.28125 
L 67.390625 56.78125 
Q 61.921875 61.421875 55.765625 63.765625 
Q 49.609375 66.109375 42.828125 66.109375 
Q 29.4375 66.109375 22.71875 58.640625 
Q 16.015625 51.171875 16.015625 36.375 
Q 16.015625 21.625 22.71875 14.15625 
Q 29.4375 6.6875 42.828125 6.6875 
Q 48.046875 6.6875 52.140625 7.59375 
Q 56.25 8.5 59.515625 10.40625 
z
" id="DejaVuSans-71"/>
      <path d="M 19.671875 34.8125 
L 19.671875 8.109375 
L 35.5 8.109375 
Q 43.453125 8.109375 47.28125 11.40625 
Q 51.125 14.703125 51.125 21.484375 
Q 51.125 28.328125 47.28125 31.5625 
Q 43.453125 34.8125 35.5 34.8125 
z
M 19.671875 64.796875 
L 19.671875 42.828125 
L 34.28125 42.828125 
Q 41.5 42.828125 45.03125 45.53125 
Q 48.578125 48.25 48.578125 53.8125 
Q 48.578125 59.328125 45.03125 62.0625 
Q 41.5 64.796875 34.28125 64.796875 
z
M 9.8125 72.90625 
L 35.015625 72.90625 
Q 46.296875 72.90625 52.390625 68.21875 
Q 58.5 63.53125 58.5 54.890625 
Q 58.5 48.1875 55.375 44.234375 
Q 52.25 40.28125 46.1875 39.3125 
Q 53.46875 37.75 57.5 32.78125 
Q 61.53125 27.828125 61.53125 20.40625 
Q 61.53125 10.640625 54.890625 5.3125 
Q 48.25 0 35.984375 0 
L 9.8125 0 
z
" id="DejaVuSans-66"/>
     </defs>
     <use xlink:href="#DejaVuSans-50"/>
     <use x="63.623047" xlink:href="#DejaVuSans-48"/>
     <use x="127.246094" xlink:href="#DejaVuSans-32"/>
     <use x="159.033203" xlink:href="#DejaVuSans-71"/>
     <use x="236.523438" xlink:href="#DejaVuSans-66"/>
    </g>
   </g>
  </g>
  <g id="axes_2">
   <g id="patch_25">
    <path d="M 396.717634 191.7 
L 717.289062 191.7 
L 717.289062 40.5 
L 396.717634 40.5 
z
" style="fill:#ffffff;"/>
   </g>
   <g id="patch_26">
    <path clip-path="url(#p3adbb5f037)" d="M 411.289062 191.7 
L 421.697226 191.7 
L 421.697226 189.544323 
L 411.289062 189.544323 
z
" style="fill:#7bafde;"/>
   </g>
   <g id="patch_27">
    <path clip-path="url(#p3adbb5f037)" d="M 463.329879 191.7 
L 473.738042 191.7 
L 473.738042 186.85338 
L 463.329879 186.85338 
z
" style="fill:#7bafde;"/>
   </g>
   <g id="patch_28">
    <path clip-path="url(#p3adbb5f037)" d="M 515.370695 191.7 
L 525.778858 191.7 
L 525.778858 179.789753 
L 515.370695 179.789753 
z
" style="fill:#7bafde;"/>
   </g>
   <g id="patch_29">
    <path clip-path="url(#p3adbb5f037)" d="M 567.411511 191.7 
L 577.819675 191.7 
L 577.819675 186.552529 
L 567.411511 186.552529 
z
" style="fill:#7bafde;"/>
   </g>
   <g id="patch_30">
    <path clip-path="url(#p3adbb5f037)" d="M 619.452328 191.7 
L 629.860491 191.7 
L 629.860491 127.21768 
L 619.452328 127.21768 
z
" style="fill:#7bafde;"/>
   </g>
   <g id="patch_31">
    <path clip-path="url(#p3adbb5f037)" d="M 671.493144 191.7 
L 681.901307 191.7 
L 681.901307 186.657924 
L 671.493144 186.657924 
z
" style="fill:#7bafde;"/>
   </g>
   <g id="patch_32">
    <path clip-path="url(#p3adbb5f037)" d="M 421.697226 191.7 
L 432.105389 191.7 
L 432.105389 189.544323 
L 421.697226 189.544323 
z
" style="fill:#994f88;"/>
   </g>
   <g id="patch_33">
    <path clip-path="url(#p3adbb5f037)" d="M 473.738042 191.7 
L 484.146205 191.7 
L 484.146205 166.456778 
L 473.738042 166.456778 
z
" style="fill:#994f88;"/>
   </g>
   <g id="patch_34">
    <path clip-path="url(#p3adbb5f037)" d="M 525.778858 191.7 
L 536.187022 191.7 
L 536.187022 113.026686 
L 525.778858 113.026686 
z
" style="fill:#994f88;"/>
   </g>
   <g id="patch_35">
    <path clip-path="url(#p3adbb5f037)" d="M 577.819675 191.7 
L 588.227838 191.7 
L 588.227838 165.939057 
L 577.819675 165.939057 
z
" style="fill:#994f88;"/>
   </g>
   <g id="patch_36">
    <path clip-path="url(#p3adbb5f037)" d="M 629.860491 191.7 
L 640.268654 191.7 
L 640.268654 113.447006 
L 629.860491 113.447006 
z
" style="fill:#994f88;"/>
   </g>
   <g id="patch_37">
    <path clip-path="url(#p3adbb5f037)" d="M 681.901307 191.7 
L 692.309471 191.7 
L 692.309471 166.125676 
L 681.901307 166.125676 
z
" style="fill:#994f88;"/>
   </g>
   <g id="patch_38">
    <path clip-path="url(#p3adbb5f037)" d="M 432.105389 191.7 
L 442.513552 191.7 
L 442.513552 189.544323 
L 432.105389 189.544323 
z
" style="fill:#1965b0;"/>
   </g>
   <g id="patch_39">
    <path clip-path="url(#p3adbb5f037)" d="M 484.146205 191.7 
L 494.554369 191.7 
L 494.554369 186.287202 
L 484.146205 186.287202 
z
" style="fill:#1965b0;"/>
   </g>
   <g id="patch_40">
    <path clip-path="url(#p3adbb5f037)" d="M 536.187022 191.7 
L 546.595185 191.7 
L 546.595185 179.789753 
L 536.187022 179.789753 
z
" style="fill:#1965b0;"/>
   </g>
   <g id="patch_41">
    <path clip-path="url(#p3adbb5f037)" d="M 588.227838 191.7 
L 598.636001 191.7 
L 598.636001 185.950738 
L 588.227838 185.950738 
z
" style="fill:#1965b0;"/>
   </g>
   <g id="patch_42">
    <path clip-path="url(#p3adbb5f037)" d="M 640.268654 191.7 
L 650.676818 191.7 
L 650.676818 142.832671 
L 640.268654 142.832671 
z
" style="fill:#1965b0;"/>
   </g>
   <g id="patch_43">
    <path clip-path="url(#p3adbb5f037)" d="M 692.309471 191.7 
L 702.717634 191.7 
L 702.717634 186.079238 
L 692.309471 186.079238 
z
" style="fill:#1965b0;"/>
   </g>
   <g id="matplotlib.axis_3">
    <g id="xtick_7">
     <g id="line2d_15">
      <g>
       <use style="stroke:#000000;stroke-width:0.8;" x="426.901307" xlink:href="#mcd7a9791a3" y="191.7"/>
      </g>
     </g>
     <g id="text_17">
      <!-- Read 1 -->
      <g transform="translate(411.30037 205.538594)scale(0.09 -0.09)">
       <use xlink:href="#DejaVuSans-82"/>
       <use x="64.982422" xlink:href="#DejaVuSans-101"/>
       <use x="126.505859" xlink:href="#DejaVuSans-97"/>
       <use x="187.785156" xlink:href="#DejaVuSans-100"/>
       <use x="251.261719" xlink:href="#DejaVuSans-32"/>
       <use x="283.048828" xlink:href="#DejaVuSans-49"/>
      </g>
     </g>
    </g>
    <g id="xtick_8">
     <g id="line2d_16">
      <g>
       <use style="stroke:#000000;stroke-width:0.8;" x="478.942124" xlink:href="#mcd7a9791a3" y="191.7"/>
      </g>
     </g>
     <g id="text_18">
      <!-- Write 1 -->
      <g transform="translate(462.768842 205.538594)scale(0.09 -0.09)">
       <use xlink:href="#DejaVuSans-87"/>
       <use x="94.376953" xlink:href="#DejaVuSans-114"/>
       <use x="135.490234" xlink:href="#DejaVuSans-105"/>
       <use x="163.273438" xlink:href="#DejaVuSans-116"/>
       <use x="202.482422" xlink:href="#DejaVuSans-101"/>
       <use x="264.005859" xlink:href="#DejaVuSans-32"/>
       <use x="295.792969" xlink:href="#DejaVuSans-49"/>
      </g>
     </g>
    </g>
    <g id="xtick_9">
     <g id="line2d_17">
      <g>
       <use style="stroke:#000000;stroke-width:0.8;" x="530.98294" xlink:href="#mcd7a9791a3" y="191.7"/>
      </g>
     </g>
     <g id="text_19">
      <!-- Read 2 -->
      <g transform="translate(515.382003 205.538594)scale(0.09 -0.09)">
       <use xlink:href="#DejaVuSans-82"/>
       <use x="64.982422" xlink:href="#DejaVuSans-101"/>
       <use x="126.505859" xlink:href="#DejaVuSans-97"/>
       <use x="187.785156" xlink:href="#DejaVuSans-100"/>
       <use x="251.261719" xlink:href="#DejaVuSans-32"/>
       <use x="283.048828" xlink:href="#DejaVuSans-50"/>
      </g>
     </g>
    </g>
    <g id="xtick_10">
     <g id="line2d_18">
      <g>
       <use style="stroke:#000000;stroke-width:0.8;" x="583.023756" xlink:href="#mcd7a9791a3" y="191.7"/>
      </g>
     </g>
     <g id="text_20">
      <!-- Write 2 -->
      <g transform="translate(566.850475 205.538594)scale(0.09 -0.09)">
       <use xlink:href="#DejaVuSans-87"/>
       <use x="94.376953" xlink:href="#DejaVuSans-114"/>
       <use x="135.490234" xlink:href="#DejaVuSans-105"/>
       <use x="163.273438" xlink:href="#DejaVuSans-116"/>
       <use x="202.482422" xlink:href="#DejaVuSans-101"/>
       <use x="264.005859" xlink:href="#DejaVuSans-32"/>
       <use x="295.792969" xlink:href="#DejaVuSans-50"/>
      </g>
     </g>
    </g>
    <g id="xtick_11">
     <g id="line2d_19">
      <g>
       <use style="stroke:#000000;stroke-width:0.8;" x="635.064573" xlink:href="#mcd7a9791a3" y="191.7"/>
      </g>
     </g>
     <g id="text_21">
      <!-- Read 3 -->
      <g transform="translate(619.463635 205.538594)scale(0.09 -0.09)">
       <use xlink:href="#DejaVuSans-82"/>
       <use x="64.982422" xlink:href="#DejaVuSans-101"/>
       <use x="126.505859" xlink:href="#DejaVuSans-97"/>
       <use x="187.785156" xlink:href="#DejaVuSans-100"/>
       <use x="251.261719" xlink:href="#DejaVuSans-32"/>
       <use x="283.048828" xlink:href="#DejaVuSans-51"/>
      </g>
     </g>
    </g>
    <g id="xtick_12">
     <g id="line2d_20">
      <g>
       <use style="stroke:#000000;stroke-width:0.8;" x="687.105389" xlink:href="#mcd7a9791a3" y="191.7"/>
      </g>
     </g>
     <g id="text_22">
      <!-- Write 3 -->
      <g transform="translate(670.932108 205.538594)scale(0.09 -0.09)">
       <use xlink:href="#DejaVuSans-87"/>
       <use x="94.376953" xlink:href="#DejaVuSans-114"/>
       <use x="135.490234" xlink:href="#DejaVuSans-105"/>
       <use x="163.273438" xlink:href="#DejaVuSans-116"/>
       <use x="202.482422" xlink:href="#DejaVuSans-101"/>
       <use x="264.005859" xlink:href="#DejaVuSans-32"/>
       <use x="295.792969" xlink:href="#DejaVuSans-51"/>
      </g>
     </g>
    </g>
   </g>
   <g id="matplotlib.axis_4">
    <g id="ytick_9">
     <g id="line2d_21">
      <g>
       <use style="stroke:#000000;stroke-width:0.8;" x="396.717634" xlink:href="#ma0984772e8" y="191.7"/>
      </g>
     </g>
     <g id="text_23">
      <!-- 0 -->
      <g transform="translate(383.991384 195.119297)scale(0.09 -0.09)">
       <use xlink:href="#DejaVuSans-48"/>
      </g>
     </g>
    </g>
    <g id="ytick_10">
     <g id="line2d_22">
      <g>
       <use style="stroke:#000000;stroke-width:0.8;" x="396.717634" xlink:href="#ma0984772e8" y="170.1"/>
      </g>
     </g>
     <g id="text_24">
      <!-- 100 -->
      <g transform="translate(372.538884 173.519297)scale(0.09 -0.09)">
       <use xlink:href="#DejaVuSans-49"/>
       <use x="63.623047" xlink:href="#DejaVuSans-48"/>
       <use x="127.246094" xlink:href="#DejaVuSans-48"/>
      </g>
     </g>
    </g>
    <g id="ytick_11">
     <g id="line2d_23">
      <g>
       <use style="stroke:#000000;stroke-width:0.8;" x="396.717634" xlink:href="#ma0984772e8" y="148.5"/>
      </g>
     </g>
     <g id="text_25">
      <!-- 200 -->
      <g transform="translate(372.538884 151.919297)scale(0.09 -0.09)">
       <use xlink:href="#DejaVuSans-50"/>
       <use x="63.623047" xlink:href="#DejaVuSans-48"/>
       <use x="127.246094" xlink:href="#DejaVuSans-48"/>
      </g>
     </g>
    </g>
    <g id="ytick_12">
     <g id="line2d_24">
      <g>
       <use style="stroke:#000000;stroke-width:0.8;" x="396.717634" xlink:href="#ma0984772e8" y="126.9"/>
      </g>
     </g>
     <g id="text_26">
      <!-- 300 -->
      <g transform="translate(372.538884 130.319297)scale(0.09 -0.09)">
       <use xlink:href="#DejaVuSans-51"/>
       <use x="63.623047" xlink:href="#DejaVuSans-48"/>
       <use x="127.246094" xlink:href="#DejaVuSans-48"/>
      </g>
     </g>
    </g>
    <g id="ytick_13">
     <g id="line2d_25">
      <g>
       <use style="stroke:#000000;stroke-width:0.8;" x="396.717634" xlink:href="#ma0984772e8" y="105.3"/>
      </g>
     </g>
     <g id="text_27">
      <!-- 400 -->
      <g transform="translate(372.538884 108.719297)scale(0.09 -0.09)">
       <use xlink:href="#DejaVuSans-52"/>
       <use x="63.623047" xlink:href="#DejaVuSans-48"/>
       <use x="127.246094" xlink:href="#DejaVuSans-48"/>
      </g>
     </g>
    </g>
    <g id="ytick_14">
     <g id="line2d_26">
      <g>
       <use style="stroke:#000000;stroke-width:0.8;" x="396.717634" xlink:href="#ma0984772e8" y="83.7"/>
      </g>
     </g>
     <g id="text_28">
      <!-- 500 -->
      <g transform="translate(372.538884 87.119297)scale(0.09 -0.09)">
       <use xlink:href="#DejaVuSans-53"/>
       <use x="63.623047" xlink:href="#DejaVuSans-48"/>
       <use x="127.246094" xlink:href="#DejaVuSans-48"/>
      </g>
     </g>
    </g>
    <g id="ytick_15">
     <g id="line2d_27">
      <g>
       <use style="stroke:#000000;stroke-width:0.8;" x="396.717634" xlink:href="#ma0984772e8" y="62.1"/>
      </g>
     </g>
     <g id="text_29">
      <!-- 600 -->
      <g transform="translate(372.538884 65.519297)scale(0.09 -0.09)">
       <use xlink:href="#DejaVuSans-54"/>
       <use x="63.623047" xlink:href="#DejaVuSans-48"/>
       <use x="127.246094" xlink:href="#DejaVuSans-48"/>
      </g>
     </g>
    </g>
    <g id="ytick_16">
     <g id="line2d_28">
      <g>
       <use style="stroke:#000000;stroke-width:0.8;" x="396.717634" xlink:href="#ma0984772e8" y="40.5"/>
      </g>
     </g>
     <g id="text_30">
      <!-- 700 -->
      <g transform="translate(372.538884 43.919297)scale(0.09 -0.09)">
       <use xlink:href="#DejaVuSans-55"/>
       <use x="63.623047" xlink:href="#DejaVuSans-48"/>
       <use x="127.246094" xlink:href="#DejaVuSans-48"/>
      </g>
     </g>
    </g>
   </g>
   <g id="patch_44">
    <path d="M 396.717634 191.7 
L 396.717634 40.5 
" style="fill:none;stroke:#000000;stroke-linecap:square;stroke-linejoin:miter;stroke-width:0.8;"/>
   </g>
   <g id="patch_45">
    <path d="M 717.289062 191.7 
L 717.289062 40.5 
" style="fill:none;stroke:#000000;stroke-linecap:square;stroke-linejoin:miter;stroke-width:0.8;"/>
   </g>
   <g id="patch_46">
    <path d="M 396.717634 191.7 
L 717.289062 191.7 
" style="fill:none;stroke:#000000;stroke-linecap:square;stroke-linejoin:miter;stroke-width:0.8;"/>
   </g>
   <g id="patch_47">
    <path d="M 396.717634 40.5 
L 717.289062 40.5 
" style="fill:none;stroke:#000000;stroke-linecap:square;stroke-linejoin:miter;stroke-width:0.8;"/>
   </g>
   <g id="text_31">
    <!-- 100 GB -->
    <g transform="translate(537.090848 34.5)scale(0.108 -0.108)">
     <use xlink:href="#DejaVuSans-49"/>
     <use x="63.623047" xlink:href="#DejaVuSans-48"/>
     <use x="127.246094" xlink:href="#DejaVuSans-48"/>
     <use x="190.869141" xlink:href="#DejaVuSans-32"/>
     <use x="222.65625" xlink:href="#DejaVuSans-71"/>
     <use x="300.146484" xlink:href="#DejaVuSans-66"/>
    </g>
   </g>
   <g id="legend_1">
    <g id="patch_48">
     <path d="M 206.115312 23.110312 
L 510.382812 23.110312 
Q 512.182812 23.110312 512.182812 21.310312 
L 512.182812 9 
Q 512.182812 7.2 510.382812 7.2 
L 206.115312 7.2 
Q 204.315312 7.2 204.315312 9 
L 204.315312 21.310312 
Q 204.315312 23.110312 206.115312 23.110312 
z
" style="fill:#ffffff;opacity:0.8;stroke:#cccccc;stroke-linejoin:miter;"/>
    </g>
    <g id="patch_49">
     <path d="M 207.915312 17.638594 
L 225.915312 17.638594 
L 225.915312 11.338594 
L 207.915312 11.338594 
z
" style="fill:#7bafde;"/>
    </g>
    <g id="text_32">
     <!-- Python prototype -->
     <g transform="translate(233.115312 17.638594)scale(0.09 -0.09)">
      <defs>
       <path d="M 19.671875 64.796875 
L 19.671875 37.40625 
L 32.078125 37.40625 
Q 38.96875 37.40625 42.71875 40.96875 
Q 46.484375 44.53125 46.484375 51.125 
Q 46.484375 57.671875 42.71875 61.234375 
Q 38.96875 64.796875 32.078125 64.796875 
z
M 9.8125 72.90625 
L 32.078125 72.90625 
Q 44.34375 72.90625 50.609375 67.359375 
Q 56.890625 61.8125 56.890625 51.125 
Q 56.890625 40.328125 50.609375 34.8125 
Q 44.34375 29.296875 32.078125 29.296875 
L 19.671875 29.296875 
L 19.671875 0 
L 9.8125 0 
z
" id="DejaVuSans-80"/>
       <path d="M 32.171875 -5.078125 
Q 28.375 -14.84375 24.75 -17.8125 
Q 21.140625 -20.796875 15.09375 -20.796875 
L 7.90625 -20.796875 
L 7.90625 -13.28125 
L 13.1875 -13.28125 
Q 16.890625 -13.28125 18.9375 -11.515625 
Q 21 -9.765625 23.484375 -3.21875 
L 25.09375 0.875 
L 2.984375 54.6875 
L 12.5 54.6875 
L 29.59375 11.921875 
L 46.6875 54.6875 
L 56.203125 54.6875 
z
" id="DejaVuSans-121"/>
       <path d="M 54.890625 33.015625 
L 54.890625 0 
L 45.90625 0 
L 45.90625 32.71875 
Q 45.90625 40.484375 42.875 44.328125 
Q 39.84375 48.1875 33.796875 48.1875 
Q 26.515625 48.1875 22.3125 43.546875 
Q 18.109375 38.921875 18.109375 30.90625 
L 18.109375 0 
L 9.078125 0 
L 9.078125 75.984375 
L 18.109375 75.984375 
L 18.109375 46.1875 
Q 21.34375 51.125 25.703125 53.5625 
Q 30.078125 56 35.796875 56 
Q 45.21875 56 50.046875 50.171875 
Q 54.890625 44.34375 54.890625 33.015625 
z
" id="DejaVuSans-104"/>
       <path d="M 54.890625 33.015625 
L 54.890625 0 
L 45.90625 0 
L 45.90625 32.71875 
Q 45.90625 40.484375 42.875 44.328125 
Q 39.84375 48.1875 33.796875 48.1875 
Q 26.515625 48.1875 22.3125 43.546875 
Q 18.109375 38.921875 18.109375 30.90625 
L 18.109375 0 
L 9.078125 0 
L 9.078125 54.6875 
L 18.109375 54.6875 
L 18.109375 46.1875 
Q 21.34375 51.125 25.703125 53.5625 
Q 30.078125 56 35.796875 56 
Q 45.21875 56 50.046875 50.171875 
Q 54.890625 44.34375 54.890625 33.015625 
z
" id="DejaVuSans-110"/>
       <path d="M 18.109375 8.203125 
L 18.109375 -20.796875 
L 9.078125 -20.796875 
L 9.078125 54.6875 
L 18.109375 54.6875 
L 18.109375 46.390625 
Q 20.953125 51.265625 25.265625 53.625 
Q 29.59375 56 35.59375 56 
Q 45.5625 56 51.78125 48.09375 
Q 58.015625 40.1875 58.015625 27.296875 
Q 58.015625 14.40625 51.78125 6.484375 
Q 45.5625 -1.421875 35.59375 -1.421875 
Q 29.59375 -1.421875 25.265625 0.953125 
Q 20.953125 3.328125 18.109375 8.203125 
z
M 48.6875 27.296875 
Q 48.6875 37.203125 44.609375 42.84375 
Q 40.53125 48.484375 33.40625 48.484375 
Q 26.265625 48.484375 22.1875 42.84375 
Q 18.109375 37.203125 18.109375 27.296875 
Q 18.109375 17.390625 22.1875 11.75 
Q 26.265625 6.109375 33.40625 6.109375 
Q 40.53125 6.109375 44.609375 11.75 
Q 48.6875 17.390625 48.6875 27.296875 
z
" id="DejaVuSans-112"/>
      </defs>
      <use xlink:href="#DejaVuSans-80"/>
      <use x="60.302734" xlink:href="#DejaVuSans-121"/>
      <use x="119.482422" xlink:href="#DejaVuSans-116"/>
      <use x="158.691406" xlink:href="#DejaVuSans-104"/>
      <use x="222.070312" xlink:href="#DejaVuSans-111"/>
      <use x="283.251953" xlink:href="#DejaVuSans-110"/>
      <use x="346.630859" xlink:href="#DejaVuSans-32"/>
      <use x="378.417969" xlink:href="#DejaVuSans-112"/>
      <use x="441.894531" xlink:href="#DejaVuSans-114"/>
      <use x="480.757812" xlink:href="#DejaVuSans-111"/>
      <use x="541.939453" xlink:href="#DejaVuSans-116"/>
      <use x="581.148438" xlink:href="#DejaVuSans-111"/>
      <use x="642.330078" xlink:href="#DejaVuSans-116"/>
      <use x="681.539062" xlink:href="#DejaVuSans-121"/>
      <use x="740.71875" xlink:href="#DejaVuSans-112"/>
      <use x="804.195312" xlink:href="#DejaVuSans-101"/>
     </g>
    </g>
    <g id="patch_50">
     <path d="M 329.031406 17.638594 
L 347.031406 17.638594 
L 347.031406 11.338594 
L 329.031406 11.338594 
z
" style="fill:#994f88;"/>
    </g>
    <g id="text_33">
     <!-- WRENCH -->
     <g transform="translate(354.231406 17.638594)scale(0.09 -0.09)">
      <defs>
       <path d="M 9.8125 72.90625 
L 55.90625 72.90625 
L 55.90625 64.59375 
L 19.671875 64.59375 
L 19.671875 43.015625 
L 54.390625 43.015625 
L 54.390625 34.71875 
L 19.671875 34.71875 
L 19.671875 8.296875 
L 56.78125 8.296875 
L 56.78125 0 
L 9.8125 0 
z
" id="DejaVuSans-69"/>
       <path d="M 9.8125 72.90625 
L 23.09375 72.90625 
L 55.421875 11.921875 
L 55.421875 72.90625 
L 64.984375 72.90625 
L 64.984375 0 
L 51.703125 0 
L 19.390625 60.984375 
L 19.390625 0 
L 9.8125 0 
z
" id="DejaVuSans-78"/>
       <path d="M 64.40625 67.28125 
L 64.40625 56.890625 
Q 59.421875 61.53125 53.78125 63.8125 
Q 48.140625 66.109375 41.796875 66.109375 
Q 29.296875 66.109375 22.65625 58.46875 
Q 16.015625 50.828125 16.015625 36.375 
Q 16.015625 21.96875 22.65625 14.328125 
Q 29.296875 6.6875 41.796875 6.6875 
Q 48.140625 6.6875 53.78125 8.984375 
Q 59.421875 11.28125 64.40625 15.921875 
L 64.40625 5.609375 
Q 59.234375 2.09375 53.4375 0.328125 
Q 47.65625 -1.421875 41.21875 -1.421875 
Q 24.65625 -1.421875 15.125 8.703125 
Q 5.609375 18.84375 5.609375 36.375 
Q 5.609375 53.953125 15.125 64.078125 
Q 24.65625 74.21875 41.21875 74.21875 
Q 47.75 74.21875 53.53125 72.484375 
Q 59.328125 70.75 64.40625 67.28125 
z
" id="DejaVuSans-67"/>
       <path d="M 9.8125 72.90625 
L 19.671875 72.90625 
L 19.671875 43.015625 
L 55.515625 43.015625 
L 55.515625 72.90625 
L 65.375 72.90625 
L 65.375 0 
L 55.515625 0 
L 55.515625 34.71875 
L 19.671875 34.71875 
L 19.671875 0 
L 9.8125 0 
z
" id="DejaVuSans-72"/>
      </defs>
      <use xlink:href="#DejaVuSans-87"/>
      <use x="98.876953" xlink:href="#DejaVuSans-82"/>
      <use x="168.359375" xlink:href="#DejaVuSans-69"/>
      <use x="231.542969" xlink:href="#DejaVuSans-78"/>
      <use x="306.347656" xlink:href="#DejaVuSans-67"/>
      <use x="376.171875" xlink:href="#DejaVuSans-72"/>
     </g>
    </g>
    <g id="patch_51">
     <path d="M 412.856562 17.638594 
L 430.856562 17.638594 
L 430.856562 11.338594 
L 412.856562 11.338594 
z
" style="fill:#1965b0;"/>
    </g>
    <g id="text_34">
     <!-- WRENCH-cache -->
     <g transform="translate(438.056562 17.638594)scale(0.09 -0.09)">
      <defs>
       <path d="M 4.890625 31.390625 
L 31.203125 31.390625 
L 31.203125 23.390625 
L 4.890625 23.390625 
z
" id="DejaVuSans-45"/>
       <path d="M 48.78125 52.59375 
L 48.78125 44.1875 
Q 44.96875 46.296875 41.140625 47.34375 
Q 37.3125 48.390625 33.40625 48.390625 
Q 24.65625 48.390625 19.8125 42.84375 
Q 14.984375 37.3125 14.984375 27.296875 
Q 14.984375 17.28125 19.8125 11.734375 
Q 24.65625 6.203125 33.40625 6.203125 
Q 37.3125 6.203125 41.140625 7.25 
Q 44.96875 8.296875 48.78125 10.40625 
L 48.78125 2.09375 
Q 45.015625 0.34375 40.984375 -0.53125 
Q 36.96875 -1.421875 32.421875 -1.421875 
Q 20.0625 -1.421875 12.78125 6.34375 
Q 5.515625 14.109375 5.515625 27.296875 
Q 5.515625 40.671875 12.859375 48.328125 
Q 20.21875 56 33.015625 56 
Q 37.15625 56 41.109375 55.140625 
Q 45.0625 54.296875 48.78125 52.59375 
z
" id="DejaVuSans-99"/>
      </defs>
      <use xlink:href="#DejaVuSans-87"/>
      <use x="98.876953" xlink:href="#DejaVuSans-82"/>
      <use x="168.359375" xlink:href="#DejaVuSans-69"/>
      <use x="231.542969" xlink:href="#DejaVuSans-78"/>
      <use x="306.347656" xlink:href="#DejaVuSans-67"/>
      <use x="376.171875" xlink:href="#DejaVuSans-72"/>
      <use x="451.367188" xlink:href="#DejaVuSans-45"/>
      <use x="487.451172" xlink:href="#DejaVuSans-99"/>
      <use x="542.431641" xlink:href="#DejaVuSans-97"/>
      <use x="603.710938" xlink:href="#DejaVuSans-99"/>
      <use x="658.691406" xlink:href="#DejaVuSans-104"/>
      <use x="722.070312" xlink:href="#DejaVuSans-101"/>
     </g>
    </g>
   </g>
  </g>
 </g>
 <defs>
  <clipPath id="pd1f23626a9">
   <rect height="151.2" width="320.571429" x="44.089062" y="40.5"/>
  </clipPath>
  <clipPath id="p3adbb5f037">
   <rect height="151.2" width="320.571429" x="396.717634" y="40.5"/>
  </clipPath>
 </defs>
</svg>
