<?xml version="1.0" encoding="utf-8" standalone="no"?>
<!DOCTYPE svg PUBLIC "-//W3C//DTD SVG 1.1//EN"
  "http://www.w3.org/Graphics/SVG/1.1/DTD/svg11.dtd">
<!-- Created with matplotlib (https://matplotlib.org/) -->
<svg height="576pt" version="1.1" viewBox="0 0 576 576" width="576pt" xmlns="http://www.w3.org/2000/svg" xmlns:xlink="http://www.w3.org/1999/xlink">
 <defs>
  <style type="text/css">
*{stroke-linecap:butt;stroke-linejoin:round;}
  </style>
 </defs>
 <g id="figure_1">
  <g id="patch_1">
   <path d="M 0 576 
L 576 576 
L 576 0 
L 0 0 
z
" style="fill:#ffffff;"/>
  </g>
  <g id="axes_1">
   <g id="patch_2">
    <path d="M 69.12 173.622857 
L 547.2 173.622857 
L 547.2 28.8 
L 69.12 28.8 
z
" style="fill:#ffffff;"/>
   </g>
   <g id="patch_3">
    <path clip-path="url(#p3aa4fc583b)" d="M 69.12 173.622857 
L 69.12 28.8 
L 156.759833 28.8 
L 156.759833 173.622857 
z
" style="opacity:0.1;stroke:#000000;stroke-linejoin:miter;"/>
   </g>
   <g id="patch_4">
    <path clip-path="url(#p3aa4fc583b)" d="M 156.759833 173.622857 
L 156.759833 28.8 
L 223.24343 28.8 
L 223.24343 173.622857 
z
" style="opacity:0.25;stroke:#000000;stroke-linejoin:miter;"/>
   </g>
   <g id="patch_5">
    <path clip-path="url(#p3aa4fc583b)" d="M 223.24343 173.622857 
L 223.24343 28.8 
L 246.02454 28.8 
L 246.02454 173.622857 
z
" style="opacity:0.4;stroke:#000000;stroke-linejoin:miter;"/>
   </g>
   <g id="patch_6">
    <path clip-path="url(#p3aa4fc583b)" d="M 246.231907 173.622857 
L 246.231907 28.8 
L 263.981822 28.8 
L 263.981822 173.622857 
z
" style="opacity:0.1;stroke:#000000;stroke-linejoin:miter;"/>
   </g>
   <g id="patch_7">
    <path clip-path="url(#p3aa4fc583b)" d="M 263.981822 173.622857 
L 263.981822 28.8 
L 332.055634 28.8 
L 332.055634 173.622857 
z
" style="opacity:0.25;stroke:#000000;stroke-linejoin:miter;"/>
   </g>
   <g id="patch_8">
    <path clip-path="url(#p3aa4fc583b)" d="M 332.055634 173.622857 
L 332.055634 28.8 
L 355.40028 28.8 
L 355.40028 173.622857 
z
" style="opacity:0.4;stroke:#000000;stroke-linejoin:miter;"/>
   </g>
   <g id="patch_9">
    <path clip-path="url(#p3aa4fc583b)" d="M 355.835333 173.622857 
L 355.835333 28.8 
L 374.898175 28.8 
L 374.898175 173.622857 
z
" style="opacity:0.1;stroke:#000000;stroke-linejoin:miter;"/>
   </g>
   <g id="patch_10">
    <path clip-path="url(#p3aa4fc583b)" d="M 374.898175 173.622857 
L 374.898175 28.8 
L 442.940911 28.8 
L 442.940911 173.622857 
z
" style="opacity:0.25;stroke:#000000;stroke-linejoin:miter;"/>
   </g>
   <g id="patch_11">
    <path clip-path="url(#p3aa4fc583b)" d="M 442.940911 173.622857 
L 442.940911 28.8 
L 466.523402 28.8 
L 466.523402 173.622857 
z
" style="opacity:0.4;stroke:#000000;stroke-linejoin:miter;"/>
   </g>
   <g id="matplotlib.axis_1">
    <g id="xtick_1">
     <g id="line2d_1">
      <defs>
       <path d="M 0 0 
L 0 3.5 
" id="mc66b4e4773" style="stroke:#000000;stroke-width:0.8;"/>
      </defs>
      <g>
       <use style="stroke:#000000;stroke-width:0.8;" x="69.12" xlink:href="#mc66b4e4773" y="173.622857"/>
      </g>
     </g>
     <g id="text_1">
      <!-- 0 -->
      <defs>
       <path d="M 31.78125 66.40625 
Q 24.171875 66.40625 20.328125 58.90625 
Q 16.5 51.421875 16.5 36.375 
Q 16.5 21.390625 20.328125 13.890625 
Q 24.171875 6.390625 31.78125 6.390625 
Q 39.453125 6.390625 43.28125 13.890625 
Q 47.125 21.390625 47.125 36.375 
Q 47.125 51.421875 43.28125 58.90625 
Q 39.453125 66.40625 31.78125 66.40625 
z
M 31.78125 74.21875 
Q 44.046875 74.21875 50.515625 64.515625 
Q 56.984375 54.828125 56.984375 36.375 
Q 56.984375 17.96875 50.515625 8.265625 
Q 44.046875 -1.421875 31.78125 -1.421875 
Q 19.53125 -1.421875 13.0625 8.265625 
Q 6.59375 17.96875 6.59375 36.375 
Q 6.59375 54.828125 13.0625 64.515625 
Q 19.53125 74.21875 31.78125 74.21875 
z
" id="DejaVuSans-48"/>
      </defs>
      <g transform="translate(65.93875 188.221295)scale(0.1 -0.1)">
       <use xlink:href="#DejaVuSans-48"/>
      </g>
     </g>
    </g>
    <g id="xtick_2">
     <g id="line2d_2">
      <g>
       <use style="stroke:#000000;stroke-width:0.8;" x="128.88" xlink:href="#mc66b4e4773" y="173.622857"/>
      </g>
     </g>
     <g id="text_2">
      <!-- 100 -->
      <defs>
       <path d="M 12.40625 8.296875 
L 28.515625 8.296875 
L 28.515625 63.921875 
L 10.984375 60.40625 
L 10.984375 69.390625 
L 28.421875 72.90625 
L 38.28125 72.90625 
L 38.28125 8.296875 
L 54.390625 8.296875 
L 54.390625 0 
L 12.40625 0 
z
" id="DejaVuSans-49"/>
      </defs>
      <g transform="translate(119.33625 188.221295)scale(0.1 -0.1)">
       <use xlink:href="#DejaVuSans-49"/>
       <use x="63.623047" xlink:href="#DejaVuSans-48"/>
       <use x="127.246094" xlink:href="#DejaVuSans-48"/>
      </g>
     </g>
    </g>
    <g id="xtick_3">
     <g id="line2d_3">
      <g>
       <use style="stroke:#000000;stroke-width:0.8;" x="188.64" xlink:href="#mc66b4e4773" y="173.622857"/>
      </g>
     </g>
     <g id="text_3">
      <!-- 200 -->
      <defs>
       <path d="M 19.1875 8.296875 
L 53.609375 8.296875 
L 53.609375 0 
L 7.328125 0 
L 7.328125 8.296875 
Q 12.9375 14.109375 22.625 23.890625 
Q 32.328125 33.6875 34.8125 36.53125 
Q 39.546875 41.84375 41.421875 45.53125 
Q 43.3125 49.21875 43.3125 52.78125 
Q 43.3125 58.59375 39.234375 62.25 
Q 35.15625 65.921875 28.609375 65.921875 
Q 23.96875 65.921875 18.8125 64.3125 
Q 13.671875 62.703125 7.8125 59.421875 
L 7.8125 69.390625 
Q 13.765625 71.78125 18.9375 73 
Q 24.125 74.21875 28.421875 74.21875 
Q 39.75 74.21875 46.484375 68.546875 
Q 53.21875 62.890625 53.21875 53.421875 
Q 53.21875 48.921875 51.53125 44.890625 
Q 49.859375 40.875 45.40625 35.40625 
Q 44.1875 33.984375 37.640625 27.21875 
Q 31.109375 20.453125 19.1875 8.296875 
z
" id="DejaVuSans-50"/>
      </defs>
      <g transform="translate(179.09625 188.221295)scale(0.1 -0.1)">
       <use xlink:href="#DejaVuSans-50"/>
       <use x="63.623047" xlink:href="#DejaVuSans-48"/>
       <use x="127.246094" xlink:href="#DejaVuSans-48"/>
      </g>
     </g>
    </g>
    <g id="xtick_4">
     <g id="line2d_4">
      <g>
       <use style="stroke:#000000;stroke-width:0.8;" x="248.4" xlink:href="#mc66b4e4773" y="173.622857"/>
      </g>
     </g>
     <g id="text_4">
      <!-- 300 -->
      <defs>
       <path d="M 40.578125 39.3125 
Q 47.65625 37.796875 51.625 33 
Q 55.609375 28.21875 55.609375 21.1875 
Q 55.609375 10.40625 48.1875 4.484375 
Q 40.765625 -1.421875 27.09375 -1.421875 
Q 22.515625 -1.421875 17.65625 -0.515625 
Q 12.796875 0.390625 7.625 2.203125 
L 7.625 11.71875 
Q 11.71875 9.328125 16.59375 8.109375 
Q 21.484375 6.890625 26.8125 6.890625 
Q 36.078125 6.890625 40.9375 10.546875 
Q 45.796875 14.203125 45.796875 21.1875 
Q 45.796875 27.640625 41.28125 31.265625 
Q 36.765625 34.90625 28.71875 34.90625 
L 20.21875 34.90625 
L 20.21875 43.015625 
L 29.109375 43.015625 
Q 36.375 43.015625 40.234375 45.921875 
Q 44.09375 48.828125 44.09375 54.296875 
Q 44.09375 59.90625 40.109375 62.90625 
Q 36.140625 65.921875 28.71875 65.921875 
Q 24.65625 65.921875 20.015625 65.03125 
Q 15.375 64.15625 9.8125 62.3125 
L 9.8125 71.09375 
Q 15.4375 72.65625 20.34375 73.4375 
Q 25.25 74.21875 29.59375 74.21875 
Q 40.828125 74.21875 47.359375 69.109375 
Q 53.90625 64.015625 53.90625 55.328125 
Q 53.90625 49.265625 50.4375 45.09375 
Q 46.96875 40.921875 40.578125 39.3125 
z
" id="DejaVuSans-51"/>
      </defs>
      <g transform="translate(238.85625 188.221295)scale(0.1 -0.1)">
       <use xlink:href="#DejaVuSans-51"/>
       <use x="63.623047" xlink:href="#DejaVuSans-48"/>
       <use x="127.246094" xlink:href="#DejaVuSans-48"/>
      </g>
     </g>
    </g>
    <g id="xtick_5">
     <g id="line2d_5">
      <g>
       <use style="stroke:#000000;stroke-width:0.8;" x="308.16" xlink:href="#mc66b4e4773" y="173.622857"/>
      </g>
     </g>
     <g id="text_5">
      <!-- 400 -->
      <defs>
       <path d="M 37.796875 64.3125 
L 12.890625 25.390625 
L 37.796875 25.390625 
z
M 35.203125 72.90625 
L 47.609375 72.90625 
L 47.609375 25.390625 
L 58.015625 25.390625 
L 58.015625 17.1875 
L 47.609375 17.1875 
L 47.609375 0 
L 37.796875 0 
L 37.796875 17.1875 
L 4.890625 17.1875 
L 4.890625 26.703125 
z
" id="DejaVuSans-52"/>
      </defs>
      <g transform="translate(298.61625 188.221295)scale(0.1 -0.1)">
       <use xlink:href="#DejaVuSans-52"/>
       <use x="63.623047" xlink:href="#DejaVuSans-48"/>
       <use x="127.246094" xlink:href="#DejaVuSans-48"/>
      </g>
     </g>
    </g>
    <g id="xtick_6">
     <g id="line2d_6">
      <g>
       <use style="stroke:#000000;stroke-width:0.8;" x="367.92" xlink:href="#mc66b4e4773" y="173.622857"/>
      </g>
     </g>
     <g id="text_6">
      <!-- 500 -->
      <defs>
       <path d="M 10.796875 72.90625 
L 49.515625 72.90625 
L 49.515625 64.59375 
L 19.828125 64.59375 
L 19.828125 46.734375 
Q 21.96875 47.46875 24.109375 47.828125 
Q 26.265625 48.1875 28.421875 48.1875 
Q 40.625 48.1875 47.75 41.5 
Q 54.890625 34.8125 54.890625 23.390625 
Q 54.890625 11.625 47.5625 5.09375 
Q 40.234375 -1.421875 26.90625 -1.421875 
Q 22.3125 -1.421875 17.546875 -0.640625 
Q 12.796875 0.140625 7.71875 1.703125 
L 7.71875 11.625 
Q 12.109375 9.234375 16.796875 8.0625 
Q 21.484375 6.890625 26.703125 6.890625 
Q 35.15625 6.890625 40.078125 11.328125 
Q 45.015625 15.765625 45.015625 23.390625 
Q 45.015625 31 40.078125 35.4375 
Q 35.15625 39.890625 26.703125 39.890625 
Q 22.75 39.890625 18.8125 39.015625 
Q 14.890625 38.140625 10.796875 36.28125 
z
" id="DejaVuSans-53"/>
      </defs>
      <g transform="translate(358.37625 188.221295)scale(0.1 -0.1)">
       <use xlink:href="#DejaVuSans-53"/>
       <use x="63.623047" xlink:href="#DejaVuSans-48"/>
       <use x="127.246094" xlink:href="#DejaVuSans-48"/>
      </g>
     </g>
    </g>
    <g id="xtick_7">
     <g id="line2d_7">
      <g>
       <use style="stroke:#000000;stroke-width:0.8;" x="427.68" xlink:href="#mc66b4e4773" y="173.622857"/>
      </g>
     </g>
     <g id="text_7">
      <!-- 600 -->
      <defs>
       <path d="M 33.015625 40.375 
Q 26.375 40.375 22.484375 35.828125 
Q 18.609375 31.296875 18.609375 23.390625 
Q 18.609375 15.53125 22.484375 10.953125 
Q 26.375 6.390625 33.015625 6.390625 
Q 39.65625 6.390625 43.53125 10.953125 
Q 47.40625 15.53125 47.40625 23.390625 
Q 47.40625 31.296875 43.53125 35.828125 
Q 39.65625 40.375 33.015625 40.375 
z
M 52.59375 71.296875 
L 52.59375 62.3125 
Q 48.875 64.0625 45.09375 64.984375 
Q 41.3125 65.921875 37.59375 65.921875 
Q 27.828125 65.921875 22.671875 59.328125 
Q 17.53125 52.734375 16.796875 39.40625 
Q 19.671875 43.65625 24.015625 45.921875 
Q 28.375 48.1875 33.59375 48.1875 
Q 44.578125 48.1875 50.953125 41.515625 
Q 57.328125 34.859375 57.328125 23.390625 
Q 57.328125 12.15625 50.6875 5.359375 
Q 44.046875 -1.421875 33.015625 -1.421875 
Q 20.359375 -1.421875 13.671875 8.265625 
Q 6.984375 17.96875 6.984375 36.375 
Q 6.984375 53.65625 15.1875 63.9375 
Q 23.390625 74.21875 37.203125 74.21875 
Q 40.921875 74.21875 44.703125 73.484375 
Q 48.484375 72.75 52.59375 71.296875 
z
" id="DejaVuSans-54"/>
      </defs>
      <g transform="translate(418.13625 188.221295)scale(0.1 -0.1)">
       <use xlink:href="#DejaVuSans-54"/>
       <use x="63.623047" xlink:href="#DejaVuSans-48"/>
       <use x="127.246094" xlink:href="#DejaVuSans-48"/>
      </g>
     </g>
    </g>
    <g id="xtick_8">
     <g id="line2d_8">
      <g>
       <use style="stroke:#000000;stroke-width:0.8;" x="487.44" xlink:href="#mc66b4e4773" y="173.622857"/>
      </g>
     </g>
     <g id="text_8">
      <!-- 700 -->
      <defs>
       <path d="M 8.203125 72.90625 
L 55.078125 72.90625 
L 55.078125 68.703125 
L 28.609375 0 
L 18.3125 0 
L 43.21875 64.59375 
L 8.203125 64.59375 
z
" id="DejaVuSans-55"/>
      </defs>
      <g transform="translate(477.89625 188.221295)scale(0.1 -0.1)">
       <use xlink:href="#DejaVuSans-55"/>
       <use x="63.623047" xlink:href="#DejaVuSans-48"/>
       <use x="127.246094" xlink:href="#DejaVuSans-48"/>
      </g>
     </g>
    </g>
    <g id="xtick_9">
     <g id="line2d_9">
      <g>
       <use style="stroke:#000000;stroke-width:0.8;" x="547.2" xlink:href="#mc66b4e4773" y="173.622857"/>
      </g>
     </g>
     <g id="text_9">
      <!-- 800 -->
      <defs>
       <path d="M 31.78125 34.625 
Q 24.75 34.625 20.71875 30.859375 
Q 16.703125 27.09375 16.703125 20.515625 
Q 16.703125 13.921875 20.71875 10.15625 
Q 24.75 6.390625 31.78125 6.390625 
Q 38.8125 6.390625 42.859375 10.171875 
Q 46.921875 13.96875 46.921875 20.515625 
Q 46.921875 27.09375 42.890625 30.859375 
Q 38.875 34.625 31.78125 34.625 
z
M 21.921875 38.8125 
Q 15.578125 40.375 12.03125 44.71875 
Q 8.5 49.078125 8.5 55.328125 
Q 8.5 64.0625 14.71875 69.140625 
Q 20.953125 74.21875 31.78125 74.21875 
Q 42.671875 74.21875 48.875 69.140625 
Q 55.078125 64.0625 55.078125 55.328125 
Q 55.078125 49.078125 51.53125 44.71875 
Q 48 40.375 41.703125 38.8125 
Q 48.828125 37.15625 52.796875 32.3125 
Q 56.78125 27.484375 56.78125 20.515625 
Q 56.78125 9.90625 50.3125 4.234375 
Q 43.84375 -1.421875 31.78125 -1.421875 
Q 19.734375 -1.421875 13.25 4.234375 
Q 6.78125 9.90625 6.78125 20.515625 
Q 6.78125 27.484375 10.78125 32.3125 
Q 14.796875 37.15625 21.921875 38.8125 
z
M 18.3125 54.390625 
Q 18.3125 48.734375 21.84375 45.5625 
Q 25.390625 42.390625 31.78125 42.390625 
Q 38.140625 42.390625 41.71875 45.5625 
Q 45.3125 48.734375 45.3125 54.390625 
Q 45.3125 60.0625 41.71875 63.234375 
Q 38.140625 66.40625 31.78125 66.40625 
Q 25.390625 66.40625 21.84375 63.234375 
Q 18.3125 60.0625 18.3125 54.390625 
z
" id="DejaVuSans-56"/>
      </defs>
      <g transform="translate(537.65625 188.221295)scale(0.1 -0.1)">
       <use xlink:href="#DejaVuSans-56"/>
       <use x="63.623047" xlink:href="#DejaVuSans-48"/>
       <use x="127.246094" xlink:href="#DejaVuSans-48"/>
      </g>
     </g>
    </g>
   </g>
   <g id="matplotlib.axis_2">
    <g id="ytick_1">
     <g id="line2d_10">
      <defs>
       <path d="M 0 0 
L -3.5 0 
" id="m9e5f920722" style="stroke:#000000;stroke-width:0.8;"/>
      </defs>
      <g>
       <use style="stroke:#000000;stroke-width:0.8;" x="69.12" xlink:href="#m9e5f920722" y="167.04"/>
      </g>
     </g>
     <g id="text_10">
      <!-- 0 -->
      <g transform="translate(55.7575 170.839219)scale(0.1 -0.1)">
       <use xlink:href="#DejaVuSans-48"/>
      </g>
     </g>
    </g>
    <g id="ytick_2">
     <g id="line2d_11">
      <g>
       <use style="stroke:#000000;stroke-width:0.8;" x="69.12" xlink:href="#m9e5f920722" y="142.530447"/>
      </g>
     </g>
     <g id="text_11">
      <!-- 50 -->
      <g transform="translate(49.395 146.329665)scale(0.1 -0.1)">
       <use xlink:href="#DejaVuSans-53"/>
       <use x="63.623047" xlink:href="#DejaVuSans-48"/>
      </g>
     </g>
    </g>
    <g id="ytick_3">
     <g id="line2d_12">
      <g>
       <use style="stroke:#000000;stroke-width:0.8;" x="69.12" xlink:href="#m9e5f920722" y="118.020893"/>
      </g>
     </g>
     <g id="text_12">
      <!-- 100 -->
      <g transform="translate(43.0325 121.820112)scale(0.1 -0.1)">
       <use xlink:href="#DejaVuSans-49"/>
       <use x="63.623047" xlink:href="#DejaVuSans-48"/>
       <use x="127.246094" xlink:href="#DejaVuSans-48"/>
      </g>
     </g>
    </g>
    <g id="ytick_4">
     <g id="line2d_13">
      <g>
       <use style="stroke:#000000;stroke-width:0.8;" x="69.12" xlink:href="#m9e5f920722" y="93.51134"/>
      </g>
     </g>
     <g id="text_13">
      <!-- 150 -->
      <g transform="translate(43.0325 97.310559)scale(0.1 -0.1)">
       <use xlink:href="#DejaVuSans-49"/>
       <use x="63.623047" xlink:href="#DejaVuSans-53"/>
       <use x="127.246094" xlink:href="#DejaVuSans-48"/>
      </g>
     </g>
    </g>
    <g id="ytick_5">
     <g id="line2d_14">
      <g>
       <use style="stroke:#000000;stroke-width:0.8;" x="69.12" xlink:href="#m9e5f920722" y="69.001787"/>
      </g>
     </g>
     <g id="text_14">
      <!-- 200 -->
      <g transform="translate(43.0325 72.801005)scale(0.1 -0.1)">
       <use xlink:href="#DejaVuSans-50"/>
       <use x="63.623047" xlink:href="#DejaVuSans-48"/>
       <use x="127.246094" xlink:href="#DejaVuSans-48"/>
      </g>
     </g>
    </g>
    <g id="ytick_6">
     <g id="line2d_15">
      <g>
       <use style="stroke:#000000;stroke-width:0.8;" x="69.12" xlink:href="#m9e5f920722" y="44.492233"/>
      </g>
     </g>
     <g id="text_15">
      <!-- 250 -->
      <g transform="translate(43.0325 48.291452)scale(0.1 -0.1)">
       <use xlink:href="#DejaVuSans-50"/>
       <use x="63.623047" xlink:href="#DejaVuSans-53"/>
       <use x="127.246094" xlink:href="#DejaVuSans-48"/>
      </g>
     </g>
    </g>
   </g>
   <g id="line2d_16">
    <path clip-path="url(#p3aa4fc583b)" d="M 69.12 35.382857 
L 516.7224 35.382857 
L 516.7224 35.382857 
" style="fill:none;stroke:#000000;stroke-dasharray:1,1.65;stroke-dashoffset:0;"/>
   </g>
   <g id="line2d_17">
    <path clip-path="url(#p3aa4fc583b)" d="M 69.12 163.504871 
L 110.3544 128.827789 
L 156.3696 90.134148 
L 156.9672 89.828533 
L 222.7032 89.828579 
L 223.3008 89.691696 
L 225.0936 86.51169 
L 230.472 77.101223 
L 239.436 61.789043 
L 240.0336 61.031012 
L 241.2288 60.558053 
L 242.424 60.447978 
L 243.0216 60.289732 
L 244.2168 60.439524 
L 244.8144 60.185142 
L 245.412 60.287429 
L 246.0096 63.577997 
L 246.6072 95.908891 
L 256.1688 70.281276 
L 257.364 68.505343 
L 263.9376 60.142894 
L 267.5232 60.12132 
L 331.4664 60.096148 
L 332.064 60.006727 
L 335.6496 52.042982 
L 338.6376 46.809679 
L 344.6136 36.470493 
L 345.2112 35.877565 
L 345.8088 35.824837 
L 346.4064 35.94711 
L 347.6016 35.830084 
L 349.992 36.006989 
L 351.7848 35.857271 
L 352.3824 36.017187 
L 353.5776 36.027424 
L 354.1752 35.872296 
L 355.3704 36.048497 
L 355.968 72.508616 
L 361.3464 60.124183 
L 367.92 45.221853 
L 369.1152 43.521703 
L 374.4936 36.509995 
L 375.0912 36.034452 
L 442.62 36.034641 
L 443.2176 35.823745 
L 445.0104 36.077748 
L 445.608 36.07255 
L 446.2056 35.859922 
L 446.8032 35.997675 
L 447.9984 35.892011 
L 448.596 36.00478 
L 449.7912 35.931541 
L 450.3888 35.979433 
L 450.9864 35.856476 
L 451.584 35.855553 
L 452.1816 35.975207 
L 452.7792 35.837513 
L 453.3768 35.921506 
L 453.9744 35.828264 
L 454.572 35.927744 
L 456.3648 35.869019 
L 456.9624 35.982256 
L 457.56 35.914189 
L 459.3528 35.9888 
L 461.1456 35.961463 
L 461.7432 36.013783 
L 462.9384 35.981319 
L 464.1336 35.970824 
L 464.7312 35.861458 
L 465.3288 35.971904 
L 465.9264 35.916932 
L 467.1216 72.760762 
L 473.0976 72.772921 
L 516.7224 72.773528 
L 516.7224 72.773528 
" style="fill:none;stroke:#008000;stroke-linecap:square;"/>
   </g>
   <g id="line2d_18">
    <path clip-path="url(#p3aa4fc583b)" d="M 69.12 164.472015 
L 156.3696 127.864263 
L 156.9672 127.713367 
L 222.7032 127.713361 
L 223.3008 127.576716 
L 225.0936 124.403845 
L 230.472 115.014993 
L 239.436 99.73782 
L 240.0336 98.983465 
L 241.2288 98.51608 
L 242.424 98.412348 
L 243.0216 98.257951 
L 244.2168 98.408065 
L 244.8144 98.153192 
L 245.412 98.257182 
L 246.0096 98.093745 
L 331.4664 98.072014 
L 332.064 97.982554 
L 335.6496 90.037112 
L 338.6376 84.815267 
L 344.6136 74.49956 
L 345.2112 73.905785 
L 345.8088 73.8562 
L 346.4064 73.980514 
L 347.6016 73.867685 
L 349.992 74.051627 
L 351.7848 73.907207 
L 352.3824 74.067959 
L 353.5776 74.080068 
L 354.1752 73.926305 
L 355.968 74.091994 
L 442.62 74.090402 
L 443.2176 73.880117 
L 445.0104 74.142907 
L 445.608 74.139528 
L 446.2056 73.929441 
L 446.8032 74.069338 
L 447.9984 73.970039 
L 448.596 74.086786 
L 449.7912 74.018615 
L 450.3888 74.069884 
L 450.9864 73.948706 
L 451.584 73.951106 
L 452.1816 74.072735 
L 452.7792 73.939271 
L 453.3768 74.025909 
L 453.9744 73.934607 
L 454.572 74.036751 
L 456.3648 73.986588 
L 456.9624 74.100441 
L 457.56 74.034731 
L 459.3528 74.113506 
L 462.3408 74.07384 
L 464.1336 74.105638 
L 464.7312 73.998061 
L 465.3288 74.1088 
L 466.524 74.062488 
L 516.7224 74.062367 
L 516.7224 74.062367 
" style="fill:none;stroke:#bf00bf;stroke-linecap:square;"/>
   </g>
   <g id="line2d_19">
    <path clip-path="url(#p3aa4fc583b)" d="M 69.12 167.039984 
L 222.7032 167.039998 
L 223.3008 166.903384 
L 225.0936 163.73056 
L 226.2888 161.595763 
L 227.484 159.782605 
L 228.6792 157.741555 
L 240.0336 143.094435 
L 241.2288 140.929281 
L 241.8264 140.090878 
L 246.0096 137.756602 
L 293.8176 157.990673 
L 297.4032 158.13404 
L 308.16 162.587766 
L 313.5384 164.820653 
L 318.9168 167.039934 
L 332.064 166.950869 
L 335.6496 159.004935 
L 336.2472 157.938345 
L 344.6136 147.022571 
L 347.004 143.750336 
L 349.992 141.131838 
L 352.3824 139.082215 
L 354.1752 138.546437 
L 355.3704 138.299453 
L 369.1152 144.102301 
L 401.9832 158.006567 
L 403.1784 158.085266 
L 405.5688 158.160294 
L 426.4848 167.009379 
L 428.8752 167.039998 
L 442.62 167.04 
L 443.2176 166.400422 
L 448.596 155.976486 
L 455.7672 144.095796 
L 456.9624 142.894371 
L 461.1456 139.530333 
L 462.9384 138.848725 
L 465.3288 138.314741 
L 466.524 138.184053 
L 504.7704 154.196274 
L 505.368 154.355661 
L 508.356 154.426561 
L 516.7224 157.900787 
L 516.7224 157.900787 
" style="fill:none;stroke:#ff0000;stroke-linecap:square;"/>
   </g>
   <g id="line2d_20">
    <path clip-path="url(#p3aa4fc583b)" d="M 69.12 36.350017 
L 116.3304 56.242116 
L 156.9672 73.267693 
L 222.7032 73.267641 
L 223.3008 73.404494 
L 225.0936 76.584451 
L 226.2888 78.724154 
L 227.484 80.541886 
L 228.6792 82.588509 
L 240.0336 97.280876 
L 241.2288 99.451603 
L 241.8264 100.296469 
L 245.412 102.378418 
L 246.0096 99.182003 
L 246.6072 66.599551 
L 256.1688 88.180719 
L 256.7664 88.906565 
L 259.1568 90.962007 
L 263.34 94.507304 
L 263.9376 95.030514 
L 267.5232 93.533755 
L 293.8176 82.404611 
L 297.4032 82.261034 
L 308.16 77.819148 
L 312.3432 76.085172 
L 318.9168 73.358778 
L 332.064 73.447815 
L 335.6496 81.412052 
L 336.2472 82.480904 
L 344.6136 93.429354 
L 345.2112 94.271612 
L 345.8088 95.308034 
L 346.4064 96.120537 
L 347.6016 97.207271 
L 352.3824 101.391415 
L 354.1752 101.930429 
L 355.3704 102.168294 
L 355.968 65.459572 
L 361.3464 75.573342 
L 367.92 87.694798 
L 368.5176 88.378397 
L 374.4936 93.625962 
L 375.0912 93.847824 
L 401.9832 82.472238 
L 403.1784 82.3935 
L 405.5688 82.318638 
L 426.4848 73.469634 
L 428.8752 73.438645 
L 442.62 73.438619 
L 443.2176 74.078807 
L 448.596 84.528377 
L 455.7672 96.442477 
L 456.9624 97.646671 
L 461.1456 101.023044 
L 462.3408 101.499343 
L 463.536 101.870357 
L 465.9264 102.325372 
L 466.524 85.47572 
L 467.1216 65.288582 
L 483.2568 58.499379 
L 504.7704 49.515728 
L 505.368 49.356148 
L 508.356 49.285326 
L 516.7224 45.81091 
L 516.7224 45.81091 
" style="fill:none;stroke:#0000ff;stroke-linecap:square;"/>
   </g>
   <g id="line2d_21">
    <path clip-path="url(#p3aa4fc583b)" d="M 69.12 114.764007 
L 156.3696 129.46919 
L 157.5648 129.531077 
L 223.3008 129.585798 
L 229.8744 133.87217 
L 240.0336 139.13635 
L 241.8264 140.342588 
L 245.412 141.175367 
L 246.0096 139.896801 
L 246.6072 126.863821 
L 256.1688 135.496288 
L 257.364 136.004755 
L 263.9376 138.236206 
L 272.304 136.827395 
L 294.4152 133.182393 
L 297.4032 133.128413 
L 318.9168 129.567511 
L 332.064 129.603126 
L 336.2472 133.216362 
L 345.2112 137.932645 
L 346.4064 138.672215 
L 349.3944 139.746117 
L 352.3824 140.780566 
L 355.3704 141.091317 
L 355.968 126.407829 
L 363.1392 131.807622 
L 367.92 135.301919 
L 369.1152 135.780039 
L 375.0912 137.76313 
L 402.5808 133.181405 
L 405.5688 133.151455 
L 427.0824 129.59946 
L 442.62 129.599448 
L 443.2176 129.855523 
L 448.596 134.035351 
L 455.7672 138.800991 
L 457.56 139.481922 
L 461.7432 140.740926 
L 464.7312 141.074351 
L 465.9264 141.154149 
L 466.524 134.414288 
L 467.1216 126.339433 
L 499.392 120.923032 
L 505.9656 119.966474 
L 508.356 119.93813 
L 516.7224 118.548364 
L 516.7224 118.548364 
" style="fill:none;stroke:#000000;stroke-dasharray:6.4,1.6,1,1.6;stroke-dashoffset:0;"/>
   </g>
   <g id="patch_12">
    <path d="M 69.12 173.622857 
L 69.12 28.8 
" style="fill:none;stroke:#000000;stroke-linecap:square;stroke-linejoin:miter;stroke-width:0.8;"/>
   </g>
   <g id="patch_13">
    <path d="M 547.2 173.622857 
L 547.2 28.8 
" style="fill:none;stroke:#000000;stroke-linecap:square;stroke-linejoin:miter;stroke-width:0.8;"/>
   </g>
   <g id="patch_14">
    <path d="M 69.12 173.622857 
L 547.2 173.622857 
" style="fill:none;stroke:#000000;stroke-linecap:square;stroke-linejoin:miter;stroke-width:0.8;"/>
   </g>
   <g id="patch_15">
    <path d="M 69.12 28.8 
L 547.2 28.8 
" style="fill:none;stroke:#000000;stroke-linecap:square;stroke-linejoin:miter;stroke-width:0.8;"/>
   </g>
   <g id="text_16">
    <!-- Real execution -->
    <defs>
     <path d="M 44.390625 34.1875 
Q 47.5625 33.109375 50.5625 29.59375 
Q 53.5625 26.078125 56.59375 19.921875 
L 66.609375 0 
L 56 0 
L 46.6875 18.703125 
Q 43.0625 26.03125 39.671875 28.421875 
Q 36.28125 30.8125 30.421875 30.8125 
L 19.671875 30.8125 
L 19.671875 0 
L 9.8125 0 
L 9.8125 72.90625 
L 32.078125 72.90625 
Q 44.578125 72.90625 50.734375 67.671875 
Q 56.890625 62.453125 56.890625 51.90625 
Q 56.890625 45.015625 53.6875 40.46875 
Q 50.484375 35.9375 44.390625 34.1875 
z
M 19.671875 64.796875 
L 19.671875 38.921875 
L 32.078125 38.921875 
Q 39.203125 38.921875 42.84375 42.21875 
Q 46.484375 45.515625 46.484375 51.90625 
Q 46.484375 58.296875 42.84375 61.546875 
Q 39.203125 64.796875 32.078125 64.796875 
z
" id="DejaVuSans-82"/>
     <path d="M 56.203125 29.59375 
L 56.203125 25.203125 
L 14.890625 25.203125 
Q 15.484375 15.921875 20.484375 11.0625 
Q 25.484375 6.203125 34.421875 6.203125 
Q 39.59375 6.203125 44.453125 7.46875 
Q 49.3125 8.734375 54.109375 11.28125 
L 54.109375 2.78125 
Q 49.265625 0.734375 44.1875 -0.34375 
Q 39.109375 -1.421875 33.890625 -1.421875 
Q 20.796875 -1.421875 13.15625 6.1875 
Q 5.515625 13.8125 5.515625 26.8125 
Q 5.515625 40.234375 12.765625 48.109375 
Q 20.015625 56 32.328125 56 
Q 43.359375 56 49.78125 48.890625 
Q 56.203125 41.796875 56.203125 29.59375 
z
M 47.21875 32.234375 
Q 47.125 39.59375 43.09375 43.984375 
Q 39.0625 48.390625 32.421875 48.390625 
Q 24.90625 48.390625 20.390625 44.140625 
Q 15.875 39.890625 15.1875 32.171875 
z
" id="DejaVuSans-101"/>
     <path d="M 34.28125 27.484375 
Q 23.390625 27.484375 19.1875 25 
Q 14.984375 22.515625 14.984375 16.5 
Q 14.984375 11.71875 18.140625 8.90625 
Q 21.296875 6.109375 26.703125 6.109375 
Q 34.1875 6.109375 38.703125 11.40625 
Q 43.21875 16.703125 43.21875 25.484375 
L 43.21875 27.484375 
z
M 52.203125 31.203125 
L 52.203125 0 
L 43.21875 0 
L 43.21875 8.296875 
Q 40.140625 3.328125 35.546875 0.953125 
Q 30.953125 -1.421875 24.3125 -1.421875 
Q 15.921875 -1.421875 10.953125 3.296875 
Q 6 8.015625 6 15.921875 
Q 6 25.140625 12.171875 29.828125 
Q 18.359375 34.515625 30.609375 34.515625 
L 43.21875 34.515625 
L 43.21875 35.40625 
Q 43.21875 41.609375 39.140625 45 
Q 35.0625 48.390625 27.6875 48.390625 
Q 23 48.390625 18.546875 47.265625 
Q 14.109375 46.140625 10.015625 43.890625 
L 10.015625 52.203125 
Q 14.9375 54.109375 19.578125 55.046875 
Q 24.21875 56 28.609375 56 
Q 40.484375 56 46.34375 49.84375 
Q 52.203125 43.703125 52.203125 31.203125 
z
" id="DejaVuSans-97"/>
     <path d="M 9.421875 75.984375 
L 18.40625 75.984375 
L 18.40625 0 
L 9.421875 0 
z
" id="DejaVuSans-108"/>
     <path id="DejaVuSans-32"/>
     <path d="M 54.890625 54.6875 
L 35.109375 28.078125 
L 55.90625 0 
L 45.3125 0 
L 29.390625 21.484375 
L 13.484375 0 
L 2.875 0 
L 24.125 28.609375 
L 4.6875 54.6875 
L 15.28125 54.6875 
L 29.78125 35.203125 
L 44.28125 54.6875 
z
" id="DejaVuSans-120"/>
     <path d="M 48.78125 52.59375 
L 48.78125 44.1875 
Q 44.96875 46.296875 41.140625 47.34375 
Q 37.3125 48.390625 33.40625 48.390625 
Q 24.65625 48.390625 19.8125 42.84375 
Q 14.984375 37.3125 14.984375 27.296875 
Q 14.984375 17.28125 19.8125 11.734375 
Q 24.65625 6.203125 33.40625 6.203125 
Q 37.3125 6.203125 41.140625 7.25 
Q 44.96875 8.296875 48.78125 10.40625 
L 48.78125 2.09375 
Q 45.015625 0.34375 40.984375 -0.53125 
Q 36.96875 -1.421875 32.421875 -1.421875 
Q 20.0625 -1.421875 12.78125 6.34375 
Q 5.515625 14.109375 5.515625 27.296875 
Q 5.515625 40.671875 12.859375 48.328125 
Q 20.21875 56 33.015625 56 
Q 37.15625 56 41.109375 55.140625 
Q 45.0625 54.296875 48.78125 52.59375 
z
" id="DejaVuSans-99"/>
     <path d="M 8.5 21.578125 
L 8.5 54.6875 
L 17.484375 54.6875 
L 17.484375 21.921875 
Q 17.484375 14.15625 20.5 10.265625 
Q 23.53125 6.390625 29.59375 6.390625 
Q 36.859375 6.390625 41.078125 11.03125 
Q 45.3125 15.671875 45.3125 23.6875 
L 45.3125 54.6875 
L 54.296875 54.6875 
L 54.296875 0 
L 45.3125 0 
L 45.3125 8.40625 
Q 42.046875 3.421875 37.71875 1 
Q 33.40625 -1.421875 27.6875 -1.421875 
Q 18.265625 -1.421875 13.375 4.4375 
Q 8.5 10.296875 8.5 21.578125 
z
M 31.109375 56 
z
" id="DejaVuSans-117"/>
     <path d="M 18.3125 70.21875 
L 18.3125 54.6875 
L 36.8125 54.6875 
L 36.8125 47.703125 
L 18.3125 47.703125 
L 18.3125 18.015625 
Q 18.3125 11.328125 20.140625 9.421875 
Q 21.96875 7.515625 27.59375 7.515625 
L 36.8125 7.515625 
L 36.8125 0 
L 27.59375 0 
Q 17.1875 0 13.234375 3.875 
Q 9.28125 7.765625 9.28125 18.015625 
L 9.28125 47.703125 
L 2.6875 47.703125 
L 2.6875 54.6875 
L 9.28125 54.6875 
L 9.28125 70.21875 
z
" id="DejaVuSans-116"/>
     <path d="M 9.421875 54.6875 
L 18.40625 54.6875 
L 18.40625 0 
L 9.421875 0 
z
M 9.421875 75.984375 
L 18.40625 75.984375 
L 18.40625 64.59375 
L 9.421875 64.59375 
z
" id="DejaVuSans-105"/>
     <path d="M 30.609375 48.390625 
Q 23.390625 48.390625 19.1875 42.75 
Q 14.984375 37.109375 14.984375 27.296875 
Q 14.984375 17.484375 19.15625 11.84375 
Q 23.34375 6.203125 30.609375 6.203125 
Q 37.796875 6.203125 41.984375 11.859375 
Q 46.1875 17.53125 46.1875 27.296875 
Q 46.1875 37.015625 41.984375 42.703125 
Q 37.796875 48.390625 30.609375 48.390625 
z
M 30.609375 56 
Q 42.328125 56 49.015625 48.375 
Q 55.71875 40.765625 55.71875 27.296875 
Q 55.71875 13.875 49.015625 6.21875 
Q 42.328125 -1.421875 30.609375 -1.421875 
Q 18.84375 -1.421875 12.171875 6.21875 
Q 5.515625 13.875 5.515625 27.296875 
Q 5.515625 40.765625 12.171875 48.375 
Q 18.84375 56 30.609375 56 
z
" id="DejaVuSans-111"/>
     <path d="M 54.890625 33.015625 
L 54.890625 0 
L 45.90625 0 
L 45.90625 32.71875 
Q 45.90625 40.484375 42.875 44.328125 
Q 39.84375 48.1875 33.796875 48.1875 
Q 26.515625 48.1875 22.3125 43.546875 
Q 18.109375 38.921875 18.109375 30.90625 
L 18.109375 0 
L 9.078125 0 
L 9.078125 54.6875 
L 18.109375 54.6875 
L 18.109375 46.1875 
Q 21.34375 51.125 25.703125 53.5625 
Q 30.078125 56 35.796875 56 
Q 45.21875 56 50.046875 50.171875 
Q 54.890625 44.34375 54.890625 33.015625 
z
" id="DejaVuSans-110"/>
    </defs>
    <g transform="translate(270.965469 22.8)scale(0.1 -0.1)">
     <use xlink:href="#DejaVuSans-82"/>
     <use x="69.419922" xlink:href="#DejaVuSans-101"/>
     <use x="130.943359" xlink:href="#DejaVuSans-97"/>
     <use x="192.222656" xlink:href="#DejaVuSans-108"/>
     <use x="220.005859" xlink:href="#DejaVuSans-32"/>
     <use x="251.792969" xlink:href="#DejaVuSans-101"/>
     <use x="313.300781" xlink:href="#DejaVuSans-120"/>
     <use x="372.433594" xlink:href="#DejaVuSans-101"/>
     <use x="433.957031" xlink:href="#DejaVuSans-99"/>
     <use x="488.9375" xlink:href="#DejaVuSans-117"/>
     <use x="552.316406" xlink:href="#DejaVuSans-116"/>
     <use x="591.525391" xlink:href="#DejaVuSans-105"/>
     <use x="619.308594" xlink:href="#DejaVuSans-111"/>
     <use x="680.490234" xlink:href="#DejaVuSans-110"/>
    </g>
   </g>
  </g>
  <g id="axes_2">
   <g id="patch_16">
    <path d="M 69.12 354.651429 
L 547.2 354.651429 
L 547.2 209.828571 
L 69.12 209.828571 
z
" style="fill:#ffffff;"/>
   </g>
   <g id="patch_17">
    <path clip-path="url(#p9141e9947f)" d="M 69.12 354.651429 
L 69.12 209.828571 
L 165.507097 209.828571 
L 165.507097 354.651429 
z
" style="opacity:0.1;stroke:#000000;stroke-linejoin:miter;"/>
   </g>
   <g id="patch_18">
    <path clip-path="url(#p9141e9947f)" d="M 165.507097 354.651429 
L 165.507097 209.828571 
L 231.243097 209.828571 
L 231.243097 354.651429 
z
" style="opacity:0.25;stroke:#000000;stroke-linejoin:miter;"/>
   </g>
   <g id="patch_19">
    <path clip-path="url(#p9141e9947f)" d="M 231.243097 354.651429 
L 231.243097 209.828571 
L 263.370406 209.828571 
L 263.370406 354.651429 
z
" style="opacity:0.4;stroke:#000000;stroke-linejoin:miter;"/>
   </g>
   <g id="patch_20">
    <path clip-path="url(#p9141e9947f)" d="M 263.370406 354.651429 
L 263.370406 209.828571 
L 272.684621 209.828571 
L 272.684621 354.651429 
z
" style="opacity:0.1;stroke:#000000;stroke-linejoin:miter;"/>
   </g>
   <g id="patch_21">
    <path clip-path="url(#p9141e9947f)" d="M 272.684621 354.651429 
L 272.684621 209.828571 
L 338.420621 209.828571 
L 338.420621 354.651429 
z
" style="opacity:0.25;stroke:#000000;stroke-linejoin:miter;"/>
   </g>
   <g id="patch_22">
    <path clip-path="url(#p9141e9947f)" d="M 338.420621 354.651429 
L 338.420621 209.828571 
L 375.443135 209.828571 
L 375.443135 354.651429 
z
" style="opacity:0.4;stroke:#000000;stroke-linejoin:miter;"/>
   </g>
   <g id="patch_23">
    <path clip-path="url(#p9141e9947f)" d="M 375.443135 354.651429 
L 375.443135 209.828571 
L 384.757349 209.828571 
L 384.757349 354.651429 
z
" style="opacity:0.1;stroke:#000000;stroke-linejoin:miter;"/>
   </g>
   <g id="patch_24">
    <path clip-path="url(#p9141e9947f)" d="M 384.757349 354.651429 
L 384.757349 209.828571 
L 450.493349 209.828571 
L 450.493349 354.651429 
z
" style="opacity:0.25;stroke:#000000;stroke-linejoin:miter;"/>
   </g>
   <g id="patch_25">
    <path clip-path="url(#p9141e9947f)" d="M 450.493349 354.651429 
L 450.493349 209.828571 
L 487.465191 209.828571 
L 487.465191 354.651429 
z
" style="opacity:0.4;stroke:#000000;stroke-linejoin:miter;"/>
   </g>
   <g id="matplotlib.axis_3">
    <g id="xtick_10">
     <g id="line2d_22">
      <g>
       <use style="stroke:#000000;stroke-width:0.8;" x="69.12" xlink:href="#mc66b4e4773" y="354.651429"/>
      </g>
     </g>
     <g id="text_17">
      <!-- 0 -->
      <g transform="translate(65.93875 369.249866)scale(0.1 -0.1)">
       <use xlink:href="#DejaVuSans-48"/>
      </g>
     </g>
    </g>
    <g id="xtick_11">
     <g id="line2d_23">
      <g>
       <use style="stroke:#000000;stroke-width:0.8;" x="128.88" xlink:href="#mc66b4e4773" y="354.651429"/>
      </g>
     </g>
     <g id="text_18">
      <!-- 100 -->
      <g transform="translate(119.33625 369.249866)scale(0.1 -0.1)">
       <use xlink:href="#DejaVuSans-49"/>
       <use x="63.623047" xlink:href="#DejaVuSans-48"/>
       <use x="127.246094" xlink:href="#DejaVuSans-48"/>
      </g>
     </g>
    </g>
    <g id="xtick_12">
     <g id="line2d_24">
      <g>
       <use style="stroke:#000000;stroke-width:0.8;" x="188.64" xlink:href="#mc66b4e4773" y="354.651429"/>
      </g>
     </g>
     <g id="text_19">
      <!-- 200 -->
      <g transform="translate(179.09625 369.249866)scale(0.1 -0.1)">
       <use xlink:href="#DejaVuSans-50"/>
       <use x="63.623047" xlink:href="#DejaVuSans-48"/>
       <use x="127.246094" xlink:href="#DejaVuSans-48"/>
      </g>
     </g>
    </g>
    <g id="xtick_13">
     <g id="line2d_25">
      <g>
       <use style="stroke:#000000;stroke-width:0.8;" x="248.4" xlink:href="#mc66b4e4773" y="354.651429"/>
      </g>
     </g>
     <g id="text_20">
      <!-- 300 -->
      <g transform="translate(238.85625 369.249866)scale(0.1 -0.1)">
       <use xlink:href="#DejaVuSans-51"/>
       <use x="63.623047" xlink:href="#DejaVuSans-48"/>
       <use x="127.246094" xlink:href="#DejaVuSans-48"/>
      </g>
     </g>
    </g>
    <g id="xtick_14">
     <g id="line2d_26">
      <g>
       <use style="stroke:#000000;stroke-width:0.8;" x="308.16" xlink:href="#mc66b4e4773" y="354.651429"/>
      </g>
     </g>
     <g id="text_21">
      <!-- 400 -->
      <g transform="translate(298.61625 369.249866)scale(0.1 -0.1)">
       <use xlink:href="#DejaVuSans-52"/>
       <use x="63.623047" xlink:href="#DejaVuSans-48"/>
       <use x="127.246094" xlink:href="#DejaVuSans-48"/>
      </g>
     </g>
    </g>
    <g id="xtick_15">
     <g id="line2d_27">
      <g>
       <use style="stroke:#000000;stroke-width:0.8;" x="367.92" xlink:href="#mc66b4e4773" y="354.651429"/>
      </g>
     </g>
     <g id="text_22">
      <!-- 500 -->
      <g transform="translate(358.37625 369.249866)scale(0.1 -0.1)">
       <use xlink:href="#DejaVuSans-53"/>
       <use x="63.623047" xlink:href="#DejaVuSans-48"/>
       <use x="127.246094" xlink:href="#DejaVuSans-48"/>
      </g>
     </g>
    </g>
    <g id="xtick_16">
     <g id="line2d_28">
      <g>
       <use style="stroke:#000000;stroke-width:0.8;" x="427.68" xlink:href="#mc66b4e4773" y="354.651429"/>
      </g>
     </g>
     <g id="text_23">
      <!-- 600 -->
      <g transform="translate(418.13625 369.249866)scale(0.1 -0.1)">
       <use xlink:href="#DejaVuSans-54"/>
       <use x="63.623047" xlink:href="#DejaVuSans-48"/>
       <use x="127.246094" xlink:href="#DejaVuSans-48"/>
      </g>
     </g>
    </g>
    <g id="xtick_17">
     <g id="line2d_29">
      <g>
       <use style="stroke:#000000;stroke-width:0.8;" x="487.44" xlink:href="#mc66b4e4773" y="354.651429"/>
      </g>
     </g>
     <g id="text_24">
      <!-- 700 -->
      <g transform="translate(477.89625 369.249866)scale(0.1 -0.1)">
       <use xlink:href="#DejaVuSans-55"/>
       <use x="63.623047" xlink:href="#DejaVuSans-48"/>
       <use x="127.246094" xlink:href="#DejaVuSans-48"/>
      </g>
     </g>
    </g>
    <g id="xtick_18">
     <g id="line2d_30">
      <g>
       <use style="stroke:#000000;stroke-width:0.8;" x="547.2" xlink:href="#mc66b4e4773" y="354.651429"/>
      </g>
     </g>
     <g id="text_25">
      <!-- 800 -->
      <g transform="translate(537.65625 369.249866)scale(0.1 -0.1)">
       <use xlink:href="#DejaVuSans-56"/>
       <use x="63.623047" xlink:href="#DejaVuSans-48"/>
       <use x="127.246094" xlink:href="#DejaVuSans-48"/>
      </g>
     </g>
    </g>
   </g>
   <g id="matplotlib.axis_4">
    <g id="ytick_7">
     <g id="line2d_31">
      <g>
       <use style="stroke:#000000;stroke-width:0.8;" x="69.12" xlink:href="#m9e5f920722" y="348.068571"/>
      </g>
     </g>
     <g id="text_26">
      <!-- 0 -->
      <g transform="translate(55.7575 351.86779)scale(0.1 -0.1)">
       <use xlink:href="#DejaVuSans-48"/>
      </g>
     </g>
    </g>
    <g id="ytick_8">
     <g id="line2d_32">
      <g>
       <use style="stroke:#000000;stroke-width:0.8;" x="69.12" xlink:href="#m9e5f920722" y="323.56054"/>
      </g>
     </g>
     <g id="text_27">
      <!-- 50 -->
      <g transform="translate(49.395 327.359759)scale(0.1 -0.1)">
       <use xlink:href="#DejaVuSans-53"/>
       <use x="63.623047" xlink:href="#DejaVuSans-48"/>
      </g>
     </g>
    </g>
    <g id="ytick_9">
     <g id="line2d_33">
      <g>
       <use style="stroke:#000000;stroke-width:0.8;" x="69.12" xlink:href="#m9e5f920722" y="299.052509"/>
      </g>
     </g>
     <g id="text_28">
      <!-- 100 -->
      <g transform="translate(43.0325 302.851728)scale(0.1 -0.1)">
       <use xlink:href="#DejaVuSans-49"/>
       <use x="63.623047" xlink:href="#DejaVuSans-48"/>
       <use x="127.246094" xlink:href="#DejaVuSans-48"/>
      </g>
     </g>
    </g>
    <g id="ytick_10">
     <g id="line2d_34">
      <g>
       <use style="stroke:#000000;stroke-width:0.8;" x="69.12" xlink:href="#m9e5f920722" y="274.544478"/>
      </g>
     </g>
     <g id="text_29">
      <!-- 150 -->
      <g transform="translate(43.0325 278.343697)scale(0.1 -0.1)">
       <use xlink:href="#DejaVuSans-49"/>
       <use x="63.623047" xlink:href="#DejaVuSans-53"/>
       <use x="127.246094" xlink:href="#DejaVuSans-48"/>
      </g>
     </g>
    </g>
    <g id="ytick_11">
     <g id="line2d_35">
      <g>
       <use style="stroke:#000000;stroke-width:0.8;" x="69.12" xlink:href="#m9e5f920722" y="250.036447"/>
      </g>
     </g>
     <g id="text_30">
      <!-- 200 -->
      <g transform="translate(43.0325 253.835666)scale(0.1 -0.1)">
       <use xlink:href="#DejaVuSans-50"/>
       <use x="63.623047" xlink:href="#DejaVuSans-48"/>
       <use x="127.246094" xlink:href="#DejaVuSans-48"/>
      </g>
     </g>
    </g>
    <g id="ytick_12">
     <g id="line2d_36">
      <g>
       <use style="stroke:#000000;stroke-width:0.8;" x="69.12" xlink:href="#m9e5f920722" y="225.528416"/>
      </g>
     </g>
     <g id="text_31">
      <!-- 250 -->
      <g transform="translate(43.0325 229.327635)scale(0.1 -0.1)">
       <use xlink:href="#DejaVuSans-50"/>
       <use x="63.623047" xlink:href="#DejaVuSans-53"/>
       <use x="127.246094" xlink:href="#DejaVuSans-48"/>
      </g>
     </g>
    </g>
   </g>
   <g id="line2d_37">
    <path clip-path="url(#p9141e9947f)" d="M 69.12 216.411429 
L 487.465191 216.411429 
L 487.465191 216.411429 
" style="fill:none;stroke:#000000;stroke-dasharray:1,1.65;stroke-dashoffset:0;"/>
   </g>
   <g id="line2d_38">
    <path clip-path="url(#p9141e9947f)" d="M 69.12 348.068571 
L 165.507097 274.544478 
L 231.267935 274.446446 
L 231.267935 274.446446 
L 238.181245 247.38958 
L 238.181245 247.38958 
L 263.370406 237.782432 
L 263.370406 274.544478 
L 263.475968 274.127842 
L 272.684621 237.782432 
L 338.445459 237.6844 
L 338.445459 237.6844 
L 343.947055 216.411429 
L 343.947055 216.411429 
L 375.443135 216.411429 
L 375.443135 253.173475 
L 375.548696 252.756839 
L 384.757349 216.411429 
L 487.465191 216.411429 
L 487.465191 216.411429 
" style="fill:none;stroke:#008000;stroke-linecap:square;"/>
   </g>
   <g id="line2d_39">
    <path clip-path="url(#p9141e9947f)" d="M 69.12 348.068571 
L 165.507097 311.306525 
L 231.267935 311.208493 
L 231.267935 311.208493 
L 238.181245 284.151626 
L 238.181245 284.151626 
L 263.68088 274.544478 
L 263.68088 274.544478 
L 338.445459 274.446446 
L 338.445459 274.446446 
L 343.947055 253.173475 
L 343.947055 253.173475 
L 487.465191 253.173475 
L 487.465191 253.173475 
" style="fill:none;stroke:#bf00bf;stroke-linecap:square;"/>
   </g>
   <g id="line2d_40">
    <path clip-path="url(#p9141e9947f)" d="M 69.12 348.068571 
L 231.267935 347.970539 
L 231.267935 347.970539 
L 238.181245 320.938181 
L 238.181245 320.938181 
L 272.684621 320.938181 
L 338.420621 346.009897 
L 338.445459 345.911865 
L 344.856296 320.950991 
L 344.856296 320.950991 
L 384.757349 320.960464 
L 450.493349 346.03218 
L 450.518187 345.934148 
L 456.942611 320.951881 
L 456.942611 320.951881 
L 487.465191 320.951881 
L 487.465191 320.951881 
" style="fill:none;stroke:#ff0000;stroke-linecap:square;"/>
   </g>
   <g id="line2d_41">
    <path clip-path="url(#p9141e9947f)" d="M 69.12 216.411429 
L 165.507097 253.173475 
L 231.267935 253.271507 
L 231.267935 253.271507 
L 238.181245 280.303866 
L 238.181245 280.303866 
L 263.370406 280.303866 
L 263.370406 243.541819 
L 263.475968 243.958455 
L 272.684621 280.303866 
L 338.420621 255.23215 
L 338.445459 255.330182 
L 344.856296 280.291055 
L 344.856296 280.291055 
L 375.443135 280.291055 
L 375.443135 243.529009 
L 375.548696 243.943277 
L 384.757349 280.281582 
L 450.493349 255.209866 
L 450.518187 255.307899 
L 456.942611 280.290165 
L 456.942611 280.290165 
L 487.465191 280.290165 
L 487.465191 280.290165 
" style="fill:none;stroke:#0000ff;stroke-linecap:square;"/>
   </g>
   <g id="line2d_42">
    <path clip-path="url(#p9141e9947f)" d="M 69.12 295.405714 
L 165.507097 310.110533 
L 231.311401 310.218368 
L 231.311401 310.218368 
L 238.245503 320.962689 
L 238.245503 320.962689 
L 263.370406 320.962689 
L 263.370406 306.25787 
L 263.475968 306.424525 
L 272.684621 320.962689 
L 338.482716 311.032035 
L 338.482716 311.032035 
L 344.856296 320.957565 
L 344.856296 320.957565 
L 375.443135 320.957565 
L 375.443135 306.252746 
L 375.548696 306.418454 
L 384.757349 320.953776 
L 450.555444 311.023122 
L 450.555444 311.023122 
L 456.942611 320.957209 
L 456.942611 320.957209 
L 487.465191 320.957209 
L 487.465191 320.957209 
" style="fill:none;stroke:#000000;stroke-dasharray:6.4,1.6,1,1.6;stroke-dashoffset:0;"/>
   </g>
   <g id="patch_26">
    <path d="M 69.12 354.651429 
L 69.12 209.828571 
" style="fill:none;stroke:#000000;stroke-linecap:square;stroke-linejoin:miter;stroke-width:0.8;"/>
   </g>
   <g id="patch_27">
    <path d="M 547.2 354.651429 
L 547.2 209.828571 
" style="fill:none;stroke:#000000;stroke-linecap:square;stroke-linejoin:miter;stroke-width:0.8;"/>
   </g>
   <g id="patch_28">
    <path d="M 69.12 354.651429 
L 547.2 354.651429 
" style="fill:none;stroke:#000000;stroke-linecap:square;stroke-linejoin:miter;stroke-width:0.8;"/>
   </g>
   <g id="patch_29">
    <path d="M 69.12 209.828571 
L 547.2 209.828571 
" style="fill:none;stroke:#000000;stroke-linecap:square;stroke-linejoin:miter;stroke-width:0.8;"/>
   </g>
   <g id="text_32">
    <!-- Python simulator -->
    <defs>
     <path d="M 19.671875 64.796875 
L 19.671875 37.40625 
L 32.078125 37.40625 
Q 38.96875 37.40625 42.71875 40.96875 
Q 46.484375 44.53125 46.484375 51.125 
Q 46.484375 57.671875 42.71875 61.234375 
Q 38.96875 64.796875 32.078125 64.796875 
z
M 9.8125 72.90625 
L 32.078125 72.90625 
Q 44.34375 72.90625 50.609375 67.359375 
Q 56.890625 61.8125 56.890625 51.125 
Q 56.890625 40.328125 50.609375 34.8125 
Q 44.34375 29.296875 32.078125 29.296875 
L 19.671875 29.296875 
L 19.671875 0 
L 9.8125 0 
z
" id="DejaVuSans-80"/>
     <path d="M 32.171875 -5.078125 
Q 28.375 -14.84375 24.75 -17.8125 
Q 21.140625 -20.796875 15.09375 -20.796875 
L 7.90625 -20.796875 
L 7.90625 -13.28125 
L 13.1875 -13.28125 
Q 16.890625 -13.28125 18.9375 -11.515625 
Q 21 -9.765625 23.484375 -3.21875 
L 25.09375 0.875 
L 2.984375 54.6875 
L 12.5 54.6875 
L 29.59375 11.921875 
L 46.6875 54.6875 
L 56.203125 54.6875 
z
" id="DejaVuSans-121"/>
     <path d="M 54.890625 33.015625 
L 54.890625 0 
L 45.90625 0 
L 45.90625 32.71875 
Q 45.90625 40.484375 42.875 44.328125 
Q 39.84375 48.1875 33.796875 48.1875 
Q 26.515625 48.1875 22.3125 43.546875 
Q 18.109375 38.921875 18.109375 30.90625 
L 18.109375 0 
L 9.078125 0 
L 9.078125 75.984375 
L 18.109375 75.984375 
L 18.109375 46.1875 
Q 21.34375 51.125 25.703125 53.5625 
Q 30.078125 56 35.796875 56 
Q 45.21875 56 50.046875 50.171875 
Q 54.890625 44.34375 54.890625 33.015625 
z
" id="DejaVuSans-104"/>
     <path d="M 44.28125 53.078125 
L 44.28125 44.578125 
Q 40.484375 46.53125 36.375 47.5 
Q 32.28125 48.484375 27.875 48.484375 
Q 21.1875 48.484375 17.84375 46.4375 
Q 14.5 44.390625 14.5 40.28125 
Q 14.5 37.15625 16.890625 35.375 
Q 19.28125 33.59375 26.515625 31.984375 
L 29.59375 31.296875 
Q 39.15625 29.25 43.1875 25.515625 
Q 47.21875 21.78125 47.21875 15.09375 
Q 47.21875 7.46875 41.1875 3.015625 
Q 35.15625 -1.421875 24.609375 -1.421875 
Q 20.21875 -1.421875 15.453125 -0.5625 
Q 10.6875 0.296875 5.421875 2 
L 5.421875 11.28125 
Q 10.40625 8.6875 15.234375 7.390625 
Q 20.0625 6.109375 24.8125 6.109375 
Q 31.15625 6.109375 34.5625 8.28125 
Q 37.984375 10.453125 37.984375 14.40625 
Q 37.984375 18.0625 35.515625 20.015625 
Q 33.0625 21.96875 24.703125 23.78125 
L 21.578125 24.515625 
Q 13.234375 26.265625 9.515625 29.90625 
Q 5.8125 33.546875 5.8125 39.890625 
Q 5.8125 47.609375 11.28125 51.796875 
Q 16.75 56 26.8125 56 
Q 31.78125 56 36.171875 55.265625 
Q 40.578125 54.546875 44.28125 53.078125 
z
" id="DejaVuSans-115"/>
     <path d="M 52 44.1875 
Q 55.375 50.25 60.0625 53.125 
Q 64.75 56 71.09375 56 
Q 79.640625 56 84.28125 50.015625 
Q 88.921875 44.046875 88.921875 33.015625 
L 88.921875 0 
L 79.890625 0 
L 79.890625 32.71875 
Q 79.890625 40.578125 77.09375 44.375 
Q 74.3125 48.1875 68.609375 48.1875 
Q 61.625 48.1875 57.5625 43.546875 
Q 53.515625 38.921875 53.515625 30.90625 
L 53.515625 0 
L 44.484375 0 
L 44.484375 32.71875 
Q 44.484375 40.625 41.703125 44.40625 
Q 38.921875 48.1875 33.109375 48.1875 
Q 26.21875 48.1875 22.15625 43.53125 
Q 18.109375 38.875 18.109375 30.90625 
L 18.109375 0 
L 9.078125 0 
L 9.078125 54.6875 
L 18.109375 54.6875 
L 18.109375 46.1875 
Q 21.1875 51.21875 25.484375 53.609375 
Q 29.78125 56 35.6875 56 
Q 41.65625 56 45.828125 52.96875 
Q 50 49.953125 52 44.1875 
z
" id="DejaVuSans-109"/>
     <path d="M 41.109375 46.296875 
Q 39.59375 47.171875 37.8125 47.578125 
Q 36.03125 48 33.890625 48 
Q 26.265625 48 22.1875 43.046875 
Q 18.109375 38.09375 18.109375 28.8125 
L 18.109375 0 
L 9.078125 0 
L 9.078125 54.6875 
L 18.109375 54.6875 
L 18.109375 46.1875 
Q 20.953125 51.171875 25.484375 53.578125 
Q 30.03125 56 36.53125 56 
Q 37.453125 56 38.578125 55.875 
Q 39.703125 55.765625 41.0625 55.515625 
z
" id="DejaVuSans-114"/>
    </defs>
    <g transform="translate(265.67875 203.828571)scale(0.1 -0.1)">
     <use xlink:href="#DejaVuSans-80"/>
     <use x="60.302734" xlink:href="#DejaVuSans-121"/>
     <use x="119.482422" xlink:href="#DejaVuSans-116"/>
     <use x="158.691406" xlink:href="#DejaVuSans-104"/>
     <use x="222.070312" xlink:href="#DejaVuSans-111"/>
     <use x="283.251953" xlink:href="#DejaVuSans-110"/>
     <use x="346.630859" xlink:href="#DejaVuSans-32"/>
     <use x="378.417969" xlink:href="#DejaVuSans-115"/>
     <use x="430.517578" xlink:href="#DejaVuSans-105"/>
     <use x="458.300781" xlink:href="#DejaVuSans-109"/>
     <use x="555.712891" xlink:href="#DejaVuSans-117"/>
     <use x="619.091797" xlink:href="#DejaVuSans-108"/>
     <use x="646.875" xlink:href="#DejaVuSans-97"/>
     <use x="708.154297" xlink:href="#DejaVuSans-116"/>
     <use x="747.363281" xlink:href="#DejaVuSans-111"/>
     <use x="808.544922" xlink:href="#DejaVuSans-114"/>
    </g>
   </g>
  </g>
  <g id="axes_3">
   <g id="patch_30">
    <path d="M 69.12 535.68 
L 547.2 535.68 
L 547.2 390.857143 
L 69.12 390.857143 
z
" style="fill:#ffffff;"/>
   </g>
   <g id="patch_31">
    <path clip-path="url(#p5dd5fbb302)" d="M 69.12 535.68 
L 69.12 390.857143 
L 165.507097 390.857143 
L 165.507097 535.68 
z
" style="opacity:0.1;stroke:#000000;stroke-linejoin:miter;"/>
   </g>
   <g id="patch_32">
    <path clip-path="url(#p5dd5fbb302)" d="M 165.507097 535.68 
L 165.507097 390.857143 
L 231.243097 390.857143 
L 231.243097 535.68 
z
" style="opacity:0.25;stroke:#000000;stroke-linejoin:miter;"/>
   </g>
   <g id="patch_33">
    <path clip-path="url(#p5dd5fbb302)" d="M 231.243097 535.68 
L 231.243097 390.857143 
L 264.933632 390.857143 
L 264.933632 535.68 
z
" style="opacity:0.4;stroke:#000000;stroke-linejoin:miter;"/>
   </g>
   <g id="patch_34">
    <path clip-path="url(#p5dd5fbb302)" d="M 264.933632 535.68 
L 264.933632 390.857143 
L 274.247846 390.857143 
L 274.247846 535.68 
z
" style="opacity:0.1;stroke:#000000;stroke-linejoin:miter;"/>
   </g>
   <g id="patch_35">
    <path clip-path="url(#p5dd5fbb302)" d="M 274.247846 535.68 
L 274.247846 390.857143 
L 339.983846 390.857143 
L 339.983846 535.68 
z
" style="opacity:0.25;stroke:#000000;stroke-linejoin:miter;"/>
   </g>
   <g id="patch_36">
    <path clip-path="url(#p5dd5fbb302)" d="M 339.983846 535.68 
L 339.983846 390.857143 
L 373.515051 390.857143 
L 373.515051 535.68 
z
" style="opacity:0.4;stroke:#000000;stroke-linejoin:miter;"/>
   </g>
   <g id="patch_37">
    <path clip-path="url(#p5dd5fbb302)" d="M 373.515051 535.68 
L 373.515051 390.857143 
L 382.829265 390.857143 
L 382.829265 535.68 
z
" style="opacity:0.1;stroke:#000000;stroke-linejoin:miter;"/>
   </g>
   <g id="patch_38">
    <path clip-path="url(#p5dd5fbb302)" d="M 382.829265 535.68 
L 382.829265 390.857143 
L 448.565265 390.857143 
L 448.565265 535.68 
z
" style="opacity:0.25;stroke:#000000;stroke-linejoin:miter;"/>
   </g>
   <g id="patch_39">
    <path clip-path="url(#p5dd5fbb302)" d="M 448.565265 535.68 
L 448.565265 390.857143 
L 482.374094 390.857143 
L 482.374094 535.68 
z
" style="opacity:0.4;stroke:#000000;stroke-linejoin:miter;"/>
   </g>
   <g id="matplotlib.axis_5">
    <g id="xtick_19">
     <g id="line2d_43">
      <g>
       <use style="stroke:#000000;stroke-width:0.8;" x="69.12" xlink:href="#mc66b4e4773" y="535.68"/>
      </g>
     </g>
     <g id="text_33">
      <!-- 0 -->
      <g transform="translate(65.93875 550.278437)scale(0.1 -0.1)">
       <use xlink:href="#DejaVuSans-48"/>
      </g>
     </g>
    </g>
    <g id="xtick_20">
     <g id="line2d_44">
      <g>
       <use style="stroke:#000000;stroke-width:0.8;" x="128.88" xlink:href="#mc66b4e4773" y="535.68"/>
      </g>
     </g>
     <g id="text_34">
      <!-- 100 -->
      <g transform="translate(119.33625 550.278437)scale(0.1 -0.1)">
       <use xlink:href="#DejaVuSans-49"/>
       <use x="63.623047" xlink:href="#DejaVuSans-48"/>
       <use x="127.246094" xlink:href="#DejaVuSans-48"/>
      </g>
     </g>
    </g>
    <g id="xtick_21">
     <g id="line2d_45">
      <g>
       <use style="stroke:#000000;stroke-width:0.8;" x="188.64" xlink:href="#mc66b4e4773" y="535.68"/>
      </g>
     </g>
     <g id="text_35">
      <!-- 200 -->
      <g transform="translate(179.09625 550.278437)scale(0.1 -0.1)">
       <use xlink:href="#DejaVuSans-50"/>
       <use x="63.623047" xlink:href="#DejaVuSans-48"/>
       <use x="127.246094" xlink:href="#DejaVuSans-48"/>
      </g>
     </g>
    </g>
    <g id="xtick_22">
     <g id="line2d_46">
      <g>
       <use style="stroke:#000000;stroke-width:0.8;" x="248.4" xlink:href="#mc66b4e4773" y="535.68"/>
      </g>
     </g>
     <g id="text_36">
      <!-- 300 -->
      <g transform="translate(238.85625 550.278437)scale(0.1 -0.1)">
       <use xlink:href="#DejaVuSans-51"/>
       <use x="63.623047" xlink:href="#DejaVuSans-48"/>
       <use x="127.246094" xlink:href="#DejaVuSans-48"/>
      </g>
     </g>
    </g>
    <g id="xtick_23">
     <g id="line2d_47">
      <g>
       <use style="stroke:#000000;stroke-width:0.8;" x="308.16" xlink:href="#mc66b4e4773" y="535.68"/>
      </g>
     </g>
     <g id="text_37">
      <!-- 400 -->
      <g transform="translate(298.61625 550.278437)scale(0.1 -0.1)">
       <use xlink:href="#DejaVuSans-52"/>
       <use x="63.623047" xlink:href="#DejaVuSans-48"/>
       <use x="127.246094" xlink:href="#DejaVuSans-48"/>
      </g>
     </g>
    </g>
    <g id="xtick_24">
     <g id="line2d_48">
      <g>
       <use style="stroke:#000000;stroke-width:0.8;" x="367.92" xlink:href="#mc66b4e4773" y="535.68"/>
      </g>
     </g>
     <g id="text_38">
      <!-- 500 -->
      <g transform="translate(358.37625 550.278437)scale(0.1 -0.1)">
       <use xlink:href="#DejaVuSans-53"/>
       <use x="63.623047" xlink:href="#DejaVuSans-48"/>
       <use x="127.246094" xlink:href="#DejaVuSans-48"/>
      </g>
     </g>
    </g>
    <g id="xtick_25">
     <g id="line2d_49">
      <g>
       <use style="stroke:#000000;stroke-width:0.8;" x="427.68" xlink:href="#mc66b4e4773" y="535.68"/>
      </g>
     </g>
     <g id="text_39">
      <!-- 600 -->
      <g transform="translate(418.13625 550.278437)scale(0.1 -0.1)">
       <use xlink:href="#DejaVuSans-54"/>
       <use x="63.623047" xlink:href="#DejaVuSans-48"/>
       <use x="127.246094" xlink:href="#DejaVuSans-48"/>
      </g>
     </g>
    </g>
    <g id="xtick_26">
     <g id="line2d_50">
      <g>
       <use style="stroke:#000000;stroke-width:0.8;" x="487.44" xlink:href="#mc66b4e4773" y="535.68"/>
      </g>
     </g>
     <g id="text_40">
      <!-- 700 -->
      <g transform="translate(477.89625 550.278437)scale(0.1 -0.1)">
       <use xlink:href="#DejaVuSans-55"/>
       <use x="63.623047" xlink:href="#DejaVuSans-48"/>
       <use x="127.246094" xlink:href="#DejaVuSans-48"/>
      </g>
     </g>
    </g>
    <g id="xtick_27">
     <g id="line2d_51">
      <g>
       <use style="stroke:#000000;stroke-width:0.8;" x="547.2" xlink:href="#mc66b4e4773" y="535.68"/>
      </g>
     </g>
     <g id="text_41">
      <!-- 800 -->
      <g transform="translate(537.65625 550.278437)scale(0.1 -0.1)">
       <use xlink:href="#DejaVuSans-56"/>
       <use x="63.623047" xlink:href="#DejaVuSans-48"/>
       <use x="127.246094" xlink:href="#DejaVuSans-48"/>
      </g>
     </g>
    </g>
   </g>
   <g id="matplotlib.axis_6">
    <g id="ytick_13">
     <g id="line2d_52">
      <g>
       <use style="stroke:#000000;stroke-width:0.8;" x="69.12" xlink:href="#m9e5f920722" y="529.048035"/>
      </g>
     </g>
     <g id="text_42">
      <!-- 0 -->
      <g transform="translate(55.7575 532.847254)scale(0.1 -0.1)">
       <use xlink:href="#DejaVuSans-48"/>
      </g>
     </g>
    </g>
    <g id="ytick_14">
     <g id="line2d_53">
      <g>
       <use style="stroke:#000000;stroke-width:0.8;" x="69.12" xlink:href="#m9e5f920722" y="504.494297"/>
      </g>
     </g>
     <g id="text_43">
      <!-- 50 -->
      <g transform="translate(49.395 508.293516)scale(0.1 -0.1)">
       <use xlink:href="#DejaVuSans-53"/>
       <use x="63.623047" xlink:href="#DejaVuSans-48"/>
      </g>
     </g>
    </g>
    <g id="ytick_15">
     <g id="line2d_54">
      <g>
       <use style="stroke:#000000;stroke-width:0.8;" x="69.12" xlink:href="#m9e5f920722" y="479.940559"/>
      </g>
     </g>
     <g id="text_44">
      <!-- 100 -->
      <g transform="translate(43.0325 483.739778)scale(0.1 -0.1)">
       <use xlink:href="#DejaVuSans-49"/>
       <use x="63.623047" xlink:href="#DejaVuSans-48"/>
       <use x="127.246094" xlink:href="#DejaVuSans-48"/>
      </g>
     </g>
    </g>
    <g id="ytick_16">
     <g id="line2d_55">
      <g>
       <use style="stroke:#000000;stroke-width:0.8;" x="69.12" xlink:href="#m9e5f920722" y="455.386822"/>
      </g>
     </g>
     <g id="text_45">
      <!-- 150 -->
      <g transform="translate(43.0325 459.18604)scale(0.1 -0.1)">
       <use xlink:href="#DejaVuSans-49"/>
       <use x="63.623047" xlink:href="#DejaVuSans-53"/>
       <use x="127.246094" xlink:href="#DejaVuSans-48"/>
      </g>
     </g>
    </g>
    <g id="ytick_17">
     <g id="line2d_56">
      <g>
       <use style="stroke:#000000;stroke-width:0.8;" x="69.12" xlink:href="#m9e5f920722" y="430.833084"/>
      </g>
     </g>
     <g id="text_46">
      <!-- 200 -->
      <g transform="translate(43.0325 434.632302)scale(0.1 -0.1)">
       <use xlink:href="#DejaVuSans-50"/>
       <use x="63.623047" xlink:href="#DejaVuSans-48"/>
       <use x="127.246094" xlink:href="#DejaVuSans-48"/>
      </g>
     </g>
    </g>
    <g id="ytick_18">
     <g id="line2d_57">
      <g>
       <use style="stroke:#000000;stroke-width:0.8;" x="69.12" xlink:href="#m9e5f920722" y="406.279346"/>
      </g>
     </g>
     <g id="text_47">
      <!-- 250 -->
      <g transform="translate(43.0325 410.078564)scale(0.1 -0.1)">
       <use xlink:href="#DejaVuSans-50"/>
       <use x="63.623047" xlink:href="#DejaVuSans-53"/>
       <use x="127.246094" xlink:href="#DejaVuSans-48"/>
      </g>
     </g>
    </g>
   </g>
   <g id="line2d_58">
    <path clip-path="url(#p5dd5fbb302)" d="M 69.12 397.44 
L 482.374094 397.44 
L 482.374094 397.44 
" style="fill:none;stroke:#000000;stroke-dasharray:1,1.65;stroke-dashoffset:0;"/>
   </g>
   <g id="line2d_59">
    <path clip-path="url(#p5dd5fbb302)" d="M 69.12 529.048035 
L 78.084 522.222096 
L 78.084 522.222096 
L 93.024 510.829162 
L 93.024 510.829162 
L 99 506.213059 
L 99 506.213059 
L 116.928 492.561181 
L 116.928 492.561181 
L 122.904 487.945078 
L 122.904 487.945078 
L 140.832 474.2932 
L 140.832 474.2932 
L 146.808 469.677097 
L 146.808 469.677097 
L 164.736 456.025219 
L 164.736 456.025219 
L 165.507097 455.386822 
L 231.267934 455.288607 
L 238.098358 428.279495 
L 238.098358 428.279495 
L 238.508745 428.18128 
L 238.521164 428.132172 
L 238.93155 428.033957 
L 238.943969 427.98485 
L 238.943969 427.98485 
L 239.354355 427.886635 
L 239.436 427.837528 
L 239.436 427.837528 
L 239.777161 427.739313 
L 239.78958 427.690205 
L 239.78958 427.690205 
L 240.199966 427.59199 
L 240.212385 427.542883 
L 240.212385 427.542883 
L 240.622771 427.444668 
L 240.63519 427.39556 
L 240.63519 427.39556 
L 241.045576 427.297345 
L 241.057995 427.248238 
L 241.057995 427.248238 
L 241.468381 427.150023 
L 241.480801 427.100915 
L 241.480801 427.100915 
L 241.891187 427.0027 
L 241.903606 426.953593 
L 241.903606 426.953593 
L 242.313992 426.855378 
L 242.424 426.806271 
L 242.424 426.806271 
L 242.736798 426.708056 
L 242.749216 426.658948 
L 242.749216 426.658948 
L 243.159603 426.560733 
L 243.172021 426.511626 
L 243.172021 426.511626 
L 243.582408 426.413411 
L 243.594827 426.364303 
L 243.594827 426.364303 
L 244.005213 426.266088 
L 244.017632 426.216981 
L 244.017632 426.216981 
L 244.428018 426.118766 
L 244.440437 426.069658 
L 244.440437 426.069658 
L 244.850824 425.971443 
L 244.863242 425.922336 
L 244.863242 425.922336 
L 245.273629 425.824121 
L 245.286048 425.775014 
L 245.286048 425.775014 
L 245.696434 425.676799 
L 245.708853 425.627691 
L 245.708853 425.627691 
L 246.119239 425.529476 
L 246.131658 425.480369 
L 246.131658 425.480369 
L 246.542045 425.382154 
L 246.554464 425.333046 
L 246.554464 425.333046 
L 246.96485 425.234831 
L 246.977269 425.185724 
L 247.387655 425.087509 
L 247.400074 425.038401 
L 247.400074 425.038401 
L 247.81046 424.940186 
L 247.822879 424.891079 
L 247.822879 424.891079 
L 248.233265 424.792864 
L 248.245685 424.743757 
L 248.245685 424.743757 
L 248.656071 424.645542 
L 248.66849 424.596434 
L 248.66849 424.596434 
L 249.078876 424.498219 
L 249.091295 424.449112 
L 249.091295 424.449112 
L 249.501682 424.350897 
L 249.5141 424.301789 
L 249.5141 424.301789 
L 249.924487 424.203574 
L 249.936905 424.154467 
L 249.936905 424.154467 
L 250.347292 424.056252 
L 250.359711 424.007144 
L 250.359711 424.007144 
L 250.770097 423.90893 
L 250.782516 423.859822 
L 250.782516 423.859822 
L 251.192902 423.761607 
L 251.205321 423.7125 
L 251.205321 423.7125 
L 251.830996 423.614285 
L 251.855834 423.51607 
L 251.855834 423.51607 
L 252.137704 423.417855 
L 252.150123 423.368747 
L 252.150123 423.368747 
L 252.689025 423.270532 
L 252.713863 423.172317 
L 252.713863 423.172317 
L 253.252766 423.074102 
L 253.290023 422.92678 
L 253.290023 422.92678 
L 253.828925 422.828565 
L 253.853763 422.73035 
L 253.853763 422.73035 
L 254.392665 422.632135 
L 254.417503 422.53392 
L 254.417503 422.53392 
L 254.699373 422.435705 
L 254.711793 422.386598 
L 254.711793 422.386598 
L 255.250695 422.288383 
L 255.275533 422.190168 
L 255.275533 422.190168 
L 255.814435 422.091953 
L 255.839273 421.993738 
L 255.839273 421.993738 
L 256.121143 421.895523 
L 256.133563 421.846416 
L 256.133563 421.846416 
L 256.672464 421.748201 
L 256.697302 421.649986 
L 256.697302 421.649986 
L 257.236205 421.551771 
L 257.273462 421.404448 
L 257.273462 421.404448 
L 257.812364 421.306233 
L 257.837202 421.208018 
L 257.837202 421.208018 
L 258.376104 421.109803 
L 258.400942 421.011588 
L 258.400942 421.011588 
L 258.682812 420.913373 
L 258.695232 420.864266 
L 258.695232 420.864266 
L 259.234134 420.766051 
L 259.258972 420.667836 
L 259.258972 420.667836 
L 259.797874 420.569621 
L 259.822712 420.471406 
L 259.822712 420.471406 
L 260.104582 420.373191 
L 260.117002 420.324084 
L 260.655904 420.225869 
L 260.680742 420.127654 
L 260.680742 420.127654 
L 261.219644 420.029439 
L 261.256901 419.882116 
L 261.256901 419.882116 
L 261.795803 419.783902 
L 261.820641 419.685687 
L 261.820641 419.685687 
L 262.359544 419.587472 
L 262.384381 419.489257 
L 262.384381 419.489257 
L 262.666252 419.391042 
L 262.678671 419.341934 
L 263.217573 419.243719 
L 263.242411 419.145504 
L 263.242411 419.145504 
L 263.781313 419.047289 
L 263.806151 418.949074 
L 263.806151 418.949074 
L 264.088021 418.850859 
L 264.100441 418.801752 
L 264.639343 418.703537 
L 264.664181 418.605322 
L 264.664181 418.605322 
L 264.933632 418.556215 
L 264.933632 455.386822 
L 274.247846 418.556215 
L 340.008684 418.458 
L 345.435767 397.44 
L 373.515051 397.44 
L 373.515051 434.270607 
L 382.829265 397.44 
L 482.374094 397.44 
L 482.374094 397.44 
" style="fill:none;stroke:#008000;stroke-linecap:square;"/>
   </g>
   <g id="line2d_60">
    <path clip-path="url(#p5dd5fbb302)" d="M 69.12 529.048035 
L 78.084 525.610512 
L 78.084 525.610512 
L 104.976 515.34705 
L 104.976 515.34705 
L 113.94 511.909526 
L 113.94 511.909526 
L 140.832 501.646064 
L 140.832 501.646064 
L 149.796 498.208541 
L 149.796 498.208541 
L 165.507097 492.217428 
L 231.267934 492.119214 
L 238.098358 465.110102 
L 238.098358 465.110102 
L 238.508745 465.011887 
L 238.521164 464.962779 
L 238.93155 464.864564 
L 238.943969 464.815457 
L 238.943969 464.815457 
L 239.354355 464.717242 
L 239.436 464.668134 
L 239.436 464.668134 
L 239.777161 464.56992 
L 239.78958 464.520812 
L 239.78958 464.520812 
L 240.199966 464.422597 
L 240.212385 464.37349 
L 240.212385 464.37349 
L 240.622771 464.275275 
L 240.63519 464.226167 
L 241.045576 464.127952 
L 241.057995 464.078845 
L 241.057995 464.078845 
L 241.468381 463.98063 
L 241.480801 463.931522 
L 241.891187 463.833307 
L 241.903606 463.7842 
L 242.313992 463.685985 
L 242.424 463.636877 
L 242.424 463.636877 
L 242.736798 463.538663 
L 242.749216 463.489555 
L 242.749216 463.489555 
L 243.159603 463.39134 
L 243.172021 463.342233 
L 243.172021 463.342233 
L 243.582408 463.244018 
L 243.594827 463.19491 
L 243.594827 463.19491 
L 244.005213 463.096695 
L 244.017632 463.047588 
L 244.017632 463.047588 
L 244.428018 462.949373 
L 244.440437 462.900265 
L 244.440437 462.900265 
L 244.850824 462.80205 
L 244.863242 462.752943 
L 244.863242 462.752943 
L 245.273629 462.654728 
L 245.286048 462.605621 
L 245.286048 462.605621 
L 245.696434 462.507406 
L 245.708853 462.458298 
L 245.708853 462.458298 
L 246.119239 462.360083 
L 246.131658 462.310976 
L 246.131658 462.310976 
L 246.542045 462.212761 
L 246.554464 462.163653 
L 246.554464 462.163653 
L 246.96485 462.065438 
L 246.977269 462.016331 
L 246.977269 462.016331 
L 247.387655 461.918116 
L 247.400074 461.869008 
L 247.400074 461.869008 
L 247.81046 461.770793 
L 247.822879 461.721686 
L 247.822879 461.721686 
L 248.233265 461.623471 
L 248.245685 461.574364 
L 248.245685 461.574364 
L 248.656071 461.476149 
L 248.66849 461.427041 
L 249.078876 461.328826 
L 249.091295 461.279719 
L 249.091295 461.279719 
L 249.501682 461.181504 
L 249.5141 461.132396 
L 249.5141 461.132396 
L 249.924487 461.034181 
L 249.936905 460.985074 
L 249.936905 460.985074 
L 250.347292 460.886859 
L 250.359711 460.837751 
L 250.770097 460.739536 
L 250.782516 460.690429 
L 250.782516 460.690429 
L 251.192902 460.592214 
L 251.205321 460.543107 
L 251.205321 460.543107 
L 251.830996 460.444892 
L 251.855834 460.346677 
L 251.855834 460.346677 
L 252.137704 460.248462 
L 252.150123 460.199354 
L 252.150123 460.199354 
L 252.689025 460.101139 
L 252.713863 460.002924 
L 252.713863 460.002924 
L 253.252766 459.904709 
L 253.290023 459.757387 
L 253.290023 459.757387 
L 253.828925 459.659172 
L 253.853763 459.560957 
L 253.853763 459.560957 
L 254.392665 459.462742 
L 254.417503 459.364527 
L 254.417503 459.364527 
L 254.699373 459.266312 
L 254.711793 459.217205 
L 254.711793 459.217205 
L 255.250695 459.11899 
L 255.275533 459.020775 
L 255.275533 459.020775 
L 255.814435 458.92256 
L 255.839273 458.824345 
L 255.839273 458.824345 
L 256.121143 458.72613 
L 256.133563 458.677022 
L 256.133563 458.677022 
L 256.672464 458.578807 
L 256.697302 458.480593 
L 256.697302 458.480593 
L 257.236205 458.382378 
L 257.273462 458.235055 
L 257.273462 458.235055 
L 257.812364 458.13684 
L 257.837202 458.038625 
L 257.837202 458.038625 
L 258.376104 457.94041 
L 258.400942 457.842195 
L 258.400942 457.842195 
L 258.682812 457.74398 
L 258.695232 457.694873 
L 258.695232 457.694873 
L 259.234134 457.596658 
L 259.258972 457.498443 
L 259.258972 457.498443 
L 259.797874 457.400228 
L 259.822712 457.302013 
L 259.822712 457.302013 
L 260.104582 457.203798 
L 260.117002 457.154691 
L 260.655904 457.056476 
L 260.680742 456.958261 
L 260.680742 456.958261 
L 261.219644 456.860046 
L 261.256901 456.712723 
L 261.256901 456.712723 
L 261.795803 456.614508 
L 261.820641 456.516293 
L 261.820641 456.516293 
L 262.359544 456.418079 
L 262.384381 456.319864 
L 262.384381 456.319864 
L 262.666252 456.221649 
L 262.678671 456.172541 
L 262.678671 456.172541 
L 263.217573 456.074326 
L 263.242411 455.976111 
L 263.242411 455.976111 
L 263.781313 455.877896 
L 263.806151 455.779681 
L 263.806151 455.779681 
L 264.088021 455.681466 
L 264.100441 455.632359 
L 264.639343 455.534144 
L 264.664181 455.435929 
L 264.664181 455.435929 
L 339.996266 455.337714 
L 345.435767 434.270607 
L 482.374094 434.270607 
L 482.374094 434.270607 
" style="fill:none;stroke:#bf00bf;stroke-linecap:square;"/>
   </g>
   <g id="line2d_61">
    <path clip-path="url(#p5dd5fbb302)" d="M 69.12 529.048035 
L 231.267934 528.94982 
L 238.098358 501.940709 
L 238.098358 501.940709 
L 238.508745 501.989816 
L 238.521164 501.940709 
L 238.521164 501.940709 
L 238.93155 501.989816 
L 238.943969 501.940709 
L 238.943969 501.940709 
L 239.354355 501.989816 
L 239.436 501.940709 
L 239.436 501.940709 
L 239.636225 501.989816 
L 239.648645 501.940709 
L 239.648645 501.940709 
L 240.059031 501.989816 
L 240.07145 501.940709 
L 240.07145 501.940709 
L 240.481836 501.989816 
L 240.494255 501.940709 
L 240.494255 501.940709 
L 240.904641 501.989816 
L 240.91706 501.940709 
L 240.91706 501.940709 
L 241.327446 501.989816 
L 241.339866 501.940709 
L 241.339866 501.940709 
L 241.750252 501.989816 
L 241.762671 501.940709 
L 241.762671 501.940709 
L 242.173057 501.989816 
L 242.185476 501.940709 
L 242.185476 501.940709 
L 242.595862 501.989816 
L 242.608281 501.940709 
L 242.608281 501.940709 
L 243.018668 501.989816 
L 243.031086 501.940709 
L 243.031086 501.940709 
L 243.441473 501.989816 
L 243.453892 501.940709 
L 243.453892 501.940709 
L 243.864278 501.989816 
L 243.876697 501.940709 
L 243.876697 501.940709 
L 244.287083 501.989816 
L 244.299502 501.940709 
L 244.299502 501.940709 
L 244.709889 501.989816 
L 244.722307 501.940709 
L 244.722307 501.940709 
L 245.132694 501.989816 
L 245.145112 501.940709 
L 245.145112 501.940709 
L 245.555499 501.989816 
L 245.567918 501.940709 
L 245.567918 501.940709 
L 245.978304 501.989816 
L 245.990723 501.940709 
L 245.990723 501.940709 
L 246.401109 501.989816 
L 246.413529 501.940709 
L 246.413529 501.940709 
L 246.823915 501.989816 
L 246.836334 501.940709 
L 246.836334 501.940709 
L 247.24672 501.989816 
L 247.259139 501.940709 
L 247.259139 501.940709 
L 247.669525 501.989816 
L 247.681944 501.940709 
L 247.681944 501.940709 
L 248.09233 501.989816 
L 248.104749 501.940709 
L 248.104749 501.940709 
L 248.515136 501.989816 
L 248.527555 501.940709 
L 248.527555 501.940709 
L 248.937941 501.989816 
L 248.95036 501.940709 
L 248.95036 501.940709 
L 249.360746 501.989816 
L 249.373165 501.940709 
L 249.373165 501.940709 
L 249.783552 501.989816 
L 249.79597 501.940709 
L 249.79597 501.940709 
L 250.206357 501.989816 
L 250.218776 501.940709 
L 250.218776 501.940709 
L 250.629162 501.989816 
L 250.641581 501.940709 
L 250.641581 501.940709 
L 251.051967 501.989816 
L 251.064386 501.940709 
L 251.064386 501.940709 
L 251.333837 501.989816 
L 251.346256 501.940709 
L 264.933632 501.989816 
L 264.933632 501.989816 
L 274.247846 505.574662 
L 335.781353 529.097143 
L 335.781353 529.097143 
L 340.008684 528.998928 
L 346.902934 501.960352 
L 346.902934 501.960352 
L 347.31332 502.009459 
L 347.325739 501.960352 
L 347.325739 501.960352 
L 347.59519 502.009459 
L 347.607609 501.960352 
L 373.515051 502.009459 
L 373.515051 502.009459 
L 380.278188 504.612155 
L 380.278188 504.612155 
L 382.829265 505.397875 
L 444.356329 528.920356 
L 444.356329 528.920356 
L 448.590103 528.822141 
L 455.383271 501.960352 
L 455.383271 501.960352 
L 455.793657 502.009459 
L 455.806076 501.960352 
L 455.806076 501.960352 
L 456.216462 502.009459 
L 456.308329 501.960352 
L 456.308329 501.960352 
L 456.498332 502.009459 
L 456.510751 501.960352 
L 456.510751 501.960352 
L 456.921138 502.009459 
L 456.933556 501.960352 
L 456.933556 501.960352 
L 457.343943 502.009459 
L 457.356362 501.960352 
L 457.766748 502.009459 
L 457.779167 501.960352 
L 457.779167 501.960352 
L 458.189553 502.009459 
L 458.201972 501.960352 
L 458.201972 501.960352 
L 458.612359 502.009459 
L 458.624777 501.960352 
L 458.624777 501.960352 
L 459.035164 502.009459 
L 459.047582 501.960352 
L 459.047582 501.960352 
L 459.457969 502.009459 
L 459.470388 501.960352 
L 459.470388 501.960352 
L 459.880774 502.009459 
L 459.893193 501.960352 
L 459.893193 501.960352 
L 460.303579 502.009459 
L 460.315999 501.960352 
L 460.726385 502.009459 
L 460.738804 501.960352 
L 460.738804 501.960352 
L 461.14919 502.009459 
L 461.161609 501.960352 
L 461.161609 501.960352 
L 461.571995 502.009459 
L 461.584414 501.960352 
L 461.584414 501.960352 
L 461.9948 502.009459 
L 462.007219 501.960352 
L 462.007219 501.960352 
L 462.417605 502.009459 
L 462.430025 501.960352 
L 462.430025 501.960352 
L 462.840411 502.009459 
L 462.85283 501.960352 
L 462.85283 501.960352 
L 463.263216 502.009459 
L 463.275635 501.960352 
L 463.275635 501.960352 
L 463.686022 502.009459 
L 463.69844 501.960352 
L 463.69844 501.960352 
L 464.108826 502.009459 
L 464.121246 501.960352 
L 464.531632 502.009459 
L 464.544051 501.960352 
L 464.544051 501.960352 
L 464.954437 502.009459 
L 464.966856 501.960352 
L 464.966856 501.960352 
L 465.377242 502.009459 
L 465.389661 501.960352 
L 465.800048 502.009459 
L 465.812466 501.960352 
L 465.812466 501.960352 
L 466.222853 502.009459 
L 466.235272 501.960352 
L 466.235272 501.960352 
L 466.645658 502.009459 
L 466.658077 501.960352 
L 466.658077 501.960352 
L 467.068463 502.009459 
L 467.080883 501.960352 
L 467.080883 501.960352 
L 467.491269 502.009459 
L 467.503688 501.960352 
L 467.503688 501.960352 
L 467.914074 502.009459 
L 467.926492 501.960352 
L 467.926492 501.960352 
L 468.195944 502.009459 
L 468.208363 501.960352 
L 482.374094 501.960352 
L 482.374094 501.960352 
" style="fill:none;stroke:#ff0000;stroke-linecap:square;"/>
   </g>
   <g id="line2d_62">
    <path clip-path="url(#p5dd5fbb302)" d="M 69.12 397.44 
L 104.976 411.091878 
L 104.976 411.091878 
L 113.94 414.529402 
L 113.94 414.529402 
L 140.832 424.792864 
L 140.832 424.792864 
L 149.796 428.230387 
L 149.796 428.230387 
L 165.507097 434.270607 
L 231.267934 434.368822 
L 238.098358 461.377934 
L 238.098358 461.377934 
L 238.508745 461.328826 
L 238.521164 461.377934 
L 238.521164 461.377934 
L 238.93155 461.328826 
L 238.943969 461.377934 
L 238.943969 461.377934 
L 239.354355 461.328826 
L 239.436 461.377934 
L 239.436 461.377934 
L 239.636225 461.328826 
L 239.648645 461.377934 
L 239.648645 461.377934 
L 240.059031 461.328826 
L 240.07145 461.377934 
L 240.07145 461.377934 
L 240.481836 461.328826 
L 240.494255 461.377934 
L 240.494255 461.377934 
L 240.904641 461.328826 
L 240.91706 461.377934 
L 240.91706 461.377934 
L 241.327446 461.328826 
L 241.339866 461.377934 
L 241.339866 461.377934 
L 241.750252 461.328826 
L 241.762671 461.377934 
L 241.762671 461.377934 
L 242.173057 461.328826 
L 242.185476 461.377934 
L 242.185476 461.377934 
L 242.595862 461.328826 
L 242.608281 461.377934 
L 242.608281 461.377934 
L 243.018668 461.328826 
L 243.031086 461.377934 
L 243.031086 461.377934 
L 243.441473 461.328826 
L 243.453892 461.377934 
L 243.453892 461.377934 
L 243.864278 461.328826 
L 243.876697 461.377934 
L 243.876697 461.377934 
L 244.287083 461.328826 
L 244.299502 461.377934 
L 244.299502 461.377934 
L 244.709889 461.328826 
L 244.722307 461.377934 
L 244.722307 461.377934 
L 245.132694 461.328826 
L 245.145112 461.377934 
L 245.145112 461.377934 
L 245.555499 461.328826 
L 245.567918 461.377934 
L 245.567918 461.377934 
L 245.978304 461.328826 
L 245.990723 461.377934 
L 245.990723 461.377934 
L 246.401109 461.328826 
L 246.413529 461.377934 
L 246.413529 461.377934 
L 246.823915 461.328826 
L 246.836334 461.377934 
L 246.836334 461.377934 
L 247.24672 461.328826 
L 247.259139 461.377934 
L 247.259139 461.377934 
L 247.669525 461.328826 
L 247.681944 461.377934 
L 247.681944 461.377934 
L 248.09233 461.328826 
L 248.104749 461.377934 
L 248.104749 461.377934 
L 248.515136 461.328826 
L 248.527555 461.377934 
L 248.527555 461.377934 
L 248.937941 461.328826 
L 248.95036 461.377934 
L 248.95036 461.377934 
L 249.360746 461.328826 
L 249.373165 461.377934 
L 249.373165 461.377934 
L 249.783552 461.328826 
L 249.79597 461.377934 
L 249.79597 461.377934 
L 250.206357 461.328826 
L 250.218776 461.377934 
L 250.218776 461.377934 
L 250.629162 461.328826 
L 250.641581 461.377934 
L 250.641581 461.377934 
L 251.051967 461.328826 
L 251.064386 461.377934 
L 251.064386 461.377934 
L 251.333837 461.328826 
L 251.346256 461.377934 
L 264.933632 461.328826 
L 264.933632 424.498219 
L 274.247846 457.74398 
L 335.781353 434.221499 
L 335.781353 434.221499 
L 340.008684 434.319714 
L 346.902934 461.358291 
L 346.902934 461.358291 
L 347.31332 461.309183 
L 347.325739 461.358291 
L 347.59519 461.309183 
L 347.607609 461.358291 
L 373.515051 461.309183 
L 373.515051 424.478576 
L 382.829265 457.920767 
L 444.356329 434.398286 
L 444.356329 434.398286 
L 448.590103 434.496501 
L 455.383271 461.358291 
L 455.383271 461.358291 
L 455.793657 461.309183 
L 455.806076 461.358291 
L 455.806076 461.358291 
L 456.216462 461.309183 
L 456.308329 461.358291 
L 456.308329 461.358291 
L 456.498332 461.309183 
L 456.510751 461.358291 
L 456.510751 461.358291 
L 456.921138 461.309183 
L 456.933556 461.358291 
L 457.343943 461.309183 
L 457.356362 461.358291 
L 457.356362 461.358291 
L 457.766748 461.309183 
L 457.779167 461.358291 
L 457.779167 461.358291 
L 458.189553 461.309183 
L 458.201972 461.358291 
L 458.201972 461.358291 
L 458.612359 461.309183 
L 458.624777 461.358291 
L 459.035164 461.309183 
L 459.047582 461.358291 
L 459.047582 461.358291 
L 459.457969 461.309183 
L 459.470388 461.358291 
L 459.470388 461.358291 
L 459.880774 461.309183 
L 459.893193 461.358291 
L 459.893193 461.358291 
L 460.303579 461.309183 
L 460.315999 461.358291 
L 460.315999 461.358291 
L 460.726385 461.309183 
L 460.738804 461.358291 
L 460.738804 461.358291 
L 461.14919 461.309183 
L 461.161609 461.358291 
L 461.161609 461.358291 
L 461.571995 461.309183 
L 461.584414 461.358291 
L 461.9948 461.309183 
L 462.007219 461.358291 
L 462.417605 461.309183 
L 462.430025 461.358291 
L 462.430025 461.358291 
L 462.840411 461.309183 
L 462.85283 461.358291 
L 463.263216 461.309183 
L 463.275635 461.358291 
L 463.275635 461.358291 
L 463.686022 461.309183 
L 463.69844 461.358291 
L 463.69844 461.358291 
L 464.108826 461.309183 
L 464.121246 461.358291 
L 464.121246 461.358291 
L 464.531632 461.309183 
L 464.544051 461.358291 
L 464.954437 461.309183 
L 464.966856 461.358291 
L 465.377242 461.309183 
L 465.389661 461.358291 
L 465.389661 461.358291 
L 465.800048 461.309183 
L 465.812466 461.358291 
L 465.812466 461.358291 
L 466.222853 461.309183 
L 466.235272 461.358291 
L 466.235272 461.358291 
L 466.645658 461.309183 
L 466.658077 461.358291 
L 466.658077 461.358291 
L 467.068463 461.309183 
L 467.080883 461.358291 
L 467.080883 461.358291 
L 467.491269 461.309183 
L 467.503688 461.358291 
L 467.914074 461.309183 
L 467.926492 461.358291 
L 467.926492 461.358291 
L 468.195944 461.309183 
L 468.208363 461.358291 
L 482.374094 461.358291 
L 482.374094 461.358291 
" style="fill:none;stroke:#0000ff;stroke-linecap:square;"/>
   </g>
   <g id="line2d_63">
    <path clip-path="url(#p5dd5fbb302)" d="M 69.12 476.404821 
L 140.832 487.345967 
L 140.832 487.345967 
L 161.748 490.547774 
L 161.748 490.547774 
L 165.507097 491.137064 
L 231.305191 491.235279 
L 238.098358 501.979995 
L 238.098358 501.979995 
L 238.93155 501.960352 
L 238.943969 501.979995 
L 238.943969 501.979995 
L 239.777161 501.960352 
L 239.78958 501.979995 
L 239.78958 501.979995 
L 240.622771 501.960352 
L 240.63519 501.979995 
L 240.63519 501.979995 
L 241.468381 501.960352 
L 241.480801 501.979995 
L 241.480801 501.979995 
L 242.313992 501.960352 
L 242.424 501.979995 
L 242.424 501.979995 
L 242.595862 501.960352 
L 242.608281 501.979995 
L 243.441473 501.960352 
L 243.453892 501.979995 
L 243.453892 501.979995 
L 244.287083 501.960352 
L 244.299502 501.979995 
L 244.299502 501.979995 
L 245.132694 501.960352 
L 245.145112 501.979995 
L 245.145112 501.979995 
L 245.978304 501.960352 
L 245.990723 501.979995 
L 245.990723 501.979995 
L 246.823915 501.960352 
L 246.836334 501.979995 
L 246.836334 501.979995 
L 247.669525 501.960352 
L 247.681944 501.979995 
L 247.681944 501.979995 
L 248.515136 501.960352 
L 248.527555 501.979995 
L 248.527555 501.979995 
L 249.360746 501.960352 
L 249.373165 501.979995 
L 249.373165 501.979995 
L 250.206357 501.960352 
L 250.218776 501.979995 
L 250.218776 501.979995 
L 251.051967 501.960352 
L 251.064386 501.979995 
L 251.064386 501.979995 
L 251.843415 501.960352 
L 251.855834 501.979995 
L 251.855834 501.979995 
L 252.701445 501.960352 
L 252.713863 501.979995 
L 252.713863 501.979995 
L 253.559474 501.960352 
L 253.571893 501.979995 
L 253.571893 501.979995 
L 254.405085 501.960352 
L 254.417503 501.979995 
L 254.417503 501.979995 
L 255.263114 501.960352 
L 255.275533 501.979995 
L 255.275533 501.979995 
L 256.121143 501.960352 
L 256.133563 501.979995 
L 256.133563 501.979995 
L 256.966754 501.960352 
L 256.979172 501.979995 
L 256.979172 501.979995 
L 257.824783 501.960352 
L 257.837202 501.979995 
L 257.837202 501.979995 
L 258.682812 501.960352 
L 258.695232 501.979995 
L 258.695232 501.979995 
L 259.528423 501.960352 
L 259.540842 501.979995 
L 259.540842 501.979995 
L 260.386453 501.960352 
L 260.398872 501.979995 
L 260.398872 501.979995 
L 261.244482 501.960352 
L 261.256901 501.979995 
L 261.256901 501.979995 
L 262.090093 501.960352 
L 262.102511 501.979995 
L 262.102511 501.979995 
L 262.948122 501.960352 
L 262.960541 501.979995 
L 262.960541 501.979995 
L 263.793733 501.960352 
L 263.806151 501.979995 
L 263.806151 501.979995 
L 264.651762 501.960352 
L 264.664181 501.979995 
L 264.664181 501.979995 
L 264.933632 501.960352 
L 264.933632 487.228109 
L 274.247846 500.526413 
L 335.781353 491.117421 
L 335.781353 491.117421 
L 340.045941 491.215636 
L 346.902934 501.972137 
L 346.902934 501.972137 
L 347.607609 501.972137 
L 347.607609 501.972137 
L 373.515051 501.952494 
L 373.515051 487.220252 
L 382.829265 500.597128 
L 444.356329 491.188136 
L 444.356329 491.188136 
L 448.62736 491.286351 
L 455.383271 501.972137 
L 455.383271 501.972137 
L 456.216462 501.952494 
L 456.308329 501.972137 
L 456.308329 501.972137 
L 456.639268 501.952494 
L 456.651686 501.972137 
L 456.651686 501.972137 
L 457.484877 501.952494 
L 457.497297 501.972137 
L 457.497297 501.972137 
L 458.330488 501.952494 
L 458.342907 501.972137 
L 458.342907 501.972137 
L 459.176099 501.952494 
L 459.296329 501.972137 
L 459.296329 501.972137 
L 459.457969 501.952494 
L 459.470388 501.972137 
L 459.470388 501.972137 
L 460.303579 501.952494 
L 460.315999 501.972137 
L 460.315999 501.972137 
L 461.14919 501.952494 
L 461.161609 501.972137 
L 461.161609 501.972137 
L 461.9948 501.952494 
L 462.007219 501.972137 
L 462.007219 501.972137 
L 462.840411 501.952494 
L 462.85283 501.972137 
L 462.85283 501.972137 
L 463.686022 501.952494 
L 463.69844 501.972137 
L 463.69844 501.972137 
L 464.531632 501.952494 
L 464.544051 501.972137 
L 464.544051 501.972137 
L 465.377242 501.952494 
L 465.389661 501.972137 
L 465.389661 501.972137 
L 466.222853 501.952494 
L 466.235272 501.972137 
L 466.235272 501.972137 
L 467.068463 501.952494 
L 467.080883 501.972137 
L 467.080883 501.972137 
L 467.914074 501.952494 
L 467.926492 501.972137 
L 467.926492 501.972137 
L 468.695299 501.952494 
L 468.707718 501.972137 
L 468.707718 501.972137 
L 469.553328 501.952494 
L 469.565747 501.972137 
L 469.565747 501.972137 
L 470.411358 501.952494 
L 470.423777 501.972137 
L 470.423777 501.972137 
L 471.256968 501.952494 
L 471.269387 501.972137 
L 471.269387 501.972137 
L 472.114997 501.952494 
L 472.127417 501.972137 
L 472.127417 501.972137 
L 472.973027 501.952494 
L 472.985446 501.972137 
L 472.985446 501.972137 
L 473.818638 501.952494 
L 473.831057 501.972137 
L 473.831057 501.972137 
L 474.676667 501.952494 
L 474.689086 501.972137 
L 474.689086 501.972137 
L 475.534696 501.952494 
L 475.547115 501.972137 
L 475.547115 501.972137 
L 476.380307 501.952494 
L 476.392726 501.972137 
L 476.392726 501.972137 
L 477.238336 501.952494 
L 477.250755 501.972137 
L 477.250755 501.972137 
L 478.083947 501.952494 
L 478.096366 501.972137 
L 478.096366 501.972137 
L 478.941976 501.952494 
L 478.954396 501.972137 
L 478.954396 501.972137 
L 479.800006 501.952494 
L 479.812425 501.972137 
L 479.812425 501.972137 
L 480.645616 501.952494 
L 480.658035 501.972137 
L 480.658035 501.972137 
L 481.503646 501.952494 
L 481.516065 501.972137 
L 481.516065 501.972137 
L 482.361675 501.952494 
L 482.374094 501.972137 
L 482.374094 501.972137 
" style="fill:none;stroke:#000000;stroke-dasharray:6.4,1.6,1,1.6;stroke-dashoffset:0;"/>
   </g>
   <g id="patch_40">
    <path d="M 69.12 535.68 
L 69.12 390.857143 
" style="fill:none;stroke:#000000;stroke-linecap:square;stroke-linejoin:miter;stroke-width:0.8;"/>
   </g>
   <g id="patch_41">
    <path d="M 547.2 535.68 
L 547.2 390.857143 
" style="fill:none;stroke:#000000;stroke-linecap:square;stroke-linejoin:miter;stroke-width:0.8;"/>
   </g>
   <g id="patch_42">
    <path d="M 69.12 535.68 
L 547.2 535.68 
" style="fill:none;stroke:#000000;stroke-linecap:square;stroke-linejoin:miter;stroke-width:0.8;"/>
   </g>
   <g id="patch_43">
    <path d="M 69.12 390.857143 
L 547.2 390.857143 
" style="fill:none;stroke:#000000;stroke-linecap:square;stroke-linejoin:miter;stroke-width:0.8;"/>
   </g>
   <g id="text_48">
    <!-- WRENCH with page cache simulator -->
    <defs>
     <path d="M 3.328125 72.90625 
L 13.28125 72.90625 
L 28.609375 11.28125 
L 43.890625 72.90625 
L 54.984375 72.90625 
L 70.3125 11.28125 
L 85.59375 72.90625 
L 95.609375 72.90625 
L 77.296875 0 
L 64.890625 0 
L 49.515625 63.28125 
L 33.984375 0 
L 21.578125 0 
z
" id="DejaVuSans-87"/>
     <path d="M 9.8125 72.90625 
L 55.90625 72.90625 
L 55.90625 64.59375 
L 19.671875 64.59375 
L 19.671875 43.015625 
L 54.390625 43.015625 
L 54.390625 34.71875 
L 19.671875 34.71875 
L 19.671875 8.296875 
L 56.78125 8.296875 
L 56.78125 0 
L 9.8125 0 
z
" id="DejaVuSans-69"/>
     <path d="M 9.8125 72.90625 
L 23.09375 72.90625 
L 55.421875 11.921875 
L 55.421875 72.90625 
L 64.984375 72.90625 
L 64.984375 0 
L 51.703125 0 
L 19.390625 60.984375 
L 19.390625 0 
L 9.8125 0 
z
" id="DejaVuSans-78"/>
     <path d="M 64.40625 67.28125 
L 64.40625 56.890625 
Q 59.421875 61.53125 53.78125 63.8125 
Q 48.140625 66.109375 41.796875 66.109375 
Q 29.296875 66.109375 22.65625 58.46875 
Q 16.015625 50.828125 16.015625 36.375 
Q 16.015625 21.96875 22.65625 14.328125 
Q 29.296875 6.6875 41.796875 6.6875 
Q 48.140625 6.6875 53.78125 8.984375 
Q 59.421875 11.28125 64.40625 15.921875 
L 64.40625 5.609375 
Q 59.234375 2.09375 53.4375 0.328125 
Q 47.65625 -1.421875 41.21875 -1.421875 
Q 24.65625 -1.421875 15.125 8.703125 
Q 5.609375 18.84375 5.609375 36.375 
Q 5.609375 53.953125 15.125 64.078125 
Q 24.65625 74.21875 41.21875 74.21875 
Q 47.75 74.21875 53.53125 72.484375 
Q 59.328125 70.75 64.40625 67.28125 
z
" id="DejaVuSans-67"/>
     <path d="M 9.8125 72.90625 
L 19.671875 72.90625 
L 19.671875 43.015625 
L 55.515625 43.015625 
L 55.515625 72.90625 
L 65.375 72.90625 
L 65.375 0 
L 55.515625 0 
L 55.515625 34.71875 
L 19.671875 34.71875 
L 19.671875 0 
L 9.8125 0 
z
" id="DejaVuSans-72"/>
     <path d="M 4.203125 54.6875 
L 13.1875 54.6875 
L 24.421875 12.015625 
L 35.59375 54.6875 
L 46.1875 54.6875 
L 57.421875 12.015625 
L 68.609375 54.6875 
L 77.59375 54.6875 
L 63.28125 0 
L 52.6875 0 
L 40.921875 44.828125 
L 29.109375 0 
L 18.5 0 
z
" id="DejaVuSans-119"/>
     <path d="M 18.109375 8.203125 
L 18.109375 -20.796875 
L 9.078125 -20.796875 
L 9.078125 54.6875 
L 18.109375 54.6875 
L 18.109375 46.390625 
Q 20.953125 51.265625 25.265625 53.625 
Q 29.59375 56 35.59375 56 
Q 45.5625 56 51.78125 48.09375 
Q 58.015625 40.1875 58.015625 27.296875 
Q 58.015625 14.40625 51.78125 6.484375 
Q 45.5625 -1.421875 35.59375 -1.421875 
Q 29.59375 -1.421875 25.265625 0.953125 
Q 20.953125 3.328125 18.109375 8.203125 
z
M 48.6875 27.296875 
Q 48.6875 37.203125 44.609375 42.84375 
Q 40.53125 48.484375 33.40625 48.484375 
Q 26.265625 48.484375 22.1875 42.84375 
Q 18.109375 37.203125 18.109375 27.296875 
Q 18.109375 17.390625 22.1875 11.75 
Q 26.265625 6.109375 33.40625 6.109375 
Q 40.53125 6.109375 44.609375 11.75 
Q 48.6875 17.390625 48.6875 27.296875 
z
" id="DejaVuSans-112"/>
     <path d="M 45.40625 27.984375 
Q 45.40625 37.75 41.375 43.109375 
Q 37.359375 48.484375 30.078125 48.484375 
Q 22.859375 48.484375 18.828125 43.109375 
Q 14.796875 37.75 14.796875 27.984375 
Q 14.796875 18.265625 18.828125 12.890625 
Q 22.859375 7.515625 30.078125 7.515625 
Q 37.359375 7.515625 41.375 12.890625 
Q 45.40625 18.265625 45.40625 27.984375 
z
M 54.390625 6.78125 
Q 54.390625 -7.171875 48.1875 -13.984375 
Q 42 -20.796875 29.203125 -20.796875 
Q 24.46875 -20.796875 20.265625 -20.09375 
Q 16.0625 -19.390625 12.109375 -17.921875 
L 12.109375 -9.1875 
Q 16.0625 -11.328125 19.921875 -12.34375 
Q 23.78125 -13.375 27.78125 -13.375 
Q 36.625 -13.375 41.015625 -8.765625 
Q 45.40625 -4.15625 45.40625 5.171875 
L 45.40625 9.625 
Q 42.625 4.78125 38.28125 2.390625 
Q 33.9375 0 27.875 0 
Q 17.828125 0 11.671875 7.65625 
Q 5.515625 15.328125 5.515625 27.984375 
Q 5.515625 40.671875 11.671875 48.328125 
Q 17.828125 56 27.875 56 
Q 33.9375 56 38.28125 53.609375 
Q 42.625 51.21875 45.40625 46.390625 
L 45.40625 54.6875 
L 54.390625 54.6875 
z
" id="DejaVuSans-103"/>
    </defs>
    <g transform="translate(217.769375 384.857143)scale(0.1 -0.1)">
     <use xlink:href="#DejaVuSans-87"/>
     <use x="98.876953" xlink:href="#DejaVuSans-82"/>
     <use x="168.359375" xlink:href="#DejaVuSans-69"/>
     <use x="231.542969" xlink:href="#DejaVuSans-78"/>
     <use x="306.347656" xlink:href="#DejaVuSans-67"/>
     <use x="376.171875" xlink:href="#DejaVuSans-72"/>
     <use x="451.367188" xlink:href="#DejaVuSans-32"/>
     <use x="483.154297" xlink:href="#DejaVuSans-119"/>
     <use x="564.941406" xlink:href="#DejaVuSans-105"/>
     <use x="592.724609" xlink:href="#DejaVuSans-116"/>
     <use x="631.933594" xlink:href="#DejaVuSans-104"/>
     <use x="695.3125" xlink:href="#DejaVuSans-32"/>
     <use x="727.099609" xlink:href="#DejaVuSans-112"/>
     <use x="790.576172" xlink:href="#DejaVuSans-97"/>
     <use x="851.855469" xlink:href="#DejaVuSans-103"/>
     <use x="915.332031" xlink:href="#DejaVuSans-101"/>
     <use x="976.855469" xlink:href="#DejaVuSans-32"/>
     <use x="1008.642578" xlink:href="#DejaVuSans-99"/>
     <use x="1063.623047" xlink:href="#DejaVuSans-97"/>
     <use x="1124.902344" xlink:href="#DejaVuSans-99"/>
     <use x="1179.882812" xlink:href="#DejaVuSans-104"/>
     <use x="1243.261719" xlink:href="#DejaVuSans-101"/>
     <use x="1304.785156" xlink:href="#DejaVuSans-32"/>
     <use x="1336.572266" xlink:href="#DejaVuSans-115"/>
     <use x="1388.671875" xlink:href="#DejaVuSans-105"/>
     <use x="1416.455078" xlink:href="#DejaVuSans-109"/>
     <use x="1513.867188" xlink:href="#DejaVuSans-117"/>
     <use x="1577.246094" xlink:href="#DejaVuSans-108"/>
     <use x="1605.029297" xlink:href="#DejaVuSans-97"/>
     <use x="1666.308594" xlink:href="#DejaVuSans-116"/>
     <use x="1705.517578" xlink:href="#DejaVuSans-111"/>
     <use x="1766.699219" xlink:href="#DejaVuSans-114"/>
    </g>
   </g>
  </g>
  <g id="text_49">
   <!-- time (sec) -->
   <defs>
    <path d="M 31 75.875 
Q 24.46875 64.65625 21.28125 53.65625 
Q 18.109375 42.671875 18.109375 31.390625 
Q 18.109375 20.125 21.3125 9.0625 
Q 24.515625 -2 31 -13.1875 
L 23.1875 -13.1875 
Q 15.875 -1.703125 12.234375 9.375 
Q 8.59375 20.453125 8.59375 31.390625 
Q 8.59375 42.28125 12.203125 53.3125 
Q 15.828125 64.359375 23.1875 75.875 
z
" id="DejaVuSans-40"/>
    <path d="M 8.015625 75.875 
L 15.828125 75.875 
Q 23.140625 64.359375 26.78125 53.3125 
Q 30.421875 42.28125 30.421875 31.390625 
Q 30.421875 20.453125 26.78125 9.375 
Q 23.140625 -1.703125 15.828125 -13.1875 
L 8.015625 -13.1875 
Q 14.5 -2 17.703125 9.0625 
Q 20.90625 20.125 20.90625 31.390625 
Q 20.90625 42.671875 17.703125 53.65625 
Q 14.5 64.65625 8.015625 75.875 
z
" id="DejaVuSans-41"/>
   </defs>
   <g transform="translate(262.782812 567.239375)scale(0.1 -0.1)">
    <use xlink:href="#DejaVuSans-116"/>
    <use x="39.208984" xlink:href="#DejaVuSans-105"/>
    <use x="66.992188" xlink:href="#DejaVuSans-109"/>
    <use x="164.404297" xlink:href="#DejaVuSans-101"/>
    <use x="225.927734" xlink:href="#DejaVuSans-32"/>
    <use x="257.714844" xlink:href="#DejaVuSans-40"/>
    <use x="296.728516" xlink:href="#DejaVuSans-115"/>
    <use x="348.828125" xlink:href="#DejaVuSans-101"/>
    <use x="410.351562" xlink:href="#DejaVuSans-99"/>
    <use x="465.332031" xlink:href="#DejaVuSans-41"/>
   </g>
  </g>
  <g id="text_50">
   <!-- memory (GB) -->
   <defs>
    <path d="M 59.515625 10.40625 
L 59.515625 29.984375 
L 43.40625 29.984375 
L 43.40625 38.09375 
L 69.28125 38.09375 
L 69.28125 6.78125 
Q 63.578125 2.734375 56.6875 0.65625 
Q 49.8125 -1.421875 42 -1.421875 
Q 24.90625 -1.421875 15.25 8.5625 
Q 5.609375 18.5625 5.609375 36.375 
Q 5.609375 54.25 15.25 64.234375 
Q 24.90625 74.21875 42 74.21875 
Q 49.125 74.21875 55.546875 72.453125 
Q 61.96875 70.703125 67.390625 67.28125 
L 67.390625 56.78125 
Q 61.921875 61.421875 55.765625 63.765625 
Q 49.609375 66.109375 42.828125 66.109375 
Q 29.4375 66.109375 22.71875 58.640625 
Q 16.015625 51.171875 16.015625 36.375 
Q 16.015625 21.625 22.71875 14.15625 
Q 29.4375 6.6875 42.828125 6.6875 
Q 48.046875 6.6875 52.140625 7.59375 
Q 56.25 8.5 59.515625 10.40625 
z
" id="DejaVuSans-71"/>
    <path d="M 19.671875 34.8125 
L 19.671875 8.109375 
L 35.5 8.109375 
Q 43.453125 8.109375 47.28125 11.40625 
Q 51.125 14.703125 51.125 21.484375 
Q 51.125 28.328125 47.28125 31.5625 
Q 43.453125 34.8125 35.5 34.8125 
z
M 19.671875 64.796875 
L 19.671875 42.828125 
L 34.28125 42.828125 
Q 41.5 42.828125 45.03125 45.53125 
Q 48.578125 48.25 48.578125 53.8125 
Q 48.578125 59.328125 45.03125 62.0625 
Q 41.5 64.796875 34.28125 64.796875 
z
M 9.8125 72.90625 
L 35.015625 72.90625 
Q 46.296875 72.90625 52.390625 68.21875 
Q 58.5 63.53125 58.5 54.890625 
Q 58.5 48.1875 55.375 44.234375 
Q 52.25 40.28125 46.1875 39.3125 
Q 53.46875 37.75 57.5 32.78125 
Q 61.53125 27.828125 61.53125 20.40625 
Q 61.53125 10.640625 54.890625 5.3125 
Q 48.25 0 35.984375 0 
L 9.8125 0 
z
" id="DejaVuSans-66"/>
   </defs>
   <g transform="translate(25.799375 321.686719)rotate(-90)scale(0.1 -0.1)">
    <use xlink:href="#DejaVuSans-109"/>
    <use x="97.412109" xlink:href="#DejaVuSans-101"/>
    <use x="158.935547" xlink:href="#DejaVuSans-109"/>
    <use x="256.347656" xlink:href="#DejaVuSans-111"/>
    <use x="317.529297" xlink:href="#DejaVuSans-114"/>
    <use x="358.642578" xlink:href="#DejaVuSans-121"/>
    <use x="417.822266" xlink:href="#DejaVuSans-32"/>
    <use x="449.609375" xlink:href="#DejaVuSans-40"/>
    <use x="488.623047" xlink:href="#DejaVuSans-71"/>
    <use x="566.113281" xlink:href="#DejaVuSans-66"/>
    <use x="634.716797" xlink:href="#DejaVuSans-41"/>
   </g>
  </g>
 </g>
 <defs>
  <clipPath id="p3aa4fc583b">
   <rect height="144.822857" width="478.08" x="69.12" y="28.8"/>
  </clipPath>
  <clipPath id="p9141e9947f">
   <rect height="144.822857" width="478.08" x="69.12" y="209.828571"/>
  </clipPath>
  <clipPath id="p5dd5fbb302">
   <rect height="144.822857" width="478.08" x="69.12" y="390.857143"/>
  </clipPath>
 </defs>
</svg>
