<?xml version="1.0" encoding="utf-8" standalone="no"?>
<!DOCTYPE svg PUBLIC "-//W3C//DTD SVG 1.1//EN"
  "http://www.w3.org/Graphics/SVG/1.1/DTD/svg11.dtd">
<!-- Created with matplotlib (https://matplotlib.org/) -->
<svg height="216pt" version="1.1" viewBox="0 0 792 216" width="792pt" xmlns="http://www.w3.org/2000/svg" xmlns:xlink="http://www.w3.org/1999/xlink">
 <metadata>
  <rdf:RDF xmlns:cc="http://creativecommons.org/ns#" xmlns:dc="http://purl.org/dc/elements/1.1/" xmlns:rdf="http://www.w3.org/1999/02/22-rdf-syntax-ns#">
   <cc:Work>
    <dc:type rdf:resource="http://purl.org/dc/dcmitype/StillImage"/>
    <dc:date>2021-05-21T23:50:26.225180</dc:date>
    <dc:format>image/svg+xml</dc:format>
    <dc:creator>
     <cc:Agent>
      <dc:title>Matplotlib v3.3.4, https://matplotlib.org/</dc:title>
     </cc:Agent>
    </dc:creator>
   </cc:Work>
  </rdf:RDF>
 </metadata>
 <defs>
  <style type="text/css">*{stroke-linecap:butt;stroke-linejoin:round;}</style>
 </defs>
 <g id="figure_1">
  <g id="patch_1">
   <path d="M 0 216 
L 792 216 
L 792 0 
L 0 0 
z
" style="fill:#ffffff;"/>
  </g>
  <g id="axes_1">
   <g id="patch_2">
    <path d="M 79.2 194.4 
L 399.771429 194.4 
L 399.771429 43.2 
L 79.2 43.2 
z
" style="fill:#ffffff;"/>
   </g>
   <g id="patch_3">
    <path clip-path="url(#pab63d5d5dd)" d="M 93.771429 77982.439865 
L 104.179592 77982.439865 
L 104.179592 187.406057 
L 93.771429 187.406057 
z
" style="fill:#7bafde;"/>
   </g>
   <g id="patch_4">
    <path clip-path="url(#pab63d5d5dd)" d="M 145.812245 77982.439865 
L 156.220408 77982.439865 
L 156.220408 143.053336 
L 145.812245 143.053336 
z
" style="fill:#7bafde;"/>
   </g>
   <g id="patch_5">
    <path clip-path="url(#pab63d5d5dd)" d="M 197.853061 77982.439865 
L 208.261224 77982.439865 
L 208.261224 148.255721 
L 197.853061 148.255721 
z
" style="fill:#7bafde;"/>
   </g>
   <g id="patch_6">
    <path clip-path="url(#pab63d5d5dd)" d="M 249.893878 77982.439865 
L 260.302041 77982.439865 
L 260.302041 143.0624 
L 249.893878 143.0624 
z
" style="fill:#7bafde;"/>
   </g>
   <g id="patch_7">
    <path clip-path="url(#pab63d5d5dd)" d="M 301.934694 77982.439865 
L 312.342857 77982.439865 
L 312.342857 148.592732 
L 301.934694 148.592732 
z
" style="fill:#7bafde;"/>
   </g>
   <g id="patch_8">
    <path clip-path="url(#pab63d5d5dd)" d="M 353.97551 77982.439865 
L 364.383673 77982.439865 
L 364.383673 143.089622 
L 353.97551 143.089622 
z
" style="fill:#7bafde;"/>
   </g>
   <g id="patch_9">
    <path clip-path="url(#pab63d5d5dd)" d="M 104.179592 77982.439865 
L 114.587755 77982.439865 
L 114.587755 187.406054 
L 104.179592 187.406054 
z
" style="fill:#994f88;"/>
   </g>
   <g id="patch_10">
    <path clip-path="url(#pab63d5d5dd)" d="M 156.220408 77982.439865 
L 166.628571 77982.439865 
L 166.628571 50.800102 
L 156.220408 50.800102 
z
" style="fill:#994f88;"/>
   </g>
   <g id="patch_11">
    <path clip-path="url(#pab63d5d5dd)" d="M 208.261224 77982.439865 
L 218.669388 77982.439865 
L 218.669388 47.703143 
L 208.261224 47.703143 
z
" style="fill:#994f88;"/>
   </g>
   <g id="patch_12">
    <path clip-path="url(#pab63d5d5dd)" d="M 260.302041 77982.439865 
L 270.710204 77982.439865 
L 270.710204 50.794004 
L 260.302041 50.794004 
z
" style="fill:#994f88;"/>
   </g>
   <g id="patch_13">
    <path clip-path="url(#pab63d5d5dd)" d="M 312.342857 77982.439865 
L 322.75102 77982.439865 
L 322.75102 47.527187 
L 312.342857 47.527187 
z
" style="fill:#994f88;"/>
   </g>
   <g id="patch_14">
    <path clip-path="url(#pab63d5d5dd)" d="M 364.383673 77982.439865 
L 374.791837 77982.439865 
L 374.791837 50.775712 
L 364.383673 50.775712 
z
" style="fill:#994f88;"/>
   </g>
   <g id="patch_15">
    <path clip-path="url(#pab63d5d5dd)" d="M 114.587755 77982.439865 
L 124.995918 77982.439865 
L 124.995918 187.406054 
L 114.587755 187.406054 
z
" style="fill:#1965b0;"/>
   </g>
   <g id="patch_16">
    <path clip-path="url(#pab63d5d5dd)" d="M 166.628571 77982.439865 
L 177.036735 77982.439865 
L 177.036735 143.053336 
L 166.628571 143.053336 
z
" style="fill:#1965b0;"/>
   </g>
   <g id="patch_17">
    <path clip-path="url(#pab63d5d5dd)" d="M 218.669388 77982.439865 
L 229.077551 77982.439865 
L 229.077551 148.255722 
L 218.669388 148.255722 
z
" style="fill:#1965b0;"/>
   </g>
   <g id="patch_18">
    <path clip-path="url(#pab63d5d5dd)" d="M 270.710204 77982.439865 
L 281.118367 77982.439865 
L 281.118367 143.062401 
L 270.710204 143.062401 
z
" style="fill:#1965b0;"/>
   </g>
   <g id="patch_19">
    <path clip-path="url(#pab63d5d5dd)" d="M 322.75102 77982.439865 
L 333.159184 77982.439865 
L 333.159184 148.592733 
L 322.75102 148.592733 
z
" style="fill:#1965b0;"/>
   </g>
   <g id="patch_20">
    <path clip-path="url(#pab63d5d5dd)" d="M 374.791837 77982.439865 
L 385.2 77982.439865 
L 385.2 143.089622 
L 374.791837 143.089622 
z
" style="fill:#1965b0;"/>
   </g>
   <g id="matplotlib.axis_1">
    <g id="xtick_1">
     <g id="line2d_1">
      <defs>
       <path d="M 0 0 
L 0 3.5 
" id="mf16a745fe6" style="stroke:#000000;stroke-width:0.8;"/>
      </defs>
      <g>
       <use style="stroke:#000000;stroke-width:0.8;" x="109.383673" xlink:href="#mf16a745fe6" y="194.4"/>
      </g>
     </g>
     <g id="text_1">
      <!-- Read 1 -->
      <g transform="translate(93.782736 208.238594)scale(0.09 -0.09)">
       <defs>
        <path d="M 44.390625 34.1875 
Q 47.5625 33.109375 50.5625 29.59375 
Q 53.5625 26.078125 56.59375 19.921875 
L 66.609375 0 
L 56 0 
L 46.6875 18.703125 
Q 43.0625 26.03125 39.671875 28.421875 
Q 36.28125 30.8125 30.421875 30.8125 
L 19.671875 30.8125 
L 19.671875 0 
L 9.8125 0 
L 9.8125 72.90625 
L 32.078125 72.90625 
Q 44.578125 72.90625 50.734375 67.671875 
Q 56.890625 62.453125 56.890625 51.90625 
Q 56.890625 45.015625 53.6875 40.46875 
Q 50.484375 35.9375 44.390625 34.1875 
z
M 19.671875 64.796875 
L 19.671875 38.921875 
L 32.078125 38.921875 
Q 39.203125 38.921875 42.84375 42.21875 
Q 46.484375 45.515625 46.484375 51.90625 
Q 46.484375 58.296875 42.84375 61.546875 
Q 39.203125 64.796875 32.078125 64.796875 
z
" id="DejaVuSans-82"/>
        <path d="M 56.203125 29.59375 
L 56.203125 25.203125 
L 14.890625 25.203125 
Q 15.484375 15.921875 20.484375 11.0625 
Q 25.484375 6.203125 34.421875 6.203125 
Q 39.59375 6.203125 44.453125 7.46875 
Q 49.3125 8.734375 54.109375 11.28125 
L 54.109375 2.78125 
Q 49.265625 0.734375 44.1875 -0.34375 
Q 39.109375 -1.421875 33.890625 -1.421875 
Q 20.796875 -1.421875 13.15625 6.1875 
Q 5.515625 13.8125 5.515625 26.8125 
Q 5.515625 40.234375 12.765625 48.109375 
Q 20.015625 56 32.328125 56 
Q 43.359375 56 49.78125 48.890625 
Q 56.203125 41.796875 56.203125 29.59375 
z
M 47.21875 32.234375 
Q 47.125 39.59375 43.09375 43.984375 
Q 39.0625 48.390625 32.421875 48.390625 
Q 24.90625 48.390625 20.390625 44.140625 
Q 15.875 39.890625 15.1875 32.171875 
z
" id="DejaVuSans-101"/>
        <path d="M 34.28125 27.484375 
Q 23.390625 27.484375 19.1875 25 
Q 14.984375 22.515625 14.984375 16.5 
Q 14.984375 11.71875 18.140625 8.90625 
Q 21.296875 6.109375 26.703125 6.109375 
Q 34.1875 6.109375 38.703125 11.40625 
Q 43.21875 16.703125 43.21875 25.484375 
L 43.21875 27.484375 
z
M 52.203125 31.203125 
L 52.203125 0 
L 43.21875 0 
L 43.21875 8.296875 
Q 40.140625 3.328125 35.546875 0.953125 
Q 30.953125 -1.421875 24.3125 -1.421875 
Q 15.921875 -1.421875 10.953125 3.296875 
Q 6 8.015625 6 15.921875 
Q 6 25.140625 12.171875 29.828125 
Q 18.359375 34.515625 30.609375 34.515625 
L 43.21875 34.515625 
L 43.21875 35.40625 
Q 43.21875 41.609375 39.140625 45 
Q 35.0625 48.390625 27.6875 48.390625 
Q 23 48.390625 18.546875 47.265625 
Q 14.109375 46.140625 10.015625 43.890625 
L 10.015625 52.203125 
Q 14.9375 54.109375 19.578125 55.046875 
Q 24.21875 56 28.609375 56 
Q 40.484375 56 46.34375 49.84375 
Q 52.203125 43.703125 52.203125 31.203125 
z
" id="DejaVuSans-97"/>
        <path d="M 45.40625 46.390625 
L 45.40625 75.984375 
L 54.390625 75.984375 
L 54.390625 0 
L 45.40625 0 
L 45.40625 8.203125 
Q 42.578125 3.328125 38.25 0.953125 
Q 33.9375 -1.421875 27.875 -1.421875 
Q 17.96875 -1.421875 11.734375 6.484375 
Q 5.515625 14.40625 5.515625 27.296875 
Q 5.515625 40.1875 11.734375 48.09375 
Q 17.96875 56 27.875 56 
Q 33.9375 56 38.25 53.625 
Q 42.578125 51.265625 45.40625 46.390625 
z
M 14.796875 27.296875 
Q 14.796875 17.390625 18.875 11.75 
Q 22.953125 6.109375 30.078125 6.109375 
Q 37.203125 6.109375 41.296875 11.75 
Q 45.40625 17.390625 45.40625 27.296875 
Q 45.40625 37.203125 41.296875 42.84375 
Q 37.203125 48.484375 30.078125 48.484375 
Q 22.953125 48.484375 18.875 42.84375 
Q 14.796875 37.203125 14.796875 27.296875 
z
" id="DejaVuSans-100"/>
        <path id="DejaVuSans-32"/>
        <path d="M 12.40625 8.296875 
L 28.515625 8.296875 
L 28.515625 63.921875 
L 10.984375 60.40625 
L 10.984375 69.390625 
L 28.421875 72.90625 
L 38.28125 72.90625 
L 38.28125 8.296875 
L 54.390625 8.296875 
L 54.390625 0 
L 12.40625 0 
z
" id="DejaVuSans-49"/>
       </defs>
       <use xlink:href="#DejaVuSans-82"/>
       <use x="64.982422" xlink:href="#DejaVuSans-101"/>
       <use x="126.505859" xlink:href="#DejaVuSans-97"/>
       <use x="187.785156" xlink:href="#DejaVuSans-100"/>
       <use x="251.261719" xlink:href="#DejaVuSans-32"/>
       <use x="283.048828" xlink:href="#DejaVuSans-49"/>
      </g>
     </g>
    </g>
    <g id="xtick_2">
     <g id="line2d_2">
      <g>
       <use style="stroke:#000000;stroke-width:0.8;" x="161.42449" xlink:href="#mf16a745fe6" y="194.4"/>
      </g>
     </g>
     <g id="text_2">
      <!-- Write 1 -->
      <g transform="translate(145.251209 208.238594)scale(0.09 -0.09)">
       <defs>
        <path d="M 3.328125 72.90625 
L 13.28125 72.90625 
L 28.609375 11.28125 
L 43.890625 72.90625 
L 54.984375 72.90625 
L 70.3125 11.28125 
L 85.59375 72.90625 
L 95.609375 72.90625 
L 77.296875 0 
L 64.890625 0 
L 49.515625 63.28125 
L 33.984375 0 
L 21.578125 0 
z
" id="DejaVuSans-87"/>
        <path d="M 41.109375 46.296875 
Q 39.59375 47.171875 37.8125 47.578125 
Q 36.03125 48 33.890625 48 
Q 26.265625 48 22.1875 43.046875 
Q 18.109375 38.09375 18.109375 28.8125 
L 18.109375 0 
L 9.078125 0 
L 9.078125 54.6875 
L 18.109375 54.6875 
L 18.109375 46.1875 
Q 20.953125 51.171875 25.484375 53.578125 
Q 30.03125 56 36.53125 56 
Q 37.453125 56 38.578125 55.875 
Q 39.703125 55.765625 41.0625 55.515625 
z
" id="DejaVuSans-114"/>
        <path d="M 9.421875 54.6875 
L 18.40625 54.6875 
L 18.40625 0 
L 9.421875 0 
z
M 9.421875 75.984375 
L 18.40625 75.984375 
L 18.40625 64.59375 
L 9.421875 64.59375 
z
" id="DejaVuSans-105"/>
        <path d="M 18.3125 70.21875 
L 18.3125 54.6875 
L 36.8125 54.6875 
L 36.8125 47.703125 
L 18.3125 47.703125 
L 18.3125 18.015625 
Q 18.3125 11.328125 20.140625 9.421875 
Q 21.96875 7.515625 27.59375 7.515625 
L 36.8125 7.515625 
L 36.8125 0 
L 27.59375 0 
Q 17.1875 0 13.234375 3.875 
Q 9.28125 7.765625 9.28125 18.015625 
L 9.28125 47.703125 
L 2.6875 47.703125 
L 2.6875 54.6875 
L 9.28125 54.6875 
L 9.28125 70.21875 
z
" id="DejaVuSans-116"/>
       </defs>
       <use xlink:href="#DejaVuSans-87"/>
       <use x="94.376953" xlink:href="#DejaVuSans-114"/>
       <use x="135.490234" xlink:href="#DejaVuSans-105"/>
       <use x="163.273438" xlink:href="#DejaVuSans-116"/>
       <use x="202.482422" xlink:href="#DejaVuSans-101"/>
       <use x="264.005859" xlink:href="#DejaVuSans-32"/>
       <use x="295.792969" xlink:href="#DejaVuSans-49"/>
      </g>
     </g>
    </g>
    <g id="xtick_3">
     <g id="line2d_3">
      <g>
       <use style="stroke:#000000;stroke-width:0.8;" x="213.465306" xlink:href="#mf16a745fe6" y="194.4"/>
      </g>
     </g>
     <g id="text_3">
      <!-- Read 2 -->
      <g transform="translate(197.864369 208.238594)scale(0.09 -0.09)">
       <defs>
        <path d="M 19.1875 8.296875 
L 53.609375 8.296875 
L 53.609375 0 
L 7.328125 0 
L 7.328125 8.296875 
Q 12.9375 14.109375 22.625 23.890625 
Q 32.328125 33.6875 34.8125 36.53125 
Q 39.546875 41.84375 41.421875 45.53125 
Q 43.3125 49.21875 43.3125 52.78125 
Q 43.3125 58.59375 39.234375 62.25 
Q 35.15625 65.921875 28.609375 65.921875 
Q 23.96875 65.921875 18.8125 64.3125 
Q 13.671875 62.703125 7.8125 59.421875 
L 7.8125 69.390625 
Q 13.765625 71.78125 18.9375 73 
Q 24.125 74.21875 28.421875 74.21875 
Q 39.75 74.21875 46.484375 68.546875 
Q 53.21875 62.890625 53.21875 53.421875 
Q 53.21875 48.921875 51.53125 44.890625 
Q 49.859375 40.875 45.40625 35.40625 
Q 44.1875 33.984375 37.640625 27.21875 
Q 31.109375 20.453125 19.1875 8.296875 
z
" id="DejaVuSans-50"/>
       </defs>
       <use xlink:href="#DejaVuSans-82"/>
       <use x="64.982422" xlink:href="#DejaVuSans-101"/>
       <use x="126.505859" xlink:href="#DejaVuSans-97"/>
       <use x="187.785156" xlink:href="#DejaVuSans-100"/>
       <use x="251.261719" xlink:href="#DejaVuSans-32"/>
       <use x="283.048828" xlink:href="#DejaVuSans-50"/>
      </g>
     </g>
    </g>
    <g id="xtick_4">
     <g id="line2d_4">
      <g>
       <use style="stroke:#000000;stroke-width:0.8;" x="265.506122" xlink:href="#mf16a745fe6" y="194.4"/>
      </g>
     </g>
     <g id="text_4">
      <!-- Write 2 -->
      <g transform="translate(249.332841 208.238594)scale(0.09 -0.09)">
       <use xlink:href="#DejaVuSans-87"/>
       <use x="94.376953" xlink:href="#DejaVuSans-114"/>
       <use x="135.490234" xlink:href="#DejaVuSans-105"/>
       <use x="163.273438" xlink:href="#DejaVuSans-116"/>
       <use x="202.482422" xlink:href="#DejaVuSans-101"/>
       <use x="264.005859" xlink:href="#DejaVuSans-32"/>
       <use x="295.792969" xlink:href="#DejaVuSans-50"/>
      </g>
     </g>
    </g>
    <g id="xtick_5">
     <g id="line2d_5">
      <g>
       <use style="stroke:#000000;stroke-width:0.8;" x="317.546939" xlink:href="#mf16a745fe6" y="194.4"/>
      </g>
     </g>
     <g id="text_5">
      <!-- Read 3 -->
      <g transform="translate(301.946001 208.238594)scale(0.09 -0.09)">
       <defs>
        <path d="M 40.578125 39.3125 
Q 47.65625 37.796875 51.625 33 
Q 55.609375 28.21875 55.609375 21.1875 
Q 55.609375 10.40625 48.1875 4.484375 
Q 40.765625 -1.421875 27.09375 -1.421875 
Q 22.515625 -1.421875 17.65625 -0.515625 
Q 12.796875 0.390625 7.625 2.203125 
L 7.625 11.71875 
Q 11.71875 9.328125 16.59375 8.109375 
Q 21.484375 6.890625 26.8125 6.890625 
Q 36.078125 6.890625 40.9375 10.546875 
Q 45.796875 14.203125 45.796875 21.1875 
Q 45.796875 27.640625 41.28125 31.265625 
Q 36.765625 34.90625 28.71875 34.90625 
L 20.21875 34.90625 
L 20.21875 43.015625 
L 29.109375 43.015625 
Q 36.375 43.015625 40.234375 45.921875 
Q 44.09375 48.828125 44.09375 54.296875 
Q 44.09375 59.90625 40.109375 62.90625 
Q 36.140625 65.921875 28.71875 65.921875 
Q 24.65625 65.921875 20.015625 65.03125 
Q 15.375 64.15625 9.8125 62.3125 
L 9.8125 71.09375 
Q 15.4375 72.65625 20.34375 73.4375 
Q 25.25 74.21875 29.59375 74.21875 
Q 40.828125 74.21875 47.359375 69.109375 
Q 53.90625 64.015625 53.90625 55.328125 
Q 53.90625 49.265625 50.4375 45.09375 
Q 46.96875 40.921875 40.578125 39.3125 
z
" id="DejaVuSans-51"/>
       </defs>
       <use xlink:href="#DejaVuSans-82"/>
       <use x="64.982422" xlink:href="#DejaVuSans-101"/>
       <use x="126.505859" xlink:href="#DejaVuSans-97"/>
       <use x="187.785156" xlink:href="#DejaVuSans-100"/>
       <use x="251.261719" xlink:href="#DejaVuSans-32"/>
       <use x="283.048828" xlink:href="#DejaVuSans-51"/>
      </g>
     </g>
    </g>
    <g id="xtick_6">
     <g id="line2d_6">
      <g>
       <use style="stroke:#000000;stroke-width:0.8;" x="369.587755" xlink:href="#mf16a745fe6" y="194.4"/>
      </g>
     </g>
     <g id="text_6">
      <!-- Write 3 -->
      <g transform="translate(353.414474 208.238594)scale(0.09 -0.09)">
       <use xlink:href="#DejaVuSans-87"/>
       <use x="94.376953" xlink:href="#DejaVuSans-114"/>
       <use x="135.490234" xlink:href="#DejaVuSans-105"/>
       <use x="163.273438" xlink:href="#DejaVuSans-116"/>
       <use x="202.482422" xlink:href="#DejaVuSans-101"/>
       <use x="264.005859" xlink:href="#DejaVuSans-32"/>
       <use x="295.792969" xlink:href="#DejaVuSans-51"/>
      </g>
     </g>
    </g>
   </g>
   <g id="matplotlib.axis_2">
    <g id="ytick_1">
     <g id="line2d_7">
      <defs>
       <path d="M 0 0 
L -3.5 0 
" id="m7a2ceb48da" style="stroke:#000000;stroke-width:0.8;"/>
      </defs>
      <g>
       <use style="stroke:#000000;stroke-width:0.8;" x="79.2" xlink:href="#m7a2ceb48da" y="186.597559"/>
      </g>
     </g>
     <g id="text_7">
      <!-- $\mathdefault{10^{1}}$ -->
      <g transform="translate(56.36 190.016855)scale(0.09 -0.09)">
       <defs>
        <path d="M 31.78125 66.40625 
Q 24.171875 66.40625 20.328125 58.90625 
Q 16.5 51.421875 16.5 36.375 
Q 16.5 21.390625 20.328125 13.890625 
Q 24.171875 6.390625 31.78125 6.390625 
Q 39.453125 6.390625 43.28125 13.890625 
Q 47.125 21.390625 47.125 36.375 
Q 47.125 51.421875 43.28125 58.90625 
Q 39.453125 66.40625 31.78125 66.40625 
z
M 31.78125 74.21875 
Q 44.046875 74.21875 50.515625 64.515625 
Q 56.984375 54.828125 56.984375 36.375 
Q 56.984375 17.96875 50.515625 8.265625 
Q 44.046875 -1.421875 31.78125 -1.421875 
Q 19.53125 -1.421875 13.0625 8.265625 
Q 6.59375 17.96875 6.59375 36.375 
Q 6.59375 54.828125 13.0625 64.515625 
Q 19.53125 74.21875 31.78125 74.21875 
z
" id="DejaVuSans-48"/>
       </defs>
       <use transform="translate(0 0.684375)" xlink:href="#DejaVuSans-49"/>
       <use transform="translate(63.623047 0.684375)" xlink:href="#DejaVuSans-48"/>
       <use transform="translate(128.203125 38.965625)scale(0.7)" xlink:href="#DejaVuSans-49"/>
      </g>
     </g>
    </g>
    <g id="ytick_2">
     <g id="line2d_8">
      <g>
       <use style="stroke:#000000;stroke-width:0.8;" x="79.2" xlink:href="#m7a2ceb48da" y="108.879434"/>
      </g>
     </g>
     <g id="text_8">
      <!-- $\mathdefault{10^{2}}$ -->
      <g transform="translate(56.36 112.298731)scale(0.09 -0.09)">
       <use transform="translate(0 0.765625)" xlink:href="#DejaVuSans-49"/>
       <use transform="translate(63.623047 0.765625)" xlink:href="#DejaVuSans-48"/>
       <use transform="translate(128.203125 39.046875)scale(0.7)" xlink:href="#DejaVuSans-50"/>
      </g>
     </g>
    </g>
    <g id="ytick_3">
     <g id="line2d_9">
      <defs>
       <path d="M 0 0 
L -2 0 
" id="m8e7eb4643d" style="stroke:#000000;stroke-width:0.6;"/>
      </defs>
      <g>
       <use style="stroke:#000000;stroke-width:0.6;" x="79.2" xlink:href="#m8e7eb4643d" y="194.129223"/>
      </g>
     </g>
    </g>
    <g id="ytick_4">
     <g id="line2d_10">
      <g>
       <use style="stroke:#000000;stroke-width:0.6;" x="79.2" xlink:href="#m8e7eb4643d" y="190.153745"/>
      </g>
     </g>
    </g>
    <g id="ytick_5">
     <g id="line2d_11">
      <g>
       <use style="stroke:#000000;stroke-width:0.6;" x="79.2" xlink:href="#m8e7eb4643d" y="163.202072"/>
      </g>
     </g>
    </g>
    <g id="ytick_6">
     <g id="line2d_12">
      <g>
       <use style="stroke:#000000;stroke-width:0.6;" x="79.2" xlink:href="#m8e7eb4643d" y="149.51659"/>
      </g>
     </g>
    </g>
    <g id="ytick_7">
     <g id="line2d_13">
      <g>
       <use style="stroke:#000000;stroke-width:0.6;" x="79.2" xlink:href="#m8e7eb4643d" y="139.806585"/>
      </g>
     </g>
    </g>
    <g id="ytick_8">
     <g id="line2d_14">
      <g>
       <use style="stroke:#000000;stroke-width:0.6;" x="79.2" xlink:href="#m8e7eb4643d" y="132.274921"/>
      </g>
     </g>
    </g>
    <g id="ytick_9">
     <g id="line2d_15">
      <g>
       <use style="stroke:#000000;stroke-width:0.6;" x="79.2" xlink:href="#m8e7eb4643d" y="126.121103"/>
      </g>
     </g>
    </g>
    <g id="ytick_10">
     <g id="line2d_16">
      <g>
       <use style="stroke:#000000;stroke-width:0.6;" x="79.2" xlink:href="#m8e7eb4643d" y="120.918124"/>
      </g>
     </g>
    </g>
    <g id="ytick_11">
     <g id="line2d_17">
      <g>
       <use style="stroke:#000000;stroke-width:0.6;" x="79.2" xlink:href="#m8e7eb4643d" y="116.411099"/>
      </g>
     </g>
    </g>
    <g id="ytick_12">
     <g id="line2d_18">
      <g>
       <use style="stroke:#000000;stroke-width:0.6;" x="79.2" xlink:href="#m8e7eb4643d" y="112.435621"/>
      </g>
     </g>
    </g>
    <g id="ytick_13">
     <g id="line2d_19">
      <g>
       <use style="stroke:#000000;stroke-width:0.6;" x="79.2" xlink:href="#m8e7eb4643d" y="85.483948"/>
      </g>
     </g>
    </g>
    <g id="ytick_14">
     <g id="line2d_20">
      <g>
       <use style="stroke:#000000;stroke-width:0.6;" x="79.2" xlink:href="#m8e7eb4643d" y="71.798465"/>
      </g>
     </g>
    </g>
    <g id="ytick_15">
     <g id="line2d_21">
      <g>
       <use style="stroke:#000000;stroke-width:0.6;" x="79.2" xlink:href="#m8e7eb4643d" y="62.088461"/>
      </g>
     </g>
    </g>
    <g id="ytick_16">
     <g id="line2d_22">
      <g>
       <use style="stroke:#000000;stroke-width:0.6;" x="79.2" xlink:href="#m8e7eb4643d" y="54.556797"/>
      </g>
     </g>
    </g>
    <g id="ytick_17">
     <g id="line2d_23">
      <g>
       <use style="stroke:#000000;stroke-width:0.6;" x="79.2" xlink:href="#m8e7eb4643d" y="48.402979"/>
      </g>
     </g>
    </g>
    <g id="ytick_18">
     <g id="line2d_24">
      <g>
       <use style="stroke:#000000;stroke-width:0.6;" x="79.2" xlink:href="#m8e7eb4643d" y="43.2"/>
      </g>
     </g>
    </g>
    <g id="text_9">
     <!-- error (%) -->
     <g transform="translate(50.488281 138.909375)rotate(-90)scale(0.09 -0.09)">
      <defs>
       <path d="M 30.609375 48.390625 
Q 23.390625 48.390625 19.1875 42.75 
Q 14.984375 37.109375 14.984375 27.296875 
Q 14.984375 17.484375 19.15625 11.84375 
Q 23.34375 6.203125 30.609375 6.203125 
Q 37.796875 6.203125 41.984375 11.859375 
Q 46.1875 17.53125 46.1875 27.296875 
Q 46.1875 37.015625 41.984375 42.703125 
Q 37.796875 48.390625 30.609375 48.390625 
z
M 30.609375 56 
Q 42.328125 56 49.015625 48.375 
Q 55.71875 40.765625 55.71875 27.296875 
Q 55.71875 13.875 49.015625 6.21875 
Q 42.328125 -1.421875 30.609375 -1.421875 
Q 18.84375 -1.421875 12.171875 6.21875 
Q 5.515625 13.875 5.515625 27.296875 
Q 5.515625 40.765625 12.171875 48.375 
Q 18.84375 56 30.609375 56 
z
" id="DejaVuSans-111"/>
       <path d="M 31 75.875 
Q 24.46875 64.65625 21.28125 53.65625 
Q 18.109375 42.671875 18.109375 31.390625 
Q 18.109375 20.125 21.3125 9.0625 
Q 24.515625 -2 31 -13.1875 
L 23.1875 -13.1875 
Q 15.875 -1.703125 12.234375 9.375 
Q 8.59375 20.453125 8.59375 31.390625 
Q 8.59375 42.28125 12.203125 53.3125 
Q 15.828125 64.359375 23.1875 75.875 
z
" id="DejaVuSans-40"/>
       <path d="M 72.703125 32.078125 
Q 68.453125 32.078125 66.03125 28.46875 
Q 63.625 24.859375 63.625 18.40625 
Q 63.625 12.0625 66.03125 8.421875 
Q 68.453125 4.78125 72.703125 4.78125 
Q 76.859375 4.78125 79.265625 8.421875 
Q 81.6875 12.0625 81.6875 18.40625 
Q 81.6875 24.8125 79.265625 28.4375 
Q 76.859375 32.078125 72.703125 32.078125 
z
M 72.703125 38.28125 
Q 80.421875 38.28125 84.953125 32.90625 
Q 89.5 27.546875 89.5 18.40625 
Q 89.5 9.28125 84.9375 3.921875 
Q 80.375 -1.421875 72.703125 -1.421875 
Q 64.890625 -1.421875 60.34375 3.921875 
Q 55.8125 9.28125 55.8125 18.40625 
Q 55.8125 27.59375 60.375 32.9375 
Q 64.9375 38.28125 72.703125 38.28125 
z
M 22.3125 68.015625 
Q 18.109375 68.015625 15.6875 64.375 
Q 13.28125 60.75 13.28125 54.390625 
Q 13.28125 47.953125 15.671875 44.328125 
Q 18.0625 40.71875 22.3125 40.71875 
Q 26.5625 40.71875 28.96875 44.328125 
Q 31.390625 47.953125 31.390625 54.390625 
Q 31.390625 60.6875 28.953125 64.34375 
Q 26.515625 68.015625 22.3125 68.015625 
z
M 66.40625 74.21875 
L 74.21875 74.21875 
L 28.609375 -1.421875 
L 20.796875 -1.421875 
z
M 22.3125 74.21875 
Q 30.03125 74.21875 34.609375 68.875 
Q 39.203125 63.53125 39.203125 54.390625 
Q 39.203125 45.171875 34.640625 39.84375 
Q 30.078125 34.515625 22.3125 34.515625 
Q 14.546875 34.515625 10.03125 39.859375 
Q 5.515625 45.21875 5.515625 54.390625 
Q 5.515625 63.484375 10.046875 68.84375 
Q 14.59375 74.21875 22.3125 74.21875 
z
" id="DejaVuSans-37"/>
       <path d="M 8.015625 75.875 
L 15.828125 75.875 
Q 23.140625 64.359375 26.78125 53.3125 
Q 30.421875 42.28125 30.421875 31.390625 
Q 30.421875 20.453125 26.78125 9.375 
Q 23.140625 -1.703125 15.828125 -13.1875 
L 8.015625 -13.1875 
Q 14.5 -2 17.703125 9.0625 
Q 20.90625 20.125 20.90625 31.390625 
Q 20.90625 42.671875 17.703125 53.65625 
Q 14.5 64.65625 8.015625 75.875 
z
" id="DejaVuSans-41"/>
      </defs>
      <use xlink:href="#DejaVuSans-101"/>
      <use x="61.523438" xlink:href="#DejaVuSans-114"/>
      <use x="100.886719" xlink:href="#DejaVuSans-114"/>
      <use x="139.75" xlink:href="#DejaVuSans-111"/>
      <use x="200.931641" xlink:href="#DejaVuSans-114"/>
      <use x="242.044922" xlink:href="#DejaVuSans-32"/>
      <use x="273.832031" xlink:href="#DejaVuSans-40"/>
      <use x="312.845703" xlink:href="#DejaVuSans-37"/>
      <use x="407.865234" xlink:href="#DejaVuSans-41"/>
     </g>
    </g>
   </g>
   <g id="patch_21">
    <path d="M 79.2 194.4 
L 79.2 43.2 
" style="fill:none;stroke:#000000;stroke-linecap:square;stroke-linejoin:miter;stroke-width:0.8;"/>
   </g>
   <g id="patch_22">
    <path d="M 399.771429 194.4 
L 399.771429 43.2 
" style="fill:none;stroke:#000000;stroke-linecap:square;stroke-linejoin:miter;stroke-width:0.8;"/>
   </g>
   <g id="patch_23">
    <path d="M 79.2 194.4 
L 399.771429 194.4 
" style="fill:none;stroke:#000000;stroke-linecap:square;stroke-linejoin:miter;stroke-width:0.8;"/>
   </g>
   <g id="patch_24">
    <path d="M 79.2 43.2 
L 399.771429 43.2 
" style="fill:none;stroke:#000000;stroke-linecap:square;stroke-linejoin:miter;stroke-width:0.8;"/>
   </g>
   <g id="text_10">
    <!-- 20 GB -->
    <g transform="translate(221.178214 37.2)scale(0.12 -0.12)">
     <defs>
      <path d="M 59.515625 10.40625 
L 59.515625 29.984375 
L 43.40625 29.984375 
L 43.40625 38.09375 
L 69.28125 38.09375 
L 69.28125 6.78125 
Q 63.578125 2.734375 56.6875 0.65625 
Q 49.8125 -1.421875 42 -1.421875 
Q 24.90625 -1.421875 15.25 8.5625 
Q 5.609375 18.5625 5.609375 36.375 
Q 5.609375 54.25 15.25 64.234375 
Q 24.90625 74.21875 42 74.21875 
Q 49.125 74.21875 55.546875 72.453125 
Q 61.96875 70.703125 67.390625 67.28125 
L 67.390625 56.78125 
Q 61.921875 61.421875 55.765625 63.765625 
Q 49.609375 66.109375 42.828125 66.109375 
Q 29.4375 66.109375 22.71875 58.640625 
Q 16.015625 51.171875 16.015625 36.375 
Q 16.015625 21.625 22.71875 14.15625 
Q 29.4375 6.6875 42.828125 6.6875 
Q 48.046875 6.6875 52.140625 7.59375 
Q 56.25 8.5 59.515625 10.40625 
z
" id="DejaVuSans-71"/>
      <path d="M 19.671875 34.8125 
L 19.671875 8.109375 
L 35.5 8.109375 
Q 43.453125 8.109375 47.28125 11.40625 
Q 51.125 14.703125 51.125 21.484375 
Q 51.125 28.328125 47.28125 31.5625 
Q 43.453125 34.8125 35.5 34.8125 
z
M 19.671875 64.796875 
L 19.671875 42.828125 
L 34.28125 42.828125 
Q 41.5 42.828125 45.03125 45.53125 
Q 48.578125 48.25 48.578125 53.8125 
Q 48.578125 59.328125 45.03125 62.0625 
Q 41.5 64.796875 34.28125 64.796875 
z
M 9.8125 72.90625 
L 35.015625 72.90625 
Q 46.296875 72.90625 52.390625 68.21875 
Q 58.5 63.53125 58.5 54.890625 
Q 58.5 48.1875 55.375 44.234375 
Q 52.25 40.28125 46.1875 39.3125 
Q 53.46875 37.75 57.5 32.78125 
Q 61.53125 27.828125 61.53125 20.40625 
Q 61.53125 10.640625 54.890625 5.3125 
Q 48.25 0 35.984375 0 
L 9.8125 0 
z
" id="DejaVuSans-66"/>
     </defs>
     <use xlink:href="#DejaVuSans-50"/>
     <use x="63.623047" xlink:href="#DejaVuSans-48"/>
     <use x="127.246094" xlink:href="#DejaVuSans-32"/>
     <use x="159.033203" xlink:href="#DejaVuSans-71"/>
     <use x="236.523438" xlink:href="#DejaVuSans-66"/>
    </g>
   </g>
  </g>
  <g id="axes_2">
   <g id="patch_25">
    <path d="M 431.828571 194.4 
L 752.4 194.4 
L 752.4 43.2 
L 431.828571 43.2 
z
" style="fill:#ffffff;"/>
   </g>
   <g id="patch_26">
    <path clip-path="url(#p3597d14ce5)" d="M 446.4 78849.773564 
L 456.808163 78849.773564 
L 456.808163 188.261709 
L 446.4 188.261709 
z
" style="fill:#7bafde;"/>
   </g>
   <g id="patch_27">
    <path clip-path="url(#p3597d14ce5)" d="M 498.440816 78849.773564 
L 508.84898 78849.773564 
L 508.84898 160.611862 
L 498.440816 160.611862 
z
" style="fill:#7bafde;"/>
   </g>
   <g id="patch_28">
    <path clip-path="url(#p3597d14ce5)" d="M 550.481633 78849.773564 
L 560.889796 78849.773564 
L 560.889796 129.926633 
L 550.481633 129.926633 
z
" style="fill:#7bafde;"/>
   </g>
   <g id="patch_29">
    <path clip-path="url(#p3597d14ce5)" d="M 602.522449 78849.773564 
L 612.930612 78849.773564 
L 612.930612 158.556533 
L 602.522449 158.556533 
z
" style="fill:#7bafde;"/>
   </g>
   <g id="patch_30">
    <path clip-path="url(#p3597d14ce5)" d="M 654.563265 78849.773564 
L 664.971429 78849.773564 
L 664.971429 129.810446 
L 654.563265 129.810446 
z
" style="fill:#7bafde;"/>
   </g>
   <g id="patch_31">
    <path clip-path="url(#p3597d14ce5)" d="M 706.604082 78849.773564 
L 717.012245 78849.773564 
L 717.012245 159.262563 
L 706.604082 159.262563 
z
" style="fill:#7bafde;"/>
   </g>
   <g id="patch_32">
    <path clip-path="url(#p3597d14ce5)" d="M 456.808163 78849.773564 
L 467.216327 78849.773564 
L 467.216327 188.26171 
L 456.808163 188.26171 
z
" style="fill:#994f88;"/>
   </g>
   <g id="patch_33">
    <path clip-path="url(#p3597d14ce5)" d="M 508.84898 78849.773564 
L 519.257143 78849.773564 
L 519.257143 104.290972 
L 508.84898 104.290972 
z
" style="fill:#994f88;"/>
   </g>
   <g id="patch_34">
    <path clip-path="url(#p3597d14ce5)" d="M 560.889796 78849.773564 
L 571.297959 78849.773564 
L 571.297959 65.495909 
L 560.889796 65.495909 
z
" style="fill:#994f88;"/>
   </g>
   <g id="patch_35">
    <path clip-path="url(#p3597d14ce5)" d="M 612.930612 78849.773564 
L 623.338776 78849.773564 
L 623.338776 103.598108 
L 612.930612 103.598108 
z
" style="fill:#994f88;"/>
   </g>
   <g id="patch_36">
    <path clip-path="url(#p3597d14ce5)" d="M 664.971429 78849.773564 
L 675.379592 78849.773564 
L 675.379592 65.678731 
L 664.971429 65.678731 
z
" style="fill:#994f88;"/>
   </g>
   <g id="patch_37">
    <path clip-path="url(#p3597d14ce5)" d="M 717.012245 78849.773564 
L 727.420408 78849.773564 
L 727.420408 103.846242 
L 717.012245 103.846242 
z
" style="fill:#994f88;"/>
   </g>
   <g id="patch_38">
    <path clip-path="url(#p3597d14ce5)" d="M 467.216327 78849.773564 
L 477.62449 78849.773564 
L 477.62449 188.26171 
L 467.216327 188.26171 
z
" style="fill:#1965b0;"/>
   </g>
   <g id="patch_39">
    <path clip-path="url(#p3597d14ce5)" d="M 519.257143 78849.773564 
L 529.665306 78849.773564 
L 529.665306 156.841225 
L 519.257143 156.841225 
z
" style="fill:#1965b0;"/>
   </g>
   <g id="patch_40">
    <path clip-path="url(#p3597d14ce5)" d="M 571.297959 78849.773564 
L 581.706122 78849.773564 
L 581.706122 129.926634 
L 571.297959 129.926634 
z
" style="fill:#1965b0;"/>
   </g>
   <g id="patch_41">
    <path clip-path="url(#p3597d14ce5)" d="M 623.338776 78849.773564 
L 633.746939 78849.773564 
L 633.746939 154.783117 
L 623.338776 154.783117 
z
" style="fill:#1965b0;"/>
   </g>
   <g id="patch_42">
    <path clip-path="url(#p3597d14ce5)" d="M 675.379592 78849.773564 
L 685.787755 78849.773564 
L 685.787755 129.810445 
L 675.379592 129.810445 
z
" style="fill:#1965b0;"/>
   </g>
   <g id="patch_43">
    <path clip-path="url(#p3597d14ce5)" d="M 727.420408 78849.773564 
L 737.828571 78849.773564 
L 737.828571 155.55081 
L 727.420408 155.55081 
z
" style="fill:#1965b0;"/>
   </g>
   <g id="matplotlib.axis_3">
    <g id="xtick_7">
     <g id="line2d_25">
      <g>
       <use style="stroke:#000000;stroke-width:0.8;" x="462.012245" xlink:href="#mf16a745fe6" y="194.4"/>
      </g>
     </g>
     <g id="text_11">
      <!-- Read 1 -->
      <g transform="translate(446.411307 208.238594)scale(0.09 -0.09)">
       <use xlink:href="#DejaVuSans-82"/>
       <use x="64.982422" xlink:href="#DejaVuSans-101"/>
       <use x="126.505859" xlink:href="#DejaVuSans-97"/>
       <use x="187.785156" xlink:href="#DejaVuSans-100"/>
       <use x="251.261719" xlink:href="#DejaVuSans-32"/>
       <use x="283.048828" xlink:href="#DejaVuSans-49"/>
      </g>
     </g>
    </g>
    <g id="xtick_8">
     <g id="line2d_26">
      <g>
       <use style="stroke:#000000;stroke-width:0.8;" x="514.053061" xlink:href="#mf16a745fe6" y="194.4"/>
      </g>
     </g>
     <g id="text_12">
      <!-- Write 1 -->
      <g transform="translate(497.87978 208.238594)scale(0.09 -0.09)">
       <use xlink:href="#DejaVuSans-87"/>
       <use x="94.376953" xlink:href="#DejaVuSans-114"/>
       <use x="135.490234" xlink:href="#DejaVuSans-105"/>
       <use x="163.273438" xlink:href="#DejaVuSans-116"/>
       <use x="202.482422" xlink:href="#DejaVuSans-101"/>
       <use x="264.005859" xlink:href="#DejaVuSans-32"/>
       <use x="295.792969" xlink:href="#DejaVuSans-49"/>
      </g>
     </g>
    </g>
    <g id="xtick_9">
     <g id="line2d_27">
      <g>
       <use style="stroke:#000000;stroke-width:0.8;" x="566.093878" xlink:href="#mf16a745fe6" y="194.4"/>
      </g>
     </g>
     <g id="text_13">
      <!-- Read 2 -->
      <g transform="translate(550.49294 208.238594)scale(0.09 -0.09)">
       <use xlink:href="#DejaVuSans-82"/>
       <use x="64.982422" xlink:href="#DejaVuSans-101"/>
       <use x="126.505859" xlink:href="#DejaVuSans-97"/>
       <use x="187.785156" xlink:href="#DejaVuSans-100"/>
       <use x="251.261719" xlink:href="#DejaVuSans-32"/>
       <use x="283.048828" xlink:href="#DejaVuSans-50"/>
      </g>
     </g>
    </g>
    <g id="xtick_10">
     <g id="line2d_28">
      <g>
       <use style="stroke:#000000;stroke-width:0.8;" x="618.134694" xlink:href="#mf16a745fe6" y="194.4"/>
      </g>
     </g>
     <g id="text_14">
      <!-- Write 2 -->
      <g transform="translate(601.961413 208.238594)scale(0.09 -0.09)">
       <use xlink:href="#DejaVuSans-87"/>
       <use x="94.376953" xlink:href="#DejaVuSans-114"/>
       <use x="135.490234" xlink:href="#DejaVuSans-105"/>
       <use x="163.273438" xlink:href="#DejaVuSans-116"/>
       <use x="202.482422" xlink:href="#DejaVuSans-101"/>
       <use x="264.005859" xlink:href="#DejaVuSans-32"/>
       <use x="295.792969" xlink:href="#DejaVuSans-50"/>
      </g>
     </g>
    </g>
    <g id="xtick_11">
     <g id="line2d_29">
      <g>
       <use style="stroke:#000000;stroke-width:0.8;" x="670.17551" xlink:href="#mf16a745fe6" y="194.4"/>
      </g>
     </g>
     <g id="text_15">
      <!-- Read 3 -->
      <g transform="translate(654.574573 208.238594)scale(0.09 -0.09)">
       <use xlink:href="#DejaVuSans-82"/>
       <use x="64.982422" xlink:href="#DejaVuSans-101"/>
       <use x="126.505859" xlink:href="#DejaVuSans-97"/>
       <use x="187.785156" xlink:href="#DejaVuSans-100"/>
       <use x="251.261719" xlink:href="#DejaVuSans-32"/>
       <use x="283.048828" xlink:href="#DejaVuSans-51"/>
      </g>
     </g>
    </g>
    <g id="xtick_12">
     <g id="line2d_30">
      <g>
       <use style="stroke:#000000;stroke-width:0.8;" x="722.216327" xlink:href="#mf16a745fe6" y="194.4"/>
      </g>
     </g>
     <g id="text_16">
      <!-- Write 3 -->
      <g transform="translate(706.043045 208.238594)scale(0.09 -0.09)">
       <use xlink:href="#DejaVuSans-87"/>
       <use x="94.376953" xlink:href="#DejaVuSans-114"/>
       <use x="135.490234" xlink:href="#DejaVuSans-105"/>
       <use x="163.273438" xlink:href="#DejaVuSans-116"/>
       <use x="202.482422" xlink:href="#DejaVuSans-101"/>
       <use x="264.005859" xlink:href="#DejaVuSans-32"/>
       <use x="295.792969" xlink:href="#DejaVuSans-51"/>
      </g>
     </g>
    </g>
   </g>
   <g id="matplotlib.axis_4">
    <g id="ytick_19">
     <g id="line2d_31">
      <g>
       <use style="stroke:#000000;stroke-width:0.8;" x="431.828571" xlink:href="#m7a2ceb48da" y="188.193334"/>
      </g>
     </g>
     <g id="text_17">
      <!-- $\mathdefault{10^{1}}$ -->
      <g transform="translate(408.988571 191.612631)scale(0.09 -0.09)">
       <use transform="translate(0 0.684375)" xlink:href="#DejaVuSans-49"/>
       <use transform="translate(63.623047 0.684375)" xlink:href="#DejaVuSans-48"/>
       <use transform="translate(128.203125 38.965625)scale(0.7)" xlink:href="#DejaVuSans-49"/>
      </g>
     </g>
    </g>
    <g id="ytick_20">
     <g id="line2d_32">
      <g>
       <use style="stroke:#000000;stroke-width:0.8;" x="431.828571" xlink:href="#m7a2ceb48da" y="109.610337"/>
      </g>
     </g>
     <g id="text_18">
      <!-- $\mathdefault{10^{2}}$ -->
      <g transform="translate(408.988571 113.029634)scale(0.09 -0.09)">
       <use transform="translate(0 0.765625)" xlink:href="#DejaVuSans-49"/>
       <use transform="translate(63.623047 0.765625)" xlink:href="#DejaVuSans-48"/>
       <use transform="translate(128.203125 39.046875)scale(0.7)" xlink:href="#DejaVuSans-50"/>
      </g>
     </g>
    </g>
    <g id="ytick_21">
     <g id="line2d_33">
      <g>
       <use style="stroke:#000000;stroke-width:0.6;" x="431.828571" xlink:href="#m8e7eb4643d" y="191.789095"/>
      </g>
     </g>
    </g>
    <g id="ytick_22">
     <g id="line2d_34">
      <g>
       <use style="stroke:#000000;stroke-width:0.6;" x="431.828571" xlink:href="#m8e7eb4643d" y="164.537495"/>
      </g>
     </g>
    </g>
    <g id="ytick_23">
     <g id="line2d_35">
      <g>
       <use style="stroke:#000000;stroke-width:0.6;" x="431.828571" xlink:href="#m8e7eb4643d" y="150.699716"/>
      </g>
     </g>
    </g>
    <g id="ytick_24">
     <g id="line2d_36">
      <g>
       <use style="stroke:#000000;stroke-width:0.6;" x="431.828571" xlink:href="#m8e7eb4643d" y="140.881656"/>
      </g>
     </g>
    </g>
    <g id="ytick_25">
     <g id="line2d_37">
      <g>
       <use style="stroke:#000000;stroke-width:0.6;" x="431.828571" xlink:href="#m8e7eb4643d" y="133.266176"/>
      </g>
     </g>
    </g>
    <g id="ytick_26">
     <g id="line2d_38">
      <g>
       <use style="stroke:#000000;stroke-width:0.6;" x="431.828571" xlink:href="#m8e7eb4643d" y="127.043877"/>
      </g>
     </g>
    </g>
    <g id="ytick_27">
     <g id="line2d_39">
      <g>
       <use style="stroke:#000000;stroke-width:0.6;" x="431.828571" xlink:href="#m8e7eb4643d" y="121.782997"/>
      </g>
     </g>
    </g>
    <g id="ytick_28">
     <g id="line2d_40">
      <g>
       <use style="stroke:#000000;stroke-width:0.6;" x="431.828571" xlink:href="#m8e7eb4643d" y="117.225816"/>
      </g>
     </g>
    </g>
    <g id="ytick_29">
     <g id="line2d_41">
      <g>
       <use style="stroke:#000000;stroke-width:0.6;" x="431.828571" xlink:href="#m8e7eb4643d" y="113.206098"/>
      </g>
     </g>
    </g>
    <g id="ytick_30">
     <g id="line2d_42">
      <g>
       <use style="stroke:#000000;stroke-width:0.6;" x="431.828571" xlink:href="#m8e7eb4643d" y="85.954498"/>
      </g>
     </g>
    </g>
    <g id="ytick_31">
     <g id="line2d_43">
      <g>
       <use style="stroke:#000000;stroke-width:0.6;" x="431.828571" xlink:href="#m8e7eb4643d" y="72.116719"/>
      </g>
     </g>
    </g>
    <g id="ytick_32">
     <g id="line2d_44">
      <g>
       <use style="stroke:#000000;stroke-width:0.6;" x="431.828571" xlink:href="#m8e7eb4643d" y="62.298658"/>
      </g>
     </g>
    </g>
    <g id="ytick_33">
     <g id="line2d_45">
      <g>
       <use style="stroke:#000000;stroke-width:0.6;" x="431.828571" xlink:href="#m8e7eb4643d" y="54.683179"/>
      </g>
     </g>
    </g>
    <g id="ytick_34">
     <g id="line2d_46">
      <g>
       <use style="stroke:#000000;stroke-width:0.6;" x="431.828571" xlink:href="#m8e7eb4643d" y="48.460879"/>
      </g>
     </g>
    </g>
    <g id="ytick_35">
     <g id="line2d_47">
      <g>
       <use style="stroke:#000000;stroke-width:0.6;" x="431.828571" xlink:href="#m8e7eb4643d" y="43.2"/>
      </g>
     </g>
    </g>
   </g>
   <g id="patch_44">
    <path d="M 431.828571 194.4 
L 431.828571 43.2 
" style="fill:none;stroke:#000000;stroke-linecap:square;stroke-linejoin:miter;stroke-width:0.8;"/>
   </g>
   <g id="patch_45">
    <path d="M 752.4 194.4 
L 752.4 43.2 
" style="fill:none;stroke:#000000;stroke-linecap:square;stroke-linejoin:miter;stroke-width:0.8;"/>
   </g>
   <g id="patch_46">
    <path d="M 431.828571 194.4 
L 752.4 194.4 
" style="fill:none;stroke:#000000;stroke-linecap:square;stroke-linejoin:miter;stroke-width:0.8;"/>
   </g>
   <g id="patch_47">
    <path d="M 431.828571 43.2 
L 752.4 43.2 
" style="fill:none;stroke:#000000;stroke-linecap:square;stroke-linejoin:miter;stroke-width:0.8;"/>
   </g>
   <g id="text_19">
    <!-- 100 GB -->
    <g transform="translate(569.989286 37.2)scale(0.12 -0.12)">
     <use xlink:href="#DejaVuSans-49"/>
     <use x="63.623047" xlink:href="#DejaVuSans-48"/>
     <use x="127.246094" xlink:href="#DejaVuSans-48"/>
     <use x="190.869141" xlink:href="#DejaVuSans-32"/>
     <use x="222.65625" xlink:href="#DejaVuSans-71"/>
     <use x="300.146484" xlink:href="#DejaVuSans-66"/>
    </g>
   </g>
   <g id="legend_1">
    <g id="patch_48">
     <path d="M 224.3225 20.518125 
L 562.3975 20.518125 
Q 564.3975 20.518125 564.3975 18.518125 
L 564.3975 4.84 
Q 564.3975 2.84 562.3975 2.84 
L 224.3225 2.84 
Q 222.3225 2.84 222.3225 4.84 
L 222.3225 18.518125 
Q 222.3225 20.518125 224.3225 20.518125 
z
" style="fill:#ffffff;opacity:0.8;stroke:#cccccc;stroke-linejoin:miter;"/>
    </g>
    <g id="patch_49">
     <path d="M 226.3225 14.438437 
L 246.3225 14.438437 
L 246.3225 7.438437 
L 226.3225 7.438437 
z
" style="fill:#7bafde;"/>
    </g>
    <g id="text_20">
     <!-- Python prototype -->
     <g transform="translate(254.3225 14.438437)scale(0.1 -0.1)">
      <defs>
       <path d="M 19.671875 64.796875 
L 19.671875 37.40625 
L 32.078125 37.40625 
Q 38.96875 37.40625 42.71875 40.96875 
Q 46.484375 44.53125 46.484375 51.125 
Q 46.484375 57.671875 42.71875 61.234375 
Q 38.96875 64.796875 32.078125 64.796875 
z
M 9.8125 72.90625 
L 32.078125 72.90625 
Q 44.34375 72.90625 50.609375 67.359375 
Q 56.890625 61.8125 56.890625 51.125 
Q 56.890625 40.328125 50.609375 34.8125 
Q 44.34375 29.296875 32.078125 29.296875 
L 19.671875 29.296875 
L 19.671875 0 
L 9.8125 0 
z
" id="DejaVuSans-80"/>
       <path d="M 32.171875 -5.078125 
Q 28.375 -14.84375 24.75 -17.8125 
Q 21.140625 -20.796875 15.09375 -20.796875 
L 7.90625 -20.796875 
L 7.90625 -13.28125 
L 13.1875 -13.28125 
Q 16.890625 -13.28125 18.9375 -11.515625 
Q 21 -9.765625 23.484375 -3.21875 
L 25.09375 0.875 
L 2.984375 54.6875 
L 12.5 54.6875 
L 29.59375 11.921875 
L 46.6875 54.6875 
L 56.203125 54.6875 
z
" id="DejaVuSans-121"/>
       <path d="M 54.890625 33.015625 
L 54.890625 0 
L 45.90625 0 
L 45.90625 32.71875 
Q 45.90625 40.484375 42.875 44.328125 
Q 39.84375 48.1875 33.796875 48.1875 
Q 26.515625 48.1875 22.3125 43.546875 
Q 18.109375 38.921875 18.109375 30.90625 
L 18.109375 0 
L 9.078125 0 
L 9.078125 75.984375 
L 18.109375 75.984375 
L 18.109375 46.1875 
Q 21.34375 51.125 25.703125 53.5625 
Q 30.078125 56 35.796875 56 
Q 45.21875 56 50.046875 50.171875 
Q 54.890625 44.34375 54.890625 33.015625 
z
" id="DejaVuSans-104"/>
       <path d="M 54.890625 33.015625 
L 54.890625 0 
L 45.90625 0 
L 45.90625 32.71875 
Q 45.90625 40.484375 42.875 44.328125 
Q 39.84375 48.1875 33.796875 48.1875 
Q 26.515625 48.1875 22.3125 43.546875 
Q 18.109375 38.921875 18.109375 30.90625 
L 18.109375 0 
L 9.078125 0 
L 9.078125 54.6875 
L 18.109375 54.6875 
L 18.109375 46.1875 
Q 21.34375 51.125 25.703125 53.5625 
Q 30.078125 56 35.796875 56 
Q 45.21875 56 50.046875 50.171875 
Q 54.890625 44.34375 54.890625 33.015625 
z
" id="DejaVuSans-110"/>
       <path d="M 18.109375 8.203125 
L 18.109375 -20.796875 
L 9.078125 -20.796875 
L 9.078125 54.6875 
L 18.109375 54.6875 
L 18.109375 46.390625 
Q 20.953125 51.265625 25.265625 53.625 
Q 29.59375 56 35.59375 56 
Q 45.5625 56 51.78125 48.09375 
Q 58.015625 40.1875 58.015625 27.296875 
Q 58.015625 14.40625 51.78125 6.484375 
Q 45.5625 -1.421875 35.59375 -1.421875 
Q 29.59375 -1.421875 25.265625 0.953125 
Q 20.953125 3.328125 18.109375 8.203125 
z
M 48.6875 27.296875 
Q 48.6875 37.203125 44.609375 42.84375 
Q 40.53125 48.484375 33.40625 48.484375 
Q 26.265625 48.484375 22.1875 42.84375 
Q 18.109375 37.203125 18.109375 27.296875 
Q 18.109375 17.390625 22.1875 11.75 
Q 26.265625 6.109375 33.40625 6.109375 
Q 40.53125 6.109375 44.609375 11.75 
Q 48.6875 17.390625 48.6875 27.296875 
z
" id="DejaVuSans-112"/>
      </defs>
      <use xlink:href="#DejaVuSans-80"/>
      <use x="60.302734" xlink:href="#DejaVuSans-121"/>
      <use x="119.482422" xlink:href="#DejaVuSans-116"/>
      <use x="158.691406" xlink:href="#DejaVuSans-104"/>
      <use x="222.070312" xlink:href="#DejaVuSans-111"/>
      <use x="283.251953" xlink:href="#DejaVuSans-110"/>
      <use x="346.630859" xlink:href="#DejaVuSans-32"/>
      <use x="378.417969" xlink:href="#DejaVuSans-112"/>
      <use x="441.894531" xlink:href="#DejaVuSans-114"/>
      <use x="480.757812" xlink:href="#DejaVuSans-111"/>
      <use x="541.939453" xlink:href="#DejaVuSans-116"/>
      <use x="581.148438" xlink:href="#DejaVuSans-111"/>
      <use x="642.330078" xlink:href="#DejaVuSans-116"/>
      <use x="681.539062" xlink:href="#DejaVuSans-121"/>
      <use x="740.71875" xlink:href="#DejaVuSans-112"/>
      <use x="804.195312" xlink:href="#DejaVuSans-101"/>
     </g>
    </g>
    <g id="patch_50">
     <path d="M 360.895937 14.438437 
L 380.895937 14.438437 
L 380.895937 7.438437 
L 360.895937 7.438437 
z
" style="fill:#994f88;"/>
    </g>
    <g id="text_21">
     <!-- WRENCH -->
     <g transform="translate(388.895937 14.438437)scale(0.1 -0.1)">
      <defs>
       <path d="M 9.8125 72.90625 
L 55.90625 72.90625 
L 55.90625 64.59375 
L 19.671875 64.59375 
L 19.671875 43.015625 
L 54.390625 43.015625 
L 54.390625 34.71875 
L 19.671875 34.71875 
L 19.671875 8.296875 
L 56.78125 8.296875 
L 56.78125 0 
L 9.8125 0 
z
" id="DejaVuSans-69"/>
       <path d="M 9.8125 72.90625 
L 23.09375 72.90625 
L 55.421875 11.921875 
L 55.421875 72.90625 
L 64.984375 72.90625 
L 64.984375 0 
L 51.703125 0 
L 19.390625 60.984375 
L 19.390625 0 
L 9.8125 0 
z
" id="DejaVuSans-78"/>
       <path d="M 64.40625 67.28125 
L 64.40625 56.890625 
Q 59.421875 61.53125 53.78125 63.8125 
Q 48.140625 66.109375 41.796875 66.109375 
Q 29.296875 66.109375 22.65625 58.46875 
Q 16.015625 50.828125 16.015625 36.375 
Q 16.015625 21.96875 22.65625 14.328125 
Q 29.296875 6.6875 41.796875 6.6875 
Q 48.140625 6.6875 53.78125 8.984375 
Q 59.421875 11.28125 64.40625 15.921875 
L 64.40625 5.609375 
Q 59.234375 2.09375 53.4375 0.328125 
Q 47.65625 -1.421875 41.21875 -1.421875 
Q 24.65625 -1.421875 15.125 8.703125 
Q 5.609375 18.84375 5.609375 36.375 
Q 5.609375 53.953125 15.125 64.078125 
Q 24.65625 74.21875 41.21875 74.21875 
Q 47.75 74.21875 53.53125 72.484375 
Q 59.328125 70.75 64.40625 67.28125 
z
" id="DejaVuSans-67"/>
       <path d="M 9.8125 72.90625 
L 19.671875 72.90625 
L 19.671875 43.015625 
L 55.515625 43.015625 
L 55.515625 72.90625 
L 65.375 72.90625 
L 65.375 0 
L 55.515625 0 
L 55.515625 34.71875 
L 19.671875 34.71875 
L 19.671875 0 
L 9.8125 0 
z
" id="DejaVuSans-72"/>
      </defs>
      <use xlink:href="#DejaVuSans-87"/>
      <use x="98.876953" xlink:href="#DejaVuSans-82"/>
      <use x="168.359375" xlink:href="#DejaVuSans-69"/>
      <use x="231.542969" xlink:href="#DejaVuSans-78"/>
      <use x="306.347656" xlink:href="#DejaVuSans-67"/>
      <use x="376.171875" xlink:href="#DejaVuSans-72"/>
     </g>
    </g>
    <g id="patch_51">
     <path d="M 454.035 14.438437 
L 474.035 14.438437 
L 474.035 7.438437 
L 454.035 7.438437 
z
" style="fill:#1965b0;"/>
    </g>
    <g id="text_22">
     <!-- WRENCH-cache -->
     <g transform="translate(482.035 14.438437)scale(0.1 -0.1)">
      <defs>
       <path d="M 4.890625 31.390625 
L 31.203125 31.390625 
L 31.203125 23.390625 
L 4.890625 23.390625 
z
" id="DejaVuSans-45"/>
       <path d="M 48.78125 52.59375 
L 48.78125 44.1875 
Q 44.96875 46.296875 41.140625 47.34375 
Q 37.3125 48.390625 33.40625 48.390625 
Q 24.65625 48.390625 19.8125 42.84375 
Q 14.984375 37.3125 14.984375 27.296875 
Q 14.984375 17.28125 19.8125 11.734375 
Q 24.65625 6.203125 33.40625 6.203125 
Q 37.3125 6.203125 41.140625 7.25 
Q 44.96875 8.296875 48.78125 10.40625 
L 48.78125 2.09375 
Q 45.015625 0.34375 40.984375 -0.53125 
Q 36.96875 -1.421875 32.421875 -1.421875 
Q 20.0625 -1.421875 12.78125 6.34375 
Q 5.515625 14.109375 5.515625 27.296875 
Q 5.515625 40.671875 12.859375 48.328125 
Q 20.21875 56 33.015625 56 
Q 37.15625 56 41.109375 55.140625 
Q 45.0625 54.296875 48.78125 52.59375 
z
" id="DejaVuSans-99"/>
      </defs>
      <use xlink:href="#DejaVuSans-87"/>
      <use x="98.876953" xlink:href="#DejaVuSans-82"/>
      <use x="168.359375" xlink:href="#DejaVuSans-69"/>
      <use x="231.542969" xlink:href="#DejaVuSans-78"/>
      <use x="306.347656" xlink:href="#DejaVuSans-67"/>
      <use x="376.171875" xlink:href="#DejaVuSans-72"/>
      <use x="451.367188" xlink:href="#DejaVuSans-45"/>
      <use x="487.451172" xlink:href="#DejaVuSans-99"/>
      <use x="542.431641" xlink:href="#DejaVuSans-97"/>
      <use x="603.710938" xlink:href="#DejaVuSans-99"/>
      <use x="658.691406" xlink:href="#DejaVuSans-104"/>
      <use x="722.070312" xlink:href="#DejaVuSans-101"/>
     </g>
    </g>
   </g>
  </g>
 </g>
 <defs>
  <clipPath id="pab63d5d5dd">
   <rect height="151.2" width="320.571429" x="79.2" y="43.2"/>
  </clipPath>
  <clipPath id="p3597d14ce5">
   <rect height="151.2" width="320.571429" x="431.828571" y="43.2"/>
  </clipPath>
 </defs>
</svg>
