<?xml version="1.0" encoding="utf-8" standalone="no"?>
<!DOCTYPE svg PUBLIC "-//W3C//DTD SVG 1.1//EN"
  "http://www.w3.org/Graphics/SVG/1.1/DTD/svg11.dtd">
<!-- Created with matplotlib (https://matplotlib.org/) -->
<svg height="360pt" version="1.1" viewBox="0 0 720 360" width="720pt" xmlns="http://www.w3.org/2000/svg" xmlns:xlink="http://www.w3.org/1999/xlink">
 <metadata>
  <rdf:RDF xmlns:cc="http://creativecommons.org/ns#" xmlns:dc="http://purl.org/dc/elements/1.1/" xmlns:rdf="http://www.w3.org/1999/02/22-rdf-syntax-ns#">
   <cc:Work>
    <dc:type rdf:resource="http://purl.org/dc/dcmitype/StillImage"/>
    <dc:date>2020-12-14T22:50:40.633484</dc:date>
    <dc:format>image/svg+xml</dc:format>
    <dc:creator>
     <cc:Agent>
      <dc:title>Matplotlib v3.3.0, https://matplotlib.org/</dc:title>
     </cc:Agent>
    </dc:creator>
   </cc:Work>
  </rdf:RDF>
 </metadata>
 <defs>
  <style type="text/css">*{stroke-linecap:butt;stroke-linejoin:round;}</style>
 </defs>
 <g id="figure_1">
  <g id="patch_1">
   <path d="M 0 360 
L 720 360 
L 720 0 
L 0 0 
z
" style="fill:#ffffff;"/>
  </g>
  <g id="axes_1">
   <g id="patch_2">
    <path d="M 72 324 
L 363.428571 324 
L 363.428571 108 
L 72 108 
z
" style="fill:#ffffff;"/>
   </g>
   <g id="PolyCollection_1">
    <path clip-path="url(#pd1d00542e2)" d="M 85.246753 322.647408 
L 85.246753 322.684128 
L 93.793046 321.828336 
L 102.339338 320.871312 
L 110.88563 319.739904 
L 119.431923 318.890102 
L 127.978215 318.070608 
L 136.524508 316.935751 
L 145.0708 314.864298 
L 153.617093 314.167296 
L 162.163385 312.946718 
L 170.709677 311.827903 
L 179.25597 309.480504 
L 187.802262 307.69149 
L 196.348555 307.190304 
L 204.894847 305.166106 
L 213.44114 302.342463 
L 221.987432 302.12795 
L 230.533724 301.629904 
L 239.080017 300.566637 
L 247.626309 304.02306 
L 256.172602 299.855835 
L 264.718894 297.529514 
L 273.265186 299.965843 
L 281.811479 296.532336 
L 290.357771 296.47065 
L 298.904064 296.266298 
L 307.450356 289.882037 
L 315.996649 293.509147 
L 324.542941 293.211087 
L 333.089233 292.071466 
L 341.635526 288.690466 
L 350.181818 293.350743 
L 350.181818 278.45753 
L 350.181818 278.45753 
L 341.635526 279.74539 
L 333.089233 284.696822 
L 324.542941 281.976629 
L 315.996649 278.187963 
L 307.450356 277.076885 
L 298.904064 287.43413 
L 290.357771 289.461761 
L 281.811479 292.440018 
L 273.265186 289.748329 
L 264.718894 295.106119 
L 256.172602 292.087742 
L 247.626309 295.876454 
L 239.080017 297.94276 
L 230.533724 299.019016 
L 221.987432 294.649598 
L 213.44114 298.883646 
L 204.894847 300.31945 
L 196.348555 303.731547 
L 187.802262 304.323353 
L 179.25597 303.685392 
L 170.709677 309.837377 
L 162.163385 309.768696 
L 153.617093 312.530144 
L 145.0708 314.528472 
L 136.524508 316.316715 
L 127.978215 317.5212 
L 119.431923 318.380285 
L 110.88563 319.650768 
L 102.339338 320.344656 
L 93.793046 321.5646 
L 85.246753 322.647408 
z
" style="fill:#90c987;fill-opacity:0.5;"/>
   </g>
   <g id="matplotlib.axis_1">
    <g id="xtick_1">
     <g id="line2d_1">
      <defs>
       <path d="M 0 0 
L 0 3.5 
" id="m62b19dc8e3" style="stroke:#000000;stroke-width:0.8;"/>
      </defs>
      <g>
       <use style="stroke:#000000;stroke-width:0.8;" x="76.700461" xlink:href="#m62b19dc8e3" y="324"/>
      </g>
     </g>
     <g id="text_1">
      <!-- 0 -->
      <g transform="translate(74.155461 337.07875)scale(0.08 -0.08)">
       <defs>
        <path d="M 31.78125 66.40625 
Q 24.171875 66.40625 20.328125 58.90625 
Q 16.5 51.421875 16.5 36.375 
Q 16.5 21.390625 20.328125 13.890625 
Q 24.171875 6.390625 31.78125 6.390625 
Q 39.453125 6.390625 43.28125 13.890625 
Q 47.125 21.390625 47.125 36.375 
Q 47.125 51.421875 43.28125 58.90625 
Q 39.453125 66.40625 31.78125 66.40625 
z
M 31.78125 74.21875 
Q 44.046875 74.21875 50.515625 64.515625 
Q 56.984375 54.828125 56.984375 36.375 
Q 56.984375 17.96875 50.515625 8.265625 
Q 44.046875 -1.421875 31.78125 -1.421875 
Q 19.53125 -1.421875 13.0625 8.265625 
Q 6.59375 17.96875 6.59375 36.375 
Q 6.59375 54.828125 13.0625 64.515625 
Q 19.53125 74.21875 31.78125 74.21875 
z
" id="DejaVuSans-48"/>
       </defs>
       <use xlink:href="#DejaVuSans-48"/>
      </g>
     </g>
    </g>
    <g id="xtick_2">
     <g id="line2d_2">
      <g>
       <use style="stroke:#000000;stroke-width:0.8;" x="119.431923" xlink:href="#m62b19dc8e3" y="324"/>
      </g>
     </g>
     <g id="text_2">
      <!-- 5 -->
      <g transform="translate(116.886923 337.07875)scale(0.08 -0.08)">
       <defs>
        <path d="M 10.796875 72.90625 
L 49.515625 72.90625 
L 49.515625 64.59375 
L 19.828125 64.59375 
L 19.828125 46.734375 
Q 21.96875 47.46875 24.109375 47.828125 
Q 26.265625 48.1875 28.421875 48.1875 
Q 40.625 48.1875 47.75 41.5 
Q 54.890625 34.8125 54.890625 23.390625 
Q 54.890625 11.625 47.5625 5.09375 
Q 40.234375 -1.421875 26.90625 -1.421875 
Q 22.3125 -1.421875 17.546875 -0.640625 
Q 12.796875 0.140625 7.71875 1.703125 
L 7.71875 11.625 
Q 12.109375 9.234375 16.796875 8.0625 
Q 21.484375 6.890625 26.703125 6.890625 
Q 35.15625 6.890625 40.078125 11.328125 
Q 45.015625 15.765625 45.015625 23.390625 
Q 45.015625 31 40.078125 35.4375 
Q 35.15625 39.890625 26.703125 39.890625 
Q 22.75 39.890625 18.8125 39.015625 
Q 14.890625 38.140625 10.796875 36.28125 
z
" id="DejaVuSans-53"/>
       </defs>
       <use xlink:href="#DejaVuSans-53"/>
      </g>
     </g>
    </g>
    <g id="xtick_3">
     <g id="line2d_3">
      <g>
       <use style="stroke:#000000;stroke-width:0.8;" x="162.163385" xlink:href="#m62b19dc8e3" y="324"/>
      </g>
     </g>
     <g id="text_3">
      <!-- 10 -->
      <g transform="translate(157.073385 337.07875)scale(0.08 -0.08)">
       <defs>
        <path d="M 12.40625 8.296875 
L 28.515625 8.296875 
L 28.515625 63.921875 
L 10.984375 60.40625 
L 10.984375 69.390625 
L 28.421875 72.90625 
L 38.28125 72.90625 
L 38.28125 8.296875 
L 54.390625 8.296875 
L 54.390625 0 
L 12.40625 0 
z
" id="DejaVuSans-49"/>
       </defs>
       <use xlink:href="#DejaVuSans-49"/>
       <use x="63.623047" xlink:href="#DejaVuSans-48"/>
      </g>
     </g>
    </g>
    <g id="xtick_4">
     <g id="line2d_4">
      <g>
       <use style="stroke:#000000;stroke-width:0.8;" x="204.894847" xlink:href="#m62b19dc8e3" y="324"/>
      </g>
     </g>
     <g id="text_4">
      <!-- 15 -->
      <g transform="translate(199.804847 337.07875)scale(0.08 -0.08)">
       <use xlink:href="#DejaVuSans-49"/>
       <use x="63.623047" xlink:href="#DejaVuSans-53"/>
      </g>
     </g>
    </g>
    <g id="xtick_5">
     <g id="line2d_5">
      <g>
       <use style="stroke:#000000;stroke-width:0.8;" x="247.626309" xlink:href="#m62b19dc8e3" y="324"/>
      </g>
     </g>
     <g id="text_5">
      <!-- 20 -->
      <g transform="translate(242.536309 337.07875)scale(0.08 -0.08)">
       <defs>
        <path d="M 19.1875 8.296875 
L 53.609375 8.296875 
L 53.609375 0 
L 7.328125 0 
L 7.328125 8.296875 
Q 12.9375 14.109375 22.625 23.890625 
Q 32.328125 33.6875 34.8125 36.53125 
Q 39.546875 41.84375 41.421875 45.53125 
Q 43.3125 49.21875 43.3125 52.78125 
Q 43.3125 58.59375 39.234375 62.25 
Q 35.15625 65.921875 28.609375 65.921875 
Q 23.96875 65.921875 18.8125 64.3125 
Q 13.671875 62.703125 7.8125 59.421875 
L 7.8125 69.390625 
Q 13.765625 71.78125 18.9375 73 
Q 24.125 74.21875 28.421875 74.21875 
Q 39.75 74.21875 46.484375 68.546875 
Q 53.21875 62.890625 53.21875 53.421875 
Q 53.21875 48.921875 51.53125 44.890625 
Q 49.859375 40.875 45.40625 35.40625 
Q 44.1875 33.984375 37.640625 27.21875 
Q 31.109375 20.453125 19.1875 8.296875 
z
" id="DejaVuSans-50"/>
       </defs>
       <use xlink:href="#DejaVuSans-50"/>
       <use x="63.623047" xlink:href="#DejaVuSans-48"/>
      </g>
     </g>
    </g>
    <g id="xtick_6">
     <g id="line2d_6">
      <g>
       <use style="stroke:#000000;stroke-width:0.8;" x="290.357771" xlink:href="#m62b19dc8e3" y="324"/>
      </g>
     </g>
     <g id="text_6">
      <!-- 25 -->
      <g transform="translate(285.267771 337.07875)scale(0.08 -0.08)">
       <use xlink:href="#DejaVuSans-50"/>
       <use x="63.623047" xlink:href="#DejaVuSans-53"/>
      </g>
     </g>
    </g>
    <g id="xtick_7">
     <g id="line2d_7">
      <g>
       <use style="stroke:#000000;stroke-width:0.8;" x="333.089233" xlink:href="#m62b19dc8e3" y="324"/>
      </g>
     </g>
     <g id="text_7">
      <!-- 30 -->
      <g transform="translate(327.999233 337.07875)scale(0.08 -0.08)">
       <defs>
        <path d="M 40.578125 39.3125 
Q 47.65625 37.796875 51.625 33 
Q 55.609375 28.21875 55.609375 21.1875 
Q 55.609375 10.40625 48.1875 4.484375 
Q 40.765625 -1.421875 27.09375 -1.421875 
Q 22.515625 -1.421875 17.65625 -0.515625 
Q 12.796875 0.390625 7.625 2.203125 
L 7.625 11.71875 
Q 11.71875 9.328125 16.59375 8.109375 
Q 21.484375 6.890625 26.8125 6.890625 
Q 36.078125 6.890625 40.9375 10.546875 
Q 45.796875 14.203125 45.796875 21.1875 
Q 45.796875 27.640625 41.28125 31.265625 
Q 36.765625 34.90625 28.71875 34.90625 
L 20.21875 34.90625 
L 20.21875 43.015625 
L 29.109375 43.015625 
Q 36.375 43.015625 40.234375 45.921875 
Q 44.09375 48.828125 44.09375 54.296875 
Q 44.09375 59.90625 40.109375 62.90625 
Q 36.140625 65.921875 28.71875 65.921875 
Q 24.65625 65.921875 20.015625 65.03125 
Q 15.375 64.15625 9.8125 62.3125 
L 9.8125 71.09375 
Q 15.4375 72.65625 20.34375 73.4375 
Q 25.25 74.21875 29.59375 74.21875 
Q 40.828125 74.21875 47.359375 69.109375 
Q 53.90625 64.015625 53.90625 55.328125 
Q 53.90625 49.265625 50.4375 45.09375 
Q 46.96875 40.921875 40.578125 39.3125 
z
" id="DejaVuSans-51"/>
       </defs>
       <use xlink:href="#DejaVuSans-51"/>
       <use x="63.623047" xlink:href="#DejaVuSans-48"/>
      </g>
     </g>
    </g>
    <g id="text_8">
     <!-- Concurrent applications -->
     <g transform="translate(170.091161 348.82125)scale(0.08 -0.08)">
      <defs>
       <path d="M 64.40625 67.28125 
L 64.40625 56.890625 
Q 59.421875 61.53125 53.78125 63.8125 
Q 48.140625 66.109375 41.796875 66.109375 
Q 29.296875 66.109375 22.65625 58.46875 
Q 16.015625 50.828125 16.015625 36.375 
Q 16.015625 21.96875 22.65625 14.328125 
Q 29.296875 6.6875 41.796875 6.6875 
Q 48.140625 6.6875 53.78125 8.984375 
Q 59.421875 11.28125 64.40625 15.921875 
L 64.40625 5.609375 
Q 59.234375 2.09375 53.4375 0.328125 
Q 47.65625 -1.421875 41.21875 -1.421875 
Q 24.65625 -1.421875 15.125 8.703125 
Q 5.609375 18.84375 5.609375 36.375 
Q 5.609375 53.953125 15.125 64.078125 
Q 24.65625 74.21875 41.21875 74.21875 
Q 47.75 74.21875 53.53125 72.484375 
Q 59.328125 70.75 64.40625 67.28125 
z
" id="DejaVuSans-67"/>
       <path d="M 30.609375 48.390625 
Q 23.390625 48.390625 19.1875 42.75 
Q 14.984375 37.109375 14.984375 27.296875 
Q 14.984375 17.484375 19.15625 11.84375 
Q 23.34375 6.203125 30.609375 6.203125 
Q 37.796875 6.203125 41.984375 11.859375 
Q 46.1875 17.53125 46.1875 27.296875 
Q 46.1875 37.015625 41.984375 42.703125 
Q 37.796875 48.390625 30.609375 48.390625 
z
M 30.609375 56 
Q 42.328125 56 49.015625 48.375 
Q 55.71875 40.765625 55.71875 27.296875 
Q 55.71875 13.875 49.015625 6.21875 
Q 42.328125 -1.421875 30.609375 -1.421875 
Q 18.84375 -1.421875 12.171875 6.21875 
Q 5.515625 13.875 5.515625 27.296875 
Q 5.515625 40.765625 12.171875 48.375 
Q 18.84375 56 30.609375 56 
z
" id="DejaVuSans-111"/>
       <path d="M 54.890625 33.015625 
L 54.890625 0 
L 45.90625 0 
L 45.90625 32.71875 
Q 45.90625 40.484375 42.875 44.328125 
Q 39.84375 48.1875 33.796875 48.1875 
Q 26.515625 48.1875 22.3125 43.546875 
Q 18.109375 38.921875 18.109375 30.90625 
L 18.109375 0 
L 9.078125 0 
L 9.078125 54.6875 
L 18.109375 54.6875 
L 18.109375 46.1875 
Q 21.34375 51.125 25.703125 53.5625 
Q 30.078125 56 35.796875 56 
Q 45.21875 56 50.046875 50.171875 
Q 54.890625 44.34375 54.890625 33.015625 
z
" id="DejaVuSans-110"/>
       <path d="M 48.78125 52.59375 
L 48.78125 44.1875 
Q 44.96875 46.296875 41.140625 47.34375 
Q 37.3125 48.390625 33.40625 48.390625 
Q 24.65625 48.390625 19.8125 42.84375 
Q 14.984375 37.3125 14.984375 27.296875 
Q 14.984375 17.28125 19.8125 11.734375 
Q 24.65625 6.203125 33.40625 6.203125 
Q 37.3125 6.203125 41.140625 7.25 
Q 44.96875 8.296875 48.78125 10.40625 
L 48.78125 2.09375 
Q 45.015625 0.34375 40.984375 -0.53125 
Q 36.96875 -1.421875 32.421875 -1.421875 
Q 20.0625 -1.421875 12.78125 6.34375 
Q 5.515625 14.109375 5.515625 27.296875 
Q 5.515625 40.671875 12.859375 48.328125 
Q 20.21875 56 33.015625 56 
Q 37.15625 56 41.109375 55.140625 
Q 45.0625 54.296875 48.78125 52.59375 
z
" id="DejaVuSans-99"/>
       <path d="M 8.5 21.578125 
L 8.5 54.6875 
L 17.484375 54.6875 
L 17.484375 21.921875 
Q 17.484375 14.15625 20.5 10.265625 
Q 23.53125 6.390625 29.59375 6.390625 
Q 36.859375 6.390625 41.078125 11.03125 
Q 45.3125 15.671875 45.3125 23.6875 
L 45.3125 54.6875 
L 54.296875 54.6875 
L 54.296875 0 
L 45.3125 0 
L 45.3125 8.40625 
Q 42.046875 3.421875 37.71875 1 
Q 33.40625 -1.421875 27.6875 -1.421875 
Q 18.265625 -1.421875 13.375 4.4375 
Q 8.5 10.296875 8.5 21.578125 
z
M 31.109375 56 
z
" id="DejaVuSans-117"/>
       <path d="M 41.109375 46.296875 
Q 39.59375 47.171875 37.8125 47.578125 
Q 36.03125 48 33.890625 48 
Q 26.265625 48 22.1875 43.046875 
Q 18.109375 38.09375 18.109375 28.8125 
L 18.109375 0 
L 9.078125 0 
L 9.078125 54.6875 
L 18.109375 54.6875 
L 18.109375 46.1875 
Q 20.953125 51.171875 25.484375 53.578125 
Q 30.03125 56 36.53125 56 
Q 37.453125 56 38.578125 55.875 
Q 39.703125 55.765625 41.0625 55.515625 
z
" id="DejaVuSans-114"/>
       <path d="M 56.203125 29.59375 
L 56.203125 25.203125 
L 14.890625 25.203125 
Q 15.484375 15.921875 20.484375 11.0625 
Q 25.484375 6.203125 34.421875 6.203125 
Q 39.59375 6.203125 44.453125 7.46875 
Q 49.3125 8.734375 54.109375 11.28125 
L 54.109375 2.78125 
Q 49.265625 0.734375 44.1875 -0.34375 
Q 39.109375 -1.421875 33.890625 -1.421875 
Q 20.796875 -1.421875 13.15625 6.1875 
Q 5.515625 13.8125 5.515625 26.8125 
Q 5.515625 40.234375 12.765625 48.109375 
Q 20.015625 56 32.328125 56 
Q 43.359375 56 49.78125 48.890625 
Q 56.203125 41.796875 56.203125 29.59375 
z
M 47.21875 32.234375 
Q 47.125 39.59375 43.09375 43.984375 
Q 39.0625 48.390625 32.421875 48.390625 
Q 24.90625 48.390625 20.390625 44.140625 
Q 15.875 39.890625 15.1875 32.171875 
z
" id="DejaVuSans-101"/>
       <path d="M 18.3125 70.21875 
L 18.3125 54.6875 
L 36.8125 54.6875 
L 36.8125 47.703125 
L 18.3125 47.703125 
L 18.3125 18.015625 
Q 18.3125 11.328125 20.140625 9.421875 
Q 21.96875 7.515625 27.59375 7.515625 
L 36.8125 7.515625 
L 36.8125 0 
L 27.59375 0 
Q 17.1875 0 13.234375 3.875 
Q 9.28125 7.765625 9.28125 18.015625 
L 9.28125 47.703125 
L 2.6875 47.703125 
L 2.6875 54.6875 
L 9.28125 54.6875 
L 9.28125 70.21875 
z
" id="DejaVuSans-116"/>
       <path id="DejaVuSans-32"/>
       <path d="M 34.28125 27.484375 
Q 23.390625 27.484375 19.1875 25 
Q 14.984375 22.515625 14.984375 16.5 
Q 14.984375 11.71875 18.140625 8.90625 
Q 21.296875 6.109375 26.703125 6.109375 
Q 34.1875 6.109375 38.703125 11.40625 
Q 43.21875 16.703125 43.21875 25.484375 
L 43.21875 27.484375 
z
M 52.203125 31.203125 
L 52.203125 0 
L 43.21875 0 
L 43.21875 8.296875 
Q 40.140625 3.328125 35.546875 0.953125 
Q 30.953125 -1.421875 24.3125 -1.421875 
Q 15.921875 -1.421875 10.953125 3.296875 
Q 6 8.015625 6 15.921875 
Q 6 25.140625 12.171875 29.828125 
Q 18.359375 34.515625 30.609375 34.515625 
L 43.21875 34.515625 
L 43.21875 35.40625 
Q 43.21875 41.609375 39.140625 45 
Q 35.0625 48.390625 27.6875 48.390625 
Q 23 48.390625 18.546875 47.265625 
Q 14.109375 46.140625 10.015625 43.890625 
L 10.015625 52.203125 
Q 14.9375 54.109375 19.578125 55.046875 
Q 24.21875 56 28.609375 56 
Q 40.484375 56 46.34375 49.84375 
Q 52.203125 43.703125 52.203125 31.203125 
z
" id="DejaVuSans-97"/>
       <path d="M 18.109375 8.203125 
L 18.109375 -20.796875 
L 9.078125 -20.796875 
L 9.078125 54.6875 
L 18.109375 54.6875 
L 18.109375 46.390625 
Q 20.953125 51.265625 25.265625 53.625 
Q 29.59375 56 35.59375 56 
Q 45.5625 56 51.78125 48.09375 
Q 58.015625 40.1875 58.015625 27.296875 
Q 58.015625 14.40625 51.78125 6.484375 
Q 45.5625 -1.421875 35.59375 -1.421875 
Q 29.59375 -1.421875 25.265625 0.953125 
Q 20.953125 3.328125 18.109375 8.203125 
z
M 48.6875 27.296875 
Q 48.6875 37.203125 44.609375 42.84375 
Q 40.53125 48.484375 33.40625 48.484375 
Q 26.265625 48.484375 22.1875 42.84375 
Q 18.109375 37.203125 18.109375 27.296875 
Q 18.109375 17.390625 22.1875 11.75 
Q 26.265625 6.109375 33.40625 6.109375 
Q 40.53125 6.109375 44.609375 11.75 
Q 48.6875 17.390625 48.6875 27.296875 
z
" id="DejaVuSans-112"/>
       <path d="M 9.421875 75.984375 
L 18.40625 75.984375 
L 18.40625 0 
L 9.421875 0 
z
" id="DejaVuSans-108"/>
       <path d="M 9.421875 54.6875 
L 18.40625 54.6875 
L 18.40625 0 
L 9.421875 0 
z
M 9.421875 75.984375 
L 18.40625 75.984375 
L 18.40625 64.59375 
L 9.421875 64.59375 
z
" id="DejaVuSans-105"/>
       <path d="M 44.28125 53.078125 
L 44.28125 44.578125 
Q 40.484375 46.53125 36.375 47.5 
Q 32.28125 48.484375 27.875 48.484375 
Q 21.1875 48.484375 17.84375 46.4375 
Q 14.5 44.390625 14.5 40.28125 
Q 14.5 37.15625 16.890625 35.375 
Q 19.28125 33.59375 26.515625 31.984375 
L 29.59375 31.296875 
Q 39.15625 29.25 43.1875 25.515625 
Q 47.21875 21.78125 47.21875 15.09375 
Q 47.21875 7.46875 41.1875 3.015625 
Q 35.15625 -1.421875 24.609375 -1.421875 
Q 20.21875 -1.421875 15.453125 -0.5625 
Q 10.6875 0.296875 5.421875 2 
L 5.421875 11.28125 
Q 10.40625 8.6875 15.234375 7.390625 
Q 20.0625 6.109375 24.8125 6.109375 
Q 31.15625 6.109375 34.5625 8.28125 
Q 37.984375 10.453125 37.984375 14.40625 
Q 37.984375 18.0625 35.515625 20.015625 
Q 33.0625 21.96875 24.703125 23.78125 
L 21.578125 24.515625 
Q 13.234375 26.265625 9.515625 29.90625 
Q 5.8125 33.546875 5.8125 39.890625 
Q 5.8125 47.609375 11.28125 51.796875 
Q 16.75 56 26.8125 56 
Q 31.78125 56 36.171875 55.265625 
Q 40.578125 54.546875 44.28125 53.078125 
z
" id="DejaVuSans-115"/>
      </defs>
      <use xlink:href="#DejaVuSans-67"/>
      <use x="69.824219" xlink:href="#DejaVuSans-111"/>
      <use x="131.005859" xlink:href="#DejaVuSans-110"/>
      <use x="194.384766" xlink:href="#DejaVuSans-99"/>
      <use x="249.365234" xlink:href="#DejaVuSans-117"/>
      <use x="312.744141" xlink:href="#DejaVuSans-114"/>
      <use x="352.107422" xlink:href="#DejaVuSans-114"/>
      <use x="390.970703" xlink:href="#DejaVuSans-101"/>
      <use x="452.494141" xlink:href="#DejaVuSans-110"/>
      <use x="515.873047" xlink:href="#DejaVuSans-116"/>
      <use x="555.082031" xlink:href="#DejaVuSans-32"/>
      <use x="586.869141" xlink:href="#DejaVuSans-97"/>
      <use x="648.148438" xlink:href="#DejaVuSans-112"/>
      <use x="711.625" xlink:href="#DejaVuSans-112"/>
      <use x="775.101562" xlink:href="#DejaVuSans-108"/>
      <use x="802.884766" xlink:href="#DejaVuSans-105"/>
      <use x="830.667969" xlink:href="#DejaVuSans-99"/>
      <use x="885.648438" xlink:href="#DejaVuSans-97"/>
      <use x="946.927734" xlink:href="#DejaVuSans-116"/>
      <use x="986.136719" xlink:href="#DejaVuSans-105"/>
      <use x="1013.919922" xlink:href="#DejaVuSans-111"/>
      <use x="1075.101562" xlink:href="#DejaVuSans-110"/>
      <use x="1138.480469" xlink:href="#DejaVuSans-115"/>
     </g>
    </g>
   </g>
   <g id="matplotlib.axis_2">
    <g id="ytick_1">
     <g id="line2d_8">
      <defs>
       <path d="M 0 0 
L -3.5 0 
" id="m0a318c48d5" style="stroke:#000000;stroke-width:0.8;"/>
      </defs>
      <g>
       <use style="stroke:#000000;stroke-width:0.8;" x="72" xlink:href="#m0a318c48d5" y="324"/>
      </g>
     </g>
     <g id="text_9">
      <!-- 0 -->
      <g transform="translate(59.91 327.039375)scale(0.08 -0.08)">
       <use xlink:href="#DejaVuSans-48"/>
      </g>
     </g>
    </g>
    <g id="ytick_2">
     <g id="line2d_9">
      <g>
       <use style="stroke:#000000;stroke-width:0.8;" x="72" xlink:href="#m0a318c48d5" y="295.2"/>
      </g>
     </g>
     <g id="text_10">
      <!-- 200 -->
      <g transform="translate(49.73 298.239375)scale(0.08 -0.08)">
       <use xlink:href="#DejaVuSans-50"/>
       <use x="63.623047" xlink:href="#DejaVuSans-48"/>
       <use x="127.246094" xlink:href="#DejaVuSans-48"/>
      </g>
     </g>
    </g>
    <g id="ytick_3">
     <g id="line2d_10">
      <g>
       <use style="stroke:#000000;stroke-width:0.8;" x="72" xlink:href="#m0a318c48d5" y="266.4"/>
      </g>
     </g>
     <g id="text_11">
      <!-- 400 -->
      <g transform="translate(49.73 269.439375)scale(0.08 -0.08)">
       <defs>
        <path d="M 37.796875 64.3125 
L 12.890625 25.390625 
L 37.796875 25.390625 
z
M 35.203125 72.90625 
L 47.609375 72.90625 
L 47.609375 25.390625 
L 58.015625 25.390625 
L 58.015625 17.1875 
L 47.609375 17.1875 
L 47.609375 0 
L 37.796875 0 
L 37.796875 17.1875 
L 4.890625 17.1875 
L 4.890625 26.703125 
z
" id="DejaVuSans-52"/>
       </defs>
       <use xlink:href="#DejaVuSans-52"/>
       <use x="63.623047" xlink:href="#DejaVuSans-48"/>
       <use x="127.246094" xlink:href="#DejaVuSans-48"/>
      </g>
     </g>
    </g>
    <g id="ytick_4">
     <g id="line2d_11">
      <g>
       <use style="stroke:#000000;stroke-width:0.8;" x="72" xlink:href="#m0a318c48d5" y="237.6"/>
      </g>
     </g>
     <g id="text_12">
      <!-- 600 -->
      <g transform="translate(49.73 240.639375)scale(0.08 -0.08)">
       <defs>
        <path d="M 33.015625 40.375 
Q 26.375 40.375 22.484375 35.828125 
Q 18.609375 31.296875 18.609375 23.390625 
Q 18.609375 15.53125 22.484375 10.953125 
Q 26.375 6.390625 33.015625 6.390625 
Q 39.65625 6.390625 43.53125 10.953125 
Q 47.40625 15.53125 47.40625 23.390625 
Q 47.40625 31.296875 43.53125 35.828125 
Q 39.65625 40.375 33.015625 40.375 
z
M 52.59375 71.296875 
L 52.59375 62.3125 
Q 48.875 64.0625 45.09375 64.984375 
Q 41.3125 65.921875 37.59375 65.921875 
Q 27.828125 65.921875 22.671875 59.328125 
Q 17.53125 52.734375 16.796875 39.40625 
Q 19.671875 43.65625 24.015625 45.921875 
Q 28.375 48.1875 33.59375 48.1875 
Q 44.578125 48.1875 50.953125 41.515625 
Q 57.328125 34.859375 57.328125 23.390625 
Q 57.328125 12.15625 50.6875 5.359375 
Q 44.046875 -1.421875 33.015625 -1.421875 
Q 20.359375 -1.421875 13.671875 8.265625 
Q 6.984375 17.96875 6.984375 36.375 
Q 6.984375 53.65625 15.1875 63.9375 
Q 23.390625 74.21875 37.203125 74.21875 
Q 40.921875 74.21875 44.703125 73.484375 
Q 48.484375 72.75 52.59375 71.296875 
z
" id="DejaVuSans-54"/>
       </defs>
       <use xlink:href="#DejaVuSans-54"/>
       <use x="63.623047" xlink:href="#DejaVuSans-48"/>
       <use x="127.246094" xlink:href="#DejaVuSans-48"/>
      </g>
     </g>
    </g>
    <g id="ytick_5">
     <g id="line2d_12">
      <g>
       <use style="stroke:#000000;stroke-width:0.8;" x="72" xlink:href="#m0a318c48d5" y="208.8"/>
      </g>
     </g>
     <g id="text_13">
      <!-- 800 -->
      <g transform="translate(49.73 211.839375)scale(0.08 -0.08)">
       <defs>
        <path d="M 31.78125 34.625 
Q 24.75 34.625 20.71875 30.859375 
Q 16.703125 27.09375 16.703125 20.515625 
Q 16.703125 13.921875 20.71875 10.15625 
Q 24.75 6.390625 31.78125 6.390625 
Q 38.8125 6.390625 42.859375 10.171875 
Q 46.921875 13.96875 46.921875 20.515625 
Q 46.921875 27.09375 42.890625 30.859375 
Q 38.875 34.625 31.78125 34.625 
z
M 21.921875 38.8125 
Q 15.578125 40.375 12.03125 44.71875 
Q 8.5 49.078125 8.5 55.328125 
Q 8.5 64.0625 14.71875 69.140625 
Q 20.953125 74.21875 31.78125 74.21875 
Q 42.671875 74.21875 48.875 69.140625 
Q 55.078125 64.0625 55.078125 55.328125 
Q 55.078125 49.078125 51.53125 44.71875 
Q 48 40.375 41.703125 38.8125 
Q 48.828125 37.15625 52.796875 32.3125 
Q 56.78125 27.484375 56.78125 20.515625 
Q 56.78125 9.90625 50.3125 4.234375 
Q 43.84375 -1.421875 31.78125 -1.421875 
Q 19.734375 -1.421875 13.25 4.234375 
Q 6.78125 9.90625 6.78125 20.515625 
Q 6.78125 27.484375 10.78125 32.3125 
Q 14.796875 37.15625 21.921875 38.8125 
z
M 18.3125 54.390625 
Q 18.3125 48.734375 21.84375 45.5625 
Q 25.390625 42.390625 31.78125 42.390625 
Q 38.140625 42.390625 41.71875 45.5625 
Q 45.3125 48.734375 45.3125 54.390625 
Q 45.3125 60.0625 41.71875 63.234375 
Q 38.140625 66.40625 31.78125 66.40625 
Q 25.390625 66.40625 21.84375 63.234375 
Q 18.3125 60.0625 18.3125 54.390625 
z
" id="DejaVuSans-56"/>
       </defs>
       <use xlink:href="#DejaVuSans-56"/>
       <use x="63.623047" xlink:href="#DejaVuSans-48"/>
       <use x="127.246094" xlink:href="#DejaVuSans-48"/>
      </g>
     </g>
    </g>
    <g id="ytick_6">
     <g id="line2d_13">
      <g>
       <use style="stroke:#000000;stroke-width:0.8;" x="72" xlink:href="#m0a318c48d5" y="180"/>
      </g>
     </g>
     <g id="text_14">
      <!-- 1000 -->
      <g transform="translate(44.64 183.039375)scale(0.08 -0.08)">
       <use xlink:href="#DejaVuSans-49"/>
       <use x="63.623047" xlink:href="#DejaVuSans-48"/>
       <use x="127.246094" xlink:href="#DejaVuSans-48"/>
       <use x="190.869141" xlink:href="#DejaVuSans-48"/>
      </g>
     </g>
    </g>
    <g id="ytick_7">
     <g id="line2d_14">
      <g>
       <use style="stroke:#000000;stroke-width:0.8;" x="72" xlink:href="#m0a318c48d5" y="151.2"/>
      </g>
     </g>
     <g id="text_15">
      <!-- 1200 -->
      <g transform="translate(44.64 154.239375)scale(0.08 -0.08)">
       <use xlink:href="#DejaVuSans-49"/>
       <use x="63.623047" xlink:href="#DejaVuSans-50"/>
       <use x="127.246094" xlink:href="#DejaVuSans-48"/>
       <use x="190.869141" xlink:href="#DejaVuSans-48"/>
      </g>
     </g>
    </g>
    <g id="ytick_8">
     <g id="line2d_15">
      <g>
       <use style="stroke:#000000;stroke-width:0.8;" x="72" xlink:href="#m0a318c48d5" y="122.4"/>
      </g>
     </g>
     <g id="text_16">
      <!-- 1400 -->
      <g transform="translate(44.64 125.439375)scale(0.08 -0.08)">
       <use xlink:href="#DejaVuSans-49"/>
       <use x="63.623047" xlink:href="#DejaVuSans-52"/>
       <use x="127.246094" xlink:href="#DejaVuSans-48"/>
       <use x="190.869141" xlink:href="#DejaVuSans-48"/>
      </g>
     </g>
    </g>
    <g id="text_17">
     <!-- time (s) -->
     <g transform="translate(38.97625 231.513125)rotate(-90)scale(0.08 -0.08)">
      <defs>
       <path d="M 52 44.1875 
Q 55.375 50.25 60.0625 53.125 
Q 64.75 56 71.09375 56 
Q 79.640625 56 84.28125 50.015625 
Q 88.921875 44.046875 88.921875 33.015625 
L 88.921875 0 
L 79.890625 0 
L 79.890625 32.71875 
Q 79.890625 40.578125 77.09375 44.375 
Q 74.3125 48.1875 68.609375 48.1875 
Q 61.625 48.1875 57.5625 43.546875 
Q 53.515625 38.921875 53.515625 30.90625 
L 53.515625 0 
L 44.484375 0 
L 44.484375 32.71875 
Q 44.484375 40.625 41.703125 44.40625 
Q 38.921875 48.1875 33.109375 48.1875 
Q 26.21875 48.1875 22.15625 43.53125 
Q 18.109375 38.875 18.109375 30.90625 
L 18.109375 0 
L 9.078125 0 
L 9.078125 54.6875 
L 18.109375 54.6875 
L 18.109375 46.1875 
Q 21.1875 51.21875 25.484375 53.609375 
Q 29.78125 56 35.6875 56 
Q 41.65625 56 45.828125 52.96875 
Q 50 49.953125 52 44.1875 
z
" id="DejaVuSans-109"/>
       <path d="M 31 75.875 
Q 24.46875 64.65625 21.28125 53.65625 
Q 18.109375 42.671875 18.109375 31.390625 
Q 18.109375 20.125 21.3125 9.0625 
Q 24.515625 -2 31 -13.1875 
L 23.1875 -13.1875 
Q 15.875 -1.703125 12.234375 9.375 
Q 8.59375 20.453125 8.59375 31.390625 
Q 8.59375 42.28125 12.203125 53.3125 
Q 15.828125 64.359375 23.1875 75.875 
z
" id="DejaVuSans-40"/>
       <path d="M 8.015625 75.875 
L 15.828125 75.875 
Q 23.140625 64.359375 26.78125 53.3125 
Q 30.421875 42.28125 30.421875 31.390625 
Q 30.421875 20.453125 26.78125 9.375 
Q 23.140625 -1.703125 15.828125 -13.1875 
L 8.015625 -13.1875 
Q 14.5 -2 17.703125 9.0625 
Q 20.90625 20.125 20.90625 31.390625 
Q 20.90625 42.671875 17.703125 53.65625 
Q 14.5 64.65625 8.015625 75.875 
z
" id="DejaVuSans-41"/>
      </defs>
      <use xlink:href="#DejaVuSans-116"/>
      <use x="39.208984" xlink:href="#DejaVuSans-105"/>
      <use x="66.992188" xlink:href="#DejaVuSans-109"/>
      <use x="164.404297" xlink:href="#DejaVuSans-101"/>
      <use x="225.927734" xlink:href="#DejaVuSans-32"/>
      <use x="257.714844" xlink:href="#DejaVuSans-40"/>
      <use x="296.728516" xlink:href="#DejaVuSans-115"/>
      <use x="348.828125" xlink:href="#DejaVuSans-41"/>
     </g>
    </g>
   </g>
   <g id="line2d_16">
    <path clip-path="url(#pd1d00542e2)" d="M 85.246753 322.67327 
L 93.793046 321.742181 
L 102.339338 320.668387 
L 110.88563 319.694429 
L 119.431923 318.710909 
L 127.978215 317.818027 
L 136.524508 316.703211 
L 145.0708 314.685904 
L 153.617093 313.291155 
L 162.163385 311.08875 
L 170.709677 310.621345 
L 179.25597 307.316933 
L 187.802262 305.815148 
L 196.348555 305.802967 
L 204.894847 303.082447 
L 213.44114 300.767927 
L 221.987432 299.986469 
L 230.533724 300.286008 
L 239.080017 299.163306 
L 247.626309 299.169688 
L 256.172602 296.442217 
L 264.718894 296.567242 
L 273.265186 296.058895 
L 281.811479 295.054968 
L 290.357771 292.047375 
L 298.904064 292.721541 
L 307.450356 284.424426 
L 315.996649 288.636333 
L 324.542941 287.462144 
L 333.089233 289.09833 
L 341.635526 284.818127 
L 350.181818 286.824113 
" style="fill:none;stroke:#90c987;stroke-linecap:square;stroke-width:2;"/>
   </g>
   <g id="line2d_17">
    <path clip-path="url(#pd1d00542e2)" d="M 85.246753 321.071715 
L 93.793046 318.143768 
L 102.339338 315.215821 
L 110.88563 312.287873 
L 119.431923 309.359926 
L 127.978215 306.431979 
L 136.524508 303.504031 
L 145.0708 300.576084 
L 153.617093 297.648136 
L 162.163385 294.720189 
L 170.709677 291.792242 
L 179.25597 288.864295 
L 187.802262 285.936347 
L 196.348555 283.0084 
L 204.894847 280.080453 
L 213.44114 277.152505 
L 221.987432 274.224558 
L 230.533724 271.296611 
L 239.080017 268.368664 
L 247.626309 265.440716 
L 256.172602 262.512769 
L 264.718894 259.584822 
L 273.265186 256.656874 
L 281.811479 253.728928 
L 290.357771 250.800979 
L 298.904064 247.873033 
L 307.450356 244.945082 
L 315.996649 242.017137 
L 324.542941 239.089191 
L 333.089233 236.161242 
L 341.635526 233.233296 
L 350.181818 230.305348 
" style="fill:none;stroke:#994f88;stroke-linecap:square;stroke-width:2;"/>
   </g>
   <g id="line2d_18">
    <path clip-path="url(#pd1d00542e2)" d="M 85.246753 322.694904 
L 93.793046 321.392207 
L 102.339338 320.089509 
L 110.88563 318.786811 
L 119.431923 317.484113 
L 127.978215 316.181416 
L 136.524508 314.878718 
L 145.0708 313.57602 
L 153.617093 312.273322 
L 162.163385 310.970625 
L 170.709677 309.667927 
L 179.25597 308.365229 
L 187.802262 307.062532 
L 196.348555 305.759834 
L 204.894847 304.457136 
L 213.44114 303.154438 
L 221.987432 301.851741 
L 230.533724 300.549043 
L 239.080017 299.246345 
L 247.626309 297.943647 
L 256.172602 296.64095 
L 264.718894 295.338252 
L 273.265186 276.608053 
L 281.811479 287.33828 
L 290.357771 282.206812 
L 298.904064 277.027351 
L 307.450356 271.867949 
L 315.996649 266.730414 
L 324.542941 263.533075 
L 333.089233 260.404349 
L 341.635526 258.284539 
L 350.181818 256.164727 
" style="fill:none;stroke:#1965b0;stroke-linecap:square;stroke-width:2;"/>
   </g>
   <g id="patch_3">
    <path d="M 72 324 
L 72 108 
" style="fill:none;stroke:#000000;stroke-linecap:square;stroke-linejoin:miter;stroke-width:0.8;"/>
   </g>
   <g id="patch_4">
    <path d="M 363.428571 324 
L 363.428571 108 
" style="fill:none;stroke:#000000;stroke-linecap:square;stroke-linejoin:miter;stroke-width:0.8;"/>
   </g>
   <g id="patch_5">
    <path d="M 72 324 
L 363.428571 324 
" style="fill:none;stroke:#000000;stroke-linecap:square;stroke-linejoin:miter;stroke-width:0.8;"/>
   </g>
   <g id="patch_6">
    <path d="M 72 108 
L 363.428571 108 
" style="fill:none;stroke:#000000;stroke-linecap:square;stroke-linejoin:miter;stroke-width:0.8;"/>
   </g>
   <g id="text_18">
    <!-- Read time -->
    <g transform="translate(193.283036 102)scale(0.096 -0.096)">
     <defs>
      <path d="M 44.390625 34.1875 
Q 47.5625 33.109375 50.5625 29.59375 
Q 53.5625 26.078125 56.59375 19.921875 
L 66.609375 0 
L 56 0 
L 46.6875 18.703125 
Q 43.0625 26.03125 39.671875 28.421875 
Q 36.28125 30.8125 30.421875 30.8125 
L 19.671875 30.8125 
L 19.671875 0 
L 9.8125 0 
L 9.8125 72.90625 
L 32.078125 72.90625 
Q 44.578125 72.90625 50.734375 67.671875 
Q 56.890625 62.453125 56.890625 51.90625 
Q 56.890625 45.015625 53.6875 40.46875 
Q 50.484375 35.9375 44.390625 34.1875 
z
M 19.671875 64.796875 
L 19.671875 38.921875 
L 32.078125 38.921875 
Q 39.203125 38.921875 42.84375 42.21875 
Q 46.484375 45.515625 46.484375 51.90625 
Q 46.484375 58.296875 42.84375 61.546875 
Q 39.203125 64.796875 32.078125 64.796875 
z
" id="DejaVuSans-82"/>
      <path d="M 45.40625 46.390625 
L 45.40625 75.984375 
L 54.390625 75.984375 
L 54.390625 0 
L 45.40625 0 
L 45.40625 8.203125 
Q 42.578125 3.328125 38.25 0.953125 
Q 33.9375 -1.421875 27.875 -1.421875 
Q 17.96875 -1.421875 11.734375 6.484375 
Q 5.515625 14.40625 5.515625 27.296875 
Q 5.515625 40.1875 11.734375 48.09375 
Q 17.96875 56 27.875 56 
Q 33.9375 56 38.25 53.625 
Q 42.578125 51.265625 45.40625 46.390625 
z
M 14.796875 27.296875 
Q 14.796875 17.390625 18.875 11.75 
Q 22.953125 6.109375 30.078125 6.109375 
Q 37.203125 6.109375 41.296875 11.75 
Q 45.40625 17.390625 45.40625 27.296875 
Q 45.40625 37.203125 41.296875 42.84375 
Q 37.203125 48.484375 30.078125 48.484375 
Q 22.953125 48.484375 18.875 42.84375 
Q 14.796875 37.203125 14.796875 27.296875 
z
" id="DejaVuSans-100"/>
     </defs>
     <use xlink:href="#DejaVuSans-82"/>
     <use x="64.982422" xlink:href="#DejaVuSans-101"/>
     <use x="126.505859" xlink:href="#DejaVuSans-97"/>
     <use x="187.785156" xlink:href="#DejaVuSans-100"/>
     <use x="251.261719" xlink:href="#DejaVuSans-32"/>
     <use x="283.048828" xlink:href="#DejaVuSans-116"/>
     <use x="322.257812" xlink:href="#DejaVuSans-105"/>
     <use x="350.041016" xlink:href="#DejaVuSans-109"/>
     <use x="447.453125" xlink:href="#DejaVuSans-101"/>
    </g>
   </g>
  </g>
  <g id="axes_2">
   <g id="patch_7">
    <path d="M 392.571429 324 
L 684 324 
L 684 108 
L 392.571429 108 
z
" style="fill:#ffffff;"/>
   </g>
   <g id="PolyCollection_2">
    <path clip-path="url(#p43c68bfedd)" d="M 405.818182 319.543344 
L 405.818182 319.956192 
L 414.364474 317.1996 
L 422.910767 314.161104 
L 431.457059 313.299792 
L 440.003351 310.10616 
L 448.549644 308.77752 
L 457.095936 306.165456 
L 465.642229 300.354966 
L 474.188521 296.580656 
L 482.734814 295.756546 
L 491.281106 288.843382 
L 499.827398 285.139224 
L 508.373691 277.319143 
L 516.919983 274.42152 
L 525.466276 273.876067 
L 534.012568 273.81645 
L 542.55886 265.156721 
L 551.105153 263.981208 
L 559.651445 262.65503 
L 568.197738 250.969154 
L 576.74403 244.102834 
L 585.290323 239.242006 
L 593.836615 232.303574 
L 602.382907 236.90073 
L 610.9292 237.161284 
L 619.475492 251.182523 
L 628.021785 237.339781 
L 636.568077 230.675241 
L 645.11437 232.139873 
L 653.660662 223.238664 
L 662.206954 216.427099 
L 670.753247 219.573346 
L 670.753247 198.200925 
L 670.753247 198.200925 
L 662.206954 200.992037 
L 653.660662 209.575478 
L 645.11437 212.885394 
L 636.568077 215.730082 
L 628.021785 217.799067 
L 619.475492 216.970759 
L 610.9292 216.509028 
L 602.382907 214.15164 
L 593.836615 220.027242 
L 585.290323 220.690617 
L 576.74403 220.164295 
L 568.197738 227.279549 
L 559.651445 242.849929 
L 551.105153 232.647224 
L 542.55886 243.987137 
L 534.012568 251.239518 
L 525.466276 261.115258 
L 516.919983 259.502133 
L 508.373691 267.678233 
L 499.827398 264.01494 
L 491.281106 269.536372 
L 482.734814 276.133666 
L 474.188521 285.267184 
L 465.642229 286.794594 
L 457.095936 292.489118 
L 448.549644 298.55304 
L 440.003351 300.777898 
L 431.457059 306.66348 
L 422.910767 311.418096 
L 414.364474 315.949176 
L 405.818182 319.543344 
z
" style="fill:#90c987;fill-opacity:0.5;"/>
   </g>
   <g id="matplotlib.axis_3">
    <g id="xtick_8">
     <g id="line2d_19">
      <g>
       <use style="stroke:#000000;stroke-width:0.8;" x="397.271889" xlink:href="#m62b19dc8e3" y="324"/>
      </g>
     </g>
     <g id="text_19">
      <!-- 0 -->
      <g transform="translate(394.726889 337.07875)scale(0.08 -0.08)">
       <use xlink:href="#DejaVuSans-48"/>
      </g>
     </g>
    </g>
    <g id="xtick_9">
     <g id="line2d_20">
      <g>
       <use style="stroke:#000000;stroke-width:0.8;" x="440.003351" xlink:href="#m62b19dc8e3" y="324"/>
      </g>
     </g>
     <g id="text_20">
      <!-- 5 -->
      <g transform="translate(437.458351 337.07875)scale(0.08 -0.08)">
       <use xlink:href="#DejaVuSans-53"/>
      </g>
     </g>
    </g>
    <g id="xtick_10">
     <g id="line2d_21">
      <g>
       <use style="stroke:#000000;stroke-width:0.8;" x="482.734814" xlink:href="#m62b19dc8e3" y="324"/>
      </g>
     </g>
     <g id="text_21">
      <!-- 10 -->
      <g transform="translate(477.644814 337.07875)scale(0.08 -0.08)">
       <use xlink:href="#DejaVuSans-49"/>
       <use x="63.623047" xlink:href="#DejaVuSans-48"/>
      </g>
     </g>
    </g>
    <g id="xtick_11">
     <g id="line2d_22">
      <g>
       <use style="stroke:#000000;stroke-width:0.8;" x="525.466276" xlink:href="#m62b19dc8e3" y="324"/>
      </g>
     </g>
     <g id="text_22">
      <!-- 15 -->
      <g transform="translate(520.376276 337.07875)scale(0.08 -0.08)">
       <use xlink:href="#DejaVuSans-49"/>
       <use x="63.623047" xlink:href="#DejaVuSans-53"/>
      </g>
     </g>
    </g>
    <g id="xtick_12">
     <g id="line2d_23">
      <g>
       <use style="stroke:#000000;stroke-width:0.8;" x="568.197738" xlink:href="#m62b19dc8e3" y="324"/>
      </g>
     </g>
     <g id="text_23">
      <!-- 20 -->
      <g transform="translate(563.107738 337.07875)scale(0.08 -0.08)">
       <use xlink:href="#DejaVuSans-50"/>
       <use x="63.623047" xlink:href="#DejaVuSans-48"/>
      </g>
     </g>
    </g>
    <g id="xtick_13">
     <g id="line2d_24">
      <g>
       <use style="stroke:#000000;stroke-width:0.8;" x="610.9292" xlink:href="#m62b19dc8e3" y="324"/>
      </g>
     </g>
     <g id="text_24">
      <!-- 25 -->
      <g transform="translate(605.8392 337.07875)scale(0.08 -0.08)">
       <use xlink:href="#DejaVuSans-50"/>
       <use x="63.623047" xlink:href="#DejaVuSans-53"/>
      </g>
     </g>
    </g>
    <g id="xtick_14">
     <g id="line2d_25">
      <g>
       <use style="stroke:#000000;stroke-width:0.8;" x="653.660662" xlink:href="#m62b19dc8e3" y="324"/>
      </g>
     </g>
     <g id="text_25">
      <!-- 30 -->
      <g transform="translate(648.570662 337.07875)scale(0.08 -0.08)">
       <use xlink:href="#DejaVuSans-51"/>
       <use x="63.623047" xlink:href="#DejaVuSans-48"/>
      </g>
     </g>
    </g>
    <g id="text_26">
     <!-- Concurrent applications -->
     <g transform="translate(490.662589 348.82125)scale(0.08 -0.08)">
      <use xlink:href="#DejaVuSans-67"/>
      <use x="69.824219" xlink:href="#DejaVuSans-111"/>
      <use x="131.005859" xlink:href="#DejaVuSans-110"/>
      <use x="194.384766" xlink:href="#DejaVuSans-99"/>
      <use x="249.365234" xlink:href="#DejaVuSans-117"/>
      <use x="312.744141" xlink:href="#DejaVuSans-114"/>
      <use x="352.107422" xlink:href="#DejaVuSans-114"/>
      <use x="390.970703" xlink:href="#DejaVuSans-101"/>
      <use x="452.494141" xlink:href="#DejaVuSans-110"/>
      <use x="515.873047" xlink:href="#DejaVuSans-116"/>
      <use x="555.082031" xlink:href="#DejaVuSans-32"/>
      <use x="586.869141" xlink:href="#DejaVuSans-97"/>
      <use x="648.148438" xlink:href="#DejaVuSans-112"/>
      <use x="711.625" xlink:href="#DejaVuSans-112"/>
      <use x="775.101562" xlink:href="#DejaVuSans-108"/>
      <use x="802.884766" xlink:href="#DejaVuSans-105"/>
      <use x="830.667969" xlink:href="#DejaVuSans-99"/>
      <use x="885.648438" xlink:href="#DejaVuSans-97"/>
      <use x="946.927734" xlink:href="#DejaVuSans-116"/>
      <use x="986.136719" xlink:href="#DejaVuSans-105"/>
      <use x="1013.919922" xlink:href="#DejaVuSans-111"/>
      <use x="1075.101562" xlink:href="#DejaVuSans-110"/>
      <use x="1138.480469" xlink:href="#DejaVuSans-115"/>
     </g>
    </g>
   </g>
   <g id="matplotlib.axis_4">
    <g id="ytick_9">
     <g id="line2d_26">
      <g>
       <use style="stroke:#000000;stroke-width:0.8;" x="392.571429" xlink:href="#m0a318c48d5" y="324"/>
      </g>
     </g>
     <g id="text_27">
      <!-- 0 -->
      <g transform="translate(380.481429 327.039375)scale(0.08 -0.08)">
       <use xlink:href="#DejaVuSans-48"/>
      </g>
     </g>
    </g>
    <g id="ytick_10">
     <g id="line2d_27">
      <g>
       <use style="stroke:#000000;stroke-width:0.8;" x="392.571429" xlink:href="#m0a318c48d5" y="295.2"/>
      </g>
     </g>
     <g id="text_28">
      <!-- 200 -->
      <g transform="translate(370.301429 298.239375)scale(0.08 -0.08)">
       <use xlink:href="#DejaVuSans-50"/>
       <use x="63.623047" xlink:href="#DejaVuSans-48"/>
       <use x="127.246094" xlink:href="#DejaVuSans-48"/>
      </g>
     </g>
    </g>
    <g id="ytick_11">
     <g id="line2d_28">
      <g>
       <use style="stroke:#000000;stroke-width:0.8;" x="392.571429" xlink:href="#m0a318c48d5" y="266.4"/>
      </g>
     </g>
     <g id="text_29">
      <!-- 400 -->
      <g transform="translate(370.301429 269.439375)scale(0.08 -0.08)">
       <use xlink:href="#DejaVuSans-52"/>
       <use x="63.623047" xlink:href="#DejaVuSans-48"/>
       <use x="127.246094" xlink:href="#DejaVuSans-48"/>
      </g>
     </g>
    </g>
    <g id="ytick_12">
     <g id="line2d_29">
      <g>
       <use style="stroke:#000000;stroke-width:0.8;" x="392.571429" xlink:href="#m0a318c48d5" y="237.6"/>
      </g>
     </g>
     <g id="text_30">
      <!-- 600 -->
      <g transform="translate(370.301429 240.639375)scale(0.08 -0.08)">
       <use xlink:href="#DejaVuSans-54"/>
       <use x="63.623047" xlink:href="#DejaVuSans-48"/>
       <use x="127.246094" xlink:href="#DejaVuSans-48"/>
      </g>
     </g>
    </g>
    <g id="ytick_13">
     <g id="line2d_30">
      <g>
       <use style="stroke:#000000;stroke-width:0.8;" x="392.571429" xlink:href="#m0a318c48d5" y="208.8"/>
      </g>
     </g>
     <g id="text_31">
      <!-- 800 -->
      <g transform="translate(370.301429 211.839375)scale(0.08 -0.08)">
       <use xlink:href="#DejaVuSans-56"/>
       <use x="63.623047" xlink:href="#DejaVuSans-48"/>
       <use x="127.246094" xlink:href="#DejaVuSans-48"/>
      </g>
     </g>
    </g>
    <g id="ytick_14">
     <g id="line2d_31">
      <g>
       <use style="stroke:#000000;stroke-width:0.8;" x="392.571429" xlink:href="#m0a318c48d5" y="180"/>
      </g>
     </g>
     <g id="text_32">
      <!-- 1000 -->
      <g transform="translate(365.211429 183.039375)scale(0.08 -0.08)">
       <use xlink:href="#DejaVuSans-49"/>
       <use x="63.623047" xlink:href="#DejaVuSans-48"/>
       <use x="127.246094" xlink:href="#DejaVuSans-48"/>
       <use x="190.869141" xlink:href="#DejaVuSans-48"/>
      </g>
     </g>
    </g>
    <g id="ytick_15">
     <g id="line2d_32">
      <g>
       <use style="stroke:#000000;stroke-width:0.8;" x="392.571429" xlink:href="#m0a318c48d5" y="151.2"/>
      </g>
     </g>
     <g id="text_33">
      <!-- 1200 -->
      <g transform="translate(365.211429 154.239375)scale(0.08 -0.08)">
       <use xlink:href="#DejaVuSans-49"/>
       <use x="63.623047" xlink:href="#DejaVuSans-50"/>
       <use x="127.246094" xlink:href="#DejaVuSans-48"/>
       <use x="190.869141" xlink:href="#DejaVuSans-48"/>
      </g>
     </g>
    </g>
    <g id="ytick_16">
     <g id="line2d_33">
      <g>
       <use style="stroke:#000000;stroke-width:0.8;" x="392.571429" xlink:href="#m0a318c48d5" y="122.4"/>
      </g>
     </g>
     <g id="text_34">
      <!-- 1400 -->
      <g transform="translate(365.211429 125.439375)scale(0.08 -0.08)">
       <use xlink:href="#DejaVuSans-49"/>
       <use x="63.623047" xlink:href="#DejaVuSans-52"/>
       <use x="127.246094" xlink:href="#DejaVuSans-48"/>
       <use x="190.869141" xlink:href="#DejaVuSans-48"/>
      </g>
     </g>
    </g>
   </g>
   <g id="line2d_34">
    <path clip-path="url(#p43c68bfedd)" d="M 405.818182 319.71767 
L 414.364474 316.694088 
L 422.910767 313.036963 
L 431.457059 310.87728 
L 440.003351 307.061044 
L 448.549644 303.673315 
L 457.095936 300.165173 
L 465.642229 293.331251 
L 474.188521 288.707184 
L 482.734814 284.225377 
L 491.281106 280.774677 
L 499.827398 276.24288 
L 508.373691 272.984728 
L 516.919983 270.488864 
L 525.466276 265.550427 
L 534.012568 263.155241 
L 542.55886 257.193768 
L 551.105153 249.603104 
L 559.651445 250.531148 
L 568.197738 241.341392 
L 576.74403 235.837861 
L 585.290323 228.880721 
L 593.836615 225.637961 
L 602.382907 226.956566 
L 610.9292 226.645609 
L 619.475492 226.740164 
L 628.021785 228.95728 
L 636.568077 223.098463 
L 645.11437 222.607108 
L 653.660662 217.305533 
L 662.206954 211.23036 
L 670.753247 210.260632 
" style="fill:none;stroke:#90c987;stroke-linecap:square;stroke-width:2;"/>
   </g>
   <g id="line2d_35">
    <path clip-path="url(#p43c68bfedd)" d="M 405.818182 321.071603 
L 414.364474 318.143655 
L 422.910767 315.215708 
L 431.457059 312.28776 
L 440.003351 309.359813 
L 448.549644 306.431865 
L 457.095936 303.503918 
L 465.642229 300.57597 
L 474.188521 297.648023 
L 482.734814 294.720075 
L 491.281106 291.792128 
L 499.827398 288.86418 
L 508.373691 285.936233 
L 516.919983 283.008285 
L 525.466276 280.080338 
L 534.012568 277.15239 
L 542.55886 274.224443 
L 551.105153 271.296495 
L 559.651445 268.368548 
L 568.197738 265.4406 
L 576.74403 262.512653 
L 585.290323 259.584706 
L 593.836615 256.656758 
L 602.382907 253.728812 
L 610.9292 250.800863 
L 619.475492 247.872916 
L 628.021785 244.944966 
L 636.568077 242.01702 
L 645.11437 239.089074 
L 653.660662 236.161124 
L 662.206954 233.233179 
L 670.753247 230.30523 
" style="fill:none;stroke:#994f88;stroke-linecap:square;stroke-width:2;"/>
   </g>
   <g id="line2d_36">
    <path clip-path="url(#p43c68bfedd)" d="M 405.818182 321.071603 
L 414.364474 318.143655 
L 422.910767 315.215708 
L 431.457059 312.28776 
L 440.003351 309.359813 
L 448.549644 306.431865 
L 457.095936 303.503918 
L 465.642229 300.57597 
L 474.188521 297.648023 
L 482.734814 294.720075 
L 491.281106 291.792128 
L 499.827398 288.86418 
L 508.373691 285.936233 
L 516.919983 283.008285 
L 525.466276 280.080338 
L 534.012568 277.15239 
L 542.55886 274.224443 
L 551.105153 271.296495 
L 559.651445 268.368548 
L 568.197738 265.4406 
L 576.74403 262.512653 
L 585.290323 259.584706 
L 593.836615 256.665512 
L 602.382907 258.092337 
L 610.9292 256.426163 
L 619.475492 253.772651 
L 628.021785 249.978318 
L 636.568077 245.351074 
L 645.11437 240.06407 
L 653.660662 236.161124 
L 662.206954 233.233179 
L 670.753247 230.30523 
" style="fill:none;stroke:#1965b0;stroke-linecap:square;stroke-width:2;"/>
   </g>
   <g id="patch_8">
    <path d="M 392.571429 324 
L 392.571429 108 
" style="fill:none;stroke:#000000;stroke-linecap:square;stroke-linejoin:miter;stroke-width:0.8;"/>
   </g>
   <g id="patch_9">
    <path d="M 684 324 
L 684 108 
" style="fill:none;stroke:#000000;stroke-linecap:square;stroke-linejoin:miter;stroke-width:0.8;"/>
   </g>
   <g id="patch_10">
    <path d="M 392.571429 324 
L 684 324 
" style="fill:none;stroke:#000000;stroke-linecap:square;stroke-linejoin:miter;stroke-width:0.8;"/>
   </g>
   <g id="patch_11">
    <path d="M 392.571429 108 
L 684 108 
" style="fill:none;stroke:#000000;stroke-linecap:square;stroke-linejoin:miter;stroke-width:0.8;"/>
   </g>
   <g id="text_35">
    <!-- Write time -->
    <g transform="translate(513.243964 102)scale(0.096 -0.096)">
     <defs>
      <path d="M 3.328125 72.90625 
L 13.28125 72.90625 
L 28.609375 11.28125 
L 43.890625 72.90625 
L 54.984375 72.90625 
L 70.3125 11.28125 
L 85.59375 72.90625 
L 95.609375 72.90625 
L 77.296875 0 
L 64.890625 0 
L 49.515625 63.28125 
L 33.984375 0 
L 21.578125 0 
z
" id="DejaVuSans-87"/>
     </defs>
     <use xlink:href="#DejaVuSans-87"/>
     <use x="94.376953" xlink:href="#DejaVuSans-114"/>
     <use x="135.490234" xlink:href="#DejaVuSans-105"/>
     <use x="163.273438" xlink:href="#DejaVuSans-116"/>
     <use x="202.482422" xlink:href="#DejaVuSans-101"/>
     <use x="264.005859" xlink:href="#DejaVuSans-32"/>
     <use x="295.792969" xlink:href="#DejaVuSans-116"/>
     <use x="335.001953" xlink:href="#DejaVuSans-105"/>
     <use x="362.785156" xlink:href="#DejaVuSans-109"/>
     <use x="460.197266" xlink:href="#DejaVuSans-101"/>
    </g>
   </g>
   <g id="legend_1">
    <g id="patch_12">
     <path d="M 136.748571 82.9425 
L 590.108571 82.9425 
Q 591.708571 82.9425 591.708571 81.3425 
L 591.708571 70.4 
Q 591.708571 68.8 590.108571 68.8 
L 136.748571 68.8 
Q 135.148571 68.8 135.148571 70.4 
L 135.148571 81.3425 
Q 135.148571 82.9425 136.748571 82.9425 
z
" style="fill:#ffffff;opacity:0.8;stroke:#cccccc;stroke-linejoin:miter;"/>
    </g>
    <g id="line2d_37">
     <path d="M 138.348571 75.27875 
L 154.348571 75.27875 
" style="fill:none;stroke:#90c987;stroke-linecap:square;stroke-width:2;"/>
    </g>
    <g id="line2d_38"/>
    <g id="text_36">
     <!-- Real execution mean -->
     <g transform="translate(160.748571 78.07875)scale(0.08 -0.08)">
      <defs>
       <path d="M 54.890625 54.6875 
L 35.109375 28.078125 
L 55.90625 0 
L 45.3125 0 
L 29.390625 21.484375 
L 13.484375 0 
L 2.875 0 
L 24.125 28.609375 
L 4.6875 54.6875 
L 15.28125 54.6875 
L 29.78125 35.203125 
L 44.28125 54.6875 
z
" id="DejaVuSans-120"/>
      </defs>
      <use xlink:href="#DejaVuSans-82"/>
      <use x="64.982422" xlink:href="#DejaVuSans-101"/>
      <use x="126.505859" xlink:href="#DejaVuSans-97"/>
      <use x="187.785156" xlink:href="#DejaVuSans-108"/>
      <use x="215.568359" xlink:href="#DejaVuSans-32"/>
      <use x="247.355469" xlink:href="#DejaVuSans-101"/>
      <use x="307.128906" xlink:href="#DejaVuSans-120"/>
      <use x="363.183594" xlink:href="#DejaVuSans-101"/>
      <use x="424.707031" xlink:href="#DejaVuSans-99"/>
      <use x="479.6875" xlink:href="#DejaVuSans-117"/>
      <use x="543.066406" xlink:href="#DejaVuSans-116"/>
      <use x="582.275391" xlink:href="#DejaVuSans-105"/>
      <use x="610.058594" xlink:href="#DejaVuSans-111"/>
      <use x="671.240234" xlink:href="#DejaVuSans-110"/>
      <use x="734.619141" xlink:href="#DejaVuSans-32"/>
      <use x="766.40625" xlink:href="#DejaVuSans-109"/>
      <use x="863.818359" xlink:href="#DejaVuSans-101"/>
      <use x="925.341797" xlink:href="#DejaVuSans-97"/>
      <use x="986.621094" xlink:href="#DejaVuSans-110"/>
     </g>
    </g>
    <g id="line2d_39">
     <path d="M 260.749821 75.27875 
L 276.749821 75.27875 
" style="fill:none;stroke:#994f88;stroke-linecap:square;stroke-width:2;"/>
    </g>
    <g id="line2d_40"/>
    <g id="text_37">
     <!-- WRENCH -->
     <g transform="translate(283.149821 78.07875)scale(0.08 -0.08)">
      <defs>
       <path d="M 9.8125 72.90625 
L 55.90625 72.90625 
L 55.90625 64.59375 
L 19.671875 64.59375 
L 19.671875 43.015625 
L 54.390625 43.015625 
L 54.390625 34.71875 
L 19.671875 34.71875 
L 19.671875 8.296875 
L 56.78125 8.296875 
L 56.78125 0 
L 9.8125 0 
z
" id="DejaVuSans-69"/>
       <path d="M 9.8125 72.90625 
L 23.09375 72.90625 
L 55.421875 11.921875 
L 55.421875 72.90625 
L 64.984375 72.90625 
L 64.984375 0 
L 51.703125 0 
L 19.390625 60.984375 
L 19.390625 0 
L 9.8125 0 
z
" id="DejaVuSans-78"/>
       <path d="M 9.8125 72.90625 
L 19.671875 72.90625 
L 19.671875 43.015625 
L 55.515625 43.015625 
L 55.515625 72.90625 
L 65.375 72.90625 
L 65.375 0 
L 55.515625 0 
L 55.515625 34.71875 
L 19.671875 34.71875 
L 19.671875 0 
L 9.8125 0 
z
" id="DejaVuSans-72"/>
      </defs>
      <use xlink:href="#DejaVuSans-87"/>
      <use x="98.876953" xlink:href="#DejaVuSans-82"/>
      <use x="168.359375" xlink:href="#DejaVuSans-69"/>
      <use x="231.542969" xlink:href="#DejaVuSans-78"/>
      <use x="306.347656" xlink:href="#DejaVuSans-67"/>
      <use x="376.171875" xlink:href="#DejaVuSans-72"/>
     </g>
    </g>
    <g id="line2d_41">
     <path d="M 335.261071 75.27875 
L 351.261071 75.27875 
" style="fill:none;stroke:#1965b0;stroke-linecap:square;stroke-width:2;"/>
    </g>
    <g id="line2d_42"/>
    <g id="text_38">
     <!-- WRENCH-cache -->
     <g transform="translate(357.661071 78.07875)scale(0.08 -0.08)">
      <defs>
       <path d="M 4.890625 31.390625 
L 31.203125 31.390625 
L 31.203125 23.390625 
L 4.890625 23.390625 
z
" id="DejaVuSans-45"/>
       <path d="M 54.890625 33.015625 
L 54.890625 0 
L 45.90625 0 
L 45.90625 32.71875 
Q 45.90625 40.484375 42.875 44.328125 
Q 39.84375 48.1875 33.796875 48.1875 
Q 26.515625 48.1875 22.3125 43.546875 
Q 18.109375 38.921875 18.109375 30.90625 
L 18.109375 0 
L 9.078125 0 
L 9.078125 75.984375 
L 18.109375 75.984375 
L 18.109375 46.1875 
Q 21.34375 51.125 25.703125 53.5625 
Q 30.078125 56 35.796875 56 
Q 45.21875 56 50.046875 50.171875 
Q 54.890625 44.34375 54.890625 33.015625 
z
" id="DejaVuSans-104"/>
      </defs>
      <use xlink:href="#DejaVuSans-87"/>
      <use x="98.876953" xlink:href="#DejaVuSans-82"/>
      <use x="168.359375" xlink:href="#DejaVuSans-69"/>
      <use x="231.542969" xlink:href="#DejaVuSans-78"/>
      <use x="306.347656" xlink:href="#DejaVuSans-67"/>
      <use x="376.171875" xlink:href="#DejaVuSans-72"/>
      <use x="451.367188" xlink:href="#DejaVuSans-45"/>
      <use x="487.451172" xlink:href="#DejaVuSans-99"/>
      <use x="542.431641" xlink:href="#DejaVuSans-97"/>
      <use x="603.710938" xlink:href="#DejaVuSans-99"/>
      <use x="658.691406" xlink:href="#DejaVuSans-104"/>
      <use x="722.070312" xlink:href="#DejaVuSans-101"/>
     </g>
    </g>
    <g id="patch_13">
     <path d="M 436.351071 78.07875 
L 452.351071 78.07875 
L 452.351071 72.47875 
L 436.351071 72.47875 
z
" style="fill:#90c987;opacity:0.5;"/>
    </g>
    <g id="text_39">
     <!-- Real execution min-max interval -->
     <g transform="translate(458.751071 78.07875)scale(0.08 -0.08)">
      <defs>
       <path d="M 2.984375 54.6875 
L 12.5 54.6875 
L 29.59375 8.796875 
L 46.6875 54.6875 
L 56.203125 54.6875 
L 35.6875 0 
L 23.484375 0 
z
" id="DejaVuSans-118"/>
      </defs>
      <use xlink:href="#DejaVuSans-82"/>
      <use x="64.982422" xlink:href="#DejaVuSans-101"/>
      <use x="126.505859" xlink:href="#DejaVuSans-97"/>
      <use x="187.785156" xlink:href="#DejaVuSans-108"/>
      <use x="215.568359" xlink:href="#DejaVuSans-32"/>
      <use x="247.355469" xlink:href="#DejaVuSans-101"/>
      <use x="307.128906" xlink:href="#DejaVuSans-120"/>
      <use x="363.183594" xlink:href="#DejaVuSans-101"/>
      <use x="424.707031" xlink:href="#DejaVuSans-99"/>
      <use x="479.6875" xlink:href="#DejaVuSans-117"/>
      <use x="543.066406" xlink:href="#DejaVuSans-116"/>
      <use x="582.275391" xlink:href="#DejaVuSans-105"/>
      <use x="610.058594" xlink:href="#DejaVuSans-111"/>
      <use x="671.240234" xlink:href="#DejaVuSans-110"/>
      <use x="734.619141" xlink:href="#DejaVuSans-32"/>
      <use x="766.40625" xlink:href="#DejaVuSans-109"/>
      <use x="863.818359" xlink:href="#DejaVuSans-105"/>
      <use x="891.601562" xlink:href="#DejaVuSans-110"/>
      <use x="954.980469" xlink:href="#DejaVuSans-45"/>
      <use x="991.064453" xlink:href="#DejaVuSans-109"/>
      <use x="1088.476562" xlink:href="#DejaVuSans-97"/>
      <use x="1149.755859" xlink:href="#DejaVuSans-120"/>
      <use x="1208.935547" xlink:href="#DejaVuSans-32"/>
      <use x="1240.722656" xlink:href="#DejaVuSans-105"/>
      <use x="1268.505859" xlink:href="#DejaVuSans-110"/>
      <use x="1331.884766" xlink:href="#DejaVuSans-116"/>
      <use x="1371.09375" xlink:href="#DejaVuSans-101"/>
      <use x="1432.617188" xlink:href="#DejaVuSans-114"/>
      <use x="1473.730469" xlink:href="#DejaVuSans-118"/>
      <use x="1532.910156" xlink:href="#DejaVuSans-97"/>
      <use x="1594.189453" xlink:href="#DejaVuSans-108"/>
     </g>
    </g>
   </g>
  </g>
 </g>
 <defs>
  <clipPath id="pd1d00542e2">
   <rect height="216" width="291.428571" x="72" y="108"/>
  </clipPath>
  <clipPath id="p43c68bfedd">
   <rect height="216" width="291.428571" x="392.571429" y="108"/>
  </clipPath>
 </defs>
</svg>
