<?xml version="1.0" encoding="utf-8" standalone="no"?>
<!DOCTYPE svg PUBLIC "-//W3C//DTD SVG 1.1//EN"
  "http://www.w3.org/Graphics/SVG/1.1/DTD/svg11.dtd">
<!-- Created with matplotlib (https://matplotlib.org/) -->
<svg height="360pt" version="1.1" viewBox="0 0 360 360" width="360pt" xmlns="http://www.w3.org/2000/svg" xmlns:xlink="http://www.w3.org/1999/xlink">
 <metadata>
  <rdf:RDF xmlns:cc="http://creativecommons.org/ns#" xmlns:dc="http://purl.org/dc/elements/1.1/" xmlns:rdf="http://www.w3.org/1999/02/22-rdf-syntax-ns#">
   <cc:Work>
    <dc:type rdf:resource="http://purl.org/dc/dcmitype/StillImage"/>
    <dc:date>2020-12-14T22:50:40.815420</dc:date>
    <dc:format>image/svg+xml</dc:format>
    <dc:creator>
     <cc:Agent>
      <dc:title>Matplotlib v3.3.0, https://matplotlib.org/</dc:title>
     </cc:Agent>
    </dc:creator>
   </cc:Work>
  </rdf:RDF>
 </metadata>
 <defs>
  <style type="text/css">*{stroke-linecap:butt;stroke-linejoin:round;}</style>
 </defs>
 <g id="figure_1">
  <g id="patch_1">
   <path d="M 0 360 
L 360 360 
L 360 0 
L 0 0 
z
" style="fill:#ffffff;"/>
  </g>
  <g id="axes_1">
   <g id="patch_2">
    <path d="M 45 320.4 
L 324 320.4 
L 324 43.2 
L 45 43.2 
z
" style="fill:#ffffff;"/>
   </g>
   <g id="PathCollection_1">
    <defs>
     <path d="M 0 1.581139 
C 0.419323 1.581139 0.821528 1.41454 1.118034 1.118034 
C 1.41454 0.821528 1.581139 0.419323 1.581139 0 
C 1.581139 -0.419323 1.41454 -0.821528 1.118034 -1.118034 
C 0.821528 -1.41454 0.419323 -1.581139 0 -1.581139 
C -0.419323 -1.581139 -0.821528 -1.41454 -1.118034 -1.118034 
C -1.41454 -0.821528 -1.581139 -0.419323 -1.581139 0 
C -1.581139 0.419323 -1.41454 0.821528 -1.118034 1.118034 
C -0.821528 1.41454 -0.419323 1.581139 0 1.581139 
z
" id="m98373728c2" style="stroke:#994f88;"/>
    </defs>
    <g clip-path="url(#p147c3838f5)">
     <use style="fill:#994f88;stroke:#994f88;" x="57.681818" xlink:href="#m98373728c2" y="316.6578"/>
     <use style="fill:#994f88;stroke:#994f88;" x="65.863636" xlink:href="#m98373728c2" y="315.549"/>
     <use style="fill:#994f88;stroke:#994f88;" x="74.045455" xlink:href="#m98373728c2" y="312.2226"/>
     <use style="fill:#994f88;stroke:#994f88;" x="82.227273" xlink:href="#m98373728c2" y="310.005"/>
     <use style="fill:#994f88;stroke:#994f88;" x="90.409091" xlink:href="#m98373728c2" y="309.1734"/>
     <use style="fill:#994f88;stroke:#994f88;" x="98.590909" xlink:href="#m98373728c2" y="308.8962"/>
     <use style="fill:#994f88;stroke:#994f88;" x="106.772727" xlink:href="#m98373728c2" y="306.8172"/>
     <use style="fill:#994f88;stroke:#994f88;" x="114.954545" xlink:href="#m98373728c2" y="307.7874"/>
     <use style="fill:#994f88;stroke:#994f88;" x="123.136364" xlink:href="#m98373728c2" y="302.5206"/>
     <use style="fill:#994f88;stroke:#994f88;" x="131.318182" xlink:href="#m98373728c2" y="296.838"/>
     <use style="fill:#994f88;stroke:#994f88;" x="139.5" xlink:href="#m98373728c2" y="304.5996"/>
     <use style="fill:#994f88;stroke:#994f88;" x="147.681818" xlink:href="#m98373728c2" y="297.531"/>
     <use style="fill:#994f88;stroke:#994f88;" x="155.863636" xlink:href="#m98373728c2" y="302.9364"/>
     <use style="fill:#994f88;stroke:#994f88;" x="164.045455" xlink:href="#m98373728c2" y="304.3224"/>
     <use style="fill:#994f88;stroke:#994f88;" x="172.227273" xlink:href="#m98373728c2" y="302.5206"/>
     <use style="fill:#994f88;stroke:#994f88;" x="180.409091" xlink:href="#m98373728c2" y="297.9468"/>
     <use style="fill:#994f88;stroke:#994f88;" x="188.590909" xlink:href="#m98373728c2" y="300.996"/>
     <use style="fill:#994f88;stroke:#994f88;" x="196.772727" xlink:href="#m98373728c2" y="299.4714"/>
     <use style="fill:#994f88;stroke:#994f88;" x="204.954545" xlink:href="#m98373728c2" y="298.0854"/>
     <use style="fill:#994f88;stroke:#994f88;" x="213.136364" xlink:href="#m98373728c2" y="298.6398"/>
     <use style="fill:#994f88;stroke:#994f88;" x="221.318182" xlink:href="#m98373728c2" y="292.5414"/>
     <use style="fill:#994f88;stroke:#994f88;" x="229.5" xlink:href="#m98373728c2" y="295.1748"/>
     <use style="fill:#994f88;stroke:#994f88;" x="237.681818" xlink:href="#m98373728c2" y="291.1554"/>
     <use style="fill:#994f88;stroke:#994f88;" x="245.863636" xlink:href="#m98373728c2" y="288.3834"/>
     <use style="fill:#994f88;stroke:#994f88;" x="254.045455" xlink:href="#m98373728c2" y="285.75"/>
     <use style="fill:#994f88;stroke:#994f88;" x="262.227273" xlink:href="#m98373728c2" y="287.2746"/>
     <use style="fill:#994f88;stroke:#994f88;" x="270.409091" xlink:href="#m98373728c2" y="280.3446"/>
     <use style="fill:#994f88;stroke:#994f88;" x="278.590909" xlink:href="#m98373728c2" y="280.3446"/>
     <use style="fill:#994f88;stroke:#994f88;" x="286.772727" xlink:href="#m98373728c2" y="284.0868"/>
     <use style="fill:#994f88;stroke:#994f88;" x="294.954545" xlink:href="#m98373728c2" y="277.8498"/>
     <use style="fill:#994f88;stroke:#994f88;" x="303.136364" xlink:href="#m98373728c2" y="280.7604"/>
     <use style="fill:#994f88;stroke:#994f88;" x="311.318182" xlink:href="#m98373728c2" y="266.0688"/>
    </g>
   </g>
   <g id="PathCollection_2">
    <defs>
     <path d="M 0 1.581139 
C 0.419323 1.581139 0.821528 1.41454 1.118034 1.118034 
C 1.41454 0.821528 1.581139 0.419323 1.581139 -0 
C 1.581139 -0.419323 1.41454 -0.821528 1.118034 -1.118034 
C 0.821528 -1.41454 0.419323 -1.581139 0 -1.581139 
C -0.419323 -1.581139 -0.821528 -1.41454 -1.118034 -1.118034 
C -1.41454 -0.821528 -1.581139 -0.419323 -1.581139 0 
C -1.581139 0.419323 -1.41454 0.821528 -1.118034 1.118034 
C -0.821528 1.41454 -0.419323 1.581139 0 1.581139 
z
" id="C0_0_7e8a1c13eb"/>
    </defs>
    <g clip-path="url(#p147c3838f5)">
     <use style="fill:none;stroke:#994f88;" x="57.681818" xlink:href="#C0_0_7e8a1c13eb" y="318.321"/>
    </g>
    <g clip-path="url(#p147c3838f5)">
     <use style="fill:none;stroke:#994f88;" x="65.863636" xlink:href="#C0_0_7e8a1c13eb" y="316.7964"/>
    </g>
    <g clip-path="url(#p147c3838f5)">
     <use style="fill:none;stroke:#994f88;" x="74.045455" xlink:href="#C0_0_7e8a1c13eb" y="316.3806"/>
    </g>
    <g clip-path="url(#p147c3838f5)">
     <use style="fill:none;stroke:#994f88;" x="82.227273" xlink:href="#C0_0_7e8a1c13eb" y="314.4402"/>
    </g>
    <g clip-path="url(#p147c3838f5)">
     <use style="fill:none;stroke:#994f88;" x="90.409091" xlink:href="#C0_0_7e8a1c13eb" y="312.4998"/>
    </g>
    <g clip-path="url(#p147c3838f5)">
     <use style="fill:none;stroke:#994f88;" x="98.590909" xlink:href="#C0_0_7e8a1c13eb" y="307.0944"/>
    </g>
    <g clip-path="url(#p147c3838f5)">
     <use style="fill:none;stroke:#994f88;" x="106.772727" xlink:href="#C0_0_7e8a1c13eb" y="304.7382"/>
    </g>
    <g clip-path="url(#p147c3838f5)">
     <use style="fill:none;stroke:#994f88;" x="114.954545" xlink:href="#C0_0_7e8a1c13eb" y="301.8276"/>
    </g>
    <g clip-path="url(#p147c3838f5)">
     <use style="fill:none;stroke:#994f88;" x="123.136364" xlink:href="#C0_0_7e8a1c13eb" y="304.1838"/>
    </g>
    <g clip-path="url(#p147c3838f5)">
     <use style="fill:none;stroke:#994f88;" x="131.318182" xlink:href="#C0_0_7e8a1c13eb" y="304.461"/>
    </g>
    <g clip-path="url(#p147c3838f5)">
     <use style="fill:none;stroke:#994f88;" x="139.5" xlink:href="#C0_0_7e8a1c13eb" y="301.9662"/>
    </g>
    <g clip-path="url(#p147c3838f5)">
     <use style="fill:none;stroke:#994f88;" x="147.681818" xlink:href="#C0_0_7e8a1c13eb" y="301.8276"/>
    </g>
    <g clip-path="url(#p147c3838f5)">
     <use style="fill:none;stroke:#994f88;" x="155.863636" xlink:href="#C0_0_7e8a1c13eb" y="302.1048"/>
    </g>
    <g clip-path="url(#p147c3838f5)">
     <use style="fill:none;stroke:#994f88;" x="164.045455" xlink:href="#C0_0_7e8a1c13eb" y="300.7188"/>
    </g>
    <g clip-path="url(#p147c3838f5)">
     <use style="fill:none;stroke:#994f88;" x="172.227273" xlink:href="#C0_0_7e8a1c13eb" y="291.8484"/>
    </g>
    <g clip-path="url(#p147c3838f5)">
     <use style="fill:none;stroke:#994f88;" x="180.409091" xlink:href="#C0_0_7e8a1c13eb" y="300.0258"/>
    </g>
    <g clip-path="url(#p147c3838f5)">
     <use style="fill:none;stroke:#994f88;" x="188.590909" xlink:href="#C0_0_7e8a1c13eb" y="299.4714"/>
    </g>
    <g clip-path="url(#p147c3838f5)">
     <use style="fill:none;stroke:#994f88;" x="196.772727" xlink:href="#C0_0_7e8a1c13eb" y="300.303"/>
    </g>
    <g clip-path="url(#p147c3838f5)">
     <use style="fill:none;stroke:#994f88;" x="204.954545" xlink:href="#C0_0_7e8a1c13eb" y="296.4222"/>
    </g>
    <g clip-path="url(#p147c3838f5)">
     <use style="fill:none;stroke:#994f88;" x="213.136364" xlink:href="#C0_0_7e8a1c13eb" y="298.0854"/>
    </g>
    <g clip-path="url(#p147c3838f5)">
     <use style="fill:none;stroke:#994f88;" x="221.318182" xlink:href="#C0_0_7e8a1c13eb" y="295.3134"/>
    </g>
    <g clip-path="url(#p147c3838f5)">
     <use style="fill:none;stroke:#994f88;" x="229.5" xlink:href="#C0_0_7e8a1c13eb" y="291.8484"/>
    </g>
    <g clip-path="url(#p147c3838f5)">
     <use style="fill:none;stroke:#994f88;" x="237.681818" xlink:href="#C0_0_7e8a1c13eb" y="293.373"/>
    </g>
    <g clip-path="url(#p147c3838f5)">
     <use style="fill:none;stroke:#994f88;" x="245.863636" xlink:href="#C0_0_7e8a1c13eb" y="278.127"/>
    </g>
    <g clip-path="url(#p147c3838f5)">
     <use style="fill:none;stroke:#994f88;" x="254.045455" xlink:href="#C0_0_7e8a1c13eb" y="281.7306"/>
    </g>
    <g clip-path="url(#p147c3838f5)">
     <use style="fill:none;stroke:#994f88;" x="262.227273" xlink:href="#C0_0_7e8a1c13eb" y="282.285"/>
    </g>
    <g clip-path="url(#p147c3838f5)">
     <use style="fill:none;stroke:#994f88;" x="270.409091" xlink:href="#C0_0_7e8a1c13eb" y="274.2462"/>
    </g>
    <g clip-path="url(#p147c3838f5)">
     <use style="fill:none;stroke:#994f88;" x="278.590909" xlink:href="#C0_0_7e8a1c13eb" y="285.4728"/>
    </g>
    <g clip-path="url(#p147c3838f5)">
     <use style="fill:none;stroke:#994f88;" x="286.772727" xlink:href="#C0_0_7e8a1c13eb" y="284.6412"/>
    </g>
    <g clip-path="url(#p147c3838f5)">
     <use style="fill:none;stroke:#994f88;" x="294.954545" xlink:href="#C0_0_7e8a1c13eb" y="265.5144"/>
    </g>
    <g clip-path="url(#p147c3838f5)">
     <use style="fill:none;stroke:#994f88;" x="303.136364" xlink:href="#C0_0_7e8a1c13eb" y="274.662"/>
    </g>
    <g clip-path="url(#p147c3838f5)">
     <use style="fill:none;stroke:#994f88;" x="311.318182" xlink:href="#C0_0_7e8a1c13eb" y="280.6218"/>
    </g>
   </g>
   <g id="PathCollection_3">
    <defs>
     <path d="M 0 1.581139 
C 0.419323 1.581139 0.821528 1.41454 1.118034 1.118034 
C 1.41454 0.821528 1.581139 0.419323 1.581139 0 
C 1.581139 -0.419323 1.41454 -0.821528 1.118034 -1.118034 
C 0.821528 -1.41454 0.419323 -1.581139 0 -1.581139 
C -0.419323 -1.581139 -0.821528 -1.41454 -1.118034 -1.118034 
C -1.41454 -0.821528 -1.581139 -0.419323 -1.581139 0 
C -1.581139 0.419323 -1.41454 0.821528 -1.118034 1.118034 
C -0.821528 1.41454 -0.419323 1.581139 0 1.581139 
z
" id="m526b483051" style="stroke:#1965b0;"/>
    </defs>
    <g clip-path="url(#p147c3838f5)">
     <use style="fill:#1965b0;stroke:#1965b0;" x="57.681818" xlink:href="#m526b483051" y="318.8754"/>
     <use style="fill:#1965b0;stroke:#1965b0;" x="65.863636" xlink:href="#m526b483051" y="317.3508"/>
     <use style="fill:#1965b0;stroke:#1965b0;" x="74.045455" xlink:href="#m526b483051" y="315.4104"/>
     <use style="fill:#1965b0;stroke:#1965b0;" x="82.227273" xlink:href="#m526b483051" y="313.8858"/>
     <use style="fill:#1965b0;stroke:#1965b0;" x="90.409091" xlink:href="#m526b483051" y="311.6682"/>
     <use style="fill:#1965b0;stroke:#1965b0;" x="98.590909" xlink:href="#m526b483051" y="308.7576"/>
     <use style="fill:#1965b0;stroke:#1965b0;" x="106.772727" xlink:href="#m526b483051" y="305.7084"/>
     <use style="fill:#1965b0;stroke:#1965b0;" x="114.954545" xlink:href="#m526b483051" y="301.8276"/>
     <use style="fill:#1965b0;stroke:#1965b0;" x="123.136364" xlink:href="#m526b483051" y="298.917"/>
     <use style="fill:#1965b0;stroke:#1965b0;" x="131.318182" xlink:href="#m526b483051" y="293.5116"/>
     <use style="fill:#1965b0;stroke:#1965b0;" x="139.5" xlink:href="#m526b483051" y="287.9676"/>
     <use style="fill:#1965b0;stroke:#1965b0;" x="147.681818" xlink:href="#m526b483051" y="277.2954"/>
     <use style="fill:#1965b0;stroke:#1965b0;" x="155.863636" xlink:href="#m526b483051" y="279.0972"/>
     <use style="fill:#1965b0;stroke:#1965b0;" x="164.045455" xlink:href="#m526b483051" y="270.9198"/>
     <use style="fill:#1965b0;stroke:#1965b0;" x="172.227273" xlink:href="#m526b483051" y="259.2774"/>
     <use style="fill:#1965b0;stroke:#1965b0;" x="180.409091" xlink:href="#m526b483051" y="239.1804"/>
     <use style="fill:#1965b0;stroke:#1965b0;" x="188.590909" xlink:href="#m526b483051" y="239.319"/>
     <use style="fill:#1965b0;stroke:#1965b0;" x="196.772727" xlink:href="#m526b483051" y="248.7438"/>
     <use style="fill:#1965b0;stroke:#1965b0;" x="204.954545" xlink:href="#m526b483051" y="230.31"/>
     <use style="fill:#1965b0;stroke:#1965b0;" x="213.136364" xlink:href="#m526b483051" y="221.8554"/>
     <use style="fill:#1965b0;stroke:#1965b0;" x="221.318182" xlink:href="#m526b483051" y="210.213"/>
     <use style="fill:#1965b0;stroke:#1965b0;" x="229.5" xlink:href="#m526b483051" y="207.1638"/>
     <use style="fill:#1965b0;stroke:#1965b0;" x="237.681818" xlink:href="#m526b483051" y="203.283"/>
     <use style="fill:#1965b0;stroke:#1965b0;" x="245.863636" xlink:href="#m526b483051" y="198.1548"/>
     <use style="fill:#1965b0;stroke:#1965b0;" x="254.045455" xlink:href="#m526b483051" y="189.5616"/>
     <use style="fill:#1965b0;stroke:#1965b0;" x="262.227273" xlink:href="#m526b483051" y="186.9282"/>
     <use style="fill:#1965b0;stroke:#1965b0;" x="270.409091" xlink:href="#m526b483051" y="166.6926"/>
     <use style="fill:#1965b0;stroke:#1965b0;" x="278.590909" xlink:href="#m526b483051" y="178.7508"/>
     <use style="fill:#1965b0;stroke:#1965b0;" x="286.772727" xlink:href="#m526b483051" y="159.7626"/>
     <use style="fill:#1965b0;stroke:#1965b0;" x="294.954545" xlink:href="#m526b483051" y="142.992"/>
     <use style="fill:#1965b0;stroke:#1965b0;" x="303.136364" xlink:href="#m526b483051" y="149.6448"/>
     <use style="fill:#1965b0;stroke:#1965b0;" x="311.318182" xlink:href="#m526b483051" y="114.9948"/>
    </g>
   </g>
   <g id="PathCollection_4">
    <defs>
     <path d="M 0 1.581139 
C 0.419323 1.581139 0.821528 1.41454 1.118034 1.118034 
C 1.41454 0.821528 1.581139 0.419323 1.581139 -0 
C 1.581139 -0.419323 1.41454 -0.821528 1.118034 -1.118034 
C 0.821528 -1.41454 0.419323 -1.581139 0 -1.581139 
C -0.419323 -1.581139 -0.821528 -1.41454 -1.118034 -1.118034 
C -1.41454 -0.821528 -1.581139 -0.419323 -1.581139 0 
C -1.581139 0.419323 -1.41454 0.821528 -1.118034 1.118034 
C -0.821528 1.41454 -0.419323 1.581139 0 1.581139 
z
" id="C1_0_0d7b0a9d9d"/>
    </defs>
    <g clip-path="url(#p147c3838f5)">
     <use style="fill:none;stroke:#1965b0;" x="57.681818" xlink:href="#C1_0_0d7b0a9d9d" y="317.4894"/>
    </g>
    <g clip-path="url(#p147c3838f5)">
     <use style="fill:none;stroke:#1965b0;" x="65.863636" xlink:href="#C1_0_0d7b0a9d9d" y="316.1034"/>
    </g>
    <g clip-path="url(#p147c3838f5)">
     <use style="fill:none;stroke:#1965b0;" x="74.045455" xlink:href="#C1_0_0d7b0a9d9d" y="313.6086"/>
    </g>
    <g clip-path="url(#p147c3838f5)">
     <use style="fill:none;stroke:#1965b0;" x="82.227273" xlink:href="#C1_0_0d7b0a9d9d" y="310.4208"/>
    </g>
    <g clip-path="url(#p147c3838f5)">
     <use style="fill:none;stroke:#1965b0;" x="90.409091" xlink:href="#C1_0_0d7b0a9d9d" y="308.0646"/>
    </g>
    <g clip-path="url(#p147c3838f5)">
     <use style="fill:none;stroke:#1965b0;" x="98.590909" xlink:href="#C1_0_0d7b0a9d9d" y="306.8172"/>
    </g>
    <g clip-path="url(#p147c3838f5)">
     <use style="fill:none;stroke:#1965b0;" x="106.772727" xlink:href="#C1_0_0d7b0a9d9d" y="302.382"/>
    </g>
    <g clip-path="url(#p147c3838f5)">
     <use style="fill:none;stroke:#1965b0;" x="114.954545" xlink:href="#C1_0_0d7b0a9d9d" y="297.3924"/>
    </g>
    <g clip-path="url(#p147c3838f5)">
     <use style="fill:none;stroke:#1965b0;" x="123.136364" xlink:href="#C1_0_0d7b0a9d9d" y="292.9572"/>
    </g>
    <g clip-path="url(#p147c3838f5)">
     <use style="fill:none;stroke:#1965b0;" x="131.318182" xlink:href="#C1_0_0d7b0a9d9d" y="283.671"/>
    </g>
    <g clip-path="url(#p147c3838f5)">
     <use style="fill:none;stroke:#1965b0;" x="139.5" xlink:href="#C1_0_0d7b0a9d9d" y="288.6606"/>
    </g>
    <g clip-path="url(#p147c3838f5)">
     <use style="fill:none;stroke:#1965b0;" x="147.681818" xlink:href="#C1_0_0d7b0a9d9d" y="284.9184"/>
    </g>
    <g clip-path="url(#p147c3838f5)">
     <use style="fill:none;stroke:#1965b0;" x="155.863636" xlink:href="#C1_0_0d7b0a9d9d" y="276.3252"/>
    </g>
    <g clip-path="url(#p147c3838f5)">
     <use style="fill:none;stroke:#1965b0;" x="164.045455" xlink:href="#C1_0_0d7b0a9d9d" y="273.8304"/>
    </g>
    <g clip-path="url(#p147c3838f5)">
     <use style="fill:none;stroke:#1965b0;" x="172.227273" xlink:href="#C1_0_0d7b0a9d9d" y="266.346"/>
    </g>
    <g clip-path="url(#p147c3838f5)">
     <use style="fill:none;stroke:#1965b0;" x="180.409091" xlink:href="#C1_0_0d7b0a9d9d" y="260.2476"/>
    </g>
    <g clip-path="url(#p147c3838f5)">
     <use style="fill:none;stroke:#1965b0;" x="188.590909" xlink:href="#C1_0_0d7b0a9d9d" y="253.5948"/>
    </g>
    <g clip-path="url(#p147c3838f5)">
     <use style="fill:none;stroke:#1965b0;" x="196.772727" xlink:href="#C1_0_0d7b0a9d9d" y="245.556"/>
    </g>
    <g clip-path="url(#p147c3838f5)">
     <use style="fill:none;stroke:#1965b0;" x="204.954545" xlink:href="#C1_0_0d7b0a9d9d" y="246.3876"/>
    </g>
    <g clip-path="url(#p147c3838f5)">
     <use style="fill:none;stroke:#1965b0;" x="213.136364" xlink:href="#C1_0_0d7b0a9d9d" y="242.5068"/>
    </g>
    <g clip-path="url(#p147c3838f5)">
     <use style="fill:none;stroke:#1965b0;" x="221.318182" xlink:href="#C1_0_0d7b0a9d9d" y="240.8436"/>
    </g>
    <g clip-path="url(#p147c3838f5)">
     <use style="fill:none;stroke:#1965b0;" x="229.5" xlink:href="#C1_0_0d7b0a9d9d" y="236.547"/>
    </g>
    <g clip-path="url(#p147c3838f5)">
     <use style="fill:none;stroke:#1965b0;" x="237.681818" xlink:href="#C1_0_0d7b0a9d9d" y="221.994"/>
    </g>
    <g clip-path="url(#p147c3838f5)">
     <use style="fill:none;stroke:#1965b0;" x="245.863636" xlink:href="#C1_0_0d7b0a9d9d" y="220.8852"/>
    </g>
    <g clip-path="url(#p147c3838f5)">
     <use style="fill:none;stroke:#1965b0;" x="254.045455" xlink:href="#C1_0_0d7b0a9d9d" y="214.7868"/>
    </g>
    <g clip-path="url(#p147c3838f5)">
     <use style="fill:none;stroke:#1965b0;" x="262.227273" xlink:href="#C1_0_0d7b0a9d9d" y="210.3516"/>
    </g>
    <g clip-path="url(#p147c3838f5)">
     <use style="fill:none;stroke:#1965b0;" x="270.409091" xlink:href="#C1_0_0d7b0a9d9d" y="194.5512"/>
    </g>
    <g clip-path="url(#p147c3838f5)">
     <use style="fill:none;stroke:#1965b0;" x="278.590909" xlink:href="#C1_0_0d7b0a9d9d" y="191.3634"/>
    </g>
    <g clip-path="url(#p147c3838f5)">
     <use style="fill:none;stroke:#1965b0;" x="286.772727" xlink:href="#C1_0_0d7b0a9d9d" y="179.8596"/>
    </g>
    <g clip-path="url(#p147c3838f5)">
     <use style="fill:none;stroke:#1965b0;" x="294.954545" xlink:href="#C1_0_0d7b0a9d9d" y="174.7314"/>
    </g>
    <g clip-path="url(#p147c3838f5)">
     <use style="fill:none;stroke:#1965b0;" x="303.136364" xlink:href="#C1_0_0d7b0a9d9d" y="168.2172"/>
    </g>
    <g clip-path="url(#p147c3838f5)">
     <use style="fill:none;stroke:#1965b0;" x="311.318182" xlink:href="#C1_0_0d7b0a9d9d" y="144.9324"/>
    </g>
   </g>
   <g id="matplotlib.axis_1">
    <g id="xtick_1">
     <g id="line2d_1">
      <defs>
       <path d="M 0 0 
L 0 3.5 
" id="mb5064a39c1" style="stroke:#000000;stroke-width:0.8;"/>
      </defs>
      <g>
       <use style="stroke:#000000;stroke-width:0.8;" x="49.5" xlink:href="#mb5064a39c1" y="320.4"/>
      </g>
     </g>
     <g id="text_1">
      <!-- 0 -->
      <g transform="translate(46.955 333.47875)scale(0.08 -0.08)">
       <defs>
        <path d="M 31.78125 66.40625 
Q 24.171875 66.40625 20.328125 58.90625 
Q 16.5 51.421875 16.5 36.375 
Q 16.5 21.390625 20.328125 13.890625 
Q 24.171875 6.390625 31.78125 6.390625 
Q 39.453125 6.390625 43.28125 13.890625 
Q 47.125 21.390625 47.125 36.375 
Q 47.125 51.421875 43.28125 58.90625 
Q 39.453125 66.40625 31.78125 66.40625 
z
M 31.78125 74.21875 
Q 44.046875 74.21875 50.515625 64.515625 
Q 56.984375 54.828125 56.984375 36.375 
Q 56.984375 17.96875 50.515625 8.265625 
Q 44.046875 -1.421875 31.78125 -1.421875 
Q 19.53125 -1.421875 13.0625 8.265625 
Q 6.59375 17.96875 6.59375 36.375 
Q 6.59375 54.828125 13.0625 64.515625 
Q 19.53125 74.21875 31.78125 74.21875 
z
" id="DejaVuSans-48"/>
       </defs>
       <use xlink:href="#DejaVuSans-48"/>
      </g>
     </g>
    </g>
    <g id="xtick_2">
     <g id="line2d_2">
      <g>
       <use style="stroke:#000000;stroke-width:0.8;" x="90.409091" xlink:href="#mb5064a39c1" y="320.4"/>
      </g>
     </g>
     <g id="text_2">
      <!-- 5 -->
      <g transform="translate(87.864091 333.47875)scale(0.08 -0.08)">
       <defs>
        <path d="M 10.796875 72.90625 
L 49.515625 72.90625 
L 49.515625 64.59375 
L 19.828125 64.59375 
L 19.828125 46.734375 
Q 21.96875 47.46875 24.109375 47.828125 
Q 26.265625 48.1875 28.421875 48.1875 
Q 40.625 48.1875 47.75 41.5 
Q 54.890625 34.8125 54.890625 23.390625 
Q 54.890625 11.625 47.5625 5.09375 
Q 40.234375 -1.421875 26.90625 -1.421875 
Q 22.3125 -1.421875 17.546875 -0.640625 
Q 12.796875 0.140625 7.71875 1.703125 
L 7.71875 11.625 
Q 12.109375 9.234375 16.796875 8.0625 
Q 21.484375 6.890625 26.703125 6.890625 
Q 35.15625 6.890625 40.078125 11.328125 
Q 45.015625 15.765625 45.015625 23.390625 
Q 45.015625 31 40.078125 35.4375 
Q 35.15625 39.890625 26.703125 39.890625 
Q 22.75 39.890625 18.8125 39.015625 
Q 14.890625 38.140625 10.796875 36.28125 
z
" id="DejaVuSans-53"/>
       </defs>
       <use xlink:href="#DejaVuSans-53"/>
      </g>
     </g>
    </g>
    <g id="xtick_3">
     <g id="line2d_3">
      <g>
       <use style="stroke:#000000;stroke-width:0.8;" x="131.318182" xlink:href="#mb5064a39c1" y="320.4"/>
      </g>
     </g>
     <g id="text_3">
      <!-- 10 -->
      <g transform="translate(126.228182 333.47875)scale(0.08 -0.08)">
       <defs>
        <path d="M 12.40625 8.296875 
L 28.515625 8.296875 
L 28.515625 63.921875 
L 10.984375 60.40625 
L 10.984375 69.390625 
L 28.421875 72.90625 
L 38.28125 72.90625 
L 38.28125 8.296875 
L 54.390625 8.296875 
L 54.390625 0 
L 12.40625 0 
z
" id="DejaVuSans-49"/>
       </defs>
       <use xlink:href="#DejaVuSans-49"/>
       <use x="63.623047" xlink:href="#DejaVuSans-48"/>
      </g>
     </g>
    </g>
    <g id="xtick_4">
     <g id="line2d_4">
      <g>
       <use style="stroke:#000000;stroke-width:0.8;" x="172.227273" xlink:href="#mb5064a39c1" y="320.4"/>
      </g>
     </g>
     <g id="text_4">
      <!-- 15 -->
      <g transform="translate(167.137273 333.47875)scale(0.08 -0.08)">
       <use xlink:href="#DejaVuSans-49"/>
       <use x="63.623047" xlink:href="#DejaVuSans-53"/>
      </g>
     </g>
    </g>
    <g id="xtick_5">
     <g id="line2d_5">
      <g>
       <use style="stroke:#000000;stroke-width:0.8;" x="213.136364" xlink:href="#mb5064a39c1" y="320.4"/>
      </g>
     </g>
     <g id="text_5">
      <!-- 20 -->
      <g transform="translate(208.046364 333.47875)scale(0.08 -0.08)">
       <defs>
        <path d="M 19.1875 8.296875 
L 53.609375 8.296875 
L 53.609375 0 
L 7.328125 0 
L 7.328125 8.296875 
Q 12.9375 14.109375 22.625 23.890625 
Q 32.328125 33.6875 34.8125 36.53125 
Q 39.546875 41.84375 41.421875 45.53125 
Q 43.3125 49.21875 43.3125 52.78125 
Q 43.3125 58.59375 39.234375 62.25 
Q 35.15625 65.921875 28.609375 65.921875 
Q 23.96875 65.921875 18.8125 64.3125 
Q 13.671875 62.703125 7.8125 59.421875 
L 7.8125 69.390625 
Q 13.765625 71.78125 18.9375 73 
Q 24.125 74.21875 28.421875 74.21875 
Q 39.75 74.21875 46.484375 68.546875 
Q 53.21875 62.890625 53.21875 53.421875 
Q 53.21875 48.921875 51.53125 44.890625 
Q 49.859375 40.875 45.40625 35.40625 
Q 44.1875 33.984375 37.640625 27.21875 
Q 31.109375 20.453125 19.1875 8.296875 
z
" id="DejaVuSans-50"/>
       </defs>
       <use xlink:href="#DejaVuSans-50"/>
       <use x="63.623047" xlink:href="#DejaVuSans-48"/>
      </g>
     </g>
    </g>
    <g id="xtick_6">
     <g id="line2d_6">
      <g>
       <use style="stroke:#000000;stroke-width:0.8;" x="254.045455" xlink:href="#mb5064a39c1" y="320.4"/>
      </g>
     </g>
     <g id="text_6">
      <!-- 25 -->
      <g transform="translate(248.955455 333.47875)scale(0.08 -0.08)">
       <use xlink:href="#DejaVuSans-50"/>
       <use x="63.623047" xlink:href="#DejaVuSans-53"/>
      </g>
     </g>
    </g>
    <g id="xtick_7">
     <g id="line2d_7">
      <g>
       <use style="stroke:#000000;stroke-width:0.8;" x="294.954545" xlink:href="#mb5064a39c1" y="320.4"/>
      </g>
     </g>
     <g id="text_7">
      <!-- 30 -->
      <g transform="translate(289.864545 333.47875)scale(0.08 -0.08)">
       <defs>
        <path d="M 40.578125 39.3125 
Q 47.65625 37.796875 51.625 33 
Q 55.609375 28.21875 55.609375 21.1875 
Q 55.609375 10.40625 48.1875 4.484375 
Q 40.765625 -1.421875 27.09375 -1.421875 
Q 22.515625 -1.421875 17.65625 -0.515625 
Q 12.796875 0.390625 7.625 2.203125 
L 7.625 11.71875 
Q 11.71875 9.328125 16.59375 8.109375 
Q 21.484375 6.890625 26.8125 6.890625 
Q 36.078125 6.890625 40.9375 10.546875 
Q 45.796875 14.203125 45.796875 21.1875 
Q 45.796875 27.640625 41.28125 31.265625 
Q 36.765625 34.90625 28.71875 34.90625 
L 20.21875 34.90625 
L 20.21875 43.015625 
L 29.109375 43.015625 
Q 36.375 43.015625 40.234375 45.921875 
Q 44.09375 48.828125 44.09375 54.296875 
Q 44.09375 59.90625 40.109375 62.90625 
Q 36.140625 65.921875 28.71875 65.921875 
Q 24.65625 65.921875 20.015625 65.03125 
Q 15.375 64.15625 9.8125 62.3125 
L 9.8125 71.09375 
Q 15.4375 72.65625 20.34375 73.4375 
Q 25.25 74.21875 29.59375 74.21875 
Q 40.828125 74.21875 47.359375 69.109375 
Q 53.90625 64.015625 53.90625 55.328125 
Q 53.90625 49.265625 50.4375 45.09375 
Q 46.96875 40.921875 40.578125 39.3125 
z
" id="DejaVuSans-51"/>
       </defs>
       <use xlink:href="#DejaVuSans-51"/>
       <use x="63.623047" xlink:href="#DejaVuSans-48"/>
      </g>
     </g>
    </g>
    <g id="text_8">
     <!-- Concurrent applications -->
     <g transform="translate(136.876875 345.22125)scale(0.08 -0.08)">
      <defs>
       <path d="M 64.40625 67.28125 
L 64.40625 56.890625 
Q 59.421875 61.53125 53.78125 63.8125 
Q 48.140625 66.109375 41.796875 66.109375 
Q 29.296875 66.109375 22.65625 58.46875 
Q 16.015625 50.828125 16.015625 36.375 
Q 16.015625 21.96875 22.65625 14.328125 
Q 29.296875 6.6875 41.796875 6.6875 
Q 48.140625 6.6875 53.78125 8.984375 
Q 59.421875 11.28125 64.40625 15.921875 
L 64.40625 5.609375 
Q 59.234375 2.09375 53.4375 0.328125 
Q 47.65625 -1.421875 41.21875 -1.421875 
Q 24.65625 -1.421875 15.125 8.703125 
Q 5.609375 18.84375 5.609375 36.375 
Q 5.609375 53.953125 15.125 64.078125 
Q 24.65625 74.21875 41.21875 74.21875 
Q 47.75 74.21875 53.53125 72.484375 
Q 59.328125 70.75 64.40625 67.28125 
z
" id="DejaVuSans-67"/>
       <path d="M 30.609375 48.390625 
Q 23.390625 48.390625 19.1875 42.75 
Q 14.984375 37.109375 14.984375 27.296875 
Q 14.984375 17.484375 19.15625 11.84375 
Q 23.34375 6.203125 30.609375 6.203125 
Q 37.796875 6.203125 41.984375 11.859375 
Q 46.1875 17.53125 46.1875 27.296875 
Q 46.1875 37.015625 41.984375 42.703125 
Q 37.796875 48.390625 30.609375 48.390625 
z
M 30.609375 56 
Q 42.328125 56 49.015625 48.375 
Q 55.71875 40.765625 55.71875 27.296875 
Q 55.71875 13.875 49.015625 6.21875 
Q 42.328125 -1.421875 30.609375 -1.421875 
Q 18.84375 -1.421875 12.171875 6.21875 
Q 5.515625 13.875 5.515625 27.296875 
Q 5.515625 40.765625 12.171875 48.375 
Q 18.84375 56 30.609375 56 
z
" id="DejaVuSans-111"/>
       <path d="M 54.890625 33.015625 
L 54.890625 0 
L 45.90625 0 
L 45.90625 32.71875 
Q 45.90625 40.484375 42.875 44.328125 
Q 39.84375 48.1875 33.796875 48.1875 
Q 26.515625 48.1875 22.3125 43.546875 
Q 18.109375 38.921875 18.109375 30.90625 
L 18.109375 0 
L 9.078125 0 
L 9.078125 54.6875 
L 18.109375 54.6875 
L 18.109375 46.1875 
Q 21.34375 51.125 25.703125 53.5625 
Q 30.078125 56 35.796875 56 
Q 45.21875 56 50.046875 50.171875 
Q 54.890625 44.34375 54.890625 33.015625 
z
" id="DejaVuSans-110"/>
       <path d="M 48.78125 52.59375 
L 48.78125 44.1875 
Q 44.96875 46.296875 41.140625 47.34375 
Q 37.3125 48.390625 33.40625 48.390625 
Q 24.65625 48.390625 19.8125 42.84375 
Q 14.984375 37.3125 14.984375 27.296875 
Q 14.984375 17.28125 19.8125 11.734375 
Q 24.65625 6.203125 33.40625 6.203125 
Q 37.3125 6.203125 41.140625 7.25 
Q 44.96875 8.296875 48.78125 10.40625 
L 48.78125 2.09375 
Q 45.015625 0.34375 40.984375 -0.53125 
Q 36.96875 -1.421875 32.421875 -1.421875 
Q 20.0625 -1.421875 12.78125 6.34375 
Q 5.515625 14.109375 5.515625 27.296875 
Q 5.515625 40.671875 12.859375 48.328125 
Q 20.21875 56 33.015625 56 
Q 37.15625 56 41.109375 55.140625 
Q 45.0625 54.296875 48.78125 52.59375 
z
" id="DejaVuSans-99"/>
       <path d="M 8.5 21.578125 
L 8.5 54.6875 
L 17.484375 54.6875 
L 17.484375 21.921875 
Q 17.484375 14.15625 20.5 10.265625 
Q 23.53125 6.390625 29.59375 6.390625 
Q 36.859375 6.390625 41.078125 11.03125 
Q 45.3125 15.671875 45.3125 23.6875 
L 45.3125 54.6875 
L 54.296875 54.6875 
L 54.296875 0 
L 45.3125 0 
L 45.3125 8.40625 
Q 42.046875 3.421875 37.71875 1 
Q 33.40625 -1.421875 27.6875 -1.421875 
Q 18.265625 -1.421875 13.375 4.4375 
Q 8.5 10.296875 8.5 21.578125 
z
M 31.109375 56 
z
" id="DejaVuSans-117"/>
       <path d="M 41.109375 46.296875 
Q 39.59375 47.171875 37.8125 47.578125 
Q 36.03125 48 33.890625 48 
Q 26.265625 48 22.1875 43.046875 
Q 18.109375 38.09375 18.109375 28.8125 
L 18.109375 0 
L 9.078125 0 
L 9.078125 54.6875 
L 18.109375 54.6875 
L 18.109375 46.1875 
Q 20.953125 51.171875 25.484375 53.578125 
Q 30.03125 56 36.53125 56 
Q 37.453125 56 38.578125 55.875 
Q 39.703125 55.765625 41.0625 55.515625 
z
" id="DejaVuSans-114"/>
       <path d="M 56.203125 29.59375 
L 56.203125 25.203125 
L 14.890625 25.203125 
Q 15.484375 15.921875 20.484375 11.0625 
Q 25.484375 6.203125 34.421875 6.203125 
Q 39.59375 6.203125 44.453125 7.46875 
Q 49.3125 8.734375 54.109375 11.28125 
L 54.109375 2.78125 
Q 49.265625 0.734375 44.1875 -0.34375 
Q 39.109375 -1.421875 33.890625 -1.421875 
Q 20.796875 -1.421875 13.15625 6.1875 
Q 5.515625 13.8125 5.515625 26.8125 
Q 5.515625 40.234375 12.765625 48.109375 
Q 20.015625 56 32.328125 56 
Q 43.359375 56 49.78125 48.890625 
Q 56.203125 41.796875 56.203125 29.59375 
z
M 47.21875 32.234375 
Q 47.125 39.59375 43.09375 43.984375 
Q 39.0625 48.390625 32.421875 48.390625 
Q 24.90625 48.390625 20.390625 44.140625 
Q 15.875 39.890625 15.1875 32.171875 
z
" id="DejaVuSans-101"/>
       <path d="M 18.3125 70.21875 
L 18.3125 54.6875 
L 36.8125 54.6875 
L 36.8125 47.703125 
L 18.3125 47.703125 
L 18.3125 18.015625 
Q 18.3125 11.328125 20.140625 9.421875 
Q 21.96875 7.515625 27.59375 7.515625 
L 36.8125 7.515625 
L 36.8125 0 
L 27.59375 0 
Q 17.1875 0 13.234375 3.875 
Q 9.28125 7.765625 9.28125 18.015625 
L 9.28125 47.703125 
L 2.6875 47.703125 
L 2.6875 54.6875 
L 9.28125 54.6875 
L 9.28125 70.21875 
z
" id="DejaVuSans-116"/>
       <path id="DejaVuSans-32"/>
       <path d="M 34.28125 27.484375 
Q 23.390625 27.484375 19.1875 25 
Q 14.984375 22.515625 14.984375 16.5 
Q 14.984375 11.71875 18.140625 8.90625 
Q 21.296875 6.109375 26.703125 6.109375 
Q 34.1875 6.109375 38.703125 11.40625 
Q 43.21875 16.703125 43.21875 25.484375 
L 43.21875 27.484375 
z
M 52.203125 31.203125 
L 52.203125 0 
L 43.21875 0 
L 43.21875 8.296875 
Q 40.140625 3.328125 35.546875 0.953125 
Q 30.953125 -1.421875 24.3125 -1.421875 
Q 15.921875 -1.421875 10.953125 3.296875 
Q 6 8.015625 6 15.921875 
Q 6 25.140625 12.171875 29.828125 
Q 18.359375 34.515625 30.609375 34.515625 
L 43.21875 34.515625 
L 43.21875 35.40625 
Q 43.21875 41.609375 39.140625 45 
Q 35.0625 48.390625 27.6875 48.390625 
Q 23 48.390625 18.546875 47.265625 
Q 14.109375 46.140625 10.015625 43.890625 
L 10.015625 52.203125 
Q 14.9375 54.109375 19.578125 55.046875 
Q 24.21875 56 28.609375 56 
Q 40.484375 56 46.34375 49.84375 
Q 52.203125 43.703125 52.203125 31.203125 
z
" id="DejaVuSans-97"/>
       <path d="M 18.109375 8.203125 
L 18.109375 -20.796875 
L 9.078125 -20.796875 
L 9.078125 54.6875 
L 18.109375 54.6875 
L 18.109375 46.390625 
Q 20.953125 51.265625 25.265625 53.625 
Q 29.59375 56 35.59375 56 
Q 45.5625 56 51.78125 48.09375 
Q 58.015625 40.1875 58.015625 27.296875 
Q 58.015625 14.40625 51.78125 6.484375 
Q 45.5625 -1.421875 35.59375 -1.421875 
Q 29.59375 -1.421875 25.265625 0.953125 
Q 20.953125 3.328125 18.109375 8.203125 
z
M 48.6875 27.296875 
Q 48.6875 37.203125 44.609375 42.84375 
Q 40.53125 48.484375 33.40625 48.484375 
Q 26.265625 48.484375 22.1875 42.84375 
Q 18.109375 37.203125 18.109375 27.296875 
Q 18.109375 17.390625 22.1875 11.75 
Q 26.265625 6.109375 33.40625 6.109375 
Q 40.53125 6.109375 44.609375 11.75 
Q 48.6875 17.390625 48.6875 27.296875 
z
" id="DejaVuSans-112"/>
       <path d="M 9.421875 75.984375 
L 18.40625 75.984375 
L 18.40625 0 
L 9.421875 0 
z
" id="DejaVuSans-108"/>
       <path d="M 9.421875 54.6875 
L 18.40625 54.6875 
L 18.40625 0 
L 9.421875 0 
z
M 9.421875 75.984375 
L 18.40625 75.984375 
L 18.40625 64.59375 
L 9.421875 64.59375 
z
" id="DejaVuSans-105"/>
       <path d="M 44.28125 53.078125 
L 44.28125 44.578125 
Q 40.484375 46.53125 36.375 47.5 
Q 32.28125 48.484375 27.875 48.484375 
Q 21.1875 48.484375 17.84375 46.4375 
Q 14.5 44.390625 14.5 40.28125 
Q 14.5 37.15625 16.890625 35.375 
Q 19.28125 33.59375 26.515625 31.984375 
L 29.59375 31.296875 
Q 39.15625 29.25 43.1875 25.515625 
Q 47.21875 21.78125 47.21875 15.09375 
Q 47.21875 7.46875 41.1875 3.015625 
Q 35.15625 -1.421875 24.609375 -1.421875 
Q 20.21875 -1.421875 15.453125 -0.5625 
Q 10.6875 0.296875 5.421875 2 
L 5.421875 11.28125 
Q 10.40625 8.6875 15.234375 7.390625 
Q 20.0625 6.109375 24.8125 6.109375 
Q 31.15625 6.109375 34.5625 8.28125 
Q 37.984375 10.453125 37.984375 14.40625 
Q 37.984375 18.0625 35.515625 20.015625 
Q 33.0625 21.96875 24.703125 23.78125 
L 21.578125 24.515625 
Q 13.234375 26.265625 9.515625 29.90625 
Q 5.8125 33.546875 5.8125 39.890625 
Q 5.8125 47.609375 11.28125 51.796875 
Q 16.75 56 26.8125 56 
Q 31.78125 56 36.171875 55.265625 
Q 40.578125 54.546875 44.28125 53.078125 
z
" id="DejaVuSans-115"/>
      </defs>
      <use xlink:href="#DejaVuSans-67"/>
      <use x="69.824219" xlink:href="#DejaVuSans-111"/>
      <use x="131.005859" xlink:href="#DejaVuSans-110"/>
      <use x="194.384766" xlink:href="#DejaVuSans-99"/>
      <use x="249.365234" xlink:href="#DejaVuSans-117"/>
      <use x="312.744141" xlink:href="#DejaVuSans-114"/>
      <use x="352.107422" xlink:href="#DejaVuSans-114"/>
      <use x="390.970703" xlink:href="#DejaVuSans-101"/>
      <use x="452.494141" xlink:href="#DejaVuSans-110"/>
      <use x="515.873047" xlink:href="#DejaVuSans-116"/>
      <use x="555.082031" xlink:href="#DejaVuSans-32"/>
      <use x="586.869141" xlink:href="#DejaVuSans-97"/>
      <use x="648.148438" xlink:href="#DejaVuSans-112"/>
      <use x="711.625" xlink:href="#DejaVuSans-112"/>
      <use x="775.101562" xlink:href="#DejaVuSans-108"/>
      <use x="802.884766" xlink:href="#DejaVuSans-105"/>
      <use x="830.667969" xlink:href="#DejaVuSans-99"/>
      <use x="885.648438" xlink:href="#DejaVuSans-97"/>
      <use x="946.927734" xlink:href="#DejaVuSans-116"/>
      <use x="986.136719" xlink:href="#DejaVuSans-105"/>
      <use x="1013.919922" xlink:href="#DejaVuSans-111"/>
      <use x="1075.101562" xlink:href="#DejaVuSans-110"/>
      <use x="1138.480469" xlink:href="#DejaVuSans-115"/>
     </g>
    </g>
   </g>
   <g id="matplotlib.axis_2">
    <g id="ytick_1">
     <g id="line2d_8">
      <defs>
       <path d="M 0 0 
L -3.5 0 
" id="m494c5a0d05" style="stroke:#000000;stroke-width:0.8;"/>
      </defs>
      <g>
       <use style="stroke:#000000;stroke-width:0.8;" x="45" xlink:href="#m494c5a0d05" y="320.4"/>
      </g>
     </g>
     <g id="text_9">
      <!-- 0.00 -->
      <g transform="translate(20.1875 323.439375)scale(0.08 -0.08)">
       <defs>
        <path d="M 10.6875 12.40625 
L 21 12.40625 
L 21 0 
L 10.6875 0 
z
" id="DejaVuSans-46"/>
       </defs>
       <use xlink:href="#DejaVuSans-48"/>
       <use x="63.623047" xlink:href="#DejaVuSans-46"/>
       <use x="95.410156" xlink:href="#DejaVuSans-48"/>
       <use x="159.033203" xlink:href="#DejaVuSans-48"/>
      </g>
     </g>
    </g>
    <g id="ytick_2">
     <g id="line2d_9">
      <g>
       <use style="stroke:#000000;stroke-width:0.8;" x="45" xlink:href="#m494c5a0d05" y="285.75"/>
      </g>
     </g>
     <g id="text_10">
      <!-- 0.25 -->
      <g transform="translate(20.1875 288.789375)scale(0.08 -0.08)">
       <use xlink:href="#DejaVuSans-48"/>
       <use x="63.623047" xlink:href="#DejaVuSans-46"/>
       <use x="95.410156" xlink:href="#DejaVuSans-50"/>
       <use x="159.033203" xlink:href="#DejaVuSans-53"/>
      </g>
     </g>
    </g>
    <g id="ytick_3">
     <g id="line2d_10">
      <g>
       <use style="stroke:#000000;stroke-width:0.8;" x="45" xlink:href="#m494c5a0d05" y="251.1"/>
      </g>
     </g>
     <g id="text_11">
      <!-- 0.50 -->
      <g transform="translate(20.1875 254.139375)scale(0.08 -0.08)">
       <use xlink:href="#DejaVuSans-48"/>
       <use x="63.623047" xlink:href="#DejaVuSans-46"/>
       <use x="95.410156" xlink:href="#DejaVuSans-53"/>
       <use x="159.033203" xlink:href="#DejaVuSans-48"/>
      </g>
     </g>
    </g>
    <g id="ytick_4">
     <g id="line2d_11">
      <g>
       <use style="stroke:#000000;stroke-width:0.8;" x="45" xlink:href="#m494c5a0d05" y="216.45"/>
      </g>
     </g>
     <g id="text_12">
      <!-- 0.75 -->
      <g transform="translate(20.1875 219.489375)scale(0.08 -0.08)">
       <defs>
        <path d="M 8.203125 72.90625 
L 55.078125 72.90625 
L 55.078125 68.703125 
L 28.609375 0 
L 18.3125 0 
L 43.21875 64.59375 
L 8.203125 64.59375 
z
" id="DejaVuSans-55"/>
       </defs>
       <use xlink:href="#DejaVuSans-48"/>
       <use x="63.623047" xlink:href="#DejaVuSans-46"/>
       <use x="95.410156" xlink:href="#DejaVuSans-55"/>
       <use x="159.033203" xlink:href="#DejaVuSans-53"/>
      </g>
     </g>
    </g>
    <g id="ytick_5">
     <g id="line2d_12">
      <g>
       <use style="stroke:#000000;stroke-width:0.8;" x="45" xlink:href="#m494c5a0d05" y="181.8"/>
      </g>
     </g>
     <g id="text_13">
      <!-- 1.00 -->
      <g transform="translate(20.1875 184.839375)scale(0.08 -0.08)">
       <use xlink:href="#DejaVuSans-49"/>
       <use x="63.623047" xlink:href="#DejaVuSans-46"/>
       <use x="95.410156" xlink:href="#DejaVuSans-48"/>
       <use x="159.033203" xlink:href="#DejaVuSans-48"/>
      </g>
     </g>
    </g>
    <g id="ytick_6">
     <g id="line2d_13">
      <g>
       <use style="stroke:#000000;stroke-width:0.8;" x="45" xlink:href="#m494c5a0d05" y="147.15"/>
      </g>
     </g>
     <g id="text_14">
      <!-- 1.25 -->
      <g transform="translate(20.1875 150.189375)scale(0.08 -0.08)">
       <use xlink:href="#DejaVuSans-49"/>
       <use x="63.623047" xlink:href="#DejaVuSans-46"/>
       <use x="95.410156" xlink:href="#DejaVuSans-50"/>
       <use x="159.033203" xlink:href="#DejaVuSans-53"/>
      </g>
     </g>
    </g>
    <g id="ytick_7">
     <g id="line2d_14">
      <g>
       <use style="stroke:#000000;stroke-width:0.8;" x="45" xlink:href="#m494c5a0d05" y="112.5"/>
      </g>
     </g>
     <g id="text_15">
      <!-- 1.50 -->
      <g transform="translate(20.1875 115.539375)scale(0.08 -0.08)">
       <use xlink:href="#DejaVuSans-49"/>
       <use x="63.623047" xlink:href="#DejaVuSans-46"/>
       <use x="95.410156" xlink:href="#DejaVuSans-53"/>
       <use x="159.033203" xlink:href="#DejaVuSans-48"/>
      </g>
     </g>
    </g>
    <g id="ytick_8">
     <g id="line2d_15">
      <g>
       <use style="stroke:#000000;stroke-width:0.8;" x="45" xlink:href="#m494c5a0d05" y="77.85"/>
      </g>
     </g>
     <g id="text_16">
      <!-- 1.75 -->
      <g transform="translate(20.1875 80.889375)scale(0.08 -0.08)">
       <use xlink:href="#DejaVuSans-49"/>
       <use x="63.623047" xlink:href="#DejaVuSans-46"/>
       <use x="95.410156" xlink:href="#DejaVuSans-55"/>
       <use x="159.033203" xlink:href="#DejaVuSans-53"/>
      </g>
     </g>
    </g>
    <g id="ytick_9">
     <g id="line2d_16">
      <g>
       <use style="stroke:#000000;stroke-width:0.8;" x="45" xlink:href="#m494c5a0d05" y="43.2"/>
      </g>
     </g>
     <g id="text_17">
      <!-- 2.00 -->
      <g transform="translate(20.1875 46.239375)scale(0.08 -0.08)">
       <use xlink:href="#DejaVuSans-50"/>
       <use x="63.623047" xlink:href="#DejaVuSans-46"/>
       <use x="95.410156" xlink:href="#DejaVuSans-48"/>
       <use x="159.033203" xlink:href="#DejaVuSans-48"/>
      </g>
     </g>
    </g>
    <g id="text_18">
     <!-- Simulation time (seconds) -->
     <g transform="translate(14.52375 234.156875)rotate(-90)scale(0.08 -0.08)">
      <defs>
       <path d="M 53.515625 70.515625 
L 53.515625 60.890625 
Q 47.90625 63.578125 42.921875 64.890625 
Q 37.9375 66.21875 33.296875 66.21875 
Q 25.25 66.21875 20.875 63.09375 
Q 16.5 59.96875 16.5 54.203125 
Q 16.5 49.359375 19.40625 46.890625 
Q 22.3125 44.4375 30.421875 42.921875 
L 36.375 41.703125 
Q 47.40625 39.59375 52.65625 34.296875 
Q 57.90625 29 57.90625 20.125 
Q 57.90625 9.515625 50.796875 4.046875 
Q 43.703125 -1.421875 29.984375 -1.421875 
Q 24.8125 -1.421875 18.96875 -0.25 
Q 13.140625 0.921875 6.890625 3.21875 
L 6.890625 13.375 
Q 12.890625 10.015625 18.65625 8.296875 
Q 24.421875 6.59375 29.984375 6.59375 
Q 38.421875 6.59375 43.015625 9.90625 
Q 47.609375 13.234375 47.609375 19.390625 
Q 47.609375 24.75 44.3125 27.78125 
Q 41.015625 30.8125 33.5 32.328125 
L 27.484375 33.5 
Q 16.453125 35.6875 11.515625 40.375 
Q 6.59375 45.0625 6.59375 53.421875 
Q 6.59375 63.09375 13.40625 68.65625 
Q 20.21875 74.21875 32.171875 74.21875 
Q 37.3125 74.21875 42.625 73.28125 
Q 47.953125 72.359375 53.515625 70.515625 
z
" id="DejaVuSans-83"/>
       <path d="M 52 44.1875 
Q 55.375 50.25 60.0625 53.125 
Q 64.75 56 71.09375 56 
Q 79.640625 56 84.28125 50.015625 
Q 88.921875 44.046875 88.921875 33.015625 
L 88.921875 0 
L 79.890625 0 
L 79.890625 32.71875 
Q 79.890625 40.578125 77.09375 44.375 
Q 74.3125 48.1875 68.609375 48.1875 
Q 61.625 48.1875 57.5625 43.546875 
Q 53.515625 38.921875 53.515625 30.90625 
L 53.515625 0 
L 44.484375 0 
L 44.484375 32.71875 
Q 44.484375 40.625 41.703125 44.40625 
Q 38.921875 48.1875 33.109375 48.1875 
Q 26.21875 48.1875 22.15625 43.53125 
Q 18.109375 38.875 18.109375 30.90625 
L 18.109375 0 
L 9.078125 0 
L 9.078125 54.6875 
L 18.109375 54.6875 
L 18.109375 46.1875 
Q 21.1875 51.21875 25.484375 53.609375 
Q 29.78125 56 35.6875 56 
Q 41.65625 56 45.828125 52.96875 
Q 50 49.953125 52 44.1875 
z
" id="DejaVuSans-109"/>
       <path d="M 31 75.875 
Q 24.46875 64.65625 21.28125 53.65625 
Q 18.109375 42.671875 18.109375 31.390625 
Q 18.109375 20.125 21.3125 9.0625 
Q 24.515625 -2 31 -13.1875 
L 23.1875 -13.1875 
Q 15.875 -1.703125 12.234375 9.375 
Q 8.59375 20.453125 8.59375 31.390625 
Q 8.59375 42.28125 12.203125 53.3125 
Q 15.828125 64.359375 23.1875 75.875 
z
" id="DejaVuSans-40"/>
       <path d="M 45.40625 46.390625 
L 45.40625 75.984375 
L 54.390625 75.984375 
L 54.390625 0 
L 45.40625 0 
L 45.40625 8.203125 
Q 42.578125 3.328125 38.25 0.953125 
Q 33.9375 -1.421875 27.875 -1.421875 
Q 17.96875 -1.421875 11.734375 6.484375 
Q 5.515625 14.40625 5.515625 27.296875 
Q 5.515625 40.1875 11.734375 48.09375 
Q 17.96875 56 27.875 56 
Q 33.9375 56 38.25 53.625 
Q 42.578125 51.265625 45.40625 46.390625 
z
M 14.796875 27.296875 
Q 14.796875 17.390625 18.875 11.75 
Q 22.953125 6.109375 30.078125 6.109375 
Q 37.203125 6.109375 41.296875 11.75 
Q 45.40625 17.390625 45.40625 27.296875 
Q 45.40625 37.203125 41.296875 42.84375 
Q 37.203125 48.484375 30.078125 48.484375 
Q 22.953125 48.484375 18.875 42.84375 
Q 14.796875 37.203125 14.796875 27.296875 
z
" id="DejaVuSans-100"/>
       <path d="M 8.015625 75.875 
L 15.828125 75.875 
Q 23.140625 64.359375 26.78125 53.3125 
Q 30.421875 42.28125 30.421875 31.390625 
Q 30.421875 20.453125 26.78125 9.375 
Q 23.140625 -1.703125 15.828125 -13.1875 
L 8.015625 -13.1875 
Q 14.5 -2 17.703125 9.0625 
Q 20.90625 20.125 20.90625 31.390625 
Q 20.90625 42.671875 17.703125 53.65625 
Q 14.5 64.65625 8.015625 75.875 
z
" id="DejaVuSans-41"/>
      </defs>
      <use xlink:href="#DejaVuSans-83"/>
      <use x="63.476562" xlink:href="#DejaVuSans-105"/>
      <use x="91.259766" xlink:href="#DejaVuSans-109"/>
      <use x="188.671875" xlink:href="#DejaVuSans-117"/>
      <use x="252.050781" xlink:href="#DejaVuSans-108"/>
      <use x="279.833984" xlink:href="#DejaVuSans-97"/>
      <use x="341.113281" xlink:href="#DejaVuSans-116"/>
      <use x="380.322266" xlink:href="#DejaVuSans-105"/>
      <use x="408.105469" xlink:href="#DejaVuSans-111"/>
      <use x="469.287109" xlink:href="#DejaVuSans-110"/>
      <use x="532.666016" xlink:href="#DejaVuSans-32"/>
      <use x="564.453125" xlink:href="#DejaVuSans-116"/>
      <use x="603.662109" xlink:href="#DejaVuSans-105"/>
      <use x="631.445312" xlink:href="#DejaVuSans-109"/>
      <use x="728.857422" xlink:href="#DejaVuSans-101"/>
      <use x="790.380859" xlink:href="#DejaVuSans-32"/>
      <use x="822.167969" xlink:href="#DejaVuSans-40"/>
      <use x="861.181641" xlink:href="#DejaVuSans-115"/>
      <use x="913.28125" xlink:href="#DejaVuSans-101"/>
      <use x="974.804688" xlink:href="#DejaVuSans-99"/>
      <use x="1029.785156" xlink:href="#DejaVuSans-111"/>
      <use x="1090.966797" xlink:href="#DejaVuSans-110"/>
      <use x="1154.345703" xlink:href="#DejaVuSans-100"/>
      <use x="1217.822266" xlink:href="#DejaVuSans-115"/>
      <use x="1269.921875" xlink:href="#DejaVuSans-41"/>
     </g>
    </g>
   </g>
   <g id="line2d_17">
    <path clip-path="url(#p147c3838f5)" d="M 57.681818 316.495181 
L 65.863636 315.213843 
L 74.045455 313.932504 
L 82.227273 312.651165 
L 90.409091 311.369826 
L 98.590909 310.088488 
L 106.772727 308.807149 
L 114.954545 307.52581 
L 123.136364 306.244472 
L 131.318182 304.963133 
L 139.5 303.681794 
L 147.681818 302.400455 
L 155.863636 301.119117 
L 164.045455 299.837778 
L 172.227273 298.556439 
L 180.409091 297.275101 
L 188.590909 295.993762 
L 196.772727 294.712423 
L 204.954545 293.431084 
L 213.136364 292.149746 
L 221.318182 290.868407 
L 229.5 289.587068 
L 237.681818 288.30573 
L 245.863636 287.024391 
L 254.045455 285.743052 
L 262.227273 284.461714 
L 270.409091 283.180375 
L 278.590909 281.899036 
L 286.772727 280.617697 
L 294.954545 279.336359 
L 303.136364 278.05502 
L 311.318182 276.773681 
L 57.681818 316.495181 
L 65.863636 315.213843 
L 74.045455 313.932504 
L 82.227273 312.651165 
L 90.409091 311.369826 
L 98.590909 310.088488 
L 106.772727 308.807149 
L 114.954545 307.52581 
L 123.136364 306.244472 
L 131.318182 304.963133 
L 139.5 303.681794 
L 147.681818 302.400455 
L 155.863636 301.119117 
L 164.045455 299.837778 
L 172.227273 298.556439 
L 180.409091 297.275101 
L 188.590909 295.993762 
L 196.772727 294.712423 
L 204.954545 293.431084 
L 213.136364 292.149746 
L 221.318182 290.868407 
L 229.5 289.587068 
L 237.681818 288.30573 
L 245.863636 287.024391 
L 254.045455 285.743052 
L 262.227273 284.461714 
L 270.409091 283.180375 
L 278.590909 281.899036 
L 286.772727 280.617697 
L 294.954545 279.336359 
L 303.136364 278.05502 
L 311.318182 276.773681 
" style="fill:none;stroke:#994f88;stroke-linecap:square;"/>
   </g>
   <g id="line2d_18">
    <path clip-path="url(#p147c3838f5)" d="M 57.681818 340.734037 
L 65.863636 334.372206 
L 74.045455 328.010375 
L 82.227273 321.648543 
L 90.409091 315.286712 
L 98.590909 308.92488 
L 106.772727 302.563049 
L 114.954545 296.201217 
L 123.136364 289.839386 
L 131.318182 283.477554 
L 139.5 277.115723 
L 147.681818 270.753892 
L 155.863636 264.39206 
L 164.045455 258.030229 
L 172.227273 251.668397 
L 180.409091 245.306566 
L 188.590909 238.944734 
L 196.772727 232.582903 
L 204.954545 226.221071 
L 213.136364 219.85924 
L 221.318182 213.497408 
L 229.5 207.135577 
L 237.681818 200.773746 
L 245.863636 194.411914 
L 254.045455 188.050083 
L 262.227273 181.688251 
L 270.409091 175.32642 
L 278.590909 168.964588 
L 286.772727 162.602757 
L 294.954545 156.240925 
L 303.136364 149.879094 
L 311.318182 143.517262 
" style="fill:none;stroke:#1965b0;stroke-linecap:square;"/>
   </g>
   <g id="line2d_19">
    <path clip-path="url(#p147c3838f5)" d="M 57.681818 332.6472 
L 65.863636 327.489202 
L 74.045455 322.331204 
L 82.227273 317.173206 
L 90.409091 312.015208 
L 98.590909 306.85721 
L 106.772727 301.699212 
L 114.954545 296.541214 
L 123.136364 291.383216 
L 131.318182 286.225218 
L 139.5 281.06722 
L 147.681818 275.909222 
L 155.863636 270.751224 
L 164.045455 265.593226 
L 172.227273 260.435228 
L 180.409091 255.27723 
L 188.590909 250.119232 
L 196.772727 244.961234 
L 204.954545 239.803236 
L 213.136364 234.645238 
L 221.318182 229.48724 
L 229.5 224.329242 
L 237.681818 219.171244 
L 245.863636 214.013246 
L 254.045455 208.855248 
L 262.227273 203.69725 
L 270.409091 198.539252 
L 278.590909 193.381254 
L 286.772727 188.223256 
L 294.954545 183.065258 
L 303.136364 177.90726 
L 311.318182 172.749262 
" style="fill:none;stroke:#1965b0;stroke-dasharray:1,1.65;stroke-dashoffset:0;"/>
   </g>
   <g id="patch_3">
    <path d="M 45 320.4 
L 45 43.2 
" style="fill:none;stroke:#000000;stroke-linecap:square;stroke-linejoin:miter;stroke-width:0.8;"/>
   </g>
   <g id="patch_4">
    <path d="M 324 320.4 
L 324 43.2 
" style="fill:none;stroke:#000000;stroke-linecap:square;stroke-linejoin:miter;stroke-width:0.8;"/>
   </g>
   <g id="patch_5">
    <path d="M 45 320.4 
L 324 320.4 
" style="fill:none;stroke:#000000;stroke-linecap:square;stroke-linejoin:miter;stroke-width:0.8;"/>
   </g>
   <g id="patch_6">
    <path d="M 45 43.2 
L 324 43.2 
" style="fill:none;stroke:#000000;stroke-linecap:square;stroke-linejoin:miter;stroke-width:0.8;"/>
   </g>
   <g id="text_19">
    <!-- y=0.01x+0.02 -->
    <g style="fill:#994f88;" transform="translate(213.136364 306.54)scale(0.08 -0.08)">
     <defs>
      <path d="M 32.171875 -5.078125 
Q 28.375 -14.84375 24.75 -17.8125 
Q 21.140625 -20.796875 15.09375 -20.796875 
L 7.90625 -20.796875 
L 7.90625 -13.28125 
L 13.1875 -13.28125 
Q 16.890625 -13.28125 18.9375 -11.515625 
Q 21 -9.765625 23.484375 -3.21875 
L 25.09375 0.875 
L 2.984375 54.6875 
L 12.5 54.6875 
L 29.59375 11.921875 
L 46.6875 54.6875 
L 56.203125 54.6875 
z
" id="DejaVuSans-121"/>
      <path d="M 10.59375 45.40625 
L 73.1875 45.40625 
L 73.1875 37.203125 
L 10.59375 37.203125 
z
M 10.59375 25.484375 
L 73.1875 25.484375 
L 73.1875 17.1875 
L 10.59375 17.1875 
z
" id="DejaVuSans-61"/>
      <path d="M 54.890625 54.6875 
L 35.109375 28.078125 
L 55.90625 0 
L 45.3125 0 
L 29.390625 21.484375 
L 13.484375 0 
L 2.875 0 
L 24.125 28.609375 
L 4.6875 54.6875 
L 15.28125 54.6875 
L 29.78125 35.203125 
L 44.28125 54.6875 
z
" id="DejaVuSans-120"/>
      <path d="M 46 62.703125 
L 46 35.5 
L 73.1875 35.5 
L 73.1875 27.203125 
L 46 27.203125 
L 46 0 
L 37.796875 0 
L 37.796875 27.203125 
L 10.59375 27.203125 
L 10.59375 35.5 
L 37.796875 35.5 
L 37.796875 62.703125 
z
" id="DejaVuSans-43"/>
     </defs>
     <use xlink:href="#DejaVuSans-121"/>
     <use x="59.179688" xlink:href="#DejaVuSans-61"/>
     <use x="142.96875" xlink:href="#DejaVuSans-48"/>
     <use x="206.591797" xlink:href="#DejaVuSans-46"/>
     <use x="238.378906" xlink:href="#DejaVuSans-48"/>
     <use x="302.001953" xlink:href="#DejaVuSans-49"/>
     <use x="365.625" xlink:href="#DejaVuSans-120"/>
     <use x="424.804688" xlink:href="#DejaVuSans-43"/>
     <use x="508.59375" xlink:href="#DejaVuSans-48"/>
     <use x="572.216797" xlink:href="#DejaVuSans-46"/>
     <use x="604.003906" xlink:href="#DejaVuSans-48"/>
     <use x="667.626953" xlink:href="#DejaVuSans-50"/>
    </g>
   </g>
   <g id="text_20">
    <!-- y=0.05x-0.19 -->
    <g style="fill:#1965b0;" transform="translate(188.590909 181.8)scale(0.08 -0.08)">
     <defs>
      <path d="M 4.890625 31.390625 
L 31.203125 31.390625 
L 31.203125 23.390625 
L 4.890625 23.390625 
z
" id="DejaVuSans-45"/>
      <path d="M 10.984375 1.515625 
L 10.984375 10.5 
Q 14.703125 8.734375 18.5 7.8125 
Q 22.3125 6.890625 25.984375 6.890625 
Q 35.75 6.890625 40.890625 13.453125 
Q 46.046875 20.015625 46.78125 33.40625 
Q 43.953125 29.203125 39.59375 26.953125 
Q 35.25 24.703125 29.984375 24.703125 
Q 19.046875 24.703125 12.671875 31.3125 
Q 6.296875 37.9375 6.296875 49.421875 
Q 6.296875 60.640625 12.9375 67.421875 
Q 19.578125 74.21875 30.609375 74.21875 
Q 43.265625 74.21875 49.921875 64.515625 
Q 56.59375 54.828125 56.59375 36.375 
Q 56.59375 19.140625 48.40625 8.859375 
Q 40.234375 -1.421875 26.421875 -1.421875 
Q 22.703125 -1.421875 18.890625 -0.6875 
Q 15.09375 0.046875 10.984375 1.515625 
z
M 30.609375 32.421875 
Q 37.25 32.421875 41.125 36.953125 
Q 45.015625 41.5 45.015625 49.421875 
Q 45.015625 57.28125 41.125 61.84375 
Q 37.25 66.40625 30.609375 66.40625 
Q 23.96875 66.40625 20.09375 61.84375 
Q 16.21875 57.28125 16.21875 49.421875 
Q 16.21875 41.5 20.09375 36.953125 
Q 23.96875 32.421875 30.609375 32.421875 
z
" id="DejaVuSans-57"/>
     </defs>
     <use xlink:href="#DejaVuSans-121"/>
     <use x="59.179688" xlink:href="#DejaVuSans-61"/>
     <use x="142.96875" xlink:href="#DejaVuSans-48"/>
     <use x="206.591797" xlink:href="#DejaVuSans-46"/>
     <use x="238.378906" xlink:href="#DejaVuSans-48"/>
     <use x="302.001953" xlink:href="#DejaVuSans-53"/>
     <use x="365.625" xlink:href="#DejaVuSans-120"/>
     <use x="424.804688" xlink:href="#DejaVuSans-45"/>
     <use x="460.888672" xlink:href="#DejaVuSans-48"/>
     <use x="524.511719" xlink:href="#DejaVuSans-46"/>
     <use x="556.298828" xlink:href="#DejaVuSans-49"/>
     <use x="619.921875" xlink:href="#DejaVuSans-57"/>
    </g>
   </g>
   <g id="text_21">
    <!-- y=0.04x-0.13 -->
    <g style="fill:#1965b0;" transform="translate(270.409091 209.52)scale(0.08 -0.08)">
     <defs>
      <path d="M 37.796875 64.3125 
L 12.890625 25.390625 
L 37.796875 25.390625 
z
M 35.203125 72.90625 
L 47.609375 72.90625 
L 47.609375 25.390625 
L 58.015625 25.390625 
L 58.015625 17.1875 
L 47.609375 17.1875 
L 47.609375 0 
L 37.796875 0 
L 37.796875 17.1875 
L 4.890625 17.1875 
L 4.890625 26.703125 
z
" id="DejaVuSans-52"/>
     </defs>
     <use xlink:href="#DejaVuSans-121"/>
     <use x="59.179688" xlink:href="#DejaVuSans-61"/>
     <use x="142.96875" xlink:href="#DejaVuSans-48"/>
     <use x="206.591797" xlink:href="#DejaVuSans-46"/>
     <use x="238.378906" xlink:href="#DejaVuSans-48"/>
     <use x="302.001953" xlink:href="#DejaVuSans-52"/>
     <use x="365.625" xlink:href="#DejaVuSans-120"/>
     <use x="424.804688" xlink:href="#DejaVuSans-45"/>
     <use x="460.888672" xlink:href="#DejaVuSans-48"/>
     <use x="524.511719" xlink:href="#DejaVuSans-46"/>
     <use x="556.298828" xlink:href="#DejaVuSans-49"/>
     <use x="619.921875" xlink:href="#DejaVuSans-51"/>
    </g>
   </g>
   <g id="legend_1">
    <g id="patch_7">
     <path d="M 202.68375 96.57 
L 318.4 96.57 
Q 320 96.57 320 94.97 
L 320 48.8 
Q 320 47.2 318.4 47.2 
L 202.68375 47.2 
Q 201.08375 47.2 201.08375 48.8 
L 201.08375 94.97 
Q 201.08375 96.57 202.68375 96.57 
z
" style="fill:#ffffff;opacity:0.8;stroke:#cccccc;stroke-linejoin:miter;"/>
    </g>
    <g id="PathCollection_5">
     <g>
      <use style="fill:#994f88;stroke:#994f88;" x="212.28375" xlink:href="#m98373728c2" y="54.37875"/>
     </g>
    </g>
    <g id="text_22">
     <!-- WRENCH (local) -->
     <g transform="translate(226.68375 56.47875)scale(0.08 -0.08)">
      <defs>
       <path d="M 3.328125 72.90625 
L 13.28125 72.90625 
L 28.609375 11.28125 
L 43.890625 72.90625 
L 54.984375 72.90625 
L 70.3125 11.28125 
L 85.59375 72.90625 
L 95.609375 72.90625 
L 77.296875 0 
L 64.890625 0 
L 49.515625 63.28125 
L 33.984375 0 
L 21.578125 0 
z
" id="DejaVuSans-87"/>
       <path d="M 44.390625 34.1875 
Q 47.5625 33.109375 50.5625 29.59375 
Q 53.5625 26.078125 56.59375 19.921875 
L 66.609375 0 
L 56 0 
L 46.6875 18.703125 
Q 43.0625 26.03125 39.671875 28.421875 
Q 36.28125 30.8125 30.421875 30.8125 
L 19.671875 30.8125 
L 19.671875 0 
L 9.8125 0 
L 9.8125 72.90625 
L 32.078125 72.90625 
Q 44.578125 72.90625 50.734375 67.671875 
Q 56.890625 62.453125 56.890625 51.90625 
Q 56.890625 45.015625 53.6875 40.46875 
Q 50.484375 35.9375 44.390625 34.1875 
z
M 19.671875 64.796875 
L 19.671875 38.921875 
L 32.078125 38.921875 
Q 39.203125 38.921875 42.84375 42.21875 
Q 46.484375 45.515625 46.484375 51.90625 
Q 46.484375 58.296875 42.84375 61.546875 
Q 39.203125 64.796875 32.078125 64.796875 
z
" id="DejaVuSans-82"/>
       <path d="M 9.8125 72.90625 
L 55.90625 72.90625 
L 55.90625 64.59375 
L 19.671875 64.59375 
L 19.671875 43.015625 
L 54.390625 43.015625 
L 54.390625 34.71875 
L 19.671875 34.71875 
L 19.671875 8.296875 
L 56.78125 8.296875 
L 56.78125 0 
L 9.8125 0 
z
" id="DejaVuSans-69"/>
       <path d="M 9.8125 72.90625 
L 23.09375 72.90625 
L 55.421875 11.921875 
L 55.421875 72.90625 
L 64.984375 72.90625 
L 64.984375 0 
L 51.703125 0 
L 19.390625 60.984375 
L 19.390625 0 
L 9.8125 0 
z
" id="DejaVuSans-78"/>
       <path d="M 9.8125 72.90625 
L 19.671875 72.90625 
L 19.671875 43.015625 
L 55.515625 43.015625 
L 55.515625 72.90625 
L 65.375 72.90625 
L 65.375 0 
L 55.515625 0 
L 55.515625 34.71875 
L 19.671875 34.71875 
L 19.671875 0 
L 9.8125 0 
z
" id="DejaVuSans-72"/>
      </defs>
      <use xlink:href="#DejaVuSans-87"/>
      <use x="98.876953" xlink:href="#DejaVuSans-82"/>
      <use x="168.359375" xlink:href="#DejaVuSans-69"/>
      <use x="231.542969" xlink:href="#DejaVuSans-78"/>
      <use x="306.347656" xlink:href="#DejaVuSans-67"/>
      <use x="376.171875" xlink:href="#DejaVuSans-72"/>
      <use x="451.367188" xlink:href="#DejaVuSans-32"/>
      <use x="483.154297" xlink:href="#DejaVuSans-40"/>
      <use x="522.167969" xlink:href="#DejaVuSans-108"/>
      <use x="549.951172" xlink:href="#DejaVuSans-111"/>
      <use x="611.132812" xlink:href="#DejaVuSans-99"/>
      <use x="666.113281" xlink:href="#DejaVuSans-97"/>
      <use x="727.392578" xlink:href="#DejaVuSans-108"/>
      <use x="755.175781" xlink:href="#DejaVuSans-41"/>
     </g>
    </g>
    <g id="PathCollection_6">
     <path d="M 212.28375 67.702389 
C 212.703073 67.702389 213.105278 67.53579 213.401784 67.239284 
C 213.69829 66.942778 213.864889 66.540573 213.864889 66.12125 
C 213.864889 65.701927 213.69829 65.299722 213.401784 65.003216 
C 213.105278 64.70671 212.703073 64.540111 212.28375 64.540111 
C 211.864427 64.540111 211.462222 64.70671 211.165716 65.003216 
C 210.86921 65.299722 210.702611 65.701927 210.702611 66.12125 
C 210.702611 66.540573 210.86921 66.942778 211.165716 67.239284 
C 211.462222 67.53579 211.864427 67.702389 212.28375 67.702389 
z
" style="fill:none;stroke:#994f88;"/>
    </g>
    <g id="text_23">
     <!-- WRENCH (NFS) -->
     <g transform="translate(226.68375 68.22125)scale(0.08 -0.08)">
      <defs>
       <path d="M 9.8125 72.90625 
L 51.703125 72.90625 
L 51.703125 64.59375 
L 19.671875 64.59375 
L 19.671875 43.109375 
L 48.578125 43.109375 
L 48.578125 34.8125 
L 19.671875 34.8125 
L 19.671875 0 
L 9.8125 0 
z
" id="DejaVuSans-70"/>
      </defs>
      <use xlink:href="#DejaVuSans-87"/>
      <use x="98.876953" xlink:href="#DejaVuSans-82"/>
      <use x="168.359375" xlink:href="#DejaVuSans-69"/>
      <use x="231.542969" xlink:href="#DejaVuSans-78"/>
      <use x="306.347656" xlink:href="#DejaVuSans-67"/>
      <use x="376.171875" xlink:href="#DejaVuSans-72"/>
      <use x="451.367188" xlink:href="#DejaVuSans-32"/>
      <use x="483.154297" xlink:href="#DejaVuSans-40"/>
      <use x="522.167969" xlink:href="#DejaVuSans-78"/>
      <use x="596.972656" xlink:href="#DejaVuSans-70"/>
      <use x="652.742188" xlink:href="#DejaVuSans-83"/>
      <use x="716.21875" xlink:href="#DejaVuSans-41"/>
     </g>
    </g>
    <g id="PathCollection_7">
     <g>
      <use style="fill:#1965b0;stroke:#1965b0;" x="212.28375" xlink:href="#m526b483051" y="77.86375"/>
     </g>
    </g>
    <g id="text_24">
     <!-- WRENCH-cache (local) -->
     <g transform="translate(226.68375 79.96375)scale(0.08 -0.08)">
      <defs>
       <path d="M 54.890625 33.015625 
L 54.890625 0 
L 45.90625 0 
L 45.90625 32.71875 
Q 45.90625 40.484375 42.875 44.328125 
Q 39.84375 48.1875 33.796875 48.1875 
Q 26.515625 48.1875 22.3125 43.546875 
Q 18.109375 38.921875 18.109375 30.90625 
L 18.109375 0 
L 9.078125 0 
L 9.078125 75.984375 
L 18.109375 75.984375 
L 18.109375 46.1875 
Q 21.34375 51.125 25.703125 53.5625 
Q 30.078125 56 35.796875 56 
Q 45.21875 56 50.046875 50.171875 
Q 54.890625 44.34375 54.890625 33.015625 
z
" id="DejaVuSans-104"/>
      </defs>
      <use xlink:href="#DejaVuSans-87"/>
      <use x="98.876953" xlink:href="#DejaVuSans-82"/>
      <use x="168.359375" xlink:href="#DejaVuSans-69"/>
      <use x="231.542969" xlink:href="#DejaVuSans-78"/>
      <use x="306.347656" xlink:href="#DejaVuSans-67"/>
      <use x="376.171875" xlink:href="#DejaVuSans-72"/>
      <use x="451.367188" xlink:href="#DejaVuSans-45"/>
      <use x="487.451172" xlink:href="#DejaVuSans-99"/>
      <use x="542.431641" xlink:href="#DejaVuSans-97"/>
      <use x="603.710938" xlink:href="#DejaVuSans-99"/>
      <use x="658.691406" xlink:href="#DejaVuSans-104"/>
      <use x="722.070312" xlink:href="#DejaVuSans-101"/>
      <use x="783.59375" xlink:href="#DejaVuSans-32"/>
      <use x="815.380859" xlink:href="#DejaVuSans-40"/>
      <use x="854.394531" xlink:href="#DejaVuSans-108"/>
      <use x="882.177734" xlink:href="#DejaVuSans-111"/>
      <use x="943.359375" xlink:href="#DejaVuSans-99"/>
      <use x="998.339844" xlink:href="#DejaVuSans-97"/>
      <use x="1059.619141" xlink:href="#DejaVuSans-108"/>
      <use x="1087.402344" xlink:href="#DejaVuSans-41"/>
     </g>
    </g>
    <g id="PathCollection_8">
     <path d="M 212.28375 91.187389 
C 212.703073 91.187389 213.105278 91.02079 213.401784 90.724284 
C 213.69829 90.427778 213.864889 90.025573 213.864889 89.60625 
C 213.864889 89.186927 213.69829 88.784722 213.401784 88.488216 
C 213.105278 88.19171 212.703073 88.025111 212.28375 88.025111 
C 211.864427 88.025111 211.462222 88.19171 211.165716 88.488216 
C 210.86921 88.784722 210.702611 89.186927 210.702611 89.60625 
C 210.702611 90.025573 210.86921 90.427778 211.165716 90.724284 
C 211.462222 91.02079 211.864427 91.187389 212.28375 91.187389 
z
" style="fill:none;stroke:#1965b0;"/>
    </g>
    <g id="text_25">
     <!-- WRENCH-cache (NFS) -->
     <g transform="translate(226.68375 91.70625)scale(0.08 -0.08)">
      <use xlink:href="#DejaVuSans-87"/>
      <use x="98.876953" xlink:href="#DejaVuSans-82"/>
      <use x="168.359375" xlink:href="#DejaVuSans-69"/>
      <use x="231.542969" xlink:href="#DejaVuSans-78"/>
      <use x="306.347656" xlink:href="#DejaVuSans-67"/>
      <use x="376.171875" xlink:href="#DejaVuSans-72"/>
      <use x="451.367188" xlink:href="#DejaVuSans-45"/>
      <use x="487.451172" xlink:href="#DejaVuSans-99"/>
      <use x="542.431641" xlink:href="#DejaVuSans-97"/>
      <use x="603.710938" xlink:href="#DejaVuSans-99"/>
      <use x="658.691406" xlink:href="#DejaVuSans-104"/>
      <use x="722.070312" xlink:href="#DejaVuSans-101"/>
      <use x="783.59375" xlink:href="#DejaVuSans-32"/>
      <use x="815.380859" xlink:href="#DejaVuSans-40"/>
      <use x="854.394531" xlink:href="#DejaVuSans-78"/>
      <use x="929.199219" xlink:href="#DejaVuSans-70"/>
      <use x="984.96875" xlink:href="#DejaVuSans-83"/>
      <use x="1048.445312" xlink:href="#DejaVuSans-41"/>
     </g>
    </g>
   </g>
  </g>
 </g>
 <defs>
  <clipPath id="p147c3838f5">
   <rect height="277.2" width="279" x="45" y="43.2"/>
  </clipPath>
 </defs>
</svg>
